<svg width="80" height="80" viewBox="0 0 80 80" fill="none" xmlns="http://www.w3.org/2000/svg">
<rect width="80" height="80" rx="12" fill="#F1F6FB"/>
<g clip-path="url(#clip0_11800_2148)">
<path fill-rule="evenodd" clip-rule="evenodd" d="M23.2876 15.1382H51.9828C52.2406 15.1382 52.4624 15.2301 52.6447 15.4124L57.9004 20.6681C58.0827 20.8503 58.1746 21.0722 58.1746 21.33V60.6321C58.1746 61.1477 57.7541 61.5681 57.2386 61.5681H23.2876C22.772 61.5681 22.3516 61.1475 22.3516 60.6321V16.0742C22.3516 15.5587 22.772 15.1382 23.2876 15.1382Z" fill="#EFEDEF"/>
<path fill-rule="evenodd" clip-rule="evenodd" d="M56.3633 19.1304L57.9009 20.668C58.0832 20.8502 58.1751 21.0721 58.1751 21.3299V60.632C58.1751 61.1475 57.7545 61.568 57.239 61.568H56.3634V19.1304H56.3633Z" fill="#D1D1D6"/>
<path fill-rule="evenodd" clip-rule="evenodd" d="M43.2507 43.5261C42.7675 43.5261 42.3757 43.1343 42.3757 42.6511C42.3757 42.1679 42.7675 41.7761 43.2507 41.7761H54.4559C54.9391 41.7761 55.3309 42.1679 55.3309 42.6511C55.3309 43.1343 54.9391 43.5261 54.4559 43.5261H43.2507ZM43.2507 46.8138C42.7675 46.8138 42.3757 46.422 42.3757 45.9388C42.3757 45.4556 42.7675 45.0638 43.2507 45.0638H50.6417C51.125 45.0638 51.5167 45.4556 51.5167 45.9388C51.5167 46.422 51.125 46.8138 50.6417 46.8138H43.2507ZM37.98 28.1804C37.4987 28.1804 37.1084 27.7902 37.1084 27.3088C37.1084 26.8275 37.4987 26.4372 37.98 26.4372L54.4559 26.4239C54.9372 26.4239 55.3275 26.8141 55.3275 27.2955C55.3275 27.7768 54.9372 28.1671 54.4559 28.1671L37.98 28.1804ZM38.221 24.8962C37.7378 24.8962 37.346 24.5045 37.346 24.0212C37.346 23.538 37.7378 23.1462 38.221 23.1462H47.9389C48.4221 23.1462 48.8139 23.538 48.8139 24.0212C48.8139 24.5045 48.4221 24.8962 47.9389 24.8962H38.221ZM38.221 21.6086C37.7378 21.6086 37.346 21.2169 37.346 20.7336C37.346 20.2504 37.7378 19.8586 38.221 19.8586H47.9389C48.4221 19.8586 48.8139 20.2504 48.8139 20.7336C48.8139 21.2169 48.4221 21.6086 47.9389 21.6086H38.221ZM26.0703 32.5674C25.5871 32.5674 25.1953 32.1756 25.1953 31.6924C25.1953 31.2091 25.5871 30.8174 26.0703 30.8174H54.4559C54.9391 30.8174 55.3309 31.2091 55.3309 31.6924C55.3309 32.1756 54.9391 32.5674 54.4559 32.5674H26.0703ZM26.0703 35.855C25.5871 35.855 25.1953 35.4632 25.1953 34.98C25.1953 34.4967 25.5871 34.105 26.0703 34.105H49.8917C50.375 34.105 50.7667 34.4967 50.7667 34.98C50.7667 35.4632 50.375 35.855 49.8917 35.855H26.0703ZM26.0703 39.1427C25.5871 39.1427 25.1953 38.7509 25.1953 38.2677C25.1953 37.7844 25.5871 37.3927 26.0703 37.3927H50.31C50.7932 37.3927 51.185 37.7844 51.185 38.2677C51.185 38.7509 50.7932 39.1427 50.31 39.1427H26.0703Z" fill="#B5ADB6"/>
<path fill-rule="evenodd" clip-rule="evenodd" d="M52.3711 15.2192C52.4705 15.2646 52.562 15.3289 52.6453 15.4123L57.901 20.668C57.9842 20.7512 58.0486 20.8428 58.094 20.9422H52.8392C52.5814 20.9422 52.3712 20.732 52.3712 20.4742V15.2192H52.3711Z" fill="#B5ADB6"/>
<path fill-rule="evenodd" clip-rule="evenodd" d="M56.3633 19.1304L57.9009 20.668C57.9841 20.7512 58.0485 20.8427 58.0939 20.9422H56.3633V19.1304Z" fill="#B1B1B5"/>
<path fill-rule="evenodd" clip-rule="evenodd" d="M31.9894 56.3394L27.4141 60.1336L29.8677 65.8306C29.9466 66.0136 30.1981 66.0323 30.3032 65.8631L31.8872 63.3107L34.83 63.9134C35.0256 63.9533 35.1845 63.7579 35.1057 63.5746L31.9894 56.3394Z" fill="#ED2B4A"/>
<path fill-rule="evenodd" clip-rule="evenodd" d="M31.99 56.3394L31.385 56.8411L34.2851 63.5746C34.3192 63.6536 34.3089 63.735 34.2706 63.7986L34.8306 63.9133C35.0261 63.9531 35.1851 63.7577 35.1062 63.5745L31.99 56.3394ZM29.7188 65.483L31.1594 63.1615L31.8879 63.3107L30.3039 65.8631C30.1988 66.0324 29.9473 66.0136 29.8684 65.8306L29.7188 65.483Z" fill="#B73451"/>
<path fill-rule="evenodd" clip-rule="evenodd" d="M25.2375 59.839L21.9479 66.9048C21.8638 67.0854 21.6118 67.0969 21.5116 66.9246L20.0023 64.3274L17.0432 64.8445C16.8467 64.8788 16.6933 64.6787 16.7775 64.4979L20.0311 57.5093L25.2375 59.839Z" fill="#ED2B4A"/>
<path fill-rule="evenodd" clip-rule="evenodd" d="M25.2374 59.8401L21.9478 66.9059C21.8638 67.0865 21.6117 67.098 21.5116 66.9257L20.0023 64.3285L17.0432 64.8456C16.8466 64.8799 16.6932 64.6798 16.7776 64.4989L16.9777 64.0693L19.5868 63.6134L21.0961 66.2106C21.1963 66.383 21.4483 66.3716 21.5324 66.1908L24.6181 59.563L25.2374 59.8401Z" fill="#B73451"/>
<path fill-rule="evenodd" clip-rule="evenodd" d="M27.1887 42.4241C29.1557 43.8966 28.7096 43.7342 31.1629 43.8707C32.1052 43.9231 32.8704 44.5652 33.0858 45.4841C33.2891 46.3519 33.3885 47.4463 34.0512 48.0682L35.2005 49.1468C35.8886 49.7927 36.0621 50.7766 35.6364 51.6189C34.528 53.8118 34.6105 53.3442 34.902 55.7839C35.0141 56.721 34.5145 57.5862 33.6469 57.9578C31.3882 58.925 31.7519 58.62 30.4071 60.6763C29.8906 61.4662 28.9518 61.8078 28.0483 61.5348C25.6963 60.824 26.171 60.824 23.819 61.5348C22.9156 61.8078 21.9768 61.4662 21.4602 60.6763C20.1153 58.62 20.4789 58.925 18.2204 57.9578C17.3528 57.5862 16.8533 56.721 16.9653 55.7839C17.2569 53.3442 17.3394 53.8118 16.2308 51.6189C15.805 50.7766 15.9786 49.7927 16.6666 49.1468C18.4582 47.4653 18.2208 47.8765 18.7813 45.4841C18.9965 44.5652 19.7619 43.9231 20.7042 43.8707C23.1576 43.7342 22.7114 43.8966 24.6785 42.4241C25.4341 41.8586 26.4331 41.8586 27.1887 42.4241Z" fill="#FFC92E"/>
<path fill-rule="evenodd" clip-rule="evenodd" d="M27.1894 42.4241C29.1565 43.8966 28.7104 43.7342 31.1637 43.8706C32.106 43.9231 32.8712 44.5652 33.0865 45.4841C33.2899 46.3519 33.3893 47.4463 34.052 48.0682L35.2013 49.1468C35.8894 49.7927 36.0629 50.7766 35.6371 51.6189C34.5286 53.8118 34.6111 53.3442 34.9026 55.7839C35.0147 56.721 34.5151 57.5862 33.6475 57.9578C31.3888 58.925 31.7526 58.6198 30.4077 60.6763C29.9064 61.4428 29.0074 61.7873 28.1288 61.5573C28.61 61.4281 29.0388 61.1243 29.3319 60.6763C30.6767 58.62 30.3132 58.925 32.5719 57.9578C33.4395 57.5862 33.9389 56.721 33.827 55.7839C33.5353 53.3442 33.453 53.8118 34.5614 51.6189C34.9871 50.7766 34.8136 49.7927 34.1255 49.1468L32.9762 48.0682C32.3135 47.4463 32.2141 46.3519 32.0107 45.4841C31.7956 44.5652 31.0302 43.9231 30.0879 43.8706C27.6346 43.7342 28.0807 43.8966 26.1136 42.4241C25.8915 42.2578 25.6484 42.1404 25.3964 42.0721C26.0013 41.9075 26.6561 42.0248 27.1894 42.4241ZM25.3964 61.0704C25.0371 61.1521 24.5738 61.3068 23.8198 61.5348C23.4288 61.653 23.0312 61.6558 22.6641 61.5573C22.6907 61.5503 22.7173 61.5428 22.744 61.5348C24.3419 61.0519 24.6354 60.8971 25.3964 61.0704Z" fill="#FDC010"/>
<path d="M25.936 57.6755C29.1734 57.6755 31.7978 55.0511 31.7978 51.8137C31.7978 48.5763 29.1734 45.9519 25.936 45.9519C22.6986 45.9519 20.0742 48.5763 20.0742 51.8137C20.0742 55.0511 22.6986 57.6755 25.936 57.6755Z" fill="#ECEFF1"/>
<path fill-rule="evenodd" clip-rule="evenodd" d="M25.936 45.9519C26.0937 45.9519 26.2499 45.9583 26.4044 45.9706C23.3861 46.2092 21.011 48.7341 21.011 51.8137C21.011 54.8934 23.3861 57.4182 26.4044 57.6568C26.2499 57.6691 26.0937 57.6755 25.936 57.6755C22.6986 57.6755 20.0742 55.0511 20.0742 51.8137C20.0741 48.5765 22.6985 45.9519 25.936 45.9519Z" fill="#D59800"/>
<path d="M62.4522 62.5469C65.719 59.2801 65.719 53.9836 62.4522 50.7168C59.1854 47.45 53.8889 47.45 50.6221 50.7168C47.3553 53.9836 47.3553 59.2801 50.6221 62.5469C53.8889 65.8137 59.1854 65.8137 62.4522 62.5469Z" fill="#05A899"/>
<path fill-rule="evenodd" clip-rule="evenodd" d="M56.5469 48.2654C56.3631 48.2654 56.1809 48.2719 56 48.2836C60.3656 48.5654 63.8195 52.195 63.8195 56.6318C63.8195 61.0686 60.3656 64.6981 56 64.98C56.1809 64.9917 56.3631 64.9982 56.5469 64.9982C61.1675 64.9982 64.9133 61.2525 64.9133 56.6318C64.9133 52.0113 61.1674 48.2654 56.5469 48.2654Z" fill="#0A8A7B"/>
<path fill-rule="evenodd" clip-rule="evenodd" d="M51.6883 55.6098C52.2623 55.0358 53.2017 55.0357 53.7757 55.6098L55.2711 57.1052L59.3175 53.0589C59.8915 52.4849 60.8308 52.4849 61.4048 53.0589C61.9788 53.6329 61.9788 54.5722 61.4048 55.1462L56.3436 60.2074C55.6117 60.9393 54.6328 60.6418 53.9839 59.9929L51.6881 57.6971C51.1143 57.1231 51.1143 56.1839 51.6883 55.6098Z" fill="#ECEFF1"/>
<path fill-rule="evenodd" clip-rule="evenodd" d="M17.4629 25.1521C17.4629 25.68 17.0348 26.1081 16.5068 26.1081C15.9789 26.1081 15.5508 25.6801 15.5508 25.1521V17.0117C15.562 17.1759 15.6528 17.3029 15.8158 17.346L17.4628 17.7835L17.4629 25.1521Z" fill="#D59800"/>
<path fill-rule="evenodd" clip-rule="evenodd" d="M26.864 16.4512L18.418 16.659V24.0876C18.418 24.4946 18.7018 24.836 19.102 24.9101C28.1333 26.5855 25.5948 26.5855 34.6261 24.9101C35.0262 24.8359 35.3101 24.4945 35.3101 24.0876V16.659L26.864 16.4512Z" fill="#665E66"/>
<path fill-rule="evenodd" clip-rule="evenodd" d="M26.8631 16.4512L26.2656 16.4659L34.1142 16.659V24.0876C34.1142 24.4945 33.8303 24.8359 33.4302 24.9101C29.4638 25.646 27.7291 26.0586 26.2656 26.148C28.1342 26.2623 29.5604 25.8498 34.6253 24.9101C35.0254 24.836 35.3093 24.4946 35.3093 24.0876V16.659L26.8631 16.4512Z" fill="#685E68"/>
<path fill-rule="evenodd" clip-rule="evenodd" d="M26.6183 13.7835L15.8161 16.6528C15.4624 16.7468 15.4624 17.2519 15.8161 17.3458L26.6182 20.2152C26.7864 20.2598 26.9408 20.2598 27.109 20.2152L37.9111 17.3458C38.2649 17.2519 38.2649 16.7468 37.9111 16.6528L27.109 13.7835C26.9408 13.7388 26.7865 13.7388 26.6183 13.7835Z" fill="#534F53"/>
<path fill-rule="evenodd" clip-rule="evenodd" d="M16.7612 16.4019L15.8161 16.6529C15.4624 16.7468 15.4624 17.2519 15.8161 17.3459L26.6182 20.2152C26.7864 20.2598 26.9408 20.2598 27.109 20.2152L37.9111 17.3459C38.2649 17.2519 38.2649 16.7468 37.9111 16.6529L36.966 16.4019L27.109 19.0202C26.9408 19.0648 26.7864 19.0648 26.6182 19.0202L16.7612 16.4019Z" fill="#454045"/>
<path fill-rule="evenodd" clip-rule="evenodd" d="M16.5057 24.3459L15.3249 25.0277C15.173 25.1154 15.0859 25.2661 15.0859 25.4417V28.3159C15.0859 28.5134 15.3107 28.6257 15.4685 28.5069L16.5057 27.7269L17.543 28.5069C17.7009 28.6256 17.9256 28.5135 17.9256 28.3159V25.4417C17.9256 25.2661 17.8386 25.1155 17.6867 25.0277L16.5057 24.3459Z" fill="#FFC92E"/>
<path fill-rule="evenodd" clip-rule="evenodd" d="M16.5058 24.3459L16.0734 24.5955L16.6567 24.9323C16.8087 25.02 16.8958 25.1709 16.8958 25.3463V28.0129L17.543 28.5069C17.7 28.6267 17.9256 28.5135 17.9256 28.3159V25.4417C17.9256 25.2662 17.8386 25.1155 17.6867 25.0277L16.5058 24.3459ZM15.0859 27.8959L15.9082 27.2776L16.5058 27.7269L15.4686 28.5069C15.3108 28.6256 15.086 28.5134 15.086 28.3159L15.0859 27.8959Z" fill="#FDC010"/>
</g>
<defs>
<clipPath id="clip0_11800_2148">
<rect width="56" height="56" fill="white" transform="translate(12 12)"/>
</clipPath>
</defs>
</svg>
