<svg width="80" height="80" viewBox="0 0 80 80" fill="none" xmlns="http://www.w3.org/2000/svg">
<rect width="80" height="80" rx="12" fill="#F1F6FB"/>
<path d="M45.9141 59.5439H34.1016V64.5938H45.9141V59.5439Z" fill="#C5D3DD"/>
<path d="M36.2718 59.5439H34.1016V64.5938H36.2718V59.5439Z" fill="#B6C4CF"/>
<path d="M51.4378 67.2188C51.4378 67.5195 51.1917 67.7656 50.891 67.7656H29.125C28.8242 67.7656 28.5781 67.5195 28.5781 67.2188V65.0312C28.5781 64.7305 28.8242 64.4844 29.125 64.4844H50.891C51.1917 64.4844 51.4378 64.7305 51.4378 65.0312V67.2188Z" fill="#B6C4CF"/>
<path d="M30.7483 67.2188V65.0312C30.7483 64.7305 30.9944 64.4844 31.2952 64.4844H29.125C28.8242 64.4844 28.5781 64.7305 28.5781 65.0312V67.2188C28.5781 67.5195 28.8242 67.7656 29.125 67.7656H31.2952C30.9944 67.7656 30.7483 67.5195 30.7483 67.2188Z" fill="#87939C"/>
<path d="M15 58.5601C15 59.1616 15.4922 59.6538 16.0937 59.6538H65.008V52.3311H15V58.5601Z" fill="#D9E7EC"/>
<path d="M17.1702 58.5601V52.3311H15V58.5601C15 59.1616 15.4922 59.6538 16.0937 59.6538H18.264C17.6624 59.6538 17.1702 59.1616 17.1702 58.5601Z" fill="#C5D3DD"/>
<path d="M48.9254 49.3892C48.9254 49.1479 49.1216 48.9517 49.3629 48.9517H65.0134V25.2696C65.0134 24.6084 64.4724 24.0674 63.8112 24.0674H16.2023C15.541 24.0674 15 24.6084 15 25.2696V52.4404H48.9254V49.3892Z" fill="#445EA0"/>
<path d="M49.3629 48.9517C49.1216 48.9517 48.9254 49.1479 48.9254 49.3892V52.4404H65.0134V48.9517H49.3629Z" fill="#445EA0"/>
<path d="M48.9271 49.389C48.9271 49.1477 49.1234 48.9515 49.3646 48.9515H62.6107V27.0186C62.6107 26.7178 62.3646 26.4717 62.0638 26.4717H17.9531C17.6523 26.4717 17.4062 26.7178 17.4062 27.0186V49.4887C17.4062 49.7894 17.6523 50.0355 17.9531 50.0355H48.927L48.9271 49.389Z" fill="#5C6570"/>
<path d="M49.3646 48.9515C49.1234 48.9515 48.9271 49.1477 48.9271 49.389L48.927 50.0355H61.8267C62.2597 50.0355 62.6107 49.6845 62.6107 49.2515V48.9515H49.3646Z" fill="#5C6570"/>
<path d="M25.1056 43.6104C24.9177 43.6104 24.7294 43.5388 24.5859 43.3953L22.2153 41.0243C21.9282 40.7377 21.9282 40.2723 22.2153 39.9853L24.5859 37.6147C24.8729 37.3277 25.3382 37.3277 25.6252 37.6147C25.9122 37.9017 25.9122 38.3666 25.6252 38.6536L23.7739 40.505L25.6252 42.3564C25.9122 42.6434 25.9122 43.1083 25.6252 43.3953C25.4817 43.5388 25.2935 43.6104 25.1056 43.6104Z" fill="#E9E9E9"/>
<path d="M30.774 43.6104C30.5861 43.6104 30.3978 43.5388 30.2543 43.3953C29.9673 43.1083 29.9673 42.643 30.2543 42.3564L32.1057 40.505L30.2543 38.6536C29.9673 38.3666 29.9673 37.9013 30.2543 37.6147C30.5413 37.3277 31.0066 37.3277 31.2937 37.6147L33.6643 39.9853C33.9513 40.2723 33.9513 40.7377 33.6643 41.0243L31.2937 43.3953C31.1502 43.5388 30.9619 43.6104 30.774 43.6104Z" fill="#E9E9E9"/>
<path d="M27.0865 43.6111C26.997 43.6111 26.9063 43.5947 26.8179 43.5598C26.4402 43.4118 26.2542 42.9851 26.4027 42.6074L28.2655 37.8657C28.414 37.4884 28.8407 37.302 29.218 37.4505C29.5957 37.599 29.7817 38.0256 29.6332 38.4033L27.7704 43.1446C27.6567 43.4343 27.3796 43.6111 27.0865 43.6111Z" fill="#E9E9E9"/>
<path d="M28.2546 47.0476H23.1605C22.7549 47.0476 22.4258 46.7185 22.4258 46.3129C22.4258 45.9068 22.7549 45.5781 23.1605 45.5781H28.2546C28.6607 45.5781 28.9894 45.9068 28.9894 46.3129C28.9894 46.7185 28.6607 47.0476 28.2546 47.0476Z" fill="#E9E9E9"/>
<path d="M39.992 47.0476H31.0355C30.6299 47.0476 30.3008 46.7185 30.3008 46.3129C30.3008 45.9068 30.6299 45.5781 31.0355 45.5781H39.992C40.398 45.5781 40.7267 45.9068 40.7267 46.3129C40.7267 46.7185 40.398 47.0476 39.992 47.0476Z" fill="#E9E9E9"/>
<path d="M38.6777 40.0896H36.0668C35.6607 40.0896 35.332 39.7609 35.332 39.3548C35.332 38.9492 35.6607 38.6201 36.0668 38.6201H38.6777C39.0837 38.6201 39.4125 38.9492 39.4125 39.3548C39.4125 39.7609 39.0837 40.0896 38.6777 40.0896Z" fill="#E9E9E9"/>
<path d="M57.5326 40.0896H41.6019C41.1963 40.0896 40.8672 39.7609 40.8672 39.3548C40.8672 38.9492 41.1963 38.6201 41.6019 38.6201H57.5326C57.9382 38.6201 58.2673 38.9492 58.2673 39.3548C58.2673 39.7609 57.9382 40.0896 57.5326 40.0896Z" fill="#E9E9E9"/>
<path d="M55.1131 43.4177H48.6605C48.2545 43.4177 47.9258 43.089 47.9258 42.683C47.9258 42.2773 48.2545 41.9482 48.6605 41.9482H55.1131C55.5191 41.9482 55.8479 42.2773 55.8479 42.683C55.8479 43.089 55.5191 43.4177 55.1131 43.4177Z" fill="#E9E9E9"/>
<path d="M46.2421 43.4177H44.0238C43.6182 43.4177 43.2891 43.089 43.2891 42.683C43.2891 42.2773 43.6182 41.9482 44.0238 41.9482H46.2421C46.6482 41.9482 46.9769 42.2773 46.9769 42.683C46.9769 43.089 46.6482 43.4177 46.2421 43.4177Z" fill="#E9E9E9"/>
<path d="M41.5015 43.4177H36.0668C35.6611 43.4177 35.332 43.089 35.332 42.683C35.332 42.2773 35.6611 41.9482 36.0668 41.9482H41.5015C41.9071 41.9482 42.2362 42.2773 42.2362 42.683C42.2362 43.089 41.9071 43.4177 41.5015 43.4177Z" fill="#E9E9E9"/>
<path d="M40.0059 57.6065C40.8462 57.6065 41.5274 56.9253 41.5274 56.085C41.5274 55.2447 40.8462 54.5635 40.0059 54.5635C39.1656 54.5635 38.4844 55.2447 38.4844 56.085C38.4844 56.9253 39.1656 57.6065 40.0059 57.6065Z" fill="#445EA0"/>
<path fill-rule="evenodd" clip-rule="evenodd" d="M35.933 16.6553L30.929 18.1176L29.8125 22.5463C30.0056 24.1729 30.3106 25.6957 31.3163 26.5482L39.6158 33.2934L40.6199 34.066C42.1317 35.2288 43.5637 33.6037 42.4143 32.4025C42.3983 32.3849 42.3808 32.3673 42.3632 32.3497C42.7511 32.676 43.1869 32.7688 43.5685 32.7064C44.4082 32.5704 44.9829 31.6811 44.2102 30.8509C45.7204 32.0569 47.0103 30.1359 45.8273 29.0818C47.1459 29.4977 48.5827 27.7878 47.213 26.3355C47.2034 26.3243 47.1922 26.3115 47.181 26.3003L43.7472 21.1882L39.1417 18.2371L35.933 16.6553Z" fill="#FFBC85"/>
<path fill-rule="evenodd" clip-rule="evenodd" d="M39.482 33.4359C40.7591 32.0746 38.8961 30.5088 37.8665 31.4316L36.7634 32.4809C36.7506 32.4937 36.7394 32.5049 36.7267 32.5145C35.8008 33.4454 37.4834 35.5663 38.8753 34.082L39.482 33.4359Z" fill="#FFE5C1"/>
<path fill-rule="evenodd" clip-rule="evenodd" d="M35.9506 29.5321L34.7853 30.7542L34.7804 30.7606C34.1962 31.3812 34.6016 32.3329 35.2929 32.704C35.7207 32.9343 36.2571 32.9439 36.7344 32.5136L37.9828 32.4944L37.8742 31.4308L38.0339 31.2804C39.2822 30.0936 37.4799 28.043 36.0735 29.4026L35.9506 29.5321Z" fill="#FFE5C1"/>
<path fill-rule="evenodd" clip-rule="evenodd" d="M33.8546 27.8594L32.7627 29.019L32.6094 29.1838C31.5319 30.3274 33.4619 32.1285 34.5746 30.9609L34.7661 30.7625C34.7821 30.7449 35.9522 30.6234 36.0799 30.609L36.0592 29.4046L36.4327 29.0127C37.7178 27.6643 35.7096 25.8889 34.4867 27.1893L33.8546 27.8594Z" fill="#FFE5C1"/>
<path fill-rule="evenodd" clip-rule="evenodd" d="M31.3125 26.5486L30.9421 26.9501C29.8023 28.1882 31.5009 30.1619 32.7748 29.0199L33.8204 28.8583L33.8667 27.8602C34.8995 26.691 33.0988 24.61 31.6812 26.1487L31.3125 26.5486Z" fill="#FFE5C1"/>
<path fill-rule="evenodd" clip-rule="evenodd" d="M32.8718 13.1815L27.8034 18.0616L26.3618 19.4484C25.8925 19.8994 25.8781 20.6528 26.3283 21.123L28.4786 23.3655C28.6032 23.4951 28.8123 23.4999 28.9432 23.3752L29.8037 22.5466L35.9241 16.6556L36.684 15.923C36.8149 15.7983 36.8197 15.5887 36.6936 15.4576L34.5432 13.2151C34.0931 12.7448 33.3412 12.7304 32.8718 13.1815Z" fill="#6851A2"/>
<path fill-rule="evenodd" clip-rule="evenodd" d="M42.5037 21.6626L40.9648 22.0145L41.5683 22.6271L46.2297 27.2625L46.2616 27.2977C46.8235 27.8927 46.9129 28.5293 46.7341 29.0475C47.6552 28.6956 48.2411 27.44 47.1971 26.3331L47.1651 26.2979L45.7667 24.908L42.5037 21.6626Z" fill="#F5A96C"/>
<path fill-rule="evenodd" clip-rule="evenodd" d="M35.9177 16.6553L34.9375 17.5974L38.0009 19.1089L39.1264 18.2372L35.9177 16.6553Z" fill="#F5A96C"/>
<path fill-rule="evenodd" clip-rule="evenodd" d="M39.1381 18.2349L38.0127 19.1066L36.9527 19.9256C34.2756 21.9986 36.4961 24.0459 38.0845 23.3438L39.8709 22.2673L40.9772 22.0146L42.516 21.6627L45.779 24.9081L47.1775 26.2981C48.0571 25.9686 49.3006 25.0185 50.6432 22.8559L48.6024 18.5861L43.8363 16.3027L42.6135 17.28C42.4123 17.44 42.473 17.4096 42.2191 17.4016C41.3012 17.3728 40.1343 17.464 39.4494 17.9934L39.1381 18.2349Z" fill="#FFE5C1"/>
<path fill-rule="evenodd" clip-rule="evenodd" d="M39.1311 21.5584L37.3447 22.6349C36.8578 22.8508 36.3102 22.8076 35.8633 22.5837C36.2512 23.3291 37.2537 23.713 38.0822 23.3467L39.8686 22.2703L40.9749 22.0175L42.4946 21.6705C41.7906 21.0674 41.6645 20.9795 40.2358 21.3074L39.1311 21.5584Z" fill="#FED1A3"/>
<path fill-rule="evenodd" clip-rule="evenodd" d="M49.5378 21.7896C48.3421 23.7138 47.2263 24.6783 46.3754 25.1005C46.2796 25.1485 46.187 25.1885 46.0977 25.2221L47.1832 26.3018C48.0628 25.9723 49.3063 25.0222 50.6489 22.8596L49.5378 21.7896Z" fill="#FED1A3"/>
<path fill-rule="evenodd" clip-rule="evenodd" d="M31.1406 14.8514C31.6099 14.4052 32.3571 14.4228 32.8056 14.8898L34.956 17.1323C35.0805 17.2634 35.0773 17.473 34.9464 17.5977L35.9266 16.6556L36.6864 15.923C36.8174 15.7983 36.8221 15.5887 36.696 15.4576L34.5457 13.2151C34.0955 12.7448 33.3436 12.7304 32.8743 13.1815L31.1406 14.8514Z" fill="#553B95"/>
<path fill-rule="evenodd" clip-rule="evenodd" d="M30.5742 27.8976C30.5854 28.9453 31.8082 29.8938 32.782 29.0205L33.4668 28.2943L33.8739 27.8608C34.3001 27.3778 34.2427 26.7412 33.9313 26.2661C33.9297 26.5444 33.8371 26.8227 33.6248 27.0643L32.9 27.8336L32.5345 28.2239C31.8242 28.8589 30.9829 28.5278 30.5742 27.8976Z" fill="#FED1A3"/>
<path fill-rule="evenodd" clip-rule="evenodd" d="M32.3555 30.2746C32.6109 31.132 33.8034 31.7862 34.5872 30.9624L34.7788 30.7641C34.7803 30.7608 34.7819 30.7593 34.7836 30.7577L35.9489 29.5356C35.9904 29.4892 36.0303 29.446 36.0719 29.4061L36.4454 29.0142C37.1382 28.288 36.8748 27.4371 36.2922 27.01C36.3975 27.4019 36.3129 27.8546 35.9202 28.2656L35.5467 28.6575C35.5052 28.6974 35.4653 28.7406 35.4237 28.7854V28.787L34.2584 30.0091C34.2568 30.0106 34.2552 30.0123 34.252 30.0139L34.062 30.2138C33.5415 30.7609 32.8423 30.6569 32.3555 30.2746Z" fill="#FED1A3"/>
<path fill-rule="evenodd" clip-rule="evenodd" d="M36.7684 32.4847L37.6192 31.6769L37.8714 31.4354L38.0311 31.2851C38.6952 30.6533 38.4956 29.7767 37.9497 29.3C38.0662 29.7175 37.98 30.1894 37.5777 30.5717L37.4197 30.722L36.9695 31.1491L36.315 31.7729L36.2782 31.8048C35.8009 32.2351 35.2645 32.2255 34.8367 31.9968C34.7314 31.9392 34.6323 31.8688 34.543 31.7872C34.6483 32.1663 34.9309 32.5166 35.2901 32.7085C35.7179 32.9389 36.2543 32.9485 36.7316 32.5182L36.7684 32.4847Z" fill="#FED1A3"/>
<path fill-rule="evenodd" clip-rule="evenodd" d="M39.4813 33.4368C40.1199 32.7554 39.973 32.0244 39.5388 31.5781C39.5292 31.8804 39.4015 32.2052 39.1078 32.517L38.5011 33.1648C37.7556 33.9582 36.9271 33.7199 36.4609 33.184C36.4673 34.1549 37.7636 35.2682 38.8747 34.083L39.4813 33.4368Z" fill="#FED1A3"/>
<path d="M45.8115 29.5028C45.7085 29.5028 45.6052 29.4653 45.5238 29.3895L43.8221 27.8044C43.6513 27.6453 43.6418 27.3778 43.8007 27.207C43.9596 27.0361 44.2269 27.0265 44.3977 27.1855L46.0995 28.7707C46.2702 28.9297 46.2798 29.1972 46.1208 29.3681C46.0376 29.4575 45.9247 29.5028 45.8115 29.5028Z" fill="#F5A96C"/>
<path d="M44.1998 31.2749C44.0968 31.2749 43.9935 31.2374 43.9121 31.1615L42.2088 29.5748C42.0381 29.4157 42.0285 29.1484 42.1875 28.9775C42.3463 28.8066 42.6136 28.797 42.7844 28.9561L44.4878 30.5428C44.6585 30.7019 44.668 30.9693 44.5091 31.1402C44.4259 31.2296 44.313 31.2749 44.1998 31.2749Z" fill="#F5A96C"/>
<path d="M42.4219 32.8287C42.319 32.8287 42.2158 32.7913 42.1345 32.7157L41.2677 31.9095C41.0968 31.7506 41.087 31.4832 41.2458 31.3122C41.4046 31.1412 41.6719 31.1314 41.8428 31.2903L42.7096 32.0964C42.8805 32.2554 42.8902 32.5227 42.7314 32.6937C42.6482 32.7833 42.5352 32.8287 42.4219 32.8287Z" fill="#F5A96C"/>
<path fill-rule="evenodd" clip-rule="evenodd" d="M43.8452 16.3065L49.541 21.7896L50.6521 22.8597L51.0607 23.2532C51.1917 23.3779 51.4008 23.3731 51.5253 23.2435L52.6476 22.0727L53.6756 21.001C54.1258 20.5307 54.1115 19.7774 53.6421 19.3263L52.6476 18.3698L47.1321 13.0594C46.6628 12.6084 45.9109 12.6227 45.4607 13.093L43.3104 15.3355C43.1843 15.4666 43.1891 15.6762 43.32 15.8009L43.8452 16.3065Z" fill="#ED2B4A"/>
<path fill-rule="evenodd" clip-rule="evenodd" d="M51.2157 20.7055L50.0935 21.8779C49.9674 22.0074 49.7598 22.0122 49.6289 21.8859L50.6394 22.86L51.0481 23.2535C51.179 23.3782 51.3882 23.3734 51.5127 23.2438L52.6349 22.073L53.663 21.0013C54.1132 20.531 54.0988 19.7777 53.6295 19.3266L52.3716 18.1158L52.4785 18.2198L52.2152 17.9655C52.6781 18.4165 52.6925 19.1667 52.2439 19.6337L51.2157 20.7055Z" fill="#B73451"/>
</svg>
