<svg width="80" height="80" viewBox="0 0 80 80" fill="none" xmlns="http://www.w3.org/2000/svg">
<rect width="80" height="80" rx="12" fill="#F1F6FB"/>
<g clip-path="url(#clip0_11800_2068)">
<path fill-rule="evenodd" clip-rule="evenodd" d="M31.8549 25.9803L21.8431 28.906L19.6094 37.7667C19.9958 41.0213 20.6059 44.0679 22.6181 45.7736L39.2233 59.269L41.2323 60.8146C44.2569 63.1412 47.1219 59.8898 44.8223 57.4865C44.7903 57.4513 44.7552 57.416 44.7201 57.3808C45.4963 58.0337 46.3682 58.2193 47.1315 58.0945C48.8115 57.8225 49.9614 56.0432 48.4155 54.3822C51.437 56.7951 54.0177 52.9517 51.6509 50.8427C54.2891 51.6747 57.1636 48.2537 54.4232 45.3479C54.4041 45.3255 54.3817 45.2999 54.3593 45.2775L47.4892 35.0496L38.2747 29.1452L31.8549 25.9803Z" fill="#FFBC85"/>
<path fill-rule="evenodd" clip-rule="evenodd" d="M38.974 59.5575C41.5291 56.8341 37.8019 53.7011 35.7418 55.5476L33.5348 57.6469C33.5092 57.6725 33.4869 57.6949 33.4613 57.7141C31.6088 59.5766 34.9753 63.8201 37.7603 60.8503L38.974 59.5575Z" fill="#FFE5C1"/>
<path fill-rule="evenodd" clip-rule="evenodd" d="M31.8945 51.7483L29.5629 54.1932L29.5533 54.206C28.3843 55.4478 29.1955 57.3519 30.5786 58.0943C31.4345 58.5551 32.5077 58.5744 33.4627 57.7135L35.9604 57.6751L35.7431 55.547L36.0625 55.2462C38.5602 52.8717 34.9542 48.769 32.1403 51.4892L31.8945 51.7483Z" fill="#FFE5C1"/>
<path fill-rule="evenodd" clip-rule="evenodd" d="M27.7299 48.3983L25.5452 50.7185L25.2386 51.0481C23.0828 53.3363 26.9442 56.9397 29.1704 54.6036L29.5536 54.2068C29.5855 54.1716 31.9267 53.9283 32.1822 53.8996L32.1406 51.4898L32.888 50.7058C35.4591 48.0081 31.4412 44.4558 28.9946 47.0576L27.7299 48.3983Z" fill="#FFE5C1"/>
<path fill-rule="evenodd" clip-rule="evenodd" d="M22.6178 45.7737L21.8768 46.577C19.5963 49.054 22.9947 53.003 25.5433 50.718L27.6353 50.3948L27.728 48.3979C29.7944 46.0585 26.1917 41.8951 23.3555 44.9737L22.6178 45.7737Z" fill="#FFE5C1"/>
<path fill-rule="evenodd" clip-rule="evenodd" d="M25.7488 19.0291L15.6081 28.793L12.7239 31.5675C11.7849 32.47 11.7561 33.9773 12.6568 34.9181L16.9591 39.4048C17.2082 39.664 17.6266 39.6736 17.8886 39.424L19.6101 37.7663L31.8556 25.98L33.376 24.5142C33.6379 24.2646 33.6474 23.8454 33.3951 23.583L29.0928 19.0964C28.1921 18.1554 26.6878 18.1266 25.7488 19.0291Z" fill="#6851A2"/>
<path fill-rule="evenodd" clip-rule="evenodd" d="M45.032 36.0038L41.9531 36.7078L43.1604 37.9335L52.4867 47.2077L52.5506 47.2782C53.6748 48.4686 53.8537 49.7424 53.496 50.7791C55.3389 50.0751 56.511 47.563 54.4222 45.3483L54.3583 45.2779L51.5604 42.4969L45.032 36.0038Z" fill="#F5A96C"/>
<path fill-rule="evenodd" clip-rule="evenodd" d="M31.8556 25.9805L29.8945 27.8653L36.0237 30.8895L38.2754 29.1455L31.8556 25.9805Z" fill="#F5A96C"/>
<path fill-rule="evenodd" clip-rule="evenodd" d="M38.2748 29.1449L36.0231 30.889L33.9024 32.5276C28.5461 36.6751 32.9889 40.7713 36.1669 39.3665L39.7409 37.2128L41.9543 36.7071L45.0332 36.0031L51.5616 42.4963L54.3595 45.2773C56.1194 44.6181 58.6074 42.7172 61.2936 38.3904L57.2105 29.8477L47.6746 25.2792L45.2281 27.2345C44.8257 27.5545 44.947 27.4937 44.4392 27.4777C42.6027 27.4201 40.268 27.6025 38.8977 28.6618L38.2748 29.1449Z" fill="#FFE5C1"/>
<path fill-rule="evenodd" clip-rule="evenodd" d="M38.2646 35.789L34.6905 37.9427C33.7164 38.3747 32.6208 38.2883 31.7266 37.8403C32.5027 39.3316 34.5085 40.0997 36.1661 39.3668L39.7401 37.2131L41.9536 36.7075L44.9942 36.0131C43.5857 34.8066 43.3333 34.6306 40.4748 35.2866L38.2646 35.789Z" fill="#FED1A3"/>
<path fill-rule="evenodd" clip-rule="evenodd" d="M59.0704 36.2499C56.6781 40.0998 54.4455 42.0295 52.7432 42.8743C52.5516 42.9703 52.3663 43.0503 52.1875 43.1175L54.3594 45.2777C56.1192 44.6185 58.6073 42.7176 61.2934 38.3908L59.0704 36.2499Z" fill="#FED1A3"/>
<path fill-rule="evenodd" clip-rule="evenodd" d="M22.2812 22.3702C23.2202 21.4774 24.7151 21.5126 25.6125 22.447L29.9148 26.9337C30.1639 27.1961 30.1575 27.6153 29.8956 27.8649L31.8567 25.9799L33.377 24.5142C33.639 24.2646 33.6485 23.8454 33.3962 23.583L29.0939 19.0963C28.1932 18.1555 26.6888 18.1266 25.7499 19.0291L22.2812 22.3702Z" fill="#553B95"/>
<path fill-rule="evenodd" clip-rule="evenodd" d="M21.1289 48.4712C21.1512 50.5674 23.5978 52.465 25.5461 50.7178L26.9163 49.2648L27.7307 48.3976C28.5835 47.4312 28.4685 46.1575 27.8456 45.207C27.8425 45.7639 27.6572 46.3207 27.2324 46.8039L25.7823 48.3433L25.0509 49.1241C23.6298 50.3945 21.9465 49.7321 21.1289 48.4712Z" fill="#FED1A3"/>
<path fill-rule="evenodd" clip-rule="evenodd" d="M24.7031 53.227C25.2141 54.9423 27.6 56.2512 29.1682 54.603L29.5515 54.2062C29.5547 54.1997 29.5578 54.1966 29.5611 54.1934L31.8927 51.7484C31.9757 51.6556 32.0555 51.5692 32.1387 51.4892L32.886 50.7052C34.2721 49.2523 33.7452 47.5499 32.5794 46.6953C32.7902 47.4793 32.621 48.385 31.8352 49.2074L31.0879 49.9914C31.0049 50.0714 30.925 50.1578 30.8419 50.2475V50.2507L28.5104 52.6956C28.5072 52.6988 28.504 52.7021 28.4976 52.7052L28.1175 53.1052C27.0761 54.1999 25.6772 53.9918 24.7031 53.227Z" fill="#FED1A3"/>
<path fill-rule="evenodd" clip-rule="evenodd" d="M33.5345 57.647L35.2368 56.0309L35.7414 55.5477L36.0608 55.2469C37.3895 53.9829 36.9903 52.2291 35.898 51.2754C36.1311 52.1107 35.9587 53.0547 35.1538 53.8196L34.8376 54.1203L33.9369 54.9748L32.6273 56.2229L32.5538 56.2868C31.5989 57.1477 30.5257 57.1285 29.6697 56.6709C29.4589 56.5557 29.2609 56.4148 29.082 56.2516C29.2928 57.01 29.8582 57.7109 30.5768 58.0949C31.4327 58.5557 32.5059 58.575 33.4609 57.7141L33.5345 57.647Z" fill="#FED1A3"/>
<path fill-rule="evenodd" clip-rule="evenodd" d="M38.9766 59.5575C40.2542 58.1943 39.9603 56.7317 39.0915 55.8389C39.0724 56.4437 38.8169 57.0934 38.2292 57.7174L37.0155 59.0135C35.5239 60.6008 33.8662 60.124 32.9336 59.0519C32.9464 60.9944 35.5399 63.2218 37.7628 60.8504L38.9766 59.5575Z" fill="#FED1A3"/>
<path d="M51.652 51.689C51.4459 51.689 51.2392 51.6139 51.0763 51.4623L47.6716 48.2909C47.33 47.9726 47.3109 47.4376 47.6288 47.0956C47.9468 46.7538 48.4815 46.7346 48.8233 47.0528L52.228 50.2242C52.5696 50.5425 52.5888 51.0776 52.2708 51.4195C52.1043 51.5985 51.8785 51.689 51.652 51.689Z" fill="#F5A96C"/>
<path d="M48.4168 55.2283C48.2108 55.2283 48.0041 55.1533 47.8412 55.0016L44.4333 51.8269C44.0917 51.5087 44.0726 50.9737 44.3906 50.6318C44.7084 50.29 45.2432 50.2706 45.585 50.589L48.9929 53.7636C49.3345 54.0819 49.3536 54.6169 49.0356 54.9588C48.8691 55.1377 48.6433 55.2283 48.4168 55.2283Z" fill="#F5A96C"/>
<path d="M44.8331 58.3383C44.6272 58.3383 44.4207 58.2634 44.258 58.1122L42.5237 56.4993C42.1818 56.1812 42.1622 55.6463 42.48 55.3042C42.7976 54.962 43.3324 54.9425 43.6743 55.2603L45.4086 56.8732C45.7505 57.1912 45.7701 57.7262 45.4523 58.0683C45.2859 58.2476 45.0598 58.3383 44.8331 58.3383Z" fill="#F5A96C"/>
<path fill-rule="evenodd" clip-rule="evenodd" d="M47.6752 25.2796L59.0711 36.2499L61.294 38.3908L62.1117 39.1781C62.3736 39.4276 62.792 39.418 63.0412 39.1588L65.2865 36.8162L67.3434 34.672C68.2441 33.7312 68.2154 32.2239 67.2764 31.3214L65.2865 29.4077L54.2516 18.783C53.3126 17.8806 51.8082 17.9093 50.9075 18.8502L46.6053 23.3368C46.3529 23.5992 46.3626 24.0185 46.6244 24.2681L47.6752 25.2796Z" fill="#FDC010"/>
<path fill-rule="evenodd" clip-rule="evenodd" d="M62.4483 34.0799L60.2029 36.4255C59.9506 36.6847 59.5354 36.6944 59.2734 36.4415L61.2952 38.3904L62.1129 39.1777C62.3749 39.4273 62.7932 39.4177 63.0424 39.1585L65.2878 36.8159L67.3447 34.6717C68.2454 33.7309 68.2166 32.2236 67.2776 31.3211L64.7608 28.8986L64.9748 29.1066L64.4479 28.5978C65.374 29.5002 65.4028 31.0012 64.5054 31.9356L62.4483 34.0799Z" fill="#E2AF30"/>
</g>
<defs>
<clipPath id="clip0_11800_2068">
<rect width="56" height="56" fill="white" transform="translate(12 12)"/>
</clipPath>
</defs>
</svg>
