<svg width="24" height="24" viewBox="0 0 24 24" fill="none" xmlns="http://www.w3.org/2000/svg">
<g clip-path="url(#clip0_68_11309)">
<path d="M12 0C5.38293 0 0 5.38293 0 12C0 18.6171 5.38293 24 12 24C18.6171 24 24 18.6171 24 12C24 5.38293 18.6171 0 12 0Z" fill="#ED2B4A"/>
<path d="M16.4184 15.0053C16.8094 15.3964 16.8094 16.0283 16.4184 16.4194C16.2234 16.6144 15.9675 16.7124 15.7113 16.7124C15.4553 16.7124 15.1993 16.6144 15.0043 16.4194L11.9994 13.4143L8.99443 16.4194C8.79942 16.6144 8.54344 16.7124 8.28746 16.7124C8.0313 16.7124 7.77531 16.6144 7.58031 16.4194C7.18938 16.0283 7.18938 15.3964 7.58031 15.0053L10.5854 12.0004L7.58031 8.99541C7.18938 8.60429 7.18938 7.9724 7.58031 7.58128C7.97142 7.19035 8.60332 7.19035 8.99443 7.58128L11.9994 10.5864L15.0043 7.58128C15.3954 7.19035 16.0273 7.19035 16.4184 7.58128C16.8094 7.9724 16.8094 8.60429 16.4184 8.99541L13.4133 12.0004L16.4184 15.0053Z" fill="#FAFAFA"/>
</g>
<defs>
<clipPath id="clip0_68_11309">
<rect width="24" height="24" fill="white"/>
</clipPath>
</defs>
</svg>
