<svg width="85" height="85" viewBox="0 0 85 85" fill="none" xmlns="http://www.w3.org/2000/svg">
<rect width="85" height="85" rx="10.2" fill="#F1F6FB"/>
<path d="M9.15039 19.5004C9.15039 18.2804 9.63503 17.1104 10.4977 16.2477C11.3604 15.385 12.5304 14.9004 13.7504 14.9004H60.9004C61.5098 14.9022 62.0938 15.1451 62.5247 15.5761C62.9557 16.007 63.1986 16.591 63.2004 17.2004V25.2504H9.15039V19.5004Z" fill="#40297A"/>
<path d="M34.2434 63.2H13.7504C12.5304 63.2 11.3604 62.7154 10.4977 61.8527C9.63503 60.99 9.15039 59.82 9.15039 58.6V19.5C9.15039 20.72 9.63503 21.89 10.4977 22.7527C11.3604 23.6154 12.5304 24.1 13.7504 24.1H62.0504C62.6598 24.1018 63.2438 24.3447 63.6747 24.7757C64.1057 25.2066 64.3486 25.7906 64.3504 26.4V39.05V63.2H34.2434Z" fill="#6851A2"/>
<path d="M9.15039 42.5H29.8504V44.8H9.15039V42.5Z" fill="#0A8A7B"/>
<path d="M16.2459 39.0505H9.15039V36.7505H16.2459C16.3986 36.7503 16.5498 36.7197 16.6906 36.6605C16.8314 36.6012 16.9589 36.5146 17.0658 36.4055L22.1373 31.334L23.7634 32.9601L18.6954 38.035C18.3748 38.3583 17.9932 38.6145 17.5726 38.7888C17.1521 38.9632 16.7011 39.0521 16.2459 39.0505Z" fill="#0A8A7B"/>
<path d="M21.5623 54.2386L17.0658 49.7456C16.9589 49.6365 16.8314 49.5498 16.6906 49.4906C16.5498 49.4314 16.3986 49.4008 16.2459 49.4006H9.15039V47.1006H16.2459C16.7005 47.0994 17.1509 47.1886 17.5708 47.3629C17.9907 47.5372 18.3718 47.7932 18.6919 48.116L23.1884 52.6125L21.5623 54.2386Z" fill="#0A8A7B"/>
<path d="M28.0008 47.1002C29.9062 47.1002 31.4508 45.5556 31.4508 43.6502C31.4508 41.7448 29.9062 40.2002 28.0008 40.2002C26.0954 40.2002 24.5508 41.7448 24.5508 43.6502C24.5508 45.5556 26.0954 47.1002 28.0008 47.1002Z" fill="#05A899"/>
<path d="M37.9737 51.7458V35.4017H31.5469V32.3545H48.0018V35.4017H41.575V51.7458H37.9737Z" fill="#F1F6FB"/>
<path d="M25.1934 51.7458V32.3545H28.7946V51.7458H25.1934Z" fill="#F1F6FB"/>
<path d="M22.95 35.6C24.8554 35.6 26.4 34.0553 26.4 32.15C26.4 30.2446 24.8554 28.7 22.95 28.7C21.0446 28.7 19.5 30.2446 19.5 32.15C19.5 34.0553 21.0446 35.6 22.95 35.6Z" fill="#05A899"/>
<path d="M22.95 57.45C24.8554 57.45 26.4 55.9054 26.4 54C26.4 52.0947 24.8554 50.55 22.95 50.55C21.0446 50.55 19.5 52.0947 19.5 54C19.5 55.9054 21.0446 57.45 22.95 57.45Z" fill="#05A899"/>
<path d="M32.1504 59.7504C32.1531 59.3723 32.2692 59.0037 32.4839 58.6924C34.9449 55.1159 43.6504 43.6504 54.0004 43.6504C64.3504 43.6504 73.0559 55.1159 75.5169 58.6924C75.7315 59.0037 75.8477 59.3723 75.8504 59.7504H32.1504Z" fill="#604634"/>
<path d="M75.8504 59.7496C75.8477 60.1277 75.7315 60.4963 75.5169 60.8076C73.0559 64.3841 64.3504 75.8496 54.0004 75.8496C43.6504 75.8496 34.9449 64.3841 32.4839 60.8076C32.2692 60.4963 32.1531 60.1277 32.1504 59.7496C34.9956 56.8374 38.3942 54.5234 42.1465 52.9435C45.8988 51.3637 49.9291 50.5498 54.0004 50.5498C58.0717 50.5498 62.102 51.3637 65.8543 52.9435C69.6066 54.5234 73.0052 56.8374 75.8504 59.7496Z" fill="#E1EEFF"/>
<path d="M65.5 59.7498C65.5004 61.6384 65.0356 63.498 64.1467 65.1644C63.2579 66.8307 61.9723 68.2525 60.4036 69.3042C58.8349 70.3558 57.0314 71.0049 55.1523 71.1941C53.2732 71.3834 51.3764 71.1069 49.6295 70.3891C47.8826 69.6714 46.3394 68.5345 45.1361 67.0788C43.9329 65.6231 43.1067 63.8935 42.7305 62.0428C42.3543 60.192 42.4397 58.2771 42.9791 56.4672C43.5186 54.6573 44.4955 53.0081 45.8235 51.6653C51.173 50.178 56.827 50.178 62.1765 51.6653C64.3096 53.8148 65.5045 56.7216 65.5 59.7498Z" fill="#FDC010"/>
<path d="M54 65.5C57.1756 65.5 59.75 62.9256 59.75 59.75C59.75 56.5744 57.1756 54 54 54C50.8244 54 48.25 56.5744 48.25 59.75C48.25 62.9256 50.8244 65.5 54 65.5Z" fill="#D59800"/>
<path d="M57.4504 58.6C58.7206 58.6 59.7504 57.5703 59.7504 56.3C59.7504 55.0297 58.7206 54 57.4504 54C56.1801 54 55.1504 55.0297 55.1504 56.3C55.1504 57.5703 56.1801 58.6 57.4504 58.6Z" fill="white"/>
</svg>
