<svg width="85" height="85" viewBox="0 0 85 85" fill="none" xmlns="http://www.w3.org/2000/svg">
<rect width="85" height="85" rx="10.2" fill="#F1F6FB"/>
<g clip-path="url(#clip0_11619_11031)">
<path d="M13.0901 22.5676C12.5152 22.5676 12.0488 22.1011 12.0488 21.5263V18.5325C12.0488 17.9576 12.5152 17.4912 13.0901 17.4912C13.665 17.4912 14.1314 17.9576 14.1314 18.5325V21.5258C14.1314 22.1011 13.665 22.5676 13.0901 22.5676Z" fill="#CECECE"/>
<path d="M13.0901 30.4118C12.5152 30.4118 12.0488 29.9459 12.0488 29.3705V26.3772C12.0488 25.8024 12.5152 25.3359 13.0901 25.3359C13.665 25.3359 14.1314 25.8024 14.1314 26.3772V29.3705C14.1314 29.9459 13.665 30.4118 13.0901 30.4118Z" fill="#CECECE"/>
<path d="M13.0901 38.2565C12.5152 38.2565 12.0488 37.7901 12.0488 37.2152V34.2214C12.0488 33.6466 12.5152 33.1807 13.0901 33.1807C13.665 33.1807 14.1314 33.6466 14.1314 34.2214V37.2152C14.1314 37.7901 13.665 38.2565 13.0901 38.2565Z" fill="#CECECE"/>
<path d="M71.9358 22.5676C71.3604 22.5676 70.8945 22.1011 70.8945 21.5263V18.5325C70.8945 17.9576 71.3604 17.4912 71.9358 17.4912C72.5107 17.4912 72.9771 17.9576 72.9771 18.5325V21.5258C72.9771 22.1011 72.5107 22.5676 71.9358 22.5676Z" fill="#CECECE"/>
<path d="M71.9358 30.4118C71.3604 30.4118 70.8945 29.9459 70.8945 29.3705V26.3772C70.8945 25.8024 71.3604 25.3359 71.9358 25.3359C72.5107 25.3359 72.9771 25.8024 72.9771 26.3772V29.3705C72.9771 29.9459 72.5107 30.4118 71.9358 30.4118Z" fill="#CECECE"/>
<path d="M71.9358 38.2565C71.3604 38.2565 70.8945 37.7901 70.8945 37.2152V34.2214C70.8945 33.6466 71.3604 33.1807 71.9358 33.1807C72.5107 33.1807 72.9771 33.6466 72.9771 34.2214V37.2152C72.9771 37.7901 72.5107 38.2565 71.9358 38.2565Z" fill="#CECECE"/>
<path d="M13.0901 51.819C12.5152 51.819 12.0488 51.3531 12.0488 50.7782V47.7844C12.0488 47.2096 12.5152 46.7432 13.0901 46.7432C13.665 46.7432 14.1314 47.2096 14.1314 47.7844V50.7782C14.1314 51.3531 13.665 51.819 13.0901 51.819Z" fill="#CECECE"/>
<path d="M13.0901 59.6637C12.5152 59.6637 12.0488 59.1978 12.0488 58.6224V55.6292C12.0488 55.0543 12.5152 54.5879 13.0901 54.5879C13.665 54.5879 14.1314 55.0543 14.1314 55.6292V58.6224C14.1314 59.1973 13.665 59.6637 13.0901 59.6637Z" fill="#CECECE"/>
<path d="M13.0901 67.5075C12.5152 67.5075 12.0488 67.041 12.0488 66.4662V63.4729C12.0488 62.8975 12.5152 62.4316 13.0901 62.4316C13.665 62.4316 14.1314 62.8975 14.1314 63.4729V66.4662C14.1314 67.041 13.665 67.5075 13.0901 67.5075Z" fill="#CECECE"/>
<path d="M71.9358 51.819C71.3604 51.819 70.8945 51.3531 70.8945 50.7782V47.7844C70.8945 47.2096 71.3604 46.7432 71.9358 46.7432C72.5107 46.7432 72.9771 47.2096 72.9771 47.7844V50.7782C72.9771 51.3531 72.5107 51.819 71.9358 51.819Z" fill="#CECECE"/>
<path d="M71.9358 59.6637C71.3604 59.6637 70.8945 59.1978 70.8945 58.6224V55.6292C70.8945 55.0543 71.3604 54.5879 71.9358 54.5879C72.5107 54.5879 72.9771 55.0543 72.9771 55.6292V58.6224C72.9771 59.1973 72.5107 59.6637 71.9358 59.6637Z" fill="#CECECE"/>
<path d="M71.9358 67.5075C71.3604 67.5075 70.8945 67.041 70.8945 66.4662V63.4729C70.8945 62.8975 71.3604 62.4316 71.9358 62.4316C72.5107 62.4316 72.9771 62.8975 72.9771 63.4729V66.4662C72.9771 67.041 72.5107 67.5075 71.9358 67.5075Z" fill="#CECECE"/>
<path d="M66.4799 14.1177H63.4861C62.9112 14.1177 62.4453 13.6513 62.4453 13.0764C62.4453 12.5016 62.9112 12.0352 63.4861 12.0352H66.4799C67.0547 12.0352 67.5206 12.5016 67.5206 13.0764C67.5206 13.6513 67.0547 14.1177 66.4799 14.1177Z" fill="#CECECE"/>
<path d="M58.6361 14.1177H55.6428C55.068 14.1177 54.6016 13.6513 54.6016 13.0764C54.6016 12.5016 55.068 12.0352 55.6428 12.0352H58.6361C59.2115 12.0352 59.6774 12.5016 59.6774 13.0764C59.6774 13.6513 59.2115 14.1177 58.6361 14.1177Z" fill="#CECECE"/>
<path d="M50.7924 14.1177H47.7986C47.2237 14.1177 46.7578 13.6513 46.7578 13.0764C46.7578 12.5016 47.2237 12.0352 47.7986 12.0352H50.7924C51.3672 12.0352 51.8336 12.5016 51.8336 13.0764C51.8336 13.6513 51.3672 14.1177 50.7924 14.1177Z" fill="#CECECE"/>
<path d="M66.4799 72.9644H63.4861C62.9112 72.9644 62.4453 72.498 62.4453 71.9231C62.4453 71.3483 62.9112 70.8818 63.4861 70.8818H66.4799C67.0547 70.8818 67.5206 71.3483 67.5206 71.9231C67.5211 72.498 67.0547 72.9644 66.4799 72.9644Z" fill="#CECECE"/>
<path d="M58.6361 72.9644H55.6428C55.068 72.9644 54.6016 72.498 54.6016 71.9231C54.6016 71.3483 55.068 70.8818 55.6428 70.8818H58.6361C59.2115 70.8818 59.6774 71.3483 59.6774 71.9231C59.6774 72.498 59.2115 72.9644 58.6361 72.9644Z" fill="#CECECE"/>
<path d="M50.7924 72.9644H47.7986C47.2237 72.9644 46.7578 72.498 46.7578 71.9231C46.7578 71.3483 47.2237 70.8818 47.7986 70.8818H50.7924C51.3672 70.8818 51.8336 71.3483 51.8336 71.9231C51.8336 72.498 51.3672 72.9644 50.7924 72.9644Z" fill="#CECECE"/>
<path d="M37.2284 14.1177H34.2346C33.6598 14.1177 33.1934 13.6513 33.1934 13.0764C33.1934 12.5016 33.6598 12.0352 34.2346 12.0352H37.2284C37.8033 12.0352 38.2692 12.5016 38.2692 13.0764C38.2692 13.6513 37.8033 14.1177 37.2284 14.1177Z" fill="#CECECE"/>
<path d="M29.3842 14.1177H26.3909C25.8155 14.1177 25.3496 13.6513 25.3496 13.0764C25.3496 12.5016 25.8155 12.0352 26.3909 12.0352H29.3842C29.959 12.0352 30.4254 12.5016 30.4254 13.0764C30.4254 13.6513 29.959 14.1177 29.3842 14.1177Z" fill="#CECECE"/>
<path d="M21.5404 14.1177H18.5471C17.9723 14.1177 17.5059 13.6513 17.5059 13.0764C17.5059 12.5016 17.9723 12.0352 18.5471 12.0352H21.5409C22.1158 12.0352 22.5817 12.5016 22.5817 13.0764C22.5817 13.6513 22.1158 14.1177 21.5404 14.1177Z" fill="#CECECE"/>
<path d="M37.2284 72.9644H34.2346C33.6598 72.9644 33.1934 72.498 33.1934 71.9231C33.1934 71.3483 33.6598 70.8818 34.2346 70.8818H37.2284C37.8033 70.8818 38.2692 71.3483 38.2692 71.9231C38.2692 72.498 37.8033 72.9644 37.2284 72.9644Z" fill="#CECECE"/>
<path d="M29.3842 72.9644H26.3909C25.8155 72.9644 25.3496 72.498 25.3496 71.9231C25.3496 71.3483 25.8155 70.8818 26.3909 70.8818H29.3842C29.959 70.8818 30.4254 71.3483 30.4254 71.9231C30.4254 72.498 29.959 72.9644 29.3842 72.9644Z" fill="#CECECE"/>
<path d="M21.5404 72.9644H18.5471C17.9723 72.9644 17.5059 72.498 17.5059 71.9231C17.5059 71.3483 17.9723 70.8818 18.5471 70.8818H21.5409C22.1158 70.8818 22.5817 71.3483 22.5817 71.9231C22.5817 72.498 22.1158 72.9644 21.5404 72.9644Z" fill="#CECECE"/>
<path d="M16.7787 18.1269H9.34766C8.60329 18.1269 8 17.5231 8 16.7792V9.34766C8 8.60329 8.60329 8 9.34766 8H16.7787C17.5231 8 18.1264 8.60329 18.1264 9.34766V16.7792C18.1264 17.5231 17.5231 18.1269 16.7787 18.1269Z" fill="#ED2B4A"/>
<path d="M18.1268 9.34766V16.7787C18.1268 17.5241 17.5245 18.1264 16.7791 18.1264H13.5137C14.258 18.1264 14.8613 17.5241 14.8613 16.7787V9.34766C14.8613 8.60381 14.258 8 13.5137 8H16.7791C17.5245 8 18.1268 8.60381 18.1268 9.34766Z" fill="#B73451"/>
<path d="M46.2162 18.1269H38.7852C38.0408 18.1269 37.4375 17.5231 37.4375 16.7792V9.34766C37.4375 8.60329 38.0408 8 38.7852 8H46.2162C46.9606 8 47.5639 8.60329 47.5639 9.34766V16.7792C47.5639 17.5231 46.9606 18.1269 46.2162 18.1269Z" fill="#ED2B4A"/>
<path d="M47.5618 9.34766V16.7787C47.5618 17.5241 46.9595 18.1264 46.2141 18.1264H42.9492C43.6931 18.1264 44.2969 17.5241 44.2969 16.7787V9.34766C44.2969 8.60381 43.6931 8 42.9492 8H46.2141C46.9595 8 47.5618 8.60381 47.5618 9.34766Z" fill="#B73451"/>
<path d="M75.6518 18.1269H68.2207C67.4763 18.1269 66.873 17.5231 66.873 16.7792V9.34766C66.873 8.60329 67.4763 8 68.2207 8H75.6518C76.3961 8 76.9994 8.60329 76.9994 9.34766V16.7792C76.9994 17.5231 76.3961 18.1269 75.6518 18.1269Z" fill="#ED2B4A"/>
<path d="M76.9998 9.34766V16.7787C76.9998 17.5241 76.3976 18.1264 75.6522 18.1264H72.3867C73.1306 18.1264 73.7344 17.5241 73.7344 16.7787V9.34766C73.7344 8.60381 73.1306 8 72.3867 8H75.6522C76.3976 8 76.9998 8.60381 76.9998 9.34766Z" fill="#B73451"/>
<path d="M16.7787 47.5629H9.34766C8.60329 47.5629 8 46.9596 8 46.2152V38.7842C8 38.0398 8.60329 37.4365 9.34766 37.4365H16.7787C17.5231 37.4365 18.1264 38.0398 18.1264 38.7842V46.2152C18.1264 46.9596 17.5231 47.5629 16.7787 47.5629Z" fill="#ED2B4A"/>
<path d="M18.1268 38.7842V46.2152C18.1268 46.9601 17.5245 47.5629 16.7791 47.5629H13.5137C14.258 47.5629 14.8613 46.9601 14.8613 46.2152V38.7842C14.8613 38.0403 14.258 37.4365 13.5137 37.4365H16.7791C17.5245 37.4365 18.1268 38.0398 18.1268 38.7842Z" fill="#B73451"/>
<path d="M75.6518 47.5629H68.2207C67.4763 47.5629 66.873 46.9596 66.873 46.2152V38.7842C66.873 38.0398 67.4763 37.4365 68.2207 37.4365H75.6518C76.3961 37.4365 76.9994 38.0398 76.9994 38.7842V46.2152C76.9994 46.9596 76.3961 47.5629 75.6518 47.5629Z" fill="#ED2B4A"/>
<path d="M76.9998 38.7842V46.2152C76.9998 46.9601 76.3976 47.5629 75.6522 47.5629H72.3867C73.1306 47.5629 73.7344 46.9601 73.7344 46.2152V38.7842C73.7344 38.0403 73.1306 37.4365 72.3867 37.4365H75.6522C76.3976 37.4365 76.9998 38.0398 76.9998 38.7842Z" fill="#B73451"/>
<path d="M16.7787 77.0004H9.34766C8.60329 77.0004 8 76.3971 8 75.6527V68.2217C8 67.4773 8.60329 66.874 9.34766 66.874H16.7787C17.5231 66.874 18.1264 67.4773 18.1264 68.2217V75.6527C18.1264 76.3971 17.5231 77.0004 16.7787 77.0004Z" fill="#ED2B4A"/>
<path d="M18.1268 68.2207V75.6518C18.1268 76.3972 17.5245 76.9994 16.7791 76.9994H13.5137C14.258 76.9994 14.8613 76.3972 14.8613 75.6518V68.2207C14.8613 67.4769 14.258 66.873 13.5137 66.873H16.7791C17.5245 66.873 18.1268 67.4769 18.1268 68.2207Z" fill="#B73451"/>
<path d="M46.2162 77.0004H38.7852C38.0408 77.0004 37.4375 76.3971 37.4375 75.6527V68.2217C37.4375 67.4773 38.0408 66.874 38.7852 66.874H46.2162C46.9606 66.874 47.5639 67.4773 47.5639 68.2217V75.6527C47.5639 76.3971 46.9606 77.0004 46.2162 77.0004Z" fill="#ED2B4A"/>
<path d="M47.5618 68.2207V75.6518C47.5618 76.3972 46.9595 76.9994 46.2141 76.9994H42.9492C43.6931 76.9994 44.2969 76.3972 44.2969 75.6518V68.2207C44.2969 67.4769 43.6931 66.873 42.9492 66.873H46.2141C46.9595 66.873 47.5618 67.4769 47.5618 68.2207Z" fill="#B73451"/>
<path d="M75.6518 77.0004H68.2207C67.4763 77.0004 66.873 76.3971 66.873 75.6527V68.2217C66.873 67.4773 67.4763 66.874 68.2207 66.874H75.6518C76.3961 66.874 76.9994 67.4773 76.9994 68.2217V75.6527C76.9994 76.3971 76.3961 77.0004 75.6518 77.0004Z" fill="#ED2B4A"/>
<path d="M76.9998 68.2207V75.6518C76.9998 76.3972 76.3976 76.9994 75.6522 76.9994H72.3867C73.1306 76.9994 73.7344 76.3972 73.7344 75.6518V68.2207C73.7344 67.4769 73.1306 66.873 72.3867 66.873H75.6522C76.3976 66.873 76.9998 67.4769 76.9998 68.2207Z" fill="#B73451"/>
<path d="M57.3649 39.3285C55.9899 39.3285 54.8749 40.4435 54.8749 41.8185V51.3527L33.6478 30.1255H43.1819C44.5575 30.1255 45.6719 29.0105 45.6719 27.6355C45.6719 26.2605 44.5575 25.1455 43.1819 25.1455H27.6365C26.2615 25.1455 25.1465 26.2605 25.1465 27.6355V43.1809C25.1465 44.556 26.2615 45.6709 27.6365 45.6709C29.0115 45.6709 30.1265 44.556 30.1265 43.1809V33.6468L51.3537 54.874H41.8195C40.4445 54.874 39.3295 55.9889 39.3295 57.364C39.3295 58.739 40.4445 59.854 41.8195 59.854H57.3649C58.74 59.854 59.8549 58.739 59.8549 57.364V41.8185C59.8549 40.4435 58.74 39.3285 57.3649 39.3285Z" fill="#FDC010"/>
</g>
<defs>
<clipPath id="clip0_11619_11031">
<rect width="69" height="69" fill="white" transform="translate(8 8)"/>
</clipPath>
</defs>
</svg>
