<svg width="85" height="85" viewBox="0 0 85 85" fill="none" xmlns="http://www.w3.org/2000/svg">
<rect width="85" height="85" rx="10.2" fill="#F1F6FB"/>
<g clip-path="url(#clip0_11619_10946)">
<path d="M38.4683 55.3073V30.8457C38.4683 29.8525 37.6631 29.0474 36.6699 29.0474H35.3431C34.9405 29.0474 34.5929 28.7548 34.5367 28.3576L30.8817 28.3461C30.665 28.3454 30.4835 28.1903 30.4387 27.9783C30.0463 26.123 28.4332 23.9854 26.5332 23.9854C24.8501 24.7946 23.6321 26.4176 23.3916 28.3449C23.3412 28.7488 22.9893 29.0474 22.5823 29.0474H16.2416C15.79 29.0474 15.4238 29.4136 15.4238 29.8652V55.3074C15.4238 55.759 15.79 56.1252 16.2416 56.1252H37.6506C38.1022 56.1252 38.4683 55.759 38.4683 55.3073Z" fill="#6851A2"/>
<path d="M29.6749 28.3448C29.7253 28.7487 30.0771 29.0474 30.4841 29.0474H35.3432C34.9361 29.0474 34.5844 28.7489 34.534 28.3448C34.1883 25.5754 31.8257 23.4326 28.9628 23.4326C28.0922 23.4326 27.2685 23.6317 26.5332 23.9853C28.2163 24.7947 29.4343 26.4175 29.6749 28.3448Z" fill="#40297A"/>
<path d="M41.6835 29.0469H35.8438C36.837 29.0469 37.6422 29.852 37.6422 30.8452V55.3069C37.6422 55.7585 37.276 56.1247 36.8244 56.1247H41.6835C42.1351 56.1247 42.5013 55.7585 42.5013 55.3069L44.7474 52.7871V32.3477L42.5013 29.8648C42.5013 29.413 42.1351 29.0469 41.6835 29.0469Z" fill="#40297A"/>
<path d="M43.318 29.0469C42.8664 29.0469 42.5003 29.413 42.5003 29.8646V36.9718C42.4902 36.9716 42.4803 36.971 42.4702 36.971C39.3693 36.971 36.8555 39.4847 36.8555 42.5857C36.8555 45.6867 39.3693 48.2004 42.4702 48.2004C42.4803 48.2004 42.4902 48.1998 42.5003 48.1996V55.3068C42.5003 55.7584 42.8664 56.1245 43.318 56.1245H50.4243H50.4257C50.4257 58.3546 51.7258 60.2812 53.6095 61.1871C53.6126 61.1886 53.6157 61.1901 53.6188 61.1916C54.2075 61.4732 54.9158 61.3792 55.4109 60.9543C56.2972 60.1935 56.9438 59.1621 57.22 57.9867C57.396 57.2377 58.0466 56.6973 58.8159 56.6973H61.1758L61.6553 56.1247H63.9583C64.9152 56.1247 65.6907 55.3489 65.6907 54.3922V29.0469H43.318Z" fill="#05A899"/>
<path d="M68.7601 29.0469H64.7187V54.3922C64.7187 55.3491 63.943 56.1247 62.9863 56.1247H68.7601C69.2117 56.1247 69.5778 55.7585 69.5778 55.3069V29.8646C69.578 29.413 69.2118 29.0469 68.7601 29.0469Z" fill="#0A8A7B"/>
<path d="M56.6506 57.3995C56.2621 59.0738 55.1239 60.4599 53.6094 61.1876C54.3449 61.5415 55.1694 61.7397 56.0403 61.7397C59.1412 61.7397 61.655 59.226 61.655 56.125H58.243C57.4794 56.1251 56.8233 56.6556 56.6506 57.3995Z" fill="#0A8A7B"/>
<path d="M24.9676 73.7563V72.5862C24.9676 71.8213 25.161 71.0687 25.5299 70.3985C25.5299 70.3985 28.3488 64.7175 28.3489 64.7172C29.6226 62.1503 29.4037 59.5012 29.083 56.757C28.4164 51.0541 28.7679 45.1804 28.7679 39.4443C26.7569 40.9059 24.9364 44.7815 24.9364 47.8466C24.9364 49.7644 24.9366 51.9424 24.9369 53.1433C24.9374 54.949 22.728 55.9438 21.2341 55.0794L16.8905 50.7364C15.9507 49.7969 15.4229 48.5224 15.4229 47.1936V44.9135V35.8574C13.3512 37.5115 11.3858 39.251 10.5811 39.8835C9.68655 40.5868 9.36312 41.6261 9.25598 42.7589L8.03244 53.129C7.89121 54.6239 8.21343 56.1256 8.95437 57.4317C10.4291 60.0311 12.7428 64.5756 13.7776 67.2806C13.9918 67.8403 14.1021 68.4335 14.1021 69.0328V73.7563H24.9676Z" fill="#FFEAE1"/>
<path d="M33.1059 58.9332L32.5365 54.0613V41.4843C32.5365 40.0348 31.9778 38.86 30.5285 38.86C30.1529 38.8194 29.7673 38.8993 29.3826 39.0775C28.336 39.5621 27.6948 40.6428 27.6948 41.7961V51.3477C27.6948 53.1552 27.8 54.9612 28.0099 56.7566L28.2643 58.9332C28.4961 60.916 28.1529 62.9236 27.2758 64.7168L24.4568 70.3981C24.0879 71.0683 23.8945 71.8208 23.8945 72.5857V73.7559H28.7364V72.5857C28.7364 71.8208 28.9298 71.0683 29.2986 70.3981C31.1638 66.019 33.6436 63.5341 33.1059 58.9332Z" fill="#FFDBCC"/>
<path d="M25.7134 70.8066H13.0274C12.3586 70.8066 11.8164 71.3488 11.8164 72.0176V75.6981C11.8164 76.3669 12.3586 76.9091 13.0274 76.9091H26.1782L26.9244 76.1669V72.0175C26.9244 71.3488 26.3823 70.8066 25.7134 70.8066Z" fill="#6851A2"/>
<path d="M31.0269 75.6981V72.0176C31.0269 71.3488 30.4848 70.8066 29.8159 70.8066H24.9668C25.6356 70.8066 26.1778 71.3488 26.1778 72.0176V76.9092H29.8158C30.4846 76.9091 31.0269 76.3669 31.0269 75.6981Z" fill="#40297A"/>
<path d="M69.578 40.0928V46.0786L70.5451 45.2972C71.4169 44.5944 71.6938 43.3676 71.7996 42.2474L73.0231 31.8774C73.1645 30.3824 72.8421 28.8807 72.1012 27.5747C70.6265 24.9752 68.3128 20.4308 67.2779 17.7258C67.0638 17.1661 66.9534 16.5728 66.9534 15.9735V11.25H56.2643V12.4202C56.2643 13.1851 56.071 13.9376 55.7021 14.6078L52.8831 20.2891C50.924 24.2945 52.28 27.3836 52.4641 30.9446V43.5216C52.4641 44.9711 53.0228 46.1459 54.4721 46.1459C57.0325 46.4221 60.0646 41.1153 60.0646 37.1598C60.0646 35.2419 60.0643 33.0638 60.0641 31.8629C60.0639 31.2755 60.2971 30.7123 60.7175 30.2917L60.7392 30.2701C61.433 29.5762 62.9176 29.4354 63.7669 29.9269L68.1105 34.27C69.0501 35.2096 69.5781 36.4839 69.5781 37.8126L69.578 40.0928Z" fill="#FFEAE1"/>
<path d="M76.0458 27.5747C74.5711 24.9752 72.2574 20.4308 71.2226 17.7258C71.0084 17.1661 70.898 16.5728 70.898 15.9735V11.25H66.0273V15.9735C66.0273 16.5728 66.1377 17.1659 66.3519 17.7258C67.3867 20.4308 69.7004 24.9752 71.1751 27.5747C71.9161 28.8807 72.2384 30.3824 72.0971 31.8774L70.8735 42.2474C70.7677 43.3675 70.4493 44.3956 69.5775 45.0984V49.1491C71.6491 47.4949 73.6145 45.7554 74.4192 45.1229C75.3138 44.4197 75.6372 43.3804 75.7443 42.2476L76.9679 31.8775C77.1091 30.3824 76.7868 28.8807 76.0458 27.5747Z" fill="#FFDBCC"/>
<path d="M67.8751 14.1991C68.5438 14.1991 69.0859 13.6568 69.0859 12.9879V8.87596L68.311 8.09082H55.1838C54.515 8.09082 53.9727 8.63298 53.9727 9.30182V12.9879C53.9727 13.6568 54.5148 14.1991 55.1838 14.1991H67.8751Z" fill="#05A899"/>
<path d="M71.9744 8.09082H68.3124V12.9879C68.3124 13.6568 67.7703 14.1989 67.1016 14.1989H71.974C72.6429 14.1989 73.1852 13.6568 73.1852 12.9879V9.30182C73.1852 8.63312 72.6431 8.09109 71.9744 8.09082Z" fill="#0A8A7B"/>
</g>
<defs>
<clipPath id="clip0_11619_10946">
<rect width="69" height="69" fill="white" transform="translate(8 8)"/>
</clipPath>
</defs>
</svg>
