<svg width="85" height="85" viewBox="0 0 85 85" fill="none" xmlns="http://www.w3.org/2000/svg">
<rect width="85" height="85" rx="10.2" fill="#F1F6FB"/>
<g clip-path="url(#clip0_11619_10978)">
<path d="M42.5005 20.1833C41.0191 18.211 38.8594 16.8211 36.4122 16.3223L34.3828 18.4238L36.4122 20.5253C38.7772 21.3641 40.471 23.6218 40.471 26.2645V32.3527L41.4858 34.3821L42.5005 32.3527L43.921 26.268L42.5005 20.1833Z" fill="#CDD9FB"/>
<path d="M44.5294 26.2647C44.5294 23.6223 46.2232 21.3644 48.5882 20.5256L50.6176 18.424L48.5882 16.3225C46.1421 16.8212 43.982 18.2103 42.5 20.1835V32.353L43.5147 34.3824L44.5294 32.353C44.5294 30.3261 44.5294 28.2916 44.5294 26.2647Z" fill="#B3C7EF"/>
<path d="M40.471 52.6466V58.7348C40.471 61.3775 38.7772 63.6353 36.4122 64.474L34.3828 66.5755L36.4122 68.6771C38.8583 68.1784 41.0184 66.7892 42.5005 64.816L43.5828 58.7313L42.5005 52.6466L41.4858 50.6172L40.471 52.6466Z" fill="#CDD9FB"/>
<path d="M48.5882 68.6771L50.6176 66.5755L48.5882 64.474C46.2232 63.6352 44.5294 61.3774 44.5294 58.7348C44.5294 56.708 44.5294 54.6734 44.5294 52.6466L43.5147 50.6172L42.5 52.6466V64.816C43.9812 66.7884 46.141 68.1781 48.5882 68.6771Z" fill="#B3C7EF"/>
<path d="M18.8054 32.3525C17.3168 32.3525 16.1172 33.5593 16.1172 35.0479V49.9513C16.1172 51.4399 17.3239 52.6467 18.8125 52.6467H42.4995L44.529 42.4996L42.4995 32.3525C41.3 32.3525 25.3394 32.3525 18.8054 32.3525Z" fill="#DAD8DB"/>
<path d="M68.8824 35.0478C68.8824 33.5593 67.6828 32.3525 66.1942 32.3525C59.6601 32.3525 43.6996 32.3525 42.5 32.3525V52.6467H66.187C67.6756 52.6467 68.8824 51.4399 68.8824 49.9513V44.529L66.8529 42.4996L68.8824 40.4702V35.0478Z" fill="#B6C4CF"/>
<path d="M24.2344 40.4707H28.2932V44.5295H24.2344V40.4707Z" fill="#6851A2"/>
<path d="M32.3535 40.4707H36.4123V44.5295H32.3535V40.4707Z" fill="#6851A2"/>
<path d="M48.5879 44.5295H68.882C68.882 43.11 68.882 41.8902 68.882 40.4707C67.9451 40.4707 49.5214 40.4707 48.5879 40.4707V44.5295Z" fill="#6851A2"/>
<path d="M36.4118 25.5988C36.4118 27.0874 35.2164 28.2941 33.7278 28.2941C28.2671 28.2941 16.1447 28.2941 10.684 28.2941C9.19537 28.2941 8 27.0933 8 25.6047C8 21.6937 8 14.6005 8 10.6894C8 9.20081 9.20673 8 10.6953 8H33.7165C35.205 8 36.4118 9.20673 36.4118 10.6953V25.5988Z" fill="#05A899"/>
<path d="M8 25.6047V10.6894C8 9.20081 9.20673 8 10.6953 8V25.4465C10.6953 25.5479 10.7011 25.6492 10.7253 25.7476C10.9005 26.4609 11.6385 27.7685 13.5 28.2941H10.684C9.19537 28.2941 8 27.0933 8 25.6047Z" fill="#0A8A7B"/>
<path d="M16.1172 16.1172H20.176V20.176H16.1172V16.1172Z" fill="#E6EFFB"/>
<path d="M24.2344 16.1172H28.2932V20.176H24.2344V16.1172Z" fill="#465A61"/>
<path d="M74.3043 28.2941C75.7929 28.2941 76.9997 27.0933 76.9997 25.6047C76.9997 21.6937 76.9997 14.6005 76.9997 10.6894C76.9997 9.20081 75.8043 8 74.3157 8C68.855 8 56.7326 8 51.2718 8C49.7833 8 48.5879 9.20673 48.5879 10.6953V25.5988C48.5879 27.0874 49.7946 28.2941 51.2832 28.2941H74.3043Z" fill="#FDC010"/>
<path d="M56.7051 16.1172H60.7639V20.176H56.7051V16.1172Z" fill="#E6EFFB"/>
<path d="M64.8242 16.1172H68.883V20.176H64.8242V16.1172Z" fill="#465A61"/>
<path d="M36.4118 74.3046C36.4118 75.7932 35.2164 76.9999 33.7278 76.9999C28.2671 76.9999 16.1447 76.9999 10.684 76.9999C9.19537 76.9999 8 75.7991 8 74.3105C8 70.3995 8 63.3063 8 59.3952C8 57.9066 9.20673 56.7058 10.6953 56.7058H33.7165C35.205 56.7058 36.4118 57.9125 36.4118 59.4011V74.3046Z" fill="#ED2B4A"/>
<path d="M16.1172 64.8232H20.176V68.8821H16.1172V64.8232Z" fill="#E6EFFB"/>
<path d="M24.2344 64.8232H28.2932V68.8821H24.2344V64.8232Z" fill="#465A61"/>
<path d="M48.5879 74.3049C48.5879 75.7934 49.7946 77.0002 51.2832 77.0002H74.3043C75.7929 77.0002 76.9997 75.7994 76.9997 74.3108C76.9997 70.3997 76.9997 63.3065 76.9997 59.3954C76.9997 57.9069 75.8043 56.7061 74.3157 56.7061C68.855 56.7061 56.7326 56.7061 51.2718 56.7061C49.7833 56.7061 48.5879 57.9128 48.5879 59.4014V74.3049Z" fill="#6851A2"/>
<path d="M56.7051 64.8232H60.7639V68.8821H56.7051V64.8232Z" fill="#E6EFFB"/>
<path d="M64.8242 64.8232H68.883V68.8821H64.8242V64.8232Z" fill="#465A61"/>
<path d="M48.5898 25.6047V10.6894C48.5898 9.20081 49.7966 8 51.2852 8V25.4465C51.2852 25.5479 51.291 25.6492 51.3152 25.7476C51.4904 26.4609 52.2284 27.7685 54.0898 28.2941H51.2738C49.7852 28.2941 48.5898 27.0933 48.5898 25.6047Z" fill="#D59800"/>
<path d="M8 74.3147V59.3994C8 57.9108 9.20673 56.71 10.6953 56.71V74.1565C10.6953 74.2579 10.7011 74.3592 10.7253 74.4576C10.9005 75.1709 11.6385 76.4785 13.5 77.0041H10.684C9.19537 77.0041 8 75.8033 8 74.3147Z" fill="#B73451"/>
<path d="M48.5898 74.3147V59.3994C48.5898 57.9108 49.7966 56.71 51.2852 56.71V74.1565C51.2852 74.2579 51.291 74.3592 51.3152 74.4576C51.4904 75.1709 52.2284 76.4785 54.0898 77.0041H51.2738C49.7852 77.0041 48.5898 75.8033 48.5898 74.3147Z" fill="#40297A"/>
</g>
<defs>
<clipPath id="clip0_11619_10978">
<rect width="69" height="69" fill="white" transform="translate(8 8)"/>
</clipPath>
</defs>
</svg>
