<svg width="85" height="85" viewBox="0 0 85 85" fill="none" xmlns="http://www.w3.org/2000/svg">
<rect width="85" height="85" rx="10.2" fill="#F1F6FB"/>
<path d="M42.5 68.375H14.4688C13.2774 68.375 12.3125 67.4101 12.3125 66.2188V61.9062C12.3125 60.7149 13.2774 59.75 14.4688 59.75H42.5V68.375Z" fill="#ED2B4A"/>
<path d="M22.1523 59.75C26.8939 65.0404 33.7756 68.375 41.4217 68.375V59.75H22.1523Z" fill="#B73451"/>
<path d="M25.25 42.5H16.625C16.625 28.2321 28.2332 16.625 42.5 16.625V25.25C32.9888 25.25 25.25 32.9888 25.25 42.5Z" fill="#FDC010"/>
<path d="M42.5 68.375C28.2332 68.375 16.625 56.7679 16.625 42.5H25.25C25.25 52.0112 32.9888 59.75 42.5 59.75V68.375Z" fill="#05A899"/>
<path d="M42.5 59.75H61.9062V68.375H42.5V59.75Z" fill="#00A0C8"/>
<path d="M33.4284 19.413C32.5864 20.255 32.5864 21.62 33.4284 22.462L37.0865 26.12C38.7899 25.5562 40.6098 25.25 42.4997 25.25V16.625C39.9489 16.625 37.4843 16.9959 35.1545 17.687L33.4284 19.413Z" fill="#D59800"/>
<path d="M19.413 51.5713C20.255 52.4134 21.62 52.4134 22.462 51.5713L26.12 47.9133C25.5562 46.2098 25.25 44.39 25.25 42.5H16.625C16.625 45.0508 16.9959 47.5154 17.687 49.8453L19.413 51.5713Z" fill="#0A8A7B"/>
<path d="M65.5879 33.4284C64.7459 32.5864 63.381 32.5864 62.5389 33.4284L58.8809 37.0865C59.4447 38.7899 59.7509 40.6098 59.7509 42.4997H68.3759C68.3759 39.9489 68.005 37.4843 67.314 35.1545L65.5879 33.4284Z" fill="#0082AA"/>
<path fill-rule="evenodd" clip-rule="evenodd" d="M23.375 42.5001C23.375 32.5 31.875 23.1907 40.719 23.1907V25.3849C32.2212 26.449 25.6253 33.7188 25.6253 42.5001H23.375Z" fill="#D59800"/>
<path d="M44.656 16.7146V14.4689C44.656 13.5967 44.1309 12.8107 43.3256 12.4765C42.5181 12.1412 41.593 12.3267 40.9753 12.9444L34.5065 19.4132C33.6645 20.2552 33.6645 21.6201 34.5065 22.4621L40.9753 28.9309C41.3882 29.3438 41.938 29.5626 42.4997 29.5626C42.7779 29.5626 43.0582 29.5087 43.3256 29.3988C44.1309 29.0646 44.656 28.2786 44.656 27.4064V25.3849C53.1538 26.449 59.7497 33.7188 59.7497 42.5001H68.3747C68.3747 28.9589 57.918 17.8143 44.656 16.7146Z" fill="#6851A2"/>
<path fill-rule="evenodd" clip-rule="evenodd" d="M62 42.5001C62 32.5 53.5 23.1907 44.656 23.1907V25.3849C53.1538 26.449 59.7497 33.7188 59.7497 42.5001H62Z" fill="#40297A"/>
<path d="M29.3993 41.6755C29.0651 40.869 28.2791 40.344 27.4069 40.344H14.4694C13.5972 40.344 12.8112 40.869 12.477 41.6755C12.1428 42.4808 12.3272 43.408 12.9449 44.0247L19.4137 50.4935C19.8352 50.915 20.3861 51.1252 20.9381 51.1252C21.4901 51.1252 22.0411 50.915 22.4626 50.4935L28.9314 44.0247C29.5481 43.408 29.7324 42.4808 29.3993 41.6755Z" fill="#FDC010"/>
<path d="M68.2855 44.656H70.5312C71.4035 44.656 72.1894 44.1309 72.5236 43.3245C72.8578 42.5191 72.6735 41.5919 72.0557 40.9753L65.587 34.5065C64.745 33.6645 63.38 33.6645 62.538 34.5065L56.0693 40.9753C55.4526 41.5919 55.2682 42.5191 55.6014 43.3245C55.9356 44.1309 56.7215 44.656 57.5938 44.656H59.6152C58.5511 53.1538 51.2813 59.7497 42.5 59.7497H61.7693C65.4242 55.6712 67.8068 50.4293 68.2855 44.656Z" fill="#ED2B4A"/>
<path fill-rule="evenodd" clip-rule="evenodd" d="M49.5 59.7497C57.1 58.7495 61.7693 49.5 61.7693 44.656H59.6152C58.5511 53.1538 51.2813 59.7497 42.5 59.7497H49.5Z" fill="#B73451"/>
<path d="M72.0557 62.5382L65.587 56.0694C64.9692 55.4517 64.0442 55.2684 63.2367 55.6015C62.4313 55.9358 61.9062 56.7217 61.9062 57.5939V59.7502H42.5V68.3752H61.9062V70.5314C61.9062 71.4036 62.4313 72.1896 63.2367 72.5238C63.504 72.6338 63.7843 72.6877 64.0625 72.6877C64.6242 72.6877 65.174 72.4688 65.587 72.0559L72.0557 65.5871C72.8977 64.7451 72.8977 63.3802 72.0557 62.5382Z" fill="#05A899"/>
<path d="M51.9686 41.7889C51.9408 41.466 51.6912 41.2063 51.3695 41.1685L50.0738 41.016C49.8734 39.9876 49.4715 39.0313 48.9067 38.1929L49.7136 37.1707C49.9144 36.9164 49.9072 36.5562 49.6987 36.3083C49.5472 36.1281 49.3882 35.9522 49.2186 35.7825C49.049 35.6129 48.8731 35.4539 48.6929 35.3024C48.445 35.0938 48.0849 35.0866 47.8306 35.2874L46.8084 36.0944C45.97 35.5295 45.0138 35.1276 43.9855 34.9272L43.833 33.6314C43.7952 33.3097 43.5355 33.0601 43.2127 33.0322C42.9782 33.012 42.7413 33 42.5015 33C42.2616 33 42.0248 33.012 41.7903 33.0322C41.4675 33.0601 41.2078 33.3097 41.1699 33.6314L41.0175 34.9272C39.9891 35.1276 39.033 35.5295 38.1945 36.0944L36.4876 38.1929L35.2559 43.9842C35.4563 45.0127 35.8581 45.9689 36.423 46.8074L41.0173 49.5404L47.2511 48.4095L48.9067 46.8074C49.4715 45.9689 49.8734 45.0127 50.0738 43.9842L51.3695 43.8318C51.6912 43.794 51.9408 43.5343 51.9686 43.2114C51.9888 42.9769 52.0009 42.7401 52.0009 42.5002C52.0009 42.2601 51.9888 42.0234 51.9686 41.7889ZM42.5013 46.5716C40.2528 46.5716 38.4301 44.7488 38.4301 42.5001C38.4301 40.2514 40.2528 38.4286 42.5013 38.4286C44.7498 38.4286 46.5726 40.2514 46.5726 42.5001C46.5726 44.7488 44.7498 46.5716 42.5013 46.5716Z" fill="#DAD8DB"/>
<path d="M36.308 35.3017C36.1279 35.4533 35.952 35.6122 35.7824 35.7818C35.6127 35.9515 35.4537 36.1275 35.3022 36.3076C35.0936 36.5555 35.0865 36.9157 35.2873 37.17L36.0942 38.1922C35.5293 39.0306 35.1275 39.9869 34.9271 41.0153L33.6314 41.1678C33.3096 41.2056 33.0601 41.4653 33.0322 41.7882C33.012 42.0227 33 42.2595 33 42.4995C33 42.7394 33.012 42.9762 33.0322 43.2107C33.0601 43.5336 33.3097 43.7933 33.6314 43.8311L34.9271 43.9835C35.1275 45.012 35.5293 45.9681 36.0942 46.8067L35.2873 47.8289C35.0865 48.0832 35.0936 48.4434 35.3022 48.6913C35.4538 48.8715 35.6127 49.0474 35.7824 49.217C35.9519 49.3867 36.1278 49.5456 36.308 49.6971C36.5559 49.9057 36.9161 49.9129 37.1704 49.7122L38.1925 48.9051C39.031 49.4701 39.9872 49.872 41.0155 50.0724L41.1679 51.3681C41.2058 51.6899 41.4656 51.9395 41.7884 51.9673C42.0229 51.9875 42.2597 51.9996 42.4995 51.9996C42.7393 51.9996 42.9762 51.9875 43.2106 51.9673C43.5334 51.9395 43.7931 51.6899 43.831 51.3681L43.9834 50.0724C45.0119 49.872 45.968 49.4701 46.8064 48.9051L47.8286 49.7122C48.0829 49.9129 48.4431 49.9058 48.691 49.6971C48.8711 49.5456 49.0471 49.3867 49.2166 49.217C49.3862 49.0474 49.5452 48.8715 49.6968 48.6913C49.9053 48.4434 49.9125 48.0832 49.7117 47.8289L48.9047 46.8067C48.3976 46.2996 47.5767 46.3172 47.0843 46.8387C45.6927 48.3126 43.6035 49.1185 41.3398 48.7152C38.79 48.261 36.7385 46.2097 36.2841 43.6598C35.8807 41.3958 36.6865 39.3061 38.1605 37.9142C38.6819 37.4218 38.6995 36.6008 38.1924 36.0936L37.1703 35.2866C36.9161 35.086 36.5559 35.0932 36.308 35.3017Z" fill="#C8C5C9"/>
</svg>
