<svg width="85" height="85" viewBox="0 0 85 85" fill="none" xmlns="http://www.w3.org/2000/svg">
<rect width="85" height="85" rx="10.2" fill="#F1F6FB"/>
<g clip-path="url(#clip0_11619_10875)">
<circle cx="57.2351" cy="35.238" r="20.4636" fill="white" fill-opacity="0.5"/>
<circle cx="20.2434" cy="61.2112" r="12.593" fill="white" fill-opacity="0.5"/>
<circle cx="64.2614" cy="14.7751" r="4.36962" stroke="white" stroke-opacity="0.5" stroke-width="0.7055"/>
<circle cx="13.16" cy="73.0174" r="2.36119" fill="white" fill-opacity="0.5"/>
<g clip-path="url(#clip1_11619_10875)">
<path d="M30.081 42.1619C38.4099 42.1619 45.1619 35.4099 45.1619 27.081C45.1619 18.752 38.4099 12 30.081 12C21.752 12 15 18.752 15 27.081C15 35.4099 21.752 42.1619 30.081 42.1619Z" fill="#866FC0"/>
<path d="M30.0806 12.9165V12C21.7518 12 15 18.7518 15 27.0806C15 35.4095 21.7518 42.1613 30.0806 42.1613V41.2447C30.0806 40.7664 30.4609 40.3902 30.9383 40.3598C37.8876 39.9178 43.3871 34.1414 43.3871 27.0805C43.3871 20.0197 37.8876 14.2433 30.9383 13.8012C30.461 13.7711 30.0806 13.3948 30.0806 12.9165Z" fill="#6851A2"/>
<path d="M30.0797 38.6145C36.4491 38.6145 41.6125 33.451 41.6125 27.0816C41.6125 20.7122 36.4491 15.5488 30.0797 15.5488C23.7103 15.5488 18.5469 20.7122 18.5469 27.0816C18.5469 33.451 23.7103 38.6145 30.0797 38.6145Z" fill="#F5DCB4"/>
<path d="M30.0805 36.8387C35.4698 36.8387 39.8387 32.4698 39.8387 27.0805C39.8387 21.6912 35.4698 17.3223 30.0805 17.3223C24.6912 17.3223 20.3223 21.6912 20.3223 27.0805C20.3223 32.4698 24.6912 36.8387 30.0805 36.8387Z" fill="#FAEBC8"/>
<path d="M54.9188 66.9998C63.2478 66.9998 69.9998 60.2478 69.9998 51.9188C69.9998 43.5899 63.2478 36.8379 54.9188 36.8379C46.5899 36.8379 39.8379 43.5899 39.8379 51.9188C39.8379 60.2478 46.5899 66.9998 54.9188 66.9998Z" fill="#FFDC64"/>
<path d="M54.9185 37.7554V36.8389C46.5897 36.8389 39.8379 43.5907 39.8379 51.9195C39.8379 60.2483 46.5897 67.0002 54.9185 67.0002V66.0837C54.9185 65.6054 55.2988 65.2292 55.7762 65.1988C62.7255 64.7567 68.225 58.9803 68.225 51.9195C68.225 44.8587 62.7255 39.0823 55.7762 38.6402C55.2988 38.6099 54.9185 38.2337 54.9185 37.7554Z" fill="#FDC010"/>
<path d="M54.9195 63.4523C61.2889 63.4523 66.4523 58.2889 66.4523 51.9195C66.4523 45.5501 61.2889 40.3867 54.9195 40.3867C48.5501 40.3867 43.3867 45.5501 43.3867 51.9195C43.3867 58.2889 48.5501 63.4523 54.9195 63.4523Z" fill="#FFF082"/>
<path d="M55.8073 51.2581V46.6677C57.3742 46.8969 58.4686 47.6954 58.4686 48.4269C58.4686 48.9173 58.8654 49.314 59.3556 49.314C59.8459 49.314 60.2427 48.9172 60.2427 48.4269C60.2427 46.6115 58.354 45.1538 55.8073 44.875V43.9359C55.8073 43.4455 55.4105 43.0488 54.9202 43.0488C54.4299 43.0488 54.0331 43.4456 54.0331 43.9359V44.875C51.4863 45.1538 49.5977 46.6115 49.5977 48.4269C49.5977 51.0036 52.0663 51.9819 54.0331 52.5816V57.172C52.4661 56.9428 51.3718 56.1443 51.3718 55.4128C51.3718 54.9224 50.975 54.5257 50.4847 54.5257C49.9945 54.5257 49.5977 54.9225 49.5977 55.4128C49.5977 57.2282 51.4863 58.6859 54.0331 58.9647V59.9037C54.0331 60.3941 54.4299 60.7908 54.9202 60.7908C55.4105 60.7908 55.8073 60.394 55.8073 59.9037V58.9647C58.354 58.6859 60.2427 57.2282 60.2427 55.4128C60.2427 52.836 57.7741 51.8577 55.8073 51.2581ZM51.3718 48.4269C51.3718 47.6954 52.4663 46.8969 54.0331 46.6677V50.7081C52.0545 50.0294 51.3718 49.4165 51.3718 48.4269ZM55.8073 57.172V53.1316C57.7858 53.8102 58.4686 54.4232 58.4686 55.4128C58.4686 56.1443 57.3742 56.9428 55.8073 57.172Z" fill="#E1A546"/>
<path d="M38.0651 26.1938H30.9683V19.0971C30.9683 18.6072 30.5715 18.21 30.0812 18.21C29.5909 18.21 29.1941 18.6072 29.1941 19.0971V26.1939H28.307C27.8166 26.1939 27.4199 26.5911 27.4199 27.081C27.4199 27.5708 27.8167 27.9681 28.307 27.9681H29.1941V28.8551C29.1941 29.345 29.5909 29.7422 30.0812 29.7422C30.5715 29.7422 30.9683 29.345 30.9683 28.8551V27.9681H38.0651C38.5555 27.9681 38.9522 27.5708 38.9522 27.081C38.9522 26.5911 38.5554 26.1938 38.0651 26.1938Z" fill="#4B3F4E"/>
<path d="M30.0804 35.9513C29.5901 35.9513 29.1934 35.5545 29.1934 35.0642V34.1771C29.1934 33.6867 29.5902 33.29 30.0804 33.29C30.5707 33.29 30.9675 33.6869 30.9675 34.1771V35.0642C30.9675 35.5545 30.5708 35.9513 30.0804 35.9513Z" fill="#5D5360"/>
<path d="M22.9832 27.9675H22.0961C21.6057 27.9675 21.209 27.5703 21.209 27.0804C21.209 26.5906 21.6058 26.1934 22.0961 26.1934H22.9832C23.4735 26.1934 23.8703 26.5906 23.8703 27.0804C23.8703 27.5703 23.4734 27.9675 22.9832 27.9675Z" fill="#5D5360"/>
<path d="M63.8306 28.1924C63.3412 28.1798 62.927 28.5511 62.9062 29.0405L62.8367 30.6602C59.9409 24.0194 53.8943 19.0836 46.6561 17.7114C46.1666 17.6152 45.7101 17.9362 45.6191 18.4179C45.5281 18.8991 45.8444 19.3634 46.3252 19.4544C53.1221 20.7428 58.7796 25.4441 61.375 31.7451L59.8422 30.2646C59.4922 29.9242 58.9291 29.9353 58.5878 30.2871C58.2483 30.6397 58.2577 31.2011 58.6104 31.5415L62.9203 35.7032C63.0884 35.8652 63.311 35.9519 63.5362 35.9519C63.6471 35.9519 63.7589 35.9311 63.8655 35.8887C64.1895 35.7587 64.4077 35.4511 64.4225 35.1029L64.6789 29.1167C64.6995 28.6273 64.3201 28.2131 63.8306 28.1924Z" fill="#DBD9DC"/>
<path d="M38.6786 59.5459C31.8817 58.2579 26.2242 53.5566 23.6288 47.2556L25.1616 48.7361C25.5124 49.0774 26.0755 49.0662 26.416 48.7135C26.7555 48.361 26.7461 47.7996 26.3934 47.4592L22.0835 43.2974C21.8331 43.0557 21.4616 42.9847 21.1384 43.112C20.8145 43.242 20.5962 43.5496 20.5815 43.8978L20.325 49.884C20.3042 50.3734 20.6837 50.7875 21.1731 50.8084C21.1861 50.8092 21.1991 50.8092 21.2121 50.8092C21.6842 50.8092 22.0767 50.4367 22.0975 49.9603L22.167 48.3402C25.0632 54.9815 31.1092 59.9172 38.3476 61.289C38.4039 61.2994 38.4594 61.3046 38.5139 61.3046C38.9315 61.3046 39.304 61.0083 39.3846 60.5829C39.4757 60.1011 39.1594 59.6369 38.6786 59.5459Z" fill="#DBD9DC"/>
<path d="M30.0808 28.855C31.0607 28.855 31.855 28.0607 31.855 27.0808C31.855 26.101 31.0607 25.3066 30.0808 25.3066C29.101 25.3066 28.3066 26.101 28.3066 27.0808C28.3066 28.0607 29.101 28.855 30.0808 28.855Z" fill="#5D5360"/>
</g>
</g>
<defs>
<clipPath id="clip0_11619_10875">
<rect width="70.55" height="70.55" fill="white" transform="translate(7.65039 7.65039)"/>
</clipPath>
<clipPath id="clip1_11619_10875">
<rect width="55" height="55" fill="white" transform="translate(15 12)"/>
</clipPath>
</defs>
</svg>
