<svg width="80" height="80" viewBox="0 0 80 80" fill="none" xmlns="http://www.w3.org/2000/svg">
<rect width="80" height="80" rx="8.4" fill="#F1F6FB"/>
<g clip-path="url(#clip0_205_957)">
<path d="M22.6682 55.6001H18.3349C17.3776 55.6001 16.6016 56.3761 16.6016 57.3334V63.4001C16.6016 64.3574 17.3776 65.1334 18.3349 65.1334H22.6682C23.6255 65.1334 24.4016 64.3574 24.4016 63.4001V57.3334C24.4016 56.3761 23.6255 55.6001 22.6682 55.6001Z" fill="#6851A2"/>
<path d="M35.6682 53.8667H31.3349C30.3776 53.8667 29.6016 54.6427 29.6016 55.6V63.4C29.6016 64.3573 30.3776 65.1334 31.3349 65.1334H35.6682C36.6255 65.1334 37.4016 64.3573 37.4016 63.4V55.6C37.4016 54.6427 36.6255 53.8667 35.6682 53.8667Z" fill="#6851A2"/>
<path d="M48.6682 48.6665H44.3349C43.3776 48.6665 42.6016 49.4425 42.6016 50.3998V63.3998C42.6016 64.3571 43.3776 65.1332 44.3349 65.1332H48.6682C49.6255 65.1332 50.4016 64.3571 50.4016 63.3998V50.3998C50.4016 49.4425 49.6255 48.6665 48.6682 48.6665Z" fill="#6851A2"/>
<path d="M61.6682 43.4668H57.3349C56.3776 43.4668 55.6016 44.2428 55.6016 45.2001V63.4001C55.6016 64.3574 56.3776 65.1335 57.3349 65.1335H61.6682C62.6255 65.1335 63.4016 64.3574 63.4016 63.4001V45.2001C63.4016 44.2428 62.6255 43.4668 61.6682 43.4668Z" fill="#6851A2"/>
<path d="M25.2672 35.6667C31.011 35.6667 35.6672 31.0105 35.6672 25.2667C35.6672 19.5229 31.011 14.8667 25.2672 14.8667C19.5234 14.8667 14.8672 19.5229 14.8672 25.2667C14.8672 31.0105 19.5234 35.6667 25.2672 35.6667Z" fill="#FDC010"/>
<path d="M65.1321 29.6V35.6667C65.1321 36.62 64.3521 37.4 63.3988 37.4C62.4454 37.4 61.6654 36.62 61.6654 35.6667V33.786L55.4774 39.974C55.1568 40.2947 54.7148 40.4767 54.2554 40.4767C53.7961 40.4767 53.3541 40.2947 53.0248 39.974L50.3901 37.3307L42.5901 45.122C41.9141 45.8067 40.8134 45.8067 40.1374 45.122L37.5028 42.4874L29.7028 50.2787C29.3648 50.6167 28.9228 50.79 28.4808 50.79C28.0301 50.79 27.5881 50.6167 27.2501 50.2787L22.0328 45.0614L17.8208 49.2734C17.1448 49.9494 16.0528 49.9494 15.3768 49.2734C14.6921 48.5974 14.6921 47.4967 15.3768 46.8207L20.8021 41.3867C21.4521 40.7367 22.6048 40.7367 23.2548 41.3867L28.4808 46.604L36.2721 38.804C36.9481 38.128 38.0488 38.128 38.7248 38.804L41.3681 41.4474L49.1594 33.656C49.4888 33.3267 49.9308 33.1447 50.3901 33.1447C50.8494 33.1447 51.2914 33.3267 51.6121 33.656L54.2554 36.2907L59.2128 31.3334H57.3321C56.3788 31.3334 55.5988 30.5534 55.5988 29.6C55.5988 28.6467 56.3788 27.8667 57.3321 27.8667H63.3988C64.3521 27.8667 65.1321 28.6467 65.1321 29.6Z" fill="#ED2B4A"/>
<path d="M29.6011 27.8668C29.6011 25.7374 27.8175 25.0432 26.1345 24.5943V21.0531C27.3105 21.3504 28.0992 22.1347 28.1061 22.1425C28.4363 22.4874 28.9841 22.503 29.3316 22.1728C29.6774 21.8426 29.6921 21.294 29.3619 20.9474C29.303 20.885 28.055 19.5954 26.1336 19.273V19.2002C26.1336 18.7209 25.7462 18.3335 25.2669 18.3335C24.7877 18.3335 24.4003 18.7209 24.4003 19.2002V19.2704C22.4251 19.5928 20.9336 20.9924 20.9336 22.6668C20.9336 24.7962 22.7172 25.4896 24.4003 25.9394V29.4806C23.2337 29.185 22.4477 28.4111 22.426 28.3886C22.0949 28.0445 21.5498 28.0315 21.2031 28.3608C20.8573 28.691 20.8426 29.2396 21.1728 29.5863C21.2317 29.6487 22.4797 30.9383 24.4011 31.2607V31.3335C24.4011 31.8128 24.7885 32.2002 25.2678 32.2002C25.7471 32.2002 26.1345 31.8128 26.1345 31.3335V31.2633C28.1096 30.9409 29.6011 29.5412 29.6011 27.8668ZM22.6678 22.6668C22.6678 21.9293 23.4045 21.2888 24.4011 21.0436V24.1332C23.2337 23.7796 22.6678 23.4156 22.6678 22.6668ZM26.1345 29.4901V26.4004C27.3019 26.754 27.8678 27.118 27.8678 27.8668C27.8678 28.6044 27.1311 29.2448 26.1345 29.4901Z" fill="#D59800"/>
<path d="M25.2667 36.5333C19.0544 36.5333 14 31.4789 14 25.2667C14 19.0544 19.0544 14 25.2667 14C31.4789 14 36.5333 19.0544 36.5333 25.2667C36.5333 31.4789 31.4789 36.5333 25.2667 36.5333ZM25.2667 15.7333C20.0103 15.7333 15.7333 20.0103 15.7333 25.2667C15.7333 30.523 20.0103 34.8 25.2667 34.8C30.523 34.8 34.8 30.523 34.8 25.2667C34.8 20.0103 30.523 15.7333 25.2667 15.7333Z" fill="#D59800"/>
</g>
<defs>
<clipPath id="clip0_205_957">
<rect width="52" height="52" fill="white" transform="translate(14 14)"/>
</clipPath>
</defs>
</svg>
