<svg width="80" height="80" viewBox="0 0 80 80" fill="none" xmlns="http://www.w3.org/2000/svg">
<rect width="80" height="80" rx="12" fill="#F1F6FB"/>
<path d="M46.9154 60.667V61.5837C46.9154 64.6178 44.0462 67.0837 40.4987 67.0837C36.9512 67.0837 34.082 64.6178 34.082 61.5837V60.667H46.9154Z" fill="#CADBEA"/>
<path d="M40.5 13.917C40.1608 13.917 39.8217 13.9262 39.4733 13.9445C34.6051 14.2375 30.0261 16.3541 26.6488 19.8725C23.2714 23.3908 21.3438 28.0526 21.25 32.9287V33.167C21.2467 36.0492 21.8917 38.8952 23.1373 41.4943C24.3829 44.0934 26.1972 46.3791 28.4458 48.182C29.3499 48.9136 30.0785 49.8384 30.5782 50.8885C31.0779 51.9386 31.3359 53.0874 31.3333 54.2503V55.167H49.6667V54.2503C49.6667 53.0856 49.9268 51.9355 50.4279 50.8841C50.9291 49.8327 51.6586 48.9064 52.5633 48.1728C55.6704 45.6762 57.9259 42.2767 59.0184 38.4435C60.1109 34.6103 59.9867 30.5325 58.6627 26.7729C57.3388 23.0134 54.8805 19.7575 51.6271 17.4547C48.3738 15.1519 44.4859 13.9158 40.5 13.917Z" fill="#FDC010"/>
<path d="M46.8158 44.1303C46.6599 44.7769 46.3296 45.3684 45.8609 45.8403C45.3922 46.3123 44.803 46.6466 44.1575 46.807C43.3661 47.0011 42.5331 46.9336 41.7833 46.6145C41.6452 46.5521 41.4936 46.5253 41.3424 46.5365C41.1912 46.5477 41.0451 46.5965 40.9176 46.6784C40.7901 46.7604 40.6851 46.873 40.6121 47.0059C40.5392 47.1388 40.5007 47.2879 40.5 47.4395V55.167H31.3333V54.2503C31.3359 53.0874 31.0779 51.9386 30.5782 50.8885C30.0785 49.8384 29.3499 48.9136 28.4458 48.182C26.1972 46.3791 24.3829 44.0934 23.1373 41.4943C21.8917 38.8952 21.2467 36.0492 21.25 33.167H26.2183C26.3724 33.1666 26.5242 33.2051 26.6594 33.2789C26.7947 33.3526 26.9093 33.4593 26.9924 33.5891C27.0755 33.7188 27.1246 33.8674 27.1352 34.0212C27.1457 34.1749 27.1172 34.3288 27.0525 34.4687C26.8532 34.9255 26.7502 35.4186 26.75 35.917C26.7503 36.4735 26.877 37.0227 27.1207 37.5231C27.3643 38.0235 27.7184 38.4619 28.1564 38.8054C28.5943 39.1488 29.1045 39.3883 29.6485 39.5056C30.1925 39.623 30.7561 39.6152 31.2967 39.4828C31.9433 39.3269 32.5347 38.9966 33.0067 38.5279C33.4786 38.0592 33.813 37.47 33.9733 36.8245C34.1675 36.0331 34.1 35.2001 33.7808 34.4503C33.7185 34.3121 33.6917 34.1605 33.7028 34.0093C33.714 33.8581 33.7628 33.7121 33.8448 33.5846C33.9268 33.4571 34.0394 33.352 34.1723 33.2791C34.3052 33.2062 34.4542 33.1676 34.6058 33.167H40.5V39.052C40.4996 39.2061 40.5381 39.3578 40.6119 39.4931C40.6856 39.6284 40.7923 39.7429 40.9221 39.8261C41.0518 39.9092 41.2004 39.9583 41.3542 39.9688C41.5079 39.9793 41.6618 39.9509 41.8017 39.8862C42.2585 39.6868 42.7516 39.5838 43.25 39.5837C43.8065 39.5839 44.3557 39.7107 44.8561 39.9543C45.3565 40.1979 45.7949 40.5521 46.1384 40.99C46.4818 41.4279 46.7213 41.9382 46.8386 42.4822C46.956 43.0262 46.9482 43.5898 46.8158 44.1303Z" fill="#D59800"/>
<path d="M59.7494 33.167H54.7719C54.6202 33.1663 54.4712 33.1278 54.3383 33.0549C54.2054 32.9819 54.0928 32.8769 54.0108 32.7494C53.9288 32.6219 53.88 32.4759 53.8689 32.3246C53.8577 32.1734 53.8845 32.0219 53.9469 31.8837C54.266 31.1339 54.3335 30.3009 54.1394 29.5095C53.979 28.864 53.6446 28.2748 53.1727 27.8061C52.7008 27.3374 52.1093 27.0071 51.4627 26.8512C50.9221 26.7188 50.3586 26.711 49.8145 26.8284C49.2705 26.9457 48.7603 27.1852 48.3224 27.5286C47.8845 27.8721 47.5303 28.3105 47.2867 28.8109C47.043 29.3113 46.9163 29.8605 46.916 30.417C46.9162 30.9154 47.0192 31.4085 47.2185 31.8653C47.2832 32.0052 47.3117 32.1591 47.3012 32.3128C47.2907 32.4666 47.2416 32.6152 47.1584 32.7449C47.0753 32.8747 46.9608 32.9814 46.8255 33.0551C46.6902 33.1289 46.5385 33.1674 46.3844 33.167H40.4994V27.2728C40.4987 27.1212 40.4602 26.9722 40.3872 26.8392C40.3143 26.7063 40.2093 26.5938 40.0818 26.5118C39.9542 26.4298 39.8082 26.381 39.657 26.3698C39.5058 26.3587 39.3542 26.3855 39.216 26.4478C38.4662 26.7669 37.6332 26.8345 36.8419 26.6403C36.1963 26.48 35.6072 26.1456 35.1384 25.6737C34.6697 25.2017 34.3394 24.6103 34.1835 23.9637C34.0512 23.4231 34.0434 22.8595 34.1607 22.3155C34.2781 21.7715 34.5175 21.2613 34.861 20.8233C35.2044 20.3854 35.6429 20.0313 36.1433 19.7876C36.6436 19.544 37.1928 19.4173 37.7494 19.417C38.2478 19.4172 38.7408 19.5201 39.1977 19.7195C39.3375 19.7842 39.4914 19.8126 39.6452 19.8021C39.7989 19.7916 39.9475 19.7425 40.0773 19.6594C40.207 19.5762 40.3137 19.4617 40.3875 19.3264C40.4613 19.1911 40.4997 19.0394 40.4994 18.8853V13.917C45.6048 13.917 50.5011 15.9451 54.1112 19.5552C57.7212 23.1653 59.7494 28.0616 59.7494 33.167Z" fill="#D59800"/>
<path d="M51.5 56.0833C51.5 55.5971 51.3068 55.1308 50.963 54.787C50.6192 54.4432 50.1529 54.25 49.6667 54.25H31.3333C30.8471 54.25 30.3808 54.4432 30.037 54.787C29.6932 55.1308 29.5 55.5971 29.5 56.0833C29.5 56.5696 29.6932 57.0359 30.037 57.3797C30.3808 57.7235 30.8471 57.9167 31.3333 57.9167H32.25C31.7638 57.9167 31.2975 58.1098 30.9536 58.4536C30.6098 58.7975 30.4167 59.2638 30.4167 59.75C30.4167 60.2362 30.6098 60.7025 30.9536 61.0464C31.2975 61.3902 31.7638 61.5833 32.25 61.5833H48.75C49.2362 61.5833 49.7025 61.3902 50.0464 61.0464C50.3902 60.7025 50.5833 60.2362 50.5833 59.75C50.5833 59.2638 50.3902 58.7975 50.0464 58.4536C49.7025 58.1098 49.2362 57.9167 48.75 57.9167H49.6667C50.1529 57.9167 50.6192 57.7235 50.963 57.3797C51.3068 57.0359 51.5 56.5696 51.5 56.0833Z" fill="#CADBEA"/>
<path d="M48.7513 57.917H32.2513C31.2388 57.917 30.418 58.7378 30.418 59.7503C30.418 60.7628 31.2388 61.5837 32.2513 61.5837H48.7513C49.7638 61.5837 50.5846 60.7628 50.5846 59.7503C50.5846 58.7378 49.7638 57.917 48.7513 57.917Z" fill="#E1EAF4"/>
</svg>
