<svg width="80" height="80" viewBox="0 0 80 80" fill="none" xmlns="http://www.w3.org/2000/svg">
<rect width="80" height="80" rx="12" fill="#E2ECF7" fill-opacity="0.5"/>
<g clip-path="url(#clip0_262_1011)">
<path d="M30.8893 15.0713C32.358 12.3096 36.5498 12.3096 38.0185 15.0713L55.4819 47.9105C56.8069 50.4019 54.8799 53.3333 51.9174 53.3333H16.9904C14.0278 53.3333 12.101 50.4019 13.4259 47.9105L30.8893 15.0713Z" fill="#D9D9D9"/>
<path d="M30.8893 15.0713C32.358 12.3096 36.5498 12.3096 38.0185 15.0713L55.4819 47.9105C56.8069 50.4019 54.8799 53.3333 51.9174 53.3333H16.9904C14.0278 53.3333 12.101 50.4019 13.4259 47.9105L30.8893 15.0713Z" fill="#ED2B4A"/>
<path d="M32.3167 28.6679C32.2048 27.4057 33.2645 26.3232 34.6118 26.3232C35.9592 26.3232 37.0188 27.4057 36.9069 28.6679L35.7736 41.4517C35.7232 42.0197 35.2181 42.4566 34.6118 42.4566C34.0055 42.4566 33.5004 42.0197 33.45 41.4517L32.3167 28.6679Z" fill="#ED2B4A"/>
<path d="M36.3999 45.4813C36.3999 46.4094 35.5994 47.1619 34.612 47.1619C33.6247 47.1619 32.8242 46.4094 32.8242 45.4813C32.8242 44.5532 33.6247 43.8008 34.612 43.8008C35.5994 43.8008 36.3999 44.5532 36.3999 45.4813Z" fill="#ED2B4A"/>
<path d="M31.6019 27.9955C31.49 26.7334 32.5496 25.6509 33.897 25.6509C35.2443 25.6509 36.304 26.7334 36.1921 27.9955L35.0588 40.7794C35.0084 41.3473 34.5033 41.7842 33.897 41.7842C33.2906 41.7842 32.7855 41.3473 32.7352 40.7794L31.6019 27.9955Z" fill="url(#paint0_linear_262_1011)"/>
<path d="M35.685 44.8094C35.685 45.7376 34.8846 46.4901 33.8972 46.4901C32.9098 46.4901 32.1094 45.7376 32.1094 44.8094C32.1094 43.8813 32.9098 43.1289 33.8972 43.1289C34.8846 43.1289 35.685 43.8813 35.685 44.8094Z" fill="url(#paint1_linear_262_1011)"/>
<path d="M49.4435 40.622C49.4435 39.542 50.319 38.6665 51.399 38.6665H55.2703C56.3503 38.6665 57.2258 39.542 57.2258 40.622V41.5131C57.2258 41.9265 57.4973 42.2891 57.8839 42.4359C58.2496 42.5748 58.6652 42.4996 58.9419 42.223L59.5714 41.5935C60.335 40.8298 61.5733 40.8298 62.3369 41.5935L65.1569 44.4135C65.8749 45.1316 65.8749 46.2958 65.1569 47.0139L64.7783 47.3924C64.4296 47.7411 64.3546 48.2732 64.557 48.7228C64.7485 49.1482 65.1622 49.442 65.6287 49.442H66.1426C67.1692 49.442 68.0013 50.2742 68.0013 51.3007V55.5274C68.0013 56.4646 67.2416 57.2243 66.3044 57.2243H65.9681C65.4269 57.2243 64.9534 57.5812 64.752 58.0836C64.5551 58.5751 64.6454 59.141 65.0198 59.5154L65.2536 59.7492C65.9183 60.4139 65.9183 61.4915 65.2536 62.1561L62.1576 65.2521C61.493 65.9168 60.4153 65.9168 59.7507 65.2521L59.5168 65.0183C59.1425 64.6439 58.5766 64.5536 58.0851 64.7505C57.5827 64.9519 57.2258 65.4255 57.2258 65.9667V66.3029C57.2258 67.2401 56.4661 67.9998 55.5289 67.9998H51.3022C50.2756 67.9998 49.4435 67.1677 49.4435 66.1411V65.6272C49.4435 65.1607 49.1497 64.747 48.7243 64.5556C48.2746 64.3532 47.7426 64.4281 47.3939 64.7768L47.0154 65.1553C46.2974 65.8734 45.1332 65.8734 44.4151 65.1553L41.5952 62.3353C40.8314 61.5716 40.8314 60.3335 41.5952 59.5698L42.2245 58.9404C42.5011 58.6638 42.5763 58.2482 42.4374 57.8824C42.2905 57.4958 41.928 57.2243 41.5146 57.2243H40.6235C39.5435 57.2243 38.668 56.3488 38.668 55.2688V51.3975C38.668 50.3175 39.5435 49.442 40.6235 49.442H41.8427C42.1869 49.442 42.4928 49.226 42.6286 48.9098C42.7678 48.586 42.7066 48.2081 42.4574 47.9588L41.5952 47.0965C40.8314 46.3329 40.8314 45.0947 41.5952 44.331L44.3325 41.5937C45.0962 40.8299 46.3343 40.8299 47.0981 41.5937L47.9603 42.4559C48.2096 42.7052 48.5875 42.7663 48.9113 42.6271C49.2275 42.4913 49.4435 42.1854 49.4435 41.8412V40.622Z" fill="url(#paint2_linear_262_1011)"/>
<path d="M49.4435 40.622C49.4435 39.542 50.319 38.6665 51.399 38.6665H55.2703C56.3503 38.6665 57.2258 39.542 57.2258 40.622V41.5131C57.2258 41.9265 57.4973 42.2891 57.8839 42.4359C58.2496 42.5748 58.6652 42.4996 58.9419 42.223L59.5714 41.5935C60.335 40.8298 61.5733 40.8298 62.3369 41.5935L65.1569 44.4135C65.8749 45.1316 65.8749 46.2958 65.1569 47.0139L64.7783 47.3924C64.4296 47.7411 64.3546 48.2732 64.557 48.7228C64.7485 49.1482 65.1622 49.442 65.6287 49.442H66.1426C67.1692 49.442 68.0013 50.2742 68.0013 51.3007V55.5274C68.0013 56.4646 67.2416 57.2243 66.3044 57.2243H65.9681C65.4269 57.2243 64.9534 57.5812 64.752 58.0836C64.5551 58.5751 64.6454 59.141 65.0198 59.5154L65.2536 59.7492C65.9183 60.4139 65.9183 61.4915 65.2536 62.1561L62.1576 65.2521C61.493 65.9168 60.4153 65.9168 59.7507 65.2521L59.5168 65.0183C59.1425 64.6439 58.5766 64.5536 58.0851 64.7505C57.5827 64.9519 57.2258 65.4255 57.2258 65.9667V66.3029C57.2258 67.2401 56.4661 67.9998 55.5289 67.9998H51.3022C50.2756 67.9998 49.4435 67.1677 49.4435 66.1411V65.6272C49.4435 65.1607 49.1497 64.747 48.7243 64.5556C48.2746 64.3532 47.7426 64.4281 47.3939 64.7768L47.0154 65.1553C46.2974 65.8734 45.1332 65.8734 44.4151 65.1553L41.5952 62.3353C40.8314 61.5716 40.8314 60.3335 41.5952 59.5698L42.2245 58.9404C42.5011 58.6638 42.5763 58.2482 42.4374 57.8824C42.2905 57.4958 41.928 57.2243 41.5146 57.2243H40.6235C39.5435 57.2243 38.668 56.3488 38.668 55.2688V51.3975C38.668 50.3175 39.5435 49.442 40.6235 49.442H41.8427C42.1869 49.442 42.4928 49.226 42.6286 48.9098C42.7678 48.586 42.7066 48.2081 42.4574 47.9588L41.5952 47.0965C40.8314 46.3329 40.8314 45.0947 41.5952 44.331L44.3325 41.5937C45.0962 40.8299 46.3343 40.8299 47.0981 41.5937L47.9603 42.4559C48.2096 42.7052 48.5875 42.7663 48.9113 42.6271C49.2275 42.4913 49.4435 42.1854 49.4435 41.8412V40.622Z" fill="url(#paint3_linear_262_1011)"/>
<path d="M54.1205 60.7068C57.7575 60.7068 60.7058 57.7584 60.7058 54.1215C60.7058 50.4845 57.7575 47.5361 54.1205 47.5361C50.4835 47.5361 47.5352 50.4845 47.5352 54.1215C47.5352 57.7584 50.4835 60.7068 54.1205 60.7068Z" fill="#323232"/>
<path d="M53.6322 60.2185C57.2692 60.2185 60.2175 57.2702 60.2175 53.6332C60.2175 49.9962 57.2692 47.0479 53.6322 47.0479C49.9952 47.0479 47.0469 49.9962 47.0469 53.6332C47.0469 57.2702 49.9952 60.2185 53.6322 60.2185Z" fill="url(#paint4_linear_262_1011)"/>
</g>
<defs>
<linearGradient id="paint0_linear_262_1011" x1="33.8967" y1="43.129" x2="33.8967" y2="46.4895" gradientUnits="userSpaceOnUse">
<stop stop-color="#EEEFEF"/>
<stop offset="1" stop-color="#DAE0E0"/>
</linearGradient>
<linearGradient id="paint1_linear_262_1011" x1="33.897" y1="43.1292" x2="33.897" y2="46.4897" gradientUnits="userSpaceOnUse">
<stop stop-color="#EEEFEF"/>
<stop offset="1" stop-color="#DAE0E0"/>
</linearGradient>
<linearGradient id="paint2_linear_262_1011" x1="53.4795" y1="38.6665" x2="53.4795" y2="67.9998" gradientUnits="userSpaceOnUse">
<stop stop-color="#83CEB3"/>
<stop offset="1" stop-color="#51B987"/>
</linearGradient>
<linearGradient id="paint3_linear_262_1011" x1="53.3346" y1="38.6665" x2="53.3346" y2="67.9998" gradientUnits="userSpaceOnUse">
<stop stop-color="#5E5E5E"/>
<stop offset="1" stop-color="#303030"/>
</linearGradient>
<linearGradient id="paint4_linear_262_1011" x1="53.6322" y1="47.0479" x2="53.6322" y2="60.2176" gradientUnits="userSpaceOnUse">
<stop stop-color="#EEEFEF"/>
<stop offset="1" stop-color="#DAE0E0"/>
</linearGradient>
<clipPath id="clip0_262_1011">
<rect width="55" height="55" fill="white" transform="translate(13 13)"/>
</clipPath>
</defs>
</svg>
