<svg width="85" height="85" viewBox="0 0 85 85" fill="none" xmlns="http://www.w3.org/2000/svg">
<rect width="85" height="85" rx="10.2" fill="#F1F6FB"/>
<g clip-path="url(#clip0_68_11145)">
<circle cx="57.2341" cy="35.2372" r="20.4636" fill="white" fill-opacity="0.5"/>
<circle cx="20.2424" cy="61.2107" r="12.593" fill="white" fill-opacity="0.5"/>
<circle cx="64.2605" cy="14.7743" r="4.36962" stroke="white" stroke-opacity="0.5" stroke-width="0.7055"/>
<circle cx="13.1581" cy="73.0166" r="2.36119" fill="white" fill-opacity="0.5"/>
<g clip-path="url(#clip1_68_11145)">
<path d="M31.209 49.754H25.5049V46.2393C25.5049 46.0103 25.6905 45.8247 25.9195 45.8247H30.7944C31.0235 45.8247 31.2091 46.0103 31.2091 46.2393V49.754H31.209Z" fill="#6851A2"/>
<path d="M29.1357 45.8251V49.7544H31.2095V46.2397C31.2095 46.0107 31.0238 45.8251 30.7948 45.8251H29.1357Z" fill="#40297A"/>
<path d="M41.1855 49.754H35.4814V46.2393C35.4814 46.0103 35.667 45.8247 35.8961 45.8247H40.771C41 45.8247 41.1856 46.0103 41.1856 46.2393L41.1855 49.754Z" fill="#6851A2"/>
<path d="M39.1123 45.8251V49.7544H41.186V46.2397C41.186 46.0107 41.0004 45.8251 40.7713 45.8251H39.1123Z" fill="#40297A"/>
<path d="M27.5909 21.7234H21.8867V17.9413C21.8867 17.7123 22.0724 17.5267 22.3013 17.5267H27.1763C27.4053 17.5267 27.5909 17.7123 27.5909 17.9413V21.7234Z" fill="#FDC010"/>
<path d="M25.5166 17.5267V21.7234H27.5903V17.9412C27.5903 17.7123 27.4047 17.5267 27.1756 17.5267H25.5166Z" fill="#D59800"/>
<path d="M37.5665 21.7234H31.8623V17.9413C31.8623 17.7123 32.0479 17.5267 32.2769 17.5267H37.1519C37.3809 17.5267 37.5665 17.7123 37.5665 17.9413V21.7234Z" fill="#FDC010"/>
<path d="M35.4932 17.5267V21.7234H37.5669V17.9412C37.5669 17.7123 37.3812 17.5267 37.1522 17.5267H35.4932Z" fill="#D59800"/>
<path d="M51.1631 30.702H45.459V26.183C45.459 25.9541 45.6446 25.7684 45.8736 25.7684H50.7486C50.9776 25.7684 51.1632 25.954 51.1632 26.183L51.1631 30.702Z" fill="#05A899"/>
<path d="M49.0889 25.7684V30.7019H51.1626V26.1829C51.1626 25.954 50.9769 25.7684 50.7479 25.7684H49.0889Z" fill="#0A8A7B"/>
<path d="M61.1396 30.702H55.4355V26.183C55.4355 25.9541 55.6211 25.7684 55.8502 25.7684H60.7251C60.9542 25.7684 61.1397 25.954 61.1397 26.183V30.702H61.1396Z" fill="#05A899"/>
<path d="M59.0654 25.7684V30.7019H61.1392V26.1829C61.1392 25.954 60.9535 25.7684 60.7244 25.7684H59.0654Z" fill="#0A8A7B"/>
<path d="M63.3914 49.3865V68.6141C63.3914 68.843 63.2057 69.0286 62.9767 69.0286H23.6686C23.4396 69.0286 23.2539 68.843 23.2539 68.6141V49.3865C23.2539 49.1576 23.4396 48.972 23.6686 48.972H62.9767C63.2057 48.972 63.3914 49.1576 63.3914 49.3865Z" fill="#FDC010"/>
<path d="M61.3174 48.972V69.0286H62.9765C63.2055 69.0286 63.3912 68.843 63.3912 68.6141V49.3865C63.3912 49.1576 63.2055 48.972 62.9765 48.972H61.3174Z" fill="#D59800"/>
<path d="M62.9763 48.9718H43.7369C43.508 48.9718 43.3223 48.7862 43.3223 48.5571V29.33C43.3223 29.1009 43.5079 28.9153 43.7369 28.9153H62.9762C63.2052 28.9153 63.3909 29.1009 63.3909 29.33V48.5571C63.3909 48.7862 63.2053 48.9718 62.9763 48.9718Z" fill="#6851A2"/>
<path d="M61.3174 28.9153V48.9718H62.9764C63.2054 48.9718 63.3911 48.7862 63.3911 48.5572V29.3299C63.3911 29.1009 63.2054 28.9153 62.9764 28.9153H61.3174Z" fill="#40297A"/>
<path d="M39.2897 40.7301H20.0504C19.8213 40.7301 19.6357 40.5445 19.6357 40.3154V21.0883C19.6357 20.8592 19.8213 20.6736 20.0504 20.6736H39.2897C39.5187 20.6736 39.7043 20.8592 39.7043 21.0883V40.3154C39.7043 40.5444 39.5187 40.7301 39.2897 40.7301Z" fill="#05A899"/>
<path d="M37.627 20.6736V40.7301H39.291C39.52 40.7301 39.7057 40.5445 39.7057 40.3155V21.0882C39.7057 20.8592 39.52 20.6736 39.291 20.6736H37.627Z" fill="#0A8A7B"/>
<path d="M26.3638 66.674C25.9472 66.674 25.6094 66.3363 25.6094 65.9196V52.0805C25.6094 51.6637 25.9472 51.326 26.3638 51.326H60.2799C60.6966 51.326 61.0344 51.6637 61.0344 52.0805C61.0344 52.4972 60.6966 52.8349 60.2799 52.8349H27.1182V65.9196C27.1182 66.3362 26.7804 66.674 26.3638 66.674Z" fill="#D59800"/>
<path d="M46.4322 46.6176C46.0155 46.6176 45.6777 46.2799 45.6777 45.8632V32.0243C45.6777 31.6075 46.0155 31.2698 46.4322 31.2698H60.2795C60.6962 31.2698 61.0339 31.6075 61.0339 32.0243C61.0339 32.441 60.6962 32.7787 60.2795 32.7787H47.1866V45.8632C47.1866 46.2799 46.8488 46.6176 46.4322 46.6176Z" fill="#40297A"/>
<path d="M22.7456 38.3757C22.329 38.3757 21.9912 38.038 21.9912 37.6213V23.7822C21.9912 23.3655 22.329 23.0278 22.7456 23.0278H36.5929C37.0095 23.0278 37.3473 23.3655 37.3473 23.7822C37.3473 24.199 37.0095 24.5367 36.5929 24.5367H23.5V37.6213C23.5 38.0379 23.1623 38.3757 22.7456 38.3757Z" fill="#0A8A7B"/>
</g>
</g>
<defs>
<clipPath id="clip0_68_11145">
<rect width="70.55" height="70.55" fill="white" transform="translate(7.65039 7.6499)"/>
</clipPath>
<clipPath id="clip1_68_11145">
<rect width="51.5015" height="51.5015" fill="white" transform="translate(15.7627 17.5272)"/>
</clipPath>
</defs>
</svg>
