<svg width="85" height="85" viewBox="0 0 85 85" fill="none" xmlns="http://www.w3.org/2000/svg">
<rect width="85" height="85" rx="10.2" fill="#F1F6FB"/>
<g clip-path="url(#clip0_68_11181)">
<circle cx="57.2341" cy="35.2372" r="20.4636" fill="white" fill-opacity="0.5"/>
<circle cx="20.2424" cy="61.2107" r="12.593" fill="white" fill-opacity="0.5"/>
<circle cx="64.2605" cy="14.7743" r="4.36962" stroke="white" stroke-opacity="0.5" stroke-width="0.7055"/>
<circle cx="13.1581" cy="73.0166" r="2.36119" fill="white" fill-opacity="0.5"/>
<g clip-path="url(#clip1_68_11181)">
<path d="M71.9435 43.1735L65.5997 36.8297C65.2457 36.4757 64.6722 36.4757 64.3183 36.8297C63.9644 37.1837 63.9643 37.7573 64.3183 38.1112L69.115 42.9079H59.5215C59.0206 42.9079 58.6152 43.3137 58.6152 43.8142C58.6152 44.3147 59.0206 44.7204 59.5215 44.7204H69.115L64.3183 49.5172C63.9643 49.8712 63.9643 50.4448 64.3183 50.7987C64.4952 50.9756 64.7271 51.0642 64.959 51.0642C65.1909 51.0642 65.4228 50.9757 65.5997 50.7987L71.9435 44.4549C72.2975 44.1009 72.2975 43.5275 71.9435 43.1735Z" fill="#DBD9DC"/>
<path d="M43.6407 15.2657C43.2867 14.9117 42.7131 14.9117 42.3593 15.2657L36.9218 20.7032C36.5677 21.0573 36.5677 21.6308 36.9218 21.9847C37.2758 22.3386 37.8493 22.3387 38.2032 21.9847L42.0937 18.0942V27.6877C42.0937 28.1882 42.499 28.594 43 28.594C43.5009 28.594 43.9062 28.1882 43.9062 27.6877V18.0942L47.7968 21.9847C47.9737 22.1617 48.2056 22.2502 48.4375 22.2502C48.6694 22.2502 48.9012 22.1617 49.0782 21.9847C49.4322 21.6307 49.4322 21.0571 49.0782 20.7032L43.6407 15.2657Z" fill="#DBD9DC"/>
<path d="M47.7967 66.0155L43.9062 69.9061V60.3125C43.9062 59.812 43.5009 59.4062 42.9999 59.4062C42.499 59.4062 42.0937 59.812 42.0937 60.3125V69.9061L38.2031 66.0155C37.8491 65.6615 37.2756 65.6615 36.9217 66.0155C36.5678 66.3695 36.5677 66.9431 36.9217 67.297L42.3592 72.7345C42.5362 72.9114 42.768 73 42.9999 73C43.2318 73 43.4637 72.9115 43.6407 72.7345L49.0782 67.297C49.4322 66.943 49.4322 66.3694 49.0782 66.0155C48.7241 65.6616 48.1507 65.6615 47.7967 66.0155Z" fill="#DBD9DC"/>
<path d="M26.6875 43.0939H17.0939L21.8907 38.2971C22.2447 37.9431 22.2447 37.3696 21.8907 37.0157C21.5367 36.6618 20.9631 36.6617 20.6093 37.0157L14.2655 43.3595C13.9115 43.7135 13.9115 44.287 14.2655 44.6409L20.6093 50.9846C20.7862 51.1617 21.0181 51.2502 21.25 51.2502C21.4819 51.2502 21.7137 51.1617 21.8907 50.9846C22.2447 50.6306 22.2447 50.0571 21.8907 49.7032L17.0939 44.9064H26.6875C27.1884 44.9064 27.5937 44.5007 27.5937 44.0002C27.5937 43.4997 27.1884 43.0939 26.6875 43.0939Z" fill="#DBD9DC"/>
<path d="M55.6446 43.0504C55.6075 42.6192 55.2741 42.2724 54.8444 42.2219L53.1139 42.0183C52.8462 40.6447 52.3095 39.3677 51.5551 38.2479L52.6328 36.8828C52.901 36.5432 52.8914 36.0622 52.6129 35.7311C52.4106 35.4905 52.1982 35.2555 51.9717 35.0289C51.7452 34.8024 51.5102 34.5901 51.2696 34.3877C50.9385 34.1091 50.4575 34.0996 50.1179 34.3677L48.7527 35.4455C47.6329 34.691 46.3558 34.1543 44.9824 33.8866L44.7788 32.1561C44.7283 31.7265 44.3814 31.3931 43.9503 31.3559C43.637 31.3288 43.3208 31.3129 43.0004 31.3129C42.68 31.3129 42.3638 31.3288 42.0505 31.3559C41.6194 31.3931 41.2725 31.7265 41.222 32.1561L41.0184 33.8866C39.6449 34.1543 38.3679 34.691 37.2481 35.4455L34.9683 38.2479L33.3232 45.9823C33.5909 47.3559 34.1277 48.6328 34.8821 49.7527L41.0181 53.4026L49.3439 51.8922L51.5551 49.7527C52.3095 48.6328 52.8462 47.3559 53.1139 45.9823L54.8444 45.7788C55.2741 45.7282 55.6075 45.3814 55.6446 44.9502C55.6716 44.637 55.6877 44.3207 55.6877 44.0004C55.6877 43.6798 55.6716 43.3636 55.6446 43.0504ZM43.0002 49.4378C39.9971 49.4378 37.5627 47.0033 37.5627 44.0003C37.5627 40.9972 39.9971 38.5628 43.0002 38.5628C46.0033 38.5628 48.4377 40.9972 48.4377 44.0003C48.4377 47.0033 46.0033 49.4378 43.0002 49.4378Z" fill="#DAD8DB"/>
<path d="M34.7306 34.3876C34.4901 34.5901 34.2551 34.8023 34.0286 35.0288C33.802 35.2554 33.5896 35.4904 33.3873 35.7309C33.1087 36.0621 33.0992 36.543 33.3674 36.8827L34.4451 38.2478C33.6907 39.3676 33.1539 40.6447 32.8862 42.0182L31.1558 42.2217C30.726 42.2722 30.3927 42.6191 30.3555 43.0503C30.3286 43.3635 30.3125 43.6798 30.3125 44.0002C30.3125 44.3206 30.3286 44.6369 30.3555 44.9501C30.3927 45.3812 30.7261 45.7281 31.1558 45.7786L32.8862 45.9822C33.1539 47.3557 33.6907 48.6326 34.4451 49.7525L33.3674 51.1177C33.0992 51.4573 33.1087 51.9383 33.3873 52.2694C33.5897 52.51 33.802 52.745 34.0286 52.9715C34.255 53.1981 34.49 53.4104 34.7306 53.6127C35.0617 53.8913 35.5428 53.9009 35.8824 53.6328L37.2476 52.555C38.3674 53.3095 39.6445 53.8462 41.0179 54.1139L41.2215 55.8442C41.272 56.274 41.619 56.6074 42.0501 56.6446C42.3634 56.6715 42.6796 56.6876 42.9999 56.6876C43.3202 56.6876 43.6365 56.6715 43.9496 56.6446C44.3808 56.6074 44.7276 56.274 44.7783 55.8442L44.9819 54.1139C46.3554 53.8462 47.6324 53.3095 48.7522 52.555L50.1173 53.6328C50.457 53.9009 50.9381 53.8914 51.2692 53.6127C51.5097 53.4103 51.7447 53.1981 51.9712 52.9715C52.1978 52.745 52.41 52.51 52.6125 52.2694C52.891 51.9383 52.9006 51.4573 52.6324 51.1177L51.5547 49.7525C50.8773 49.0752 49.7809 49.0988 49.1233 49.7953C47.2647 51.7636 44.4744 52.8399 41.451 52.3014C38.0455 51.6948 35.3056 48.9553 34.6987 45.5498C34.1599 42.5262 35.2362 39.7354 37.2048 37.8766C37.9012 37.219 37.9247 36.1225 37.2475 35.4452L35.8823 34.3675C35.5428 34.0996 35.0617 34.1091 34.7306 34.3876Z" fill="#C8C5C9"/>
<path d="M33.939 23.1512H31.8877C31.5537 21.8562 30.8774 20.6999 29.9523 19.7912L30.9758 18.0185C31.2261 17.5849 31.0775 17.0303 30.6438 16.7798L29.0732 15.873C28.6396 15.6227 28.0849 15.7713 27.8345 16.2049L26.8095 17.9803C26.1917 17.8091 25.5435 17.7104 24.8711 17.7104C24.1988 17.7104 23.5507 17.8091 22.9328 17.9803L21.9078 16.2049C21.6575 15.7713 21.1028 15.6227 20.6691 15.873L19.0986 16.7799C18.6649 17.0304 18.5163 17.5849 18.7666 18.0187L19.7901 19.7913L18.5391 27.7101L23.0045 31.4069L29.9524 30.1385C30.8775 29.2298 31.5538 28.0735 31.8878 26.7785H33.9391C34.4399 26.7785 34.8459 26.3725 34.8459 25.8717V24.058C34.8458 23.5572 34.4399 23.1512 33.939 23.1512ZM24.8711 28.592C22.8679 28.592 21.244 26.968 21.244 24.9648C21.244 22.9616 22.8679 21.3377 24.8711 21.3377C26.8744 21.3377 28.4983 22.9616 28.4983 24.9648C28.4983 26.968 26.8744 28.592 24.8711 28.592Z" fill="#6851A2"/>
<path d="M23.6124 30.2639C21.6137 29.8146 20.0055 28.1962 19.5666 26.1952C19.2498 24.7514 19.5078 23.3777 20.1544 22.2559C20.6132 21.4599 20.4349 20.4468 19.7911 19.7913C18.8659 20.7 18.1896 21.8563 17.8557 23.1513H15.8043C15.3035 23.1513 14.8975 23.5573 14.8975 24.0581V25.8716C14.8975 26.3724 15.3035 26.7784 15.8043 26.7784H17.8556C18.1895 28.0735 18.8657 29.2296 19.791 30.1385L18.7676 31.9111C18.5173 32.3449 18.6658 32.8994 19.0995 33.1498L20.6702 34.0567C21.1039 34.307 21.6584 34.1585 21.9089 33.7247L22.9339 31.9494C23.5517 32.1206 24.1999 32.2192 24.8722 32.2192C25.5445 32.2192 26.1926 32.1206 26.8106 31.9494L27.8355 33.7247C28.0859 34.1585 28.6405 34.307 29.0743 34.0567L30.6449 33.1498C31.0787 32.8995 31.2272 32.3449 30.9768 31.9111L29.9534 30.1385L29.953 30.138C29.2758 29.4485 28.239 29.3446 27.3823 29.7918C26.2908 30.3614 24.9827 30.5719 23.6124 30.2639Z" fill="#40297A"/>
<path d="M70.1871 23.1558H68.1358C67.8019 21.8608 67.1256 20.7045 66.2004 19.7958L67.2239 18.0231C67.4743 17.5895 67.3256 17.0349 66.892 16.7844L65.3214 15.8776C64.8877 15.6272 64.3331 15.7759 64.0826 16.2095L63.0577 17.9848C62.4398 17.8137 61.7916 17.715 61.1193 17.715C60.447 17.715 59.7989 17.8137 59.181 17.9848L58.156 16.2095C57.9056 15.7759 57.351 15.6272 56.9173 15.8776L55.3466 16.7844C54.913 17.0349 54.7643 17.5894 55.0147 18.0231L56.0382 19.7958L54.7871 27.7146L59.2525 31.4114L66.2004 30.143C67.1256 29.2342 67.8019 28.078 68.1358 26.7829H70.1871C70.6879 26.7829 71.0939 26.3769 71.0939 25.8761V24.0626C71.0939 23.5618 70.6879 23.1558 70.1871 23.1558ZM61.1193 28.5966C59.116 28.5966 57.4922 26.9726 57.4922 24.9694C57.4922 22.9662 59.116 21.3423 61.1193 21.3423C63.1226 21.3423 64.7465 22.9662 64.7465 24.9694C64.7465 26.9726 63.1226 28.5966 61.1193 28.5966Z" fill="#ED2B4A"/>
<path d="M59.8594 30.2688C57.8606 29.8195 56.2525 28.201 55.8135 26.2C55.4968 24.7563 55.7547 23.3826 56.4013 22.2608C56.8601 21.4648 56.6818 20.4517 56.0381 19.7961C55.1129 20.7049 54.4366 21.8611 54.1026 23.1562H52.0513C51.5505 23.1562 51.1445 23.5622 51.1445 24.063V25.8765C51.1445 26.3773 51.5505 26.7833 52.0513 26.7833H54.1026C54.4366 28.0784 55.1128 29.2345 56.0381 30.1434L55.0147 31.916C54.7643 32.3497 54.9128 32.9043 55.3466 33.1547L56.9172 34.0615C57.351 34.3119 57.9055 34.1634 58.156 33.7296L59.1809 31.9543C59.7988 32.1254 60.447 32.2241 61.1193 32.2241C61.7916 32.2241 62.4397 32.1254 63.0576 31.9543L64.0826 33.7296C64.333 34.1634 64.8876 34.3119 65.3213 34.0615L66.892 33.1547C67.3257 32.9044 67.4742 32.3497 67.2239 31.916L66.2005 30.1434L66.2001 30.1429C65.5229 29.4534 64.4861 29.3495 63.6294 29.7967C62.5378 30.3663 61.2296 30.5768 59.8594 30.2688Z" fill="#B73451"/>
<path d="M70.192 61.2218H68.1407C67.8068 59.9268 67.1305 58.7705 66.2053 57.8618L67.2288 56.0892C67.4791 55.6555 67.3305 55.1009 66.8969 54.8504L65.3262 53.9436C64.8926 53.6933 64.338 53.8419 64.0875 54.2755L63.0625 56.0509C62.4447 55.8797 61.7965 55.781 61.1242 55.781C60.4519 55.781 59.8038 55.8797 59.1858 56.0509L58.1609 54.2755C57.9105 53.8419 57.3559 53.6933 56.9221 53.9436L55.3515 54.8504C54.9178 55.1009 54.7692 55.6554 55.0196 56.0892L56.0431 57.8618L54.792 65.7806L59.2574 69.4774L66.2053 68.209C67.1305 67.3003 67.8068 66.144 68.1407 64.849H70.192C70.6928 64.849 71.0988 64.443 71.0988 63.9422V62.1286C71.0988 61.6278 70.6928 61.2218 70.192 61.2218ZM61.1242 66.6625C59.1209 66.6625 57.497 65.0385 57.497 63.0353C57.497 61.0321 59.1209 59.4082 61.1242 59.4082C63.1274 59.4082 64.7513 61.0321 64.7513 63.0353C64.7513 65.0386 63.1274 66.6625 61.1242 66.6625Z" fill="#05A899"/>
<path d="M59.8643 68.3346C57.8655 67.8853 56.2574 66.2668 55.8184 64.2658C55.5017 62.8221 55.7596 61.4484 56.4062 60.3266C56.865 59.5306 56.6867 58.5175 56.0429 57.8619C55.1178 58.7707 54.4415 59.9269 54.1075 61.222H52.0562C51.5554 61.222 51.1494 61.628 51.1494 62.1288V63.9423C51.1494 64.4431 51.5554 64.8491 52.0562 64.8491H54.1075C54.4415 66.1442 55.1177 67.3003 56.0429 68.2092L55.0196 69.9818C54.7692 70.4155 54.9177 70.9701 55.3515 71.2205L56.9221 72.1273C57.3559 72.3777 57.9104 72.2292 58.1608 71.7954L59.1858 70.0201C59.8036 70.1912 60.4518 70.2899 61.1242 70.2899C61.7965 70.2899 62.4446 70.1912 63.0625 70.0201L64.0875 71.7954C64.3378 72.2292 64.8925 72.3777 65.3262 72.1273L66.8969 71.2205C67.3306 70.9702 67.4791 70.4155 67.2288 69.9818L66.2054 68.2092L66.2049 68.2087C65.5277 67.5192 64.491 67.4153 63.6343 67.8625C62.5427 68.4321 61.2345 68.6426 59.8643 68.3346Z" fill="#0A8A7B"/>
<path d="M33.941 61.2179H31.8897C31.5558 59.9229 30.8795 58.7666 29.9543 57.8579L30.9778 56.0853C31.2282 55.6516 31.0796 55.097 30.6459 54.8465L29.0753 53.9397C28.6416 53.6894 28.087 53.838 27.8365 54.2716L26.8116 56.047C26.1937 55.8758 25.5455 55.7771 24.8732 55.7771C24.2009 55.7771 23.5528 55.8758 22.9349 56.047L21.9099 54.2716C21.6595 53.838 21.1049 53.6894 20.6712 53.9397L19.1005 54.8465C18.6669 55.097 18.5182 55.6515 18.7686 56.0853L19.7921 57.8579L18.541 65.7767L23.0064 69.4735L29.9543 68.2051C30.8795 67.2964 31.5558 66.1401 31.8897 64.8451H33.941C34.4419 64.8451 34.8479 64.4391 34.8479 63.9383V62.1247C34.8479 61.6238 34.4419 61.2179 33.941 61.2179ZM24.8732 66.6586C22.8699 66.6586 21.2461 65.0346 21.2461 63.0314C21.2461 61.0282 22.8699 59.4043 24.8732 59.4043C26.8765 59.4043 28.5004 61.0282 28.5004 63.0314C28.5004 65.0346 26.8765 66.6586 24.8732 66.6586Z" fill="#FDC010"/>
<path d="M23.6134 68.3304C21.6147 67.8811 20.0065 66.2626 19.5676 64.2616C19.2508 62.8179 19.5088 61.4442 20.1554 60.3224C20.6142 59.5264 20.4359 58.5133 19.7921 57.8577C18.8669 58.7665 18.1906 59.9227 17.8567 61.2178H15.8053C15.3044 61.2178 14.8984 61.6238 14.8984 62.1246V63.9381C14.8984 64.4389 15.3044 64.8449 15.8053 64.8449H17.8566C18.1905 66.1399 18.8667 67.2961 19.792 68.205L18.7686 69.9776C18.5182 70.4113 18.6667 70.9658 19.1005 71.2163L20.6711 72.1231C21.1049 72.3735 21.6594 72.225 21.9099 71.7912L22.9348 70.0159C23.5527 70.187 24.2009 70.2857 24.8732 70.2857C25.5455 70.2857 26.1936 70.187 26.8115 70.0159L27.8365 71.7912C28.0869 72.225 28.6415 72.3735 29.0752 72.1231L30.6459 71.2163C31.0796 70.966 31.2282 70.4113 30.9778 69.9776L29.9544 68.205L29.954 68.2045C29.2768 67.515 28.24 67.4111 27.3833 67.8583C26.2918 68.428 24.9836 68.6384 23.6134 68.3304Z" fill="#D59800"/>
</g>
</g>
<defs>
<clipPath id="clip0_68_11181">
<rect width="70.55" height="70.55" fill="white" transform="translate(7.65039 7.6499)"/>
</clipPath>
<clipPath id="clip1_68_11181">
<rect width="58" height="58" fill="white" transform="translate(14 15)"/>
</clipPath>
</defs>
</svg>
