<svg width="85" height="85" viewBox="0 0 85 85" fill="none" xmlns="http://www.w3.org/2000/svg">
<rect width="85" height="85" rx="10.2" fill="#F1F6FB"/>
<g clip-path="url(#clip0_68_11212)">
<circle cx="57.2341" cy="35.2372" r="20.4636" fill="white" fill-opacity="0.5"/>
<circle cx="20.2424" cy="61.2107" r="12.593" fill="white" fill-opacity="0.5"/>
<circle cx="64.2605" cy="14.7743" r="4.36962" stroke="white" stroke-opacity="0.5" stroke-width="0.7055"/>
<circle cx="13.1581" cy="73.0166" r="2.36119" fill="white" fill-opacity="0.5"/>
<g clip-path="url(#clip1_68_11212)">
<path d="M48.6566 62.0372H37.3425C37.3425 62.0372 37.2365 68.6935 36.3896 71.1249H49.6096C48.7626 68.6935 48.6566 62.0372 48.6566 62.0372Z" fill="#C5D3DD"/>
<path d="M48.7401 64.3745H37.2598C37.3275 63.0227 37.3427 62.0377 37.3427 62.0377H48.6572C48.6572 62.0377 48.6724 63.0227 48.7401 64.3745Z" fill="#B6C4CF"/>
<path d="M14 54.7811V24.6977C14 23.0636 15.3247 21.7389 16.9588 21.7389H69.041C70.6751 21.7389 71.9998 23.0636 71.9998 24.6977V54.7811H14Z" fill="#596C76"/>
<path d="M14 56.1135V24.6977C14 23.0636 15.3247 21.7389 16.9588 21.7389H69.041C70.6751 21.7389 71.9998 23.0636 71.9998 24.6977V56.1136H14L14 56.1135Z" fill="#596C76"/>
<path d="M72.0003 24.6972V54.7817H69.6636V24.6972C69.6636 23.0638 68.3386 21.7389 66.7041 21.7389H69.0409C70.6754 21.7389 72.0003 23.0638 72.0003 24.6972Z" fill="#465A61"/>
<path d="M68.3465 56.1135H17.6533V27.0523C17.6533 26.3377 18.2326 25.7584 18.9472 25.7584H67.0527C67.7672 25.7584 68.3466 26.3377 68.3466 27.0523V56.1135H68.3465Z" fill="#F2F6FB"/>
<path d="M68.3469 27.053V54.7816H66.0101V27.053C66.0101 26.338 65.4306 25.7584 64.7168 25.7584H67.0536C67.7675 25.7584 68.3469 26.338 68.3469 27.053Z" fill="#B6C4CF"/>
<path d="M69.041 62.3019H16.9588C15.3247 62.3019 14 60.9772 14 59.3431V54.7812H71.9998V59.3432C71.9998 60.9772 70.6751 62.3019 69.041 62.3019Z" fill="#D9E7EC"/>
<path d="M71.9994 54.7811V59.3425C71.9994 60.977 70.6744 62.3019 69.0399 62.3019H66.7031C68.3365 62.3019 69.6615 60.977 69.6615 59.3425V54.7811H71.9994Z" fill="#C5D3DD"/>
<path d="M44.995 59.4163H41.006C40.5227 59.4163 40.1309 59.0245 40.1309 58.5412C40.1309 58.058 40.5227 57.6661 41.006 57.6661H44.995C45.4783 57.6661 45.8701 58.058 45.8701 58.5412C45.8701 59.0245 45.4783 59.4163 44.995 59.4163Z" fill="#B6C4CF"/>
<path d="M53.3063 71.9998H32.6935C32.2102 71.9998 31.8184 71.608 31.8184 71.1247C31.8184 70.6415 32.2102 70.2496 32.6935 70.2496H53.3063C53.7896 70.2496 54.1814 70.6415 54.1814 71.1247C54.1814 71.608 53.7896 71.9998 53.3063 71.9998Z" fill="#B6C4CF"/>
<path d="M39.373 27.8247V25.0776C39.373 24.7577 39.6325 24.4983 39.9524 24.4983H41.8625C42.1299 24.4983 42.3595 24.3147 42.4253 24.0556C42.6568 23.1449 43.0175 22.2858 43.4863 21.4985C43.6227 21.2696 43.589 20.9781 43.4006 20.7896L42.0486 19.4375C41.8224 19.2112 41.8224 18.8444 42.0486 18.6182L43.9911 16.6757C44.2173 16.4494 44.5841 16.4494 44.8104 16.6757L46.1624 18.0277C46.3509 18.2162 46.6423 18.2497 46.8714 18.1133C47.6585 17.6446 48.5177 17.2839 49.4285 17.0523C49.6875 16.9865 49.8712 16.7568 49.8712 16.4895V14.5796C49.8712 14.2597 50.1306 14.0003 50.4505 14.0003H53.1975C53.5175 14.0003 53.7769 14.2597 53.7769 14.5796V16.4898C53.7769 16.7571 53.9605 16.9867 54.2196 17.0526C55.1302 17.2841 55.9894 17.6448 56.7767 18.1135C57.0056 18.2499 57.2971 18.2163 57.4856 18.0279L58.8376 16.6759C59.0638 16.4497 59.4306 16.4497 59.657 16.6759L61.5992 18.6183C61.8254 18.8446 61.8254 19.2114 61.5992 19.4376L60.2472 20.7896C60.0588 20.9781 60.0251 21.2695 60.1615 21.4985C60.6303 22.2857 60.991 23.1448 61.2225 24.0556C61.2883 24.3147 61.5181 24.4983 61.7853 24.4983H63.6954C64.0153 24.4983 64.2748 24.7577 64.2748 25.0776V27.8247C64.2748 28.1446 64.0153 28.404 63.6954 28.404H61.7853C61.5179 28.404 61.2883 28.5876 61.2225 28.8467C60.991 29.7574 60.6303 30.6165 60.1615 31.4038C60.0251 31.6328 60.0588 31.9242 60.2472 32.1127L61.5992 33.4647C61.8254 33.691 61.8254 34.0578 61.5992 34.284L59.6567 36.2265C59.4305 36.4528 59.0637 36.4528 58.8374 36.2265L57.4854 34.8745C57.2969 34.686 57.0055 34.6525 56.7764 34.7889C55.9891 35.2576 55.1301 35.6183 54.2193 35.8499C53.9603 35.9157 53.7766 36.1454 53.7766 36.4127V38.3228C53.7766 38.6427 53.5172 38.9021 53.1973 38.9021H50.4503C50.1303 38.9021 49.8709 38.6427 49.8709 38.3228V36.4125C49.8709 36.1453 49.6873 35.9156 49.4282 35.8498C48.5176 35.6182 47.6584 35.2575 46.8711 34.7888C46.6422 34.6524 46.3507 34.686 46.1622 34.8744L44.8102 36.2264C44.584 36.4527 44.2172 36.4527 43.9908 36.2264L42.0484 34.2839C41.8222 34.0577 41.8222 33.6909 42.0484 33.4646L43.4004 32.1125C43.5889 31.9241 43.6225 31.6326 43.4861 31.4036C43.0173 30.6164 42.6566 29.7573 42.4251 28.8465C42.3593 28.5874 42.1295 28.4038 41.8623 28.4038H39.9521C39.6323 28.404 39.373 28.1446 39.373 27.8247Z" fill="#FDC010"/>
<path d="M55.1309 17.3335C55.085 17.5294 54.7877 18.0538 54.6724 18.1964C54.4951 18.4156 54.1999 18.5012 53.9299 18.4203C52.9055 18.1136 52.755 17.9395 52.2994 17.7262C52.075 17.6212 51.9229 17.4057 51.9229 17.1579V13.9998H53.197C53.5178 13.9998 53.7762 14.2595 53.7762 14.579V16.4899C53.7762 16.7564 53.9609 16.9872 54.2193 17.053C54.5297 17.1316 54.8343 17.225 55.1309 17.3335Z" fill="#D59800"/>
<path d="M56.1209 35.145C55.67 35.3432 54.8487 35.674 54.322 35.8224C54.288 35.8326 54.254 35.8405 54.22 35.8496C54.0739 35.887 53.9527 35.9753 53.8734 36.0943C53.8473 36.1328 53.8258 36.1758 53.8099 36.2212C53.7986 36.2506 53.7907 36.2823 53.785 36.314C53.7793 36.3458 53.7771 36.3797 53.7771 36.4126V38.3225C53.7771 38.6363 53.5279 38.8923 53.2175 38.9014H51.6338C51.7573 38.7926 51.8343 38.6318 51.8343 38.4539V35.5811C51.8343 35.3024 52.0269 35.0623 52.2965 34.9943C53.2492 34.7519 54.1418 34.4676 54.9643 33.9793C55.2033 33.8354 55.508 33.8717 55.7051 34.0677L56.1209 35.145Z" fill="#D59800"/>
<path d="M60.2481 20.7893C60.06 20.9786 60.0254 21.2693 60.1626 21.4989C60.623 22.2721 60.9784 23.1156 61.2104 24.0098H59.7312C59.4519 24.0098 59.2119 23.8182 59.1427 23.5483C58.9004 22.5964 58.5241 21.6986 58.0338 20.8759C57.8918 20.6371 57.9265 20.3324 58.1238 20.1351L59.0759 19.183C59.3125 18.9465 59.3125 18.5634 59.0759 18.3268L58.1309 17.383L58.838 16.6757C59.0643 16.4496 59.4312 16.4496 59.6573 16.6757L61.6004 18.6189C61.8266 18.845 61.8266 19.2108 61.6004 19.4381L60.2481 20.7893Z" fill="#D59800"/>
<path d="M64.2749 25.0772V27.8247C64.2749 28.1443 64.0164 28.4039 63.6957 28.4039H61.786C61.5183 28.4039 61.2887 28.5874 61.2229 28.8469C60.991 29.7573 60.6309 30.6169 60.1624 31.4039C60.0251 31.6324 60.0597 31.9243 60.2478 32.1124L61.6002 33.4647C61.8264 33.6908 61.8264 34.0578 61.6002 34.284L59.6571 36.2259C59.431 36.4522 59.0639 36.4522 58.8378 36.2259L57.9471 35.3354L59.0969 34.2313C59.3334 33.9947 59.3334 33.6116 59.0969 33.3751L57.8933 32.2061C57.696 32.0088 57.6614 31.7042 57.8032 31.4654C58.2936 30.6426 59.3219 28.2499 59.5643 27.2991C59.6335 27.0279 59.8736 26.8364 60.1528 26.8364H61.6657C62.0003 26.8364 62.3204 26.5652 62.3204 26.2306V24.4979H63.6959C64.0164 24.4979 64.2749 24.7576 64.2749 25.0772Z" fill="#D59800"/>
<path d="M51.8241 32.1875C54.9921 32.1875 57.5603 29.6193 57.5603 26.4512C57.5603 23.2832 54.9921 20.715 51.8241 20.715C48.6561 20.715 46.0879 23.2832 46.0879 26.4512C46.0879 29.6193 48.6561 32.1875 51.8241 32.1875Z" fill="#0A8A7B"/>
<path d="M57.5609 26.4509C57.5609 29.6193 54.9928 32.1874 51.8243 32.1874C50.4695 32.1874 49.2234 31.7173 48.2412 30.9311C48.7974 31.1101 49.3899 31.2076 50.005 31.2076C53.1723 31.2076 55.7404 28.6395 55.7404 25.471C55.7404 23.6596 54.901 22.0442 53.5904 20.993C55.8945 21.7372 57.5609 23.8998 57.5609 26.4509Z" fill="#0A8A7B"/>
<path d="M51.8241 29.0273C53.2468 29.0273 54.4001 27.874 54.4001 26.4513C54.4001 25.0286 53.2468 23.8752 51.8241 23.8752C50.4014 23.8752 49.248 25.0286 49.248 26.4513C49.248 27.874 50.4014 29.0273 51.8241 29.0273Z" fill="#D9E7EC"/>
<path d="M54.3997 26.4507C54.3997 27.8735 53.2465 29.0278 51.8237 29.0278C50.7928 29.0278 49.9024 28.4218 49.4912 27.5461C49.7518 27.6356 50.0327 27.6843 50.3238 27.6843C51.7466 27.6843 52.901 26.5311 52.901 25.1083C52.901 24.7164 52.8138 24.3448 52.6563 24.0129C53.6702 24.3584 54.3997 25.3201 54.3997 26.4507Z" fill="#C5D3DD"/>
<path d="M21.7246 41.9106V39.8069C21.7246 39.5618 21.9232 39.3632 22.1683 39.3632H23.6311C23.8358 39.3632 24.0118 39.2226 24.0622 39.0241C24.2395 38.3266 24.5156 37.6687 24.8747 37.0658C24.9792 36.8904 24.9535 36.6673 24.8091 36.523L23.7738 35.4875C23.6004 35.3141 23.6004 35.0333 23.7738 34.86L25.2614 33.3724C25.4347 33.1991 25.7155 33.1991 25.8888 33.3724L26.9242 34.4078C27.0685 34.5521 27.2917 34.5778 27.4671 34.4734C28.0699 34.1144 28.7279 33.8382 29.4254 33.6608C29.6237 33.6104 29.7644 33.4345 29.7644 33.2298V31.767C29.7644 31.5219 29.963 31.3232 30.2081 31.3232H32.3119C32.5569 31.3232 32.7556 31.5218 32.7556 31.767V33.2298C32.7556 33.4345 32.8962 33.6104 33.0946 33.6608C33.7921 33.8381 34.4501 34.1143 35.0529 34.4734C35.2283 34.5778 35.4515 34.5521 35.5958 34.4078L36.6312 33.3724C36.8044 33.1991 37.0853 33.1991 37.2586 33.3724L38.7463 34.86C38.9196 35.0333 38.9196 35.3141 38.7463 35.4875L37.7109 36.523C37.5665 36.6673 37.5408 36.8904 37.6453 37.0658C38.0043 37.6687 38.2804 38.3266 38.4578 39.0241C38.5082 39.2225 38.6842 39.3632 38.8889 39.3632H40.3517C40.5967 39.3632 40.7954 39.5617 40.7954 39.8069V41.9106C40.7954 42.1556 40.5967 42.3543 40.3517 42.3543H38.8889C38.6842 42.3543 38.5082 42.4949 38.4578 42.6934C38.2806 43.3909 38.0044 44.0488 37.6453 44.6517C37.5408 44.827 37.5665 45.0502 37.7109 45.1945L38.7463 46.2299C38.9196 46.4032 38.9196 46.6841 38.7463 46.8574L37.2586 48.345C37.0853 48.5183 36.8045 48.5183 36.6312 48.345L35.5958 47.3096C35.4515 47.1653 35.2283 47.1396 35.0529 47.244C34.4501 47.603 33.7921 47.8792 33.0946 48.0566C32.8963 48.107 32.7556 48.2829 32.7556 48.4876V49.9504C32.7556 50.1954 32.5569 50.3941 32.3119 50.3941H30.2081C29.9631 50.3941 29.7644 50.1956 29.7644 49.9504V48.4876C29.7644 48.2829 29.6238 48.107 29.4254 48.0566C28.7279 47.8793 28.0699 47.603 27.4671 47.244C27.2917 47.1396 27.0685 47.1653 26.9242 47.3096L25.8888 48.345C25.7155 48.5183 25.4347 48.5183 25.2614 48.345L23.7738 46.8574C23.6004 46.6842 23.6004 46.4032 23.7738 46.2299L24.8091 45.1944C24.9535 45.0501 24.9792 44.8269 24.8747 44.6516C24.5157 44.0487 24.2396 43.3908 24.0622 42.6933C24.0118 42.4949 23.8358 42.3542 23.6311 42.3542H22.1682C21.9232 42.3542 21.7246 42.1556 21.7246 41.9106Z" fill="#6851A2"/>
<path d="M33.0939 33.661C33.4689 33.7562 33.8325 33.8808 34.1814 34.0303L33.746 35.0589C33.6021 35.2039 33.3845 35.2189 33.2034 35.1246C32.4627 34.7394 32.2905 34.7233 31.5258 34.3653C31.3403 34.2785 31.1871 34.1387 31.1871 33.9348V31.767C31.1871 31.5223 30.9888 31.324 30.7441 31.324H32.3113C32.5571 31.324 32.7553 31.5223 32.7553 31.767V33.2306C32.7552 33.4345 32.8957 33.6101 33.0939 33.661Z" fill="#40297A"/>
<path d="M37.1363 39.0236C36.8618 39.0236 36.6234 38.8434 36.5391 38.5821C36.3668 38.048 36.1357 37.5398 35.8543 37.0661C35.7489 36.8905 35.775 36.6673 35.9189 36.5223L36.9543 35.487C37.1276 35.3136 37.1276 35.0327 36.9543 34.8605L36.048 33.9543L36.6303 33.372C36.8036 33.1987 37.0845 33.1987 37.2578 33.372L38.7452 34.8605C38.9185 35.0327 38.9185 35.3136 38.7452 35.487L37.7098 36.5223C37.566 36.6673 37.5399 36.8905 37.6441 37.0661C38.0032 37.6688 38.2796 38.3269 38.4575 39.0236H37.1363Z" fill="#40297A"/>
<path d="M38.7066 42.3929C38.5853 42.4484 38.4925 42.5571 38.4585 42.6931C38.2806 43.3909 38.0042 44.0491 37.6451 44.6517C37.5409 44.8273 37.5669 45.0505 37.7108 45.1943L38.7462 46.2297C38.9195 46.403 38.9195 46.684 38.7462 46.8573L37.2588 48.3447C37.0855 48.518 36.8046 48.518 36.6312 48.3447L36.0501 47.7635L36.9552 46.8573C37.1285 46.684 37.1285 46.403 36.9552 46.2297L35.9198 45.1943C35.776 45.0505 35.7499 44.8273 35.8553 44.6517C36.2132 44.0491 36.4896 43.3909 36.6675 42.6931C36.6779 42.6518 36.6938 42.6064 36.7142 42.5628C36.7637 42.4572 36.8733 42.3929 36.9899 42.3929H38.7066Z" fill="#40297A"/>
<path d="M40.795 39.8065V41.9102C40.795 42.156 40.5967 42.3542 40.3509 42.3542H38.8884C38.8635 42.3542 38.8386 42.3565 38.8137 42.361C38.8137 42.361 39.004 42.2099 39.004 41.9102V39.8065C39.004 39.6343 38.9054 39.4372 38.7627 39.3647C38.7627 39.3647 38.868 39.3636 38.8884 39.3636H40.3509C40.5967 39.3636 40.795 39.5618 40.795 39.8065Z" fill="#40297A"/>
<path d="M31.2598 44.5043C33.2731 44.5043 34.9053 42.8721 34.9053 40.8588C34.9053 38.8454 33.2731 37.2133 31.2598 37.2133C29.2464 37.2133 27.6143 38.8454 27.6143 40.8588C27.6143 42.8721 29.2464 44.5043 31.2598 44.5043Z" fill="#D9E7EC"/>
<path d="M34.9057 40.8589C34.9057 42.8719 33.2733 44.5043 31.2603 44.5043C30.0391 44.5043 28.9584 43.9039 28.2969 42.9829C28.7489 43.1835 29.2496 43.2956 29.7763 43.2956C31.7905 43.2956 33.4217 41.6632 33.4217 39.6502C33.4217 38.8572 33.1691 38.1243 32.7398 37.5262C34.0153 38.0937 34.9057 39.3727 34.9057 40.8589Z" fill="#C5D3DD"/>
<path d="M33.7042 46.6308L34.1798 47.6867C33.8309 47.8374 33.4672 47.962 33.0923 48.0571C32.894 48.107 32.7535 48.2826 32.7535 48.4876V49.9501C32.7535 50.1959 32.5553 50.3941 32.3095 50.3941H30.8672C31.1119 50.3941 31.3101 50.1959 31.3101 49.9501V47.6142C31.3101 47.4092 31.4506 47.2336 31.6488 47.1838C32.3466 47.0059 32.5589 46.9242 33.1616 46.5651C33.3372 46.4609 33.5603 46.487 33.7042 46.6308Z" fill="#40297A"/>
</g>
</g>
<defs>
<clipPath id="clip0_68_11212">
<rect width="70.55" height="70.55" fill="white" transform="translate(7.65039 7.6499)"/>
</clipPath>
<clipPath id="clip1_68_11212">
<rect width="58" height="58" fill="white" transform="translate(14 14)"/>
</clipPath>
</defs>
</svg>
