<svg width="85" height="85" viewBox="0 0 85 85" fill="none" xmlns="http://www.w3.org/2000/svg">
<rect width="85" height="85" rx="10.2" fill="#F1F6FB"/>
<g clip-path="url(#clip0_68_11264)">
<circle cx="57.2351" cy="35.237" r="20.4636" fill="white" fill-opacity="0.5"/>
<circle cx="20.2434" cy="61.2106" r="12.593" fill="white" fill-opacity="0.5"/>
<circle cx="64.2614" cy="14.7741" r="4.36962" stroke="white" stroke-opacity="0.5" stroke-width="0.7055"/>
<circle cx="13.16" cy="73.0165" r="2.36119" fill="white" fill-opacity="0.5"/>
<g clip-path="url(#clip1_68_11264)">
<path d="M30.081 42.1619C38.4099 42.1619 45.1619 35.4099 45.1619 27.081C45.1619 18.752 38.4099 12 30.081 12C21.752 12 15 18.752 15 27.081C15 35.4099 21.752 42.1619 30.081 42.1619Z" fill="#866FC0"/>
<path d="M30.0806 12.9165V12C21.7518 12 15 18.7518 15 27.0806C15 35.4095 21.7518 42.1613 30.0806 42.1613V41.2447C30.0806 40.7664 30.4609 40.3902 30.9383 40.3598C37.8876 39.9178 43.3871 34.1414 43.3871 27.0805C43.3871 20.0197 37.8876 14.2433 30.9383 13.8012C30.461 13.7711 30.0806 13.3948 30.0806 12.9165Z" fill="#6851A2"/>
<path d="M30.0797 38.614C36.4491 38.614 41.6125 33.4505 41.6125 27.0812C41.6125 20.7118 36.4491 15.5483 30.0797 15.5483C23.7103 15.5483 18.5469 20.7118 18.5469 27.0812C18.5469 33.4505 23.7103 38.614 30.0797 38.614Z" fill="#F5DCB4"/>
<path d="M30.0805 36.8392C35.4698 36.8392 39.8387 32.4703 39.8387 27.081C39.8387 21.6916 35.4698 17.3228 30.0805 17.3228C24.6912 17.3228 20.3223 21.6916 20.3223 27.081C20.3223 32.4703 24.6912 36.8392 30.0805 36.8392Z" fill="#FAEBC8"/>
<path d="M54.9188 67.0001C63.2478 67.0001 69.9998 60.2481 69.9998 51.9192C69.9998 43.5902 63.2478 36.8382 54.9188 36.8382C46.5899 36.8382 39.8379 43.5902 39.8379 51.9192C39.8379 60.2481 46.5899 67.0001 54.9188 67.0001Z" fill="#FFDC64"/>
<path d="M54.9185 37.7554V36.8389C46.5897 36.8389 39.8379 43.5907 39.8379 51.9195C39.8379 60.2483 46.5897 67.0002 54.9185 67.0002V66.0837C54.9185 65.6054 55.2988 65.2292 55.7762 65.1988C62.7255 64.7567 68.225 58.9803 68.225 51.9195C68.225 44.8587 62.7255 39.0823 55.7762 38.6402C55.2988 38.6099 54.9185 38.2337 54.9185 37.7554Z" fill="#FDC010"/>
<path d="M54.9195 63.4519C61.2889 63.4519 66.4523 58.2884 66.4523 51.919C66.4523 45.5496 61.2889 40.3862 54.9195 40.3862C48.5501 40.3862 43.3867 45.5496 43.3867 51.919C43.3867 58.2884 48.5501 63.4519 54.9195 63.4519Z" fill="#FFF082"/>
<path d="M55.8073 51.2576V46.6672C57.3742 46.8964 58.4686 47.6949 58.4686 48.4264C58.4686 48.9168 58.8654 49.3135 59.3556 49.3135C59.8459 49.3135 60.2427 48.9167 60.2427 48.4264C60.2427 46.611 58.354 45.1533 55.8073 44.8745V43.9354C55.8073 43.445 55.4105 43.0483 54.9202 43.0483C54.4299 43.0483 54.0331 43.4452 54.0331 43.9354V44.8745C51.4863 45.1533 49.5977 46.611 49.5977 48.4264C49.5977 51.0031 52.0663 51.9814 54.0331 52.5811V57.1715C52.4661 56.9423 51.3718 56.1438 51.3718 55.4123C51.3718 54.9219 50.975 54.5252 50.4847 54.5252C49.9945 54.5252 49.5977 54.922 49.5977 55.4123C49.5977 57.2277 51.4863 58.6854 54.0331 58.9642V59.9033C54.0331 60.3936 54.4299 60.7903 54.9202 60.7903C55.4105 60.7903 55.8073 60.3935 55.8073 59.9033V58.9642C58.354 58.6854 60.2427 57.2277 60.2427 55.4123C60.2427 52.8355 57.7741 51.8573 55.8073 51.2576ZM51.3718 48.4264C51.3718 47.6949 52.4663 46.8964 54.0331 46.6672V50.7076C52.0545 50.0289 51.3718 49.416 51.3718 48.4264ZM55.8073 57.1715V53.1311C57.7858 53.8098 58.4686 54.4227 58.4686 55.4123C58.4686 56.1438 57.3742 56.9423 55.8073 57.1715Z" fill="#E1A546"/>
<path d="M38.0651 26.1936H30.9683V19.0969C30.9683 18.6071 30.5715 18.2098 30.0812 18.2098C29.5909 18.2098 29.1941 18.6071 29.1941 19.0969V26.1938H28.307C27.8166 26.1938 27.4199 26.591 27.4199 27.0808C27.4199 27.5707 27.8167 27.9679 28.307 27.9679H29.1941V28.855C29.1941 29.3449 29.5909 29.7421 30.0812 29.7421C30.5715 29.7421 30.9683 29.3449 30.9683 28.855V27.9679H38.0651C38.5555 27.9679 38.9522 27.5707 38.9522 27.0808C38.9522 26.591 38.5554 26.1936 38.0651 26.1936Z" fill="#4B3F4E"/>
<path d="M30.0804 35.9518C29.5901 35.9518 29.1934 35.555 29.1934 35.0647V34.1776C29.1934 33.6872 29.5902 33.2905 30.0804 33.2905C30.5707 33.2905 30.9675 33.6873 30.9675 34.1776V35.0647C30.9675 35.555 30.5708 35.9518 30.0804 35.9518Z" fill="#5D5360"/>
<path d="M22.9832 27.968H22.0961C21.6057 27.968 21.209 27.5708 21.209 27.0809C21.209 26.5911 21.6058 26.1938 22.0961 26.1938H22.9832C23.4735 26.1938 23.8703 26.5911 23.8703 27.0809C23.8703 27.5708 23.4734 27.968 22.9832 27.968Z" fill="#5D5360"/>
<path d="M63.8306 28.1924C63.3412 28.1798 62.927 28.5511 62.9062 29.0405L62.8367 30.6602C59.9409 24.0194 53.8943 19.0836 46.6561 17.7114C46.1666 17.6152 45.7101 17.9362 45.6191 18.4179C45.5281 18.8991 45.8444 19.3634 46.3252 19.4544C53.1221 20.7428 58.7796 25.4441 61.375 31.7451L59.8422 30.2646C59.4922 29.9242 58.9291 29.9353 58.5878 30.2871C58.2483 30.6397 58.2577 31.2011 58.6104 31.5415L62.9203 35.7032C63.0884 35.8652 63.311 35.9519 63.5362 35.9519C63.6471 35.9519 63.7589 35.9311 63.8655 35.8887C64.1895 35.7587 64.4077 35.4511 64.4225 35.1029L64.6789 29.1167C64.6995 28.6273 64.3201 28.2131 63.8306 28.1924Z" fill="#DBD9DC"/>
<path d="M38.6786 59.5457C31.8817 58.2578 26.2242 53.5564 23.6288 47.2555L25.1616 48.736C25.5124 49.0773 26.0755 49.0661 26.416 48.7134C26.7555 48.3609 26.7461 47.7995 26.3934 47.4591L22.0835 43.2973C21.8331 43.0556 21.4616 42.9846 21.1384 43.1119C20.8145 43.2419 20.5962 43.5494 20.5815 43.8977L20.325 49.8839C20.3042 50.3733 20.6837 50.7874 21.1731 50.8083C21.1861 50.8091 21.1991 50.8091 21.2121 50.8091C21.6842 50.8091 22.0767 50.4366 22.0975 49.9602L22.167 48.34C25.0632 54.9814 31.1092 59.9171 38.3476 61.2889C38.4039 61.2993 38.4594 61.3045 38.5139 61.3045C38.9315 61.3045 39.304 61.0082 39.3846 60.5828C39.4757 60.101 39.1594 59.6367 38.6786 59.5457Z" fill="#DBD9DC"/>
<path d="M30.0808 28.855C31.0607 28.855 31.855 28.0607 31.855 27.0808C31.855 26.101 31.0607 25.3066 30.0808 25.3066C29.101 25.3066 28.3066 26.101 28.3066 27.0808C28.3066 28.0607 29.101 28.855 30.0808 28.855Z" fill="#5D5360"/>
</g>
</g>
<defs>
<clipPath id="clip0_68_11264">
<rect width="70.55" height="70.55" fill="white" transform="translate(7.65039 7.6499)"/>
</clipPath>
<clipPath id="clip1_68_11264">
<rect width="55" height="55" fill="white" transform="translate(15 12)"/>
</clipPath>
</defs>
</svg>
