<svg width="40" height="40" viewBox="0 0 40 40" fill="none" xmlns="http://www.w3.org/2000/svg">
<circle cx="20" cy="20" r="20" fill="#F8F8F8"/>
<path d="M12.2739 9.2334C10.7738 9.2334 9.79297 10.2184 9.79297 11.5129C9.79297 12.779 10.7446 13.792 12.2164 13.792H12.2448C13.7743 13.792 14.7262 12.779 14.7262 11.5129C14.6976 10.2184 13.7743 9.2334 12.2739 9.2334Z" fill="#1C857A"/>
<path d="M10.0527 15.5889H14.4383V28.7815H10.0527V15.5889Z" fill="#1C857A"/>
<path d="M25.2032 15.2822C22.8373 15.2822 21.2509 17.5051 21.2509 17.5051V15.5919H16.8652V28.7845H21.2507V21.4172C21.2507 21.0228 21.2793 20.629 21.3951 20.347C21.7122 19.5594 22.4336 18.7435 23.6452 18.7435C25.2321 18.7435 25.8668 19.9533 25.8668 21.7268V28.7845H30.252V21.2201C30.252 17.1679 28.0883 15.2822 25.2032 15.2822Z" fill="#1C857A"/>
</svg>
