<svg width="80" height="80" viewBox="0 0 80 80" fill="none" xmlns="http://www.w3.org/2000/svg">
<rect width="80" height="80" rx="12" fill="#F1F6FB"/>
<g clip-path="url(#clip0_205_1028)">
<path d="M40.5 68C55.6878 68 68 55.6878 68 40.5C68 25.3122 55.6878 13 40.5 13C25.3122 13 13 25.3122 13 40.5C13 55.6878 25.3122 68 40.5 68Z" fill="white"/>
<path d="M40.5 19.2305C44.7065 19.2308 48.8184 20.4784 52.3159 22.8155C55.8134 25.1527 58.5393 28.4744 60.149 32.3607C61.7588 36.247 62.18 40.5234 61.3594 44.6491C60.5388 48.7747 58.5134 52.5645 55.5391 55.5391C53.5714 57.5469 51.2252 59.1447 48.6362 60.2402C46.0472 61.3356 43.2667 61.907 40.4555 61.9212C37.6443 61.9354 34.8582 61.3921 32.2582 60.3229C29.6583 59.2536 27.2961 57.6796 25.3083 55.6917C23.3204 53.7039 21.7464 51.3417 20.6771 48.7418C19.6079 46.1418 19.0646 43.3557 19.0788 40.5445C19.093 37.7333 19.6644 34.9528 20.7598 32.3638C21.8553 29.7748 23.4531 27.4286 25.4609 25.4609C27.4313 23.4797 29.775 21.9088 32.3564 20.8394C34.9379 19.7699 37.7058 19.2231 40.5 19.2305ZM40.5 13C25.3127 13 13 25.3127 13 40.5C13 55.6873 25.3127 68 40.5 68C55.6873 68 68 55.6873 68 40.5C68 25.3127 55.6873 13 40.5 13Z" fill="#ED2B4A"/>
<path d="M40.5005 31.8057C42.2192 31.8063 43.8992 32.3165 45.328 33.2718C46.7568 34.2271 47.8703 35.5845 48.5278 37.1726C49.1852 38.7606 49.3571 40.5079 49.0216 42.1936C48.6861 43.8793 47.8584 45.4277 46.6431 46.643C45.4278 47.8583 43.8794 48.686 42.1937 49.0215C40.508 49.357 38.7607 49.1851 37.1727 48.5277C35.5846 47.8702 34.2272 46.7567 33.2719 45.3279C32.3166 43.8991 31.8064 42.2191 31.8058 40.5004C31.8075 38.1949 32.7241 35.9844 34.3543 34.3542C35.9845 32.724 38.195 31.8074 40.5005 31.8057ZM40.5005 25.5752C37.5492 25.5743 34.6639 26.4487 32.2095 28.0877C29.7551 29.7267 27.8418 32.0567 26.7116 34.7831C25.5815 37.5094 25.2852 40.5097 25.8602 43.4045C26.4352 46.2993 27.8557 48.9585 29.9421 51.0459C32.0285 53.1334 34.687 54.5552 37.5815 55.1317C40.476 55.7082 43.4764 55.4134 46.2034 54.2846C48.9303 53.1558 51.2613 51.2437 52.9015 48.7902C54.5417 46.3366 55.4175 43.4517 55.4182 40.5004C55.419 36.543 53.8479 32.7474 51.0503 29.9484C48.2527 27.1494 44.4579 25.5763 40.5005 25.5752Z" fill="#ED2B4A"/>
<path d="M40.5008 25.5752C37.4615 25.5748 34.4946 26.5026 31.9969 28.2345C29.4993 29.9663 27.5901 32.4196 26.5248 35.2661C25.4594 38.1126 25.2888 41.2165 26.0356 44.1626C26.7825 47.1088 28.4112 49.7566 30.704 51.7518C33.1874 51.0654 35.5707 50.0583 37.7938 48.7558C36.3863 48.2954 35.1197 47.483 34.1144 46.3957C33.109 45.3083 32.3982 43.9821 32.0494 42.5429C31.7006 41.1036 31.7253 39.5991 32.1213 38.1722C32.5173 36.7452 33.2714 35.4431 34.312 34.3894C35.3525 33.3357 36.6451 32.5654 38.067 32.1516C39.489 31.7378 40.993 31.6943 42.4365 32.025C43.88 32.3558 45.215 33.05 46.3148 34.0417C47.4147 35.0334 48.2428 36.2896 48.7208 37.6913C49.9946 35.4502 50.9714 33.0528 51.6265 30.5596C50.2289 28.9906 48.5149 27.7353 46.5973 26.8763C44.6797 26.0172 42.602 25.5738 40.5008 25.5752Z" fill="#ED2B4A"/>
<path d="M23.1589 52.8235C20.2624 48.7443 18.8961 43.7749 19.2999 38.7883C19.7037 33.8017 21.8518 29.1169 25.3669 25.5569C28.882 21.9969 33.5392 19.7895 38.5202 19.3225C43.5013 18.8554 48.4877 20.1586 52.6032 23.0031C52.6032 22.986 52.6032 22.9688 52.6032 22.9516C52.6049 20.3846 52.276 17.828 51.6246 15.345C48.121 13.7947 44.3313 12.9958 40.5 13C25.3127 13 13 25.3127 13 40.5C12.9947 44.4501 13.8438 48.3546 15.489 51.9458C17.8567 52.534 20.2874 52.8305 22.7271 52.8288C22.871 52.8288 23.015 52.8256 23.1589 52.8235Z" fill="#ED2B4A"/>
<path d="M66.819 19.2957C65.8393 19.0744 64.7919 18.866 63.7037 18.6652C63.3629 18.6003 63.0495 18.4343 62.8043 18.1889C62.559 17.9435 62.3933 17.63 62.3287 17.2891C62.1268 16.1998 61.9195 15.1514 61.6971 14.1738C61.4339 12.961 59.5239 12.6313 58.4744 13.4563C56.2282 15.2824 53.3783 18.026 51.4405 20.1626C51.0677 20.574 50.9141 21.1928 51.0172 21.8072C51.2761 23.3477 51.5038 24.8935 51.723 26.3866L39.0547 39.0527C38.6841 39.4379 38.4794 39.953 38.4845 40.4874C38.4896 41.0218 38.7041 41.5329 39.0819 41.9109C39.4598 42.2889 39.9708 42.5036 40.5052 42.5089C41.0396 42.5142 41.5548 42.3096 41.9401 41.9392L54.6083 29.2709C56.1004 29.4858 57.6473 29.7178 59.1877 29.9777C59.8022 30.0798 60.4209 29.9273 60.8323 29.5481C62.969 27.6145 65.7104 24.7603 67.5387 22.5141C68.3626 21.4689 68.0339 19.56 66.819 19.2957Z" fill="#34344F"/>
</g>
<defs>
<clipPath id="clip0_205_1028">
<rect width="55" height="55" fill="white" transform="translate(13 13)"/>
</clipPath>
</defs>
</svg>
