<svg width="80" height="80" viewBox="0 0 80 80" fill="none" xmlns="http://www.w3.org/2000/svg">
<rect width="80" height="80" rx="12" fill="#E2ECF7" fill-opacity="0.5"/>
<g clip-path="url(#clip0_205_1004)">
<path d="M56.469 45.7618L66.8548 64.416C67.0081 64.6845 67.0889 64.9884 67.0893 65.2976C67.0897 65.6068 67.0098 65.9109 66.8572 66.1799C66.7047 66.4489 66.4849 66.6736 66.2193 66.832C65.9537 66.9904 65.6515 67.0771 65.3423 67.0835H50.2632L44.2865 49.8318L44.2773 49.8135L46.624 45.606L56.469 45.7618Z" fill="#202651"/>
<path d="M33.1654 26.97C32.0788 26.2445 30.8051 25.8497 29.4987 25.8333C25.8045 25.8333 24.9154 27.6667 22.1654 27.6667C20.6472 27.6396 19.1796 27.1168 17.9863 26.178C17.8603 26.0806 17.7583 25.9555 17.6883 25.8125C17.6182 25.6695 17.5818 25.5123 17.582 25.353V17.7456C17.5824 17.5646 17.6296 17.3867 17.7189 17.2293C17.8082 17.0719 17.9368 16.9402 18.092 16.847C18.2472 16.7539 18.4238 16.7024 18.6048 16.6976C18.7857 16.6929 18.9649 16.7349 19.1248 16.8197C20.0627 17.3136 21.1054 17.5754 22.1654 17.5833C24.9154 17.5833 25.8045 15.75 29.4987 15.75C30.8051 15.7664 32.0788 16.1612 33.1654 16.8867V26.97Z" fill="#ED2B4A"/>
<path d="M56.47 45.7616L55.1867 47.0541C54.9598 47.2787 54.6534 47.4047 54.3342 47.4047C54.0149 47.4047 53.7086 47.2787 53.4817 47.0541L52.95 46.5133C52.7477 46.3065 52.4771 46.1805 52.1887 46.1585C51.9003 46.1366 51.6137 46.2203 51.3825 46.3941L50.1358 47.3383C49.9193 47.4988 49.6548 47.5816 49.3854 47.5733C49.1159 47.565 48.8571 47.466 48.6508 47.2924L46.625 45.6058L49.9892 39.5649C50.1369 39.2926 50.3553 39.0652 50.6216 38.9067C50.8878 38.7482 51.1919 38.6646 51.5017 38.6646C51.8115 38.6646 52.1156 38.7482 52.3818 38.9067C52.648 39.0652 52.8665 39.2926 53.0142 39.5649L56.47 45.7616Z" fill="white"/>
<path d="M33.1667 34.0834C32.9236 34.0834 32.6904 33.9868 32.5185 33.8149C32.3466 33.643 32.25 33.4099 32.25 33.1667V14.8334C32.25 14.5903 32.3466 14.3571 32.5185 14.1852C32.6904 14.0133 32.9236 13.9167 33.1667 13.9167C33.4098 13.9167 33.6429 14.0133 33.8148 14.1852C33.9868 14.3571 34.0833 14.5903 34.0833 14.8334V33.1667C34.0833 33.4099 33.9868 33.643 33.8148 33.8149C33.6429 33.9868 33.4098 34.0834 33.1667 34.0834Z" fill="#512E2E"/>
<path d="M39.2988 40.9493L44.2763 49.8135L44.2855 49.8318L52.1322 63.811C52.3203 64.1416 52.419 64.5156 52.4186 64.896C52.4183 65.2763 52.3188 65.6501 52.1301 65.9803C51.9414 66.3106 51.6699 66.586 51.3423 66.7795C51.0148 66.9729 50.6425 67.0777 50.2622 67.0835H16.0705C15.6902 67.0777 15.3179 66.9729 14.9904 66.7795C14.6628 66.586 14.3913 66.3106 14.2026 65.9803C14.0139 65.6501 13.9144 65.2763 13.9141 64.896C13.9137 64.5156 14.0124 64.1416 14.2005 63.811L27.1438 40.7568L39.2988 40.9493Z" fill="#282D60"/>
<path d="M39.2995 40.9492L37.7137 42.5259C37.4348 42.8032 37.0574 42.9588 36.6641 42.9588C36.2708 42.9588 35.8935 42.8032 35.6145 42.5259L34.9545 41.8659C34.7041 41.6115 34.3695 41.4572 34.0134 41.4319C33.6573 41.4066 33.3043 41.512 33.0204 41.7284L31.4804 42.8742C31.2126 43.0755 30.8843 43.1797 30.5495 43.1697C30.2146 43.1597 29.8931 43.0361 29.6379 42.8192L27.1445 40.7567L31.3062 33.35C31.4895 33.0169 31.7589 32.7391 32.0862 32.5456C32.4135 32.3521 32.7868 32.25 33.167 32.25C33.5473 32.25 33.9205 32.3521 34.2479 32.5456C34.5752 32.7391 34.8446 33.0169 35.0279 33.35L39.2995 40.9492Z" fill="white"/>
</g>
<defs>
<clipPath id="clip0_205_1004">
<rect width="55" height="55" fill="white" transform="translate(13 13)"/>
</clipPath>
</defs>
</svg>
