<svg width="300" height="300" viewBox="0 0 300 300" fill="none" xmlns="http://www.w3.org/2000/svg">
<g opacity="0.16">
<path opacity="0.04" d="M258.323 238.95C260.711 206.273 212.904 176.148 151.541 171.663C90.1792 167.179 38.4994 190.033 36.1113 222.709C33.7231 255.386 81.531 285.511 142.893 289.996C204.255 294.48 255.935 271.626 258.323 238.95Z" fill="#030611"/>
<path opacity="0.07" d="M256.401 238.809C258.748 206.698 211.769 177.095 151.471 172.689C91.1734 168.282 40.3899 190.74 38.0431 222.85C35.6964 254.961 82.675 284.564 142.973 288.97C203.271 293.377 254.054 270.919 256.401 238.809Z" fill="#030611"/>
<path opacity="0.11" d="M254.468 238.668C256.774 207.126 210.626 178.047 151.395 173.719C92.1639 169.39 42.2789 191.45 39.9737 222.991C37.6685 254.533 83.8161 283.612 143.047 287.941C202.278 292.27 252.163 270.209 254.468 238.668Z" fill="#030611"/>
<path opacity="0.15" d="M252.541 238.527C254.805 207.551 209.487 178.995 151.32 174.744C93.1532 170.493 44.1646 192.157 41.9007 223.132C39.6369 254.107 84.9552 282.664 143.122 286.915C201.289 291.166 250.277 269.502 252.541 238.527Z" fill="#030611"/>
<path opacity="0.19" d="M250.612 238.387C252.834 207.98 208.347 179.948 151.247 175.775C94.1467 171.602 46.0565 192.868 43.8343 223.274C41.612 253.681 86.0992 281.713 143.199 285.886C200.299 290.059 248.389 268.793 250.612 238.387Z" fill="#030611"/>
<path opacity="0.22" d="M248.677 238.244C250.858 208.403 207.2 180.893 151.165 176.798C95.1291 172.703 47.9353 193.573 45.7544 223.413C43.5736 253.253 87.2315 280.763 143.267 284.859C199.303 288.954 246.497 268.084 248.677 238.244Z" fill="#030611"/>
<path opacity="0.26" d="M246.747 238.102C248.886 208.831 206.059 181.845 151.09 177.828C96.1216 173.811 49.8263 194.283 47.687 223.554C45.5477 252.826 88.3746 279.811 143.343 283.829C198.312 287.846 244.608 267.374 246.747 238.102Z" fill="#030611"/>
<path opacity="0.3" d="M244.82 237.963C246.918 209.258 204.92 182.795 151.015 178.855C97.1109 174.915 51.7119 194.992 49.614 223.697C47.5161 252.402 89.5137 278.866 143.418 282.805C197.323 286.745 242.722 266.668 244.82 237.963Z" fill="#030611"/>
<path opacity="0.33" d="M242.893 237.82C244.949 209.684 203.783 183.745 150.945 179.883C98.1073 176.021 53.6068 195.7 51.5504 223.836C49.4941 251.972 90.6607 277.912 143.498 281.773C196.336 285.635 240.837 265.957 242.893 237.82Z" fill="#030611"/>
<path opacity="0.37" d="M240.966 237.68C242.981 210.11 202.643 184.693 150.87 180.909C99.0965 177.126 55.4924 196.408 53.4775 223.978C51.4625 251.548 91.7998 276.965 143.573 280.749C195.347 284.533 238.951 265.25 240.966 237.68Z" fill="#030611"/>
<path opacity="0.41" d="M239.035 237.539C241.008 210.535 201.502 185.64 150.795 181.934C100.089 178.228 57.3829 197.115 55.4093 224.118C53.4358 251.122 92.9419 276.017 143.649 279.723C194.355 283.429 237.061 264.542 239.035 237.539Z" fill="#030611"/>
<path opacity="0.44" d="M237.107 237.398C239.039 210.963 200.362 186.593 150.72 182.964C101.077 179.336 59.268 197.825 57.336 224.26C55.4041 250.694 94.081 275.065 143.723 278.693C193.366 282.321 235.175 263.833 237.107 237.398Z" fill="#030611"/>
<path opacity="0.48" d="M235.175 237.257C237.065 211.389 199.22 187.541 150.644 183.99C102.069 180.44 61.1575 198.533 59.2669 224.401C57.3764 250.27 95.2221 274.118 143.798 277.668C192.373 281.218 233.284 263.126 235.175 237.257Z" fill="#030611"/>
<path opacity="0.52" d="M233.242 237.117C235.091 211.817 198.075 188.493 150.563 185.021C103.052 181.548 63.0378 199.243 61.1888 224.542C59.3397 249.842 96.3563 273.166 143.868 276.639C191.379 280.111 231.393 262.417 233.242 237.117Z" fill="#030611"/>
<path opacity="0.56" d="M231.318 236.974C233.126 212.241 196.94 189.439 150.496 186.045C104.051 182.65 64.9351 199.949 63.1275 224.682C61.3199 249.415 97.5052 272.218 143.95 275.612C190.394 279.006 229.51 261.708 231.318 236.974Z" fill="#030611"/>
<path opacity="0.59" d="M229.386 236.835C231.152 212.67 195.795 190.392 150.415 187.076C105.035 183.759 66.8153 200.66 65.0493 224.824C63.2832 248.989 98.6395 271.267 144.02 274.583C189.4 277.9 227.619 260.999 229.386 236.835Z" fill="#030611"/>
<path opacity="0.63" d="M227.458 236.693C229.183 213.095 194.658 191.339 150.344 188.101C106.031 184.862 68.7097 201.367 66.9851 224.965C65.2604 248.563 99.7855 270.319 144.099 273.557C188.412 276.796 225.734 260.291 227.458 236.693Z" fill="#030611"/>
<path opacity="0.67" d="M225.531 236.552C227.214 213.523 193.518 192.292 150.269 189.131C107.02 185.97 70.5949 202.077 68.9118 225.106C67.2287 248.135 100.925 269.367 144.174 272.528C187.423 275.688 223.848 259.582 225.531 236.552Z" fill="#030611"/>
<path opacity="0.7" d="M223.595 236.411C225.236 213.948 192.372 193.239 150.189 190.156C108.007 187.073 72.4805 202.784 70.8388 225.247C69.1971 247.71 102.062 268.419 144.244 271.502C186.427 274.585 221.953 258.874 223.595 236.411Z" fill="#030611"/>
<path opacity="0.74" d="M221.669 236.27C223.269 214.376 191.234 194.191 150.116 191.186C108.997 188.181 74.3676 203.494 72.7674 225.388C71.1673 247.282 103.203 267.467 144.321 270.472C185.439 273.478 220.069 258.165 221.669 236.27Z" fill="#030611"/>
<path opacity="0.78" d="M219.741 236.129C221.299 214.801 190.095 195.138 150.044 192.211C109.993 189.284 76.261 204.201 74.7022 225.529C73.1435 246.857 104.348 266.519 144.399 269.447C184.45 272.374 218.182 257.457 219.741 236.129Z" fill="#030611"/>
<path opacity="0.81" d="M217.814 235.988C219.332 215.226 188.957 196.086 149.97 193.236C110.983 190.387 78.1476 204.908 76.6302 225.669C75.1129 246.431 105.488 265.571 144.475 268.421C183.462 271.27 216.297 256.749 217.814 235.988Z" fill="#030611"/>
<path opacity="0.85" d="M215.878 235.847C217.354 215.655 187.81 197.038 149.89 194.267C111.969 191.496 80.0327 205.619 78.5569 225.811C77.0811 246.004 106.625 264.62 144.545 267.392C182.466 270.163 214.402 256.04 215.878 235.847Z" fill="#030611"/>
<path opacity="0.89" d="M213.956 235.706C215.39 216.079 186.675 197.985 149.819 195.292C112.964 192.598 81.9232 206.325 80.4888 225.952C79.0544 245.578 107.769 263.672 144.625 266.366C181.481 269.059 212.521 255.332 213.956 235.706Z" fill="#030611"/>
<path opacity="0.93" d="M212.017 235.565C213.41 216.507 185.526 198.937 149.737 196.321C113.948 193.706 83.8064 207.035 82.4135 226.093C81.0207 245.15 108.904 262.72 144.694 265.336C180.483 267.951 210.625 254.622 212.017 235.565Z" fill="#030611"/>
<path opacity="0.96" d="M210.092 235.425C211.443 216.933 184.389 199.886 149.664 197.348C114.939 194.81 85.6939 207.743 84.3425 226.234C82.9911 244.726 110.045 261.773 144.77 264.311C179.495 266.849 208.741 253.916 210.092 235.425Z" fill="#030611"/>
<path d="M208.161 235.283C209.471 217.361 183.248 200.837 149.59 198.378C115.932 195.918 87.5849 208.453 86.275 226.375C84.9652 244.298 111.189 260.821 144.847 263.281C178.505 265.741 206.852 253.206 208.161 235.283Z" fill="#030611"/>
</g>
<path opacity="0.4" d="M156 44.5V184.055L205.648 155.973V56.9053L156 44.5Z" fill="url(#paint0_linear_68_12775)"/>
<path opacity="0.4" d="M156 44.5V184.5L106.001 155.776V56.9053L156 44.5Z" fill="url(#paint1_linear_68_12775)"/>
<path d="M153.811 212.296V272.848C151.366 272.71 149.017 271.973 146.848 270.771L28.4282 202.795C27.507 202.289 26.9544 201.506 26.632 200.626L26.3096 200.442V138.646C26.3096 140.074 27.0004 141.506 28.4323 142.289L146.853 210.265C149.022 211.509 151.416 212.204 153.816 212.296H153.811Z" fill="#655DA0"/>
<path d="M272.878 145.655V205.931H272.832C272.694 207.405 271.957 208.791 270.479 209.62L162.802 270.771C159.989 272.337 156.899 273.032 153.809 272.847V212.296C156.899 212.572 159.989 211.881 162.802 210.311L270.479 149.114C271.86 148.331 272.648 147.037 272.786 145.655H272.878Z" fill="#645C9F"/>
<path d="M26.4477 137.055C26.3556 137.377 26.3096 137.746 26.3096 138.068V137.055H26.4477Z" fill="url(#paint2_linear_68_12775)"/>
<path d="M153.804 211.322V271.874C151.358 271.735 149.01 270.998 146.841 269.797L28.4203 201.821C27.4992 201.314 26.9466 200.531 26.6242 199.652L26.3018 199.467V137.672C26.3018 139.1 26.9926 140.532 28.4245 141.315L146.845 209.291C149.014 210.534 151.409 211.229 153.808 211.322H153.804Z" fill="url(#paint3_linear_68_12775)"/>
<path d="M272.484 149.122C272.346 150.504 271.563 151.797 270.177 152.58L162.501 213.777C157.522 216.591 151.481 216.545 146.544 213.731L28.1238 145.755C26.696 144.972 26.001 143.54 26.001 142.112C26.001 141.79 26.047 141.421 26.1391 141.099C26.3694 140.04 27.0142 139.068 28.1238 138.423L137.274 76.3974C141.792 73.8599 147.327 73.8599 151.845 76.4434L270.219 144.373C272.019 145.387 272.756 147.325 272.48 149.122H272.484Z" fill="url(#paint4_linear_68_12775)"/>
<path d="M270.498 148.05L162.797 209.243C157.844 212.057 151.777 212.044 146.836 209.209L28.4366 141.254C27.0925 140.484 26.4101 139.161 26.3389 137.812C26.2551 139.32 26.9376 140.869 28.4366 141.728L146.836 209.683C151.777 212.517 157.844 212.53 162.797 209.716L270.498 148.523C272.165 147.577 272.935 145.869 272.851 144.194C272.776 145.71 272.006 147.192 270.498 148.05Z" fill="url(#paint5_linear_68_12775)"/>
<path d="M272.878 145.082V205.358H272.832C272.694 206.832 271.957 208.218 270.479 209.047L162.802 270.197C159.989 271.763 156.899 272.458 153.809 272.274V211.722C156.899 211.999 159.989 211.308 162.802 209.738L270.479 148.541C271.86 147.758 272.648 146.464 272.786 145.082H272.878Z" fill="url(#paint6_linear_68_12775)"/>
<path d="M168.294 229.12C168.294 229.12 168.294 229.12 168.303 229.12L172.846 226.499C172.921 226.453 172.971 226.373 172.971 226.286V222.58C172.971 222.513 172.917 222.471 172.862 222.471C172.846 222.471 172.825 222.475 172.808 222.484L168.449 225C168.34 225.063 168.273 225.176 168.273 225.302V229.108C168.273 229.108 168.282 229.125 168.29 229.125L168.294 229.12Z" fill="url(#paint7_linear_68_12775)"/>
<path d="M168.294 235.029C168.294 235.029 168.294 235.029 168.303 235.029L172.846 232.407C172.921 232.361 172.971 232.282 172.971 232.194V228.488C172.971 228.421 172.917 228.379 172.862 228.379C172.846 228.379 172.825 228.383 172.808 228.392L168.449 230.908C168.34 230.971 168.273 231.084 168.273 231.21V235.016C168.273 235.016 168.282 235.033 168.29 235.033L168.294 235.029Z" fill="url(#paint8_linear_68_12775)"/>
<path d="M168.295 240.933C168.295 240.933 168.295 240.933 168.303 240.933L172.846 238.312C172.922 238.266 172.972 238.186 172.972 238.098V234.393C172.972 234.326 172.918 234.284 172.863 234.284C172.846 234.284 172.825 234.288 172.809 234.296L168.45 236.813C168.341 236.876 168.278 236.989 168.278 237.114V240.92C168.278 240.92 168.287 240.937 168.295 240.937V240.933Z" fill="url(#paint9_linear_68_12775)"/>
<path d="M168.294 246.84C168.294 246.84 168.294 246.84 168.303 246.84L172.846 244.219C172.921 244.173 172.971 244.093 172.971 244.005V240.3C172.971 240.233 172.917 240.191 172.862 240.191C172.846 240.191 172.825 240.195 172.808 240.203L168.449 242.72C168.34 242.783 168.273 242.896 168.273 243.021V246.827C168.273 246.827 168.282 246.844 168.29 246.844L168.294 246.84Z" fill="url(#paint10_linear_68_12775)"/>
<path d="M168.294 252.745C168.294 252.745 168.294 252.745 168.303 252.745L172.846 250.124C172.921 250.078 172.971 249.998 172.971 249.911V246.205C172.971 246.138 172.917 246.096 172.862 246.096C172.846 246.096 172.825 246.1 172.808 246.109L168.449 248.625C168.34 248.688 168.273 248.801 168.273 248.927V252.733C168.273 252.733 168.282 252.75 168.29 252.75L168.294 252.745Z" fill="url(#paint11_linear_68_12775)"/>
<path d="M175.585 225.135C175.585 225.135 175.585 225.135 175.593 225.135L180.136 222.513C180.212 222.467 180.262 222.388 180.262 222.3V218.594C180.262 218.527 180.208 218.485 180.153 218.485C180.136 218.485 180.115 218.49 180.099 218.498L175.74 221.014C175.631 221.077 175.568 221.19 175.568 221.316V225.122C175.568 225.122 175.577 225.139 175.585 225.139V225.135Z" fill="url(#paint12_linear_68_12775)"/>
<path d="M175.584 231.043H175.593L180.136 228.418C180.211 228.372 180.261 228.292 180.261 228.204V224.499C180.261 224.432 180.207 224.39 180.152 224.39C180.136 224.39 180.115 224.394 180.098 224.402L175.739 226.919C175.63 226.982 175.563 227.095 175.563 227.22V231.026C175.563 231.026 175.572 231.043 175.58 231.043H175.584Z" fill="url(#paint13_linear_68_12775)"/>
<path d="M175.584 236.951C175.584 236.951 175.584 236.951 175.593 236.951L180.136 234.33C180.211 234.284 180.261 234.204 180.261 234.116V230.411C180.261 230.344 180.207 230.302 180.152 230.302C180.136 230.302 180.115 230.306 180.098 230.314L175.739 232.831C175.63 232.894 175.563 233.007 175.563 233.132V236.939C175.563 236.939 175.572 236.955 175.58 236.955L175.584 236.951Z" fill="url(#paint14_linear_68_12775)"/>
<path d="M175.584 242.856H175.593L180.136 240.23C180.211 240.184 180.261 240.105 180.261 240.017V236.311C180.261 236.244 180.207 236.202 180.152 236.202C180.136 236.202 180.115 236.206 180.098 236.215L175.739 238.731C175.63 238.794 175.563 238.907 175.563 239.033V242.839C175.563 242.839 175.572 242.856 175.58 242.856H175.584Z" fill="url(#paint15_linear_68_12775)"/>
<path d="M175.584 248.763C175.584 248.763 175.584 248.763 175.593 248.763L180.136 246.142C180.211 246.096 180.261 246.017 180.261 245.929V242.223C180.261 242.156 180.207 242.114 180.152 242.114C180.136 242.114 180.115 242.118 180.098 242.127L175.739 244.643C175.63 244.706 175.563 244.819 175.563 244.945V248.751C175.563 248.751 175.572 248.768 175.58 248.768L175.584 248.763Z" fill="url(#paint16_linear_68_12775)"/>
<path d="M182.873 221.152H182.882L187.425 218.526C187.5 218.48 187.55 218.401 187.55 218.313V214.607C187.55 214.54 187.496 214.498 187.441 214.498C187.425 214.498 187.404 214.502 187.387 214.511L183.028 217.027C182.919 217.09 182.853 217.203 182.853 217.329V221.135C182.853 221.135 182.861 221.152 182.869 221.152H182.873Z" fill="url(#paint17_linear_68_12775)"/>
<path d="M182.873 227.06C182.873 227.06 182.873 227.06 182.882 227.06L187.425 224.438C187.5 224.392 187.55 224.313 187.55 224.225V220.519C187.55 220.452 187.496 220.41 187.441 220.41C187.425 220.41 187.404 220.414 187.387 220.423L183.028 222.939C182.919 223.002 182.853 223.115 182.853 223.241V227.047C182.853 227.047 182.861 227.064 182.869 227.064L182.873 227.06Z" fill="url(#paint18_linear_68_12775)"/>
<path d="M182.873 232.964C182.873 232.964 182.873 232.964 182.882 232.964L187.425 230.343C187.5 230.297 187.55 230.217 187.55 230.129V226.423C187.55 226.356 187.496 226.314 187.441 226.314C187.425 226.314 187.404 226.319 187.387 226.327L183.028 228.844C182.919 228.906 182.853 229.019 182.853 229.145V232.951C182.853 232.951 182.861 232.968 182.869 232.968L182.873 232.964Z" fill="url(#paint19_linear_68_12775)"/>
<path d="M182.873 238.872C182.873 238.872 182.873 238.872 182.882 238.872L187.425 236.251C187.5 236.205 187.55 236.125 187.55 236.037V232.332C187.55 232.265 187.496 232.223 187.441 232.223C187.425 232.223 187.404 232.227 187.387 232.235L183.028 234.752C182.919 234.815 182.853 234.928 182.853 235.053V238.859C182.853 238.859 182.861 238.876 182.869 238.876L182.873 238.872Z" fill="url(#paint20_linear_68_12775)"/>
<path d="M182.873 244.776C182.873 244.776 182.873 244.776 182.882 244.776L187.425 242.155C187.5 242.109 187.55 242.029 187.55 241.941V238.236C187.55 238.169 187.496 238.127 187.441 238.127C187.425 238.127 187.404 238.131 187.387 238.139L183.028 240.656C182.919 240.719 182.853 240.832 182.853 240.957V244.764C182.853 244.764 182.861 244.78 182.869 244.78L182.873 244.776Z" fill="url(#paint21_linear_68_12775)"/>
<path d="M190.164 217.169H190.172L194.715 214.544C194.79 214.498 194.84 214.418 194.84 214.326V210.621C194.84 210.554 194.786 210.512 194.732 210.512C194.715 210.512 194.694 210.516 194.677 210.524L190.318 213.041C190.21 213.104 190.143 213.217 190.143 213.342V217.149C190.143 217.149 190.151 217.165 190.159 217.165L190.164 217.169Z" fill="url(#paint22_linear_68_12775)"/>
<path d="M190.164 223.073C190.164 223.073 190.164 223.073 190.172 223.073L194.715 220.452C194.79 220.406 194.84 220.326 194.84 220.238V216.533C194.84 216.466 194.786 216.424 194.732 216.424C194.715 216.424 194.694 216.428 194.677 216.436L190.318 218.953C190.21 219.016 190.143 219.129 190.143 219.254V223.061C190.143 223.061 190.151 223.077 190.159 223.077L190.164 223.073Z" fill="url(#paint23_linear_68_12775)"/>
<path d="M190.164 228.982H190.172L194.715 226.356C194.79 226.31 194.84 226.231 194.84 226.143V222.437C194.84 222.37 194.786 222.328 194.732 222.328C194.715 222.328 194.694 222.332 194.677 222.341L190.318 224.857C190.21 224.92 190.143 225.033 190.143 225.159V228.965C190.143 228.965 190.151 228.982 190.159 228.982H190.164Z" fill="url(#paint24_linear_68_12775)"/>
<path d="M190.164 234.886C190.164 234.886 190.164 234.886 190.172 234.886L194.715 232.264C194.79 232.218 194.84 232.139 194.84 232.051V228.345C194.84 228.278 194.786 228.236 194.732 228.236C194.715 228.236 194.694 228.241 194.677 228.249L190.318 230.765C190.21 230.828 190.143 230.941 190.143 231.067V234.873C190.143 234.873 190.151 234.89 190.159 234.89L190.164 234.886Z" fill="url(#paint25_linear_68_12775)"/>
<path d="M190.164 240.794H190.172L194.715 238.169C194.79 238.122 194.84 238.043 194.84 237.955V234.249C194.84 234.182 194.786 234.14 194.732 234.14C194.715 234.14 194.694 234.145 194.677 234.153L190.318 236.67C190.21 236.732 190.143 236.845 190.143 236.971V240.777C190.143 240.777 190.151 240.794 190.159 240.794H190.164Z" fill="url(#paint26_linear_68_12775)"/>
<path d="M197.453 213.184C197.453 213.184 197.453 213.184 197.462 213.184L202.005 210.562C202.08 210.516 202.13 210.437 202.13 210.349V206.643C202.13 206.576 202.076 206.534 202.022 206.534C202.005 206.534 201.984 206.538 201.967 206.547L197.608 209.063C197.5 209.126 197.433 209.239 197.433 209.365V213.171C197.433 213.171 197.441 213.188 197.449 213.188L197.453 213.184Z" fill="url(#paint27_linear_68_12775)"/>
<path d="M197.453 219.092C197.453 219.092 197.453 219.092 197.462 219.092L202.005 216.471C202.08 216.424 202.13 216.345 202.13 216.257V212.551C202.13 212.484 202.076 212.442 202.022 212.442C202.005 212.442 201.984 212.447 201.967 212.455L197.608 214.972C197.5 215.034 197.433 215.147 197.433 215.273V219.079C197.433 219.079 197.441 219.096 197.449 219.096L197.453 219.092Z" fill="url(#paint28_linear_68_12775)"/>
<path d="M197.453 224.995C197.453 224.995 197.453 224.995 197.462 224.995L202.005 222.374C202.08 222.328 202.13 222.248 202.13 222.16V218.455C202.13 218.388 202.076 218.346 202.022 218.346C202.005 218.346 201.984 218.35 201.967 218.358L197.608 220.875C197.5 220.938 197.433 221.051 197.433 221.176V224.983C197.433 224.983 197.441 224.999 197.449 224.999L197.453 224.995Z" fill="url(#paint29_linear_68_12775)"/>
<path d="M197.453 230.904C197.453 230.904 197.453 230.904 197.462 230.904L202.005 228.282C202.08 228.236 202.13 228.157 202.13 228.065V224.359C202.13 224.292 202.076 224.25 202.022 224.25C202.005 224.25 201.984 224.254 201.967 224.263L197.608 226.779C197.5 226.842 197.433 226.955 197.433 227.081V230.887C197.433 230.887 197.441 230.904 197.449 230.904H197.453Z" fill="url(#paint30_linear_68_12775)"/>
<path d="M197.453 236.812C197.453 236.812 197.453 236.812 197.462 236.812L202.005 234.191C202.08 234.144 202.13 234.065 202.13 233.973V230.267C202.13 230.2 202.076 230.158 202.022 230.158C202.005 230.158 201.984 230.162 201.967 230.171L197.608 232.687C197.5 232.75 197.433 232.863 197.433 232.989V236.795C197.433 236.795 197.441 236.812 197.449 236.812H197.453Z" fill="url(#paint31_linear_68_12775)"/>
<path d="M261.814 171.165V202.716C261.814 202.959 261.751 203.202 261.693 203.449C261.509 203.934 261.207 204.303 260.78 204.546L222.046 226.897H221.988C221.925 226.897 221.866 226.834 221.866 226.776V194.371C221.866 193.273 222.415 192.298 223.327 191.812L254.022 174.087L256.58 172.626L260.479 170.373C260.6 170.315 260.784 170.252 260.906 170.252C261.333 170.252 261.818 170.616 261.818 171.165H261.814Z" fill="url(#paint32_linear_68_12775)"/>
<path d="M261.816 171.165V202.716C261.816 202.958 261.753 203.201 261.694 203.448L254.447 199.186L254.02 174.091L256.578 172.63L260.476 170.377C260.597 170.319 260.781 170.256 260.903 170.256C261.33 170.256 261.816 170.62 261.816 171.169V171.165Z" fill="url(#paint33_linear_68_12775)"/>
<path d="M256.577 172.626V199.668C256.577 200.4 256.15 201.129 255.48 201.493L221.858 220.922V194.366C221.858 193.269 222.407 192.294 223.32 191.808L256.573 172.622L256.577 172.626Z" fill="url(#paint34_linear_68_12775)"/>
<g opacity="0.4">
<path d="M227.142 197.255C227.142 197.255 227.142 197.255 227.146 197.255L230.391 195.383C230.445 195.35 230.479 195.291 230.479 195.229V192.582C230.479 192.536 230.437 192.507 230.403 192.507C230.391 192.507 230.378 192.507 230.366 192.515L227.251 194.312C227.175 194.358 227.125 194.437 227.125 194.525V197.243C227.125 197.243 227.129 197.255 227.138 197.255H227.142Z" fill="white"/>
</g>
<path d="M227.142 201.472C227.142 201.472 227.142 201.472 227.146 201.472L230.391 199.6C230.445 199.567 230.479 199.508 230.479 199.445V196.799C230.479 196.753 230.441 196.724 230.403 196.724C230.391 196.724 230.378 196.724 230.366 196.732L227.251 198.528C227.175 198.574 227.125 198.654 227.125 198.742V201.459C227.125 201.459 227.129 201.472 227.138 201.472H227.142Z" fill="white"/>
<path d="M227.142 205.692C227.142 205.692 227.142 205.692 227.146 205.692L230.391 203.821C230.445 203.787 230.479 203.729 230.479 203.666V201.019C230.479 200.973 230.441 200.944 230.403 200.944C230.391 200.944 230.378 200.944 230.366 200.957L227.251 202.753C227.175 202.799 227.125 202.879 227.125 202.967V205.684C227.125 205.684 227.129 205.697 227.138 205.697L227.142 205.692Z" fill="white"/>
<path d="M227.142 209.909C227.142 209.909 227.142 209.909 227.146 209.909L230.391 208.038C230.445 208.004 230.479 207.946 230.479 207.883V205.237C230.479 205.19 230.441 205.161 230.403 205.161C230.391 205.161 230.378 205.161 230.366 205.174L227.251 206.97C227.175 207.016 227.125 207.096 227.125 207.184V209.901C227.125 209.901 227.129 209.914 227.138 209.914L227.142 209.909Z" fill="white"/>
<path d="M227.142 214.13C227.142 214.13 227.142 214.13 227.146 214.13L230.391 212.258C230.445 212.225 230.479 212.166 230.479 212.104V209.457C230.479 209.411 230.437 209.382 230.403 209.382C230.391 209.382 230.378 209.382 230.366 209.39L227.251 211.187C227.175 211.233 227.125 211.312 227.125 211.4V214.118C227.125 214.118 227.129 214.13 227.138 214.13H227.142Z" fill="white"/>
<g opacity="0.4">
<path d="M232.346 194.408H232.35L235.595 192.532C235.649 192.498 235.683 192.44 235.683 192.377V189.731C235.683 189.685 235.645 189.655 235.608 189.655C235.595 189.655 235.582 189.655 235.57 189.664L232.455 191.46C232.379 191.506 232.329 191.586 232.329 191.674V194.391C232.329 194.391 232.333 194.404 232.342 194.404L232.346 194.408Z" fill="white"/>
</g>
<path d="M232.346 198.628C232.346 198.628 232.346 198.628 232.35 198.628L235.595 196.757C235.649 196.723 235.683 196.664 235.683 196.602V193.955C235.683 193.909 235.641 193.88 235.608 193.88C235.595 193.88 235.582 193.88 235.57 193.888L232.455 195.685C232.379 195.731 232.329 195.81 232.329 195.898V198.616C232.329 198.616 232.333 198.628 232.342 198.628H232.346Z" fill="white"/>
<g opacity="0.4">
<path d="M232.346 202.845H232.35L235.595 200.969C235.649 200.936 235.683 200.877 235.683 200.814V198.168C235.683 198.122 235.645 198.093 235.608 198.093C235.595 198.093 235.582 198.093 235.57 198.101L232.455 199.897C232.379 199.943 232.329 200.023 232.329 200.111V202.828C232.329 202.828 232.333 202.841 232.342 202.841L232.346 202.845Z" fill="white"/>
</g>
<g opacity="0.4">
<path d="M232.346 207.066H232.35L235.595 205.19C235.649 205.157 235.683 205.098 235.683 205.035V202.389C235.683 202.343 235.645 202.313 235.608 202.313C235.595 202.313 235.582 202.313 235.57 202.322L232.455 204.118C232.379 204.164 232.329 204.244 232.329 204.332V207.049C232.329 207.049 232.333 207.062 232.342 207.062L232.346 207.066Z" fill="white"/>
</g>
<g opacity="0.4">
<path d="M232.346 211.283H232.35L235.595 209.407C235.649 209.373 235.683 209.315 235.683 209.252V206.606C235.683 206.56 235.645 206.53 235.608 206.53C235.595 206.53 235.582 206.53 235.57 206.539L232.455 208.335C232.379 208.381 232.329 208.461 232.329 208.549V211.266C232.329 211.266 232.333 211.279 232.342 211.279L232.346 211.283Z" fill="white"/>
</g>
<path d="M237.556 191.561C237.556 191.561 237.556 191.561 237.56 191.561L240.805 189.689C240.859 189.656 240.893 189.597 240.893 189.534V186.888C240.893 186.842 240.855 186.813 240.817 186.813C240.805 186.813 240.792 186.812 240.78 186.825L237.665 188.621C237.589 188.667 237.539 188.747 237.539 188.835V191.552C237.539 191.552 237.543 191.565 237.552 191.565L237.556 191.561Z" fill="white"/>
<path d="M237.556 195.782H237.56L240.805 193.906C240.859 193.872 240.893 193.814 240.893 193.751V191.105C240.893 191.059 240.855 191.029 240.817 191.029C240.805 191.029 240.792 191.029 240.78 191.038L237.665 192.834C237.589 192.88 237.539 192.96 237.539 193.048V195.765C237.539 195.765 237.543 195.778 237.552 195.778L237.556 195.782Z" fill="white"/>
<path d="M237.556 199.999H237.56L240.805 198.123C240.859 198.089 240.893 198.031 240.893 197.968V195.321C240.893 195.275 240.851 195.246 240.817 195.246C240.805 195.246 240.792 195.246 240.78 195.254L237.665 197.051C237.589 197.097 237.539 197.176 237.539 197.264V199.982C237.539 199.982 237.543 199.994 237.552 199.994L237.556 199.999Z" fill="white"/>
<path d="M237.556 204.219H237.56L240.805 202.343C240.859 202.31 240.893 202.251 240.893 202.189V199.542C240.893 199.496 240.851 199.467 240.817 199.467C240.805 199.467 240.792 199.467 240.78 199.475L237.665 201.271C237.589 201.318 237.539 201.397 237.539 201.485V204.203C237.539 204.203 237.543 204.215 237.552 204.215L237.556 204.219Z" fill="white"/>
<path d="M237.556 208.44H237.56L240.805 206.564C240.859 206.531 240.893 206.472 240.893 206.409V203.763C240.893 203.717 240.851 203.688 240.817 203.688C240.805 203.688 240.792 203.688 240.78 203.696L237.665 205.492C237.589 205.538 237.539 205.618 237.539 205.706V208.423C237.539 208.423 237.543 208.436 237.552 208.436L237.556 208.44Z" fill="white"/>
<path d="M242.76 188.718H242.764L246.009 186.842C246.063 186.808 246.097 186.75 246.097 186.687V184.04C246.097 183.994 246.059 183.965 246.021 183.965C246.009 183.965 245.996 183.965 245.984 183.973L242.869 185.77C242.793 185.816 242.743 185.895 242.743 185.983V188.701C242.743 188.701 242.747 188.713 242.756 188.713L242.76 188.718Z" fill="white"/>
<g opacity="0.4">
<path d="M242.76 192.934H242.764L246.009 191.059C246.063 191.025 246.097 190.966 246.097 190.904V188.257C246.097 188.211 246.059 188.182 246.021 188.182C246.009 188.182 245.996 188.182 245.984 188.19L242.869 189.987C242.793 190.033 242.743 190.112 242.743 190.2V192.918C242.743 192.918 242.747 192.93 242.756 192.93L242.76 192.934Z" fill="white"/>
</g>
<path d="M242.76 197.155H242.764L246.009 195.279C246.063 195.245 246.097 195.187 246.097 195.124V192.478C246.097 192.432 246.059 192.402 246.021 192.402C246.009 192.402 245.996 192.402 245.984 192.415L242.869 194.211C242.793 194.257 242.743 194.337 242.743 194.425V197.142C242.743 197.142 242.747 197.155 242.756 197.155H242.76Z" fill="white"/>
<path d="M242.76 201.372H242.764L246.009 199.496C246.063 199.463 246.097 199.404 246.097 199.341V196.695C246.097 196.649 246.055 196.619 246.021 196.619C246.009 196.619 245.996 196.619 245.984 196.628L242.869 198.424C242.793 198.47 242.743 198.55 242.743 198.638V201.355C242.743 201.355 242.747 201.368 242.756 201.368L242.76 201.372Z" fill="white"/>
<path d="M242.76 205.592C242.76 205.592 242.76 205.592 242.764 205.592L246.009 203.721C246.063 203.687 246.097 203.629 246.097 203.566V200.919C246.097 200.873 246.055 200.844 246.021 200.844C246.009 200.844 245.996 200.844 245.984 200.852L242.869 202.649C242.793 202.695 242.743 202.774 242.743 202.862V205.58C242.743 205.58 242.747 205.592 242.756 205.592H242.76Z" fill="white"/>
<g opacity="0.4">
<path d="M247.967 185.87C247.967 185.87 247.967 185.87 247.971 185.87L251.216 183.999C251.27 183.965 251.304 183.907 251.304 183.844V181.197C251.304 181.151 251.266 181.122 251.229 181.122C251.216 181.122 251.203 181.122 251.191 181.13L248.076 182.927C248 182.973 247.95 183.052 247.95 183.14V185.858C247.95 185.858 247.954 185.87 247.963 185.87H247.967Z" fill="white"/>
</g>
<g opacity="0.4">
<path d="M247.967 190.091C247.967 190.091 247.967 190.091 247.971 190.091L251.216 188.219C251.27 188.186 251.304 188.127 251.304 188.064V185.418C251.304 185.372 251.262 185.343 251.229 185.343C251.216 185.343 251.203 185.343 251.191 185.351L248.076 187.147C248 187.194 247.95 187.273 247.95 187.361V190.079C247.95 190.079 247.954 190.091 247.963 190.091H247.967Z" fill="white"/>
</g>
<path d="M247.967 194.308C247.967 194.308 247.967 194.308 247.971 194.308L251.216 192.436C251.27 192.402 251.304 192.344 251.304 192.281V189.635C251.304 189.589 251.266 189.559 251.229 189.559C251.216 189.559 251.203 189.559 251.191 189.568L248.076 191.364C248 191.41 247.95 191.49 247.95 191.578V194.295C247.95 194.295 247.954 194.308 247.963 194.308H247.967Z" fill="white"/>
<path d="M247.967 198.529C247.967 198.529 247.967 198.529 247.971 198.529L251.216 196.657C251.27 196.623 251.304 196.565 251.304 196.502V193.856C251.304 193.81 251.266 193.78 251.229 193.78C251.216 193.78 251.203 193.78 251.191 193.789L248.076 195.585C248 195.631 247.95 195.711 247.95 195.799V198.516C247.95 198.516 247.954 198.529 247.963 198.529H247.967Z" fill="white"/>
<path d="M247.967 202.745C247.967 202.745 247.967 202.745 247.971 202.745L251.216 200.874C251.27 200.84 251.304 200.782 251.304 200.719V198.072C251.304 198.026 251.262 197.997 251.229 197.997C251.216 197.997 251.203 197.997 251.191 198.005L248.076 199.802C248 199.848 247.95 199.927 247.95 200.015V202.733C247.95 202.733 247.954 202.745 247.963 202.745H247.967Z" fill="white"/>
<path d="M117.746 225.465C117.746 226.486 117.49 227.353 117.03 227.964C116.469 228.831 115.497 229.292 114.375 229.292C113.458 229.292 112.336 228.986 111.16 228.32L65.8983 202.397C62.2766 200.358 59.3164 195.66 59.3164 192.038C59.3164 189.588 60.6437 188.261 62.6325 188.261H62.9884C63.8551 188.311 64.8767 188.667 65.8983 189.232L111.16 215.156C114.781 217.199 117.742 221.838 117.742 225.465H117.746Z" fill="url(#paint35_linear_68_12775)"/>
<path d="M117.746 225.465C117.746 226.486 117.49 227.353 117.03 227.964C116.163 227.914 115.242 227.554 114.224 226.993L68.913 201.12C65.2913 199.026 62.3311 194.383 62.3311 190.761C62.3311 189.739 62.5865 188.872 62.9926 188.261C63.8593 188.311 64.8809 188.667 65.9026 189.232L111.164 215.156C114.786 217.199 117.746 221.838 117.746 225.465Z" fill="url(#paint36_linear_68_12775)"/>
<path d="M71.5093 199.86L69.6084 198.754V193.788L71.5093 194.889V199.86Z" fill="white"/>
<path d="M75.0564 201.911L73.1514 200.81V195.84L75.0564 196.941V201.911Z" fill="white"/>
<path d="M78.6024 203.963L76.6973 202.862V197.892L78.6024 198.997V203.963Z" fill="white"/>
<path d="M82.1483 206.015L80.2432 204.913V199.947L82.1483 201.049V206.015Z" fill="white"/>
<path d="M85.6951 208.071L83.79 206.969V201.999L85.6951 203.1V208.071Z" fill="white"/>
<path d="M89.241 210.122L87.3359 209.021V204.051L89.241 205.152V210.122Z" fill="white"/>
<path d="M92.7869 212.175L90.8818 211.073V206.107L92.7869 207.208V212.175Z" fill="white"/>
<path d="M96.3328 214.231L94.4277 213.129V208.159L96.3328 209.26V214.231Z" fill="white"/>
<path d="M99.8807 216.281L97.9756 215.18V210.21L99.8807 211.311V216.281Z" fill="white"/>
<path d="M103.422 218.334L101.521 217.233V212.267L103.422 213.368V218.334Z" fill="white"/>
<path d="M106.969 220.39L105.068 219.289V214.318L106.969 215.42V220.39Z" fill="white"/>
<path d="M110.515 222.442L108.614 221.34V216.37L110.515 217.471V222.442Z" fill="white"/>
<path d="M225.263 144.868L204.956 156.4L143.47 121.139L94.2819 149.052L73.9248 137.365L143.47 97.9209L225.263 144.868Z" fill="url(#paint37_linear_68_12775)"/>
<path d="M204.957 156.401L155.768 184.363L94.2822 149.052L143.471 121.14L204.957 156.401Z" fill="url(#paint38_linear_68_12775)"/>
<path d="M143.47 97.9209V121.139L204.956 156.4L225.262 144.868L143.47 97.9209Z" fill="#5E569B"/>
<path opacity="0.4" d="M156 45V184.555L205.648 156.473V57.4053L156 45Z" fill="url(#paint39_linear_68_12775)"/>
<path opacity="0.4" d="M156 45V185L106.001 156.276V57.4053L156 45Z" fill="url(#paint40_linear_68_12775)"/>


<g class="el1">
<path opacity="0.7" d="M193.211 50.8221C191.388 49.8648 189.102 51.3463 189.102 51.3463L136.943 81.9855C136.943 81.9855 134.337 83.2846 133.099 85.1459C131.868 86.9996 132.081 91.6263 132.081 91.6263V148.901C132.081 148.901 131.337 152.418 133.183 153.034C135.036 153.657 136.654 152.51 136.654 152.51L191.039 119.333C191.039 119.333 193.082 118.452 193.964 116.78C194.837 115.109 194.655 113.005 194.655 113.005V54.6054C194.655 54.6054 195.035 51.7641 193.211 50.8145V50.8221Z" fill="url(#paint41_linear_68_12775)"/>
<path opacity="0.6" d="M199.699 54.7425C197.876 53.8004 195.59 55.2667 195.59 55.2667L143.423 85.9135C143.423 85.9135 140.818 87.2203 139.587 89.0816C138.349 90.9277 138.569 95.5618 138.569 95.5618V152.821C138.569 152.821 137.817 156.354 139.67 156.962C141.524 157.585 143.142 156.438 143.142 156.438L197.527 123.261C197.527 123.261 199.57 122.38 200.444 120.716C201.325 119.029 201.143 116.933 201.143 116.933V58.541C201.143 58.541 201.515 55.6997 199.692 54.7425H199.699Z" fill="white"/>
<g clip-path="url(#clip0_68_12775)">
<path d="M185.128 97.9074L184.701 84.0355C184.528 78.4343 180.512 76.278 175.748 79.2284L156.221 91.3272C156.221 91.3272 156.12 91.3772 155.945 91.4855C153.837 92.7914 151.421 95.8835 151.557 100.296C151.568 100.629 151.669 100.896 151.848 101.057L166.425 114.166C166.684 114.4 167.063 114.398 167.495 114.126L179.944 106.334C180.306 106.167 180.639 105.986 180.947 105.795C182.669 104.729 183.645 103.291 184.162 102.272C185.315 99.9916 185.142 98.0022 185.128 97.9074Z" fill="#C3CBD1"/>
<path d="M174.04 85.572L154.066 97.9419C150.755 99.9921 148.158 104.827 148.278 108.721L148.707 122.65C148.827 126.542 151.618 128.04 154.93 125.989L159.718 123.024L159.829 126.839C159.882 128.553 160.901 128.836 161.881 128.229C162.336 127.947 162.802 127.47 163.229 126.849C163.265 126.795 163.301 126.741 163.333 126.686L168.998 117.277L174.905 113.62C178.215 111.569 180.812 106.734 180.692 102.842L180.263 88.9133C180.142 85.0204 177.351 83.5218 174.04 85.572Z" fill="url(#paint42_linear_68_12775)"/>
<path d="M156.597 114.244C158.193 113.256 159.44 110.933 159.383 109.056C159.325 107.179 157.984 106.459 156.387 107.448C154.791 108.437 153.544 110.759 153.602 112.636C153.66 114.513 155.001 115.233 156.597 114.244Z" fill="white"/>
<path d="M164.787 109.172C166.384 108.184 167.631 105.861 167.573 103.984C167.515 102.107 166.174 101.387 164.578 102.376C162.982 103.364 161.734 105.687 161.792 107.564C161.85 109.441 163.191 110.161 164.787 109.172Z" fill="white"/>
<path d="M172.957 104.113C174.554 103.124 175.801 100.801 175.743 98.9244C175.685 97.0476 174.344 96.3276 172.748 97.3162C171.151 98.3048 169.904 100.628 169.962 102.504C170.02 104.381 171.361 105.101 172.957 104.113Z" fill="white"/>
<path opacity="0.14" d="M158.571 123.733L154.93 125.988C151.615 128.041 148.829 126.546 148.709 122.649L148.279 108.719C148.247 107.66 148.412 106.542 148.751 105.425L150.943 120.468C150.943 120.468 151.68 126.25 158.571 123.733Z" fill="white"/>
<path opacity="0.1" d="M184.702 84.0361L185.12 97.5981L183.294 85.8617C183.294 85.8617 182.015 79.728 176.901 81.222L164.905 85.946L175.75 79.2298C180.513 76.2801 184.529 78.4365 184.702 84.0361Z" fill="#182F56"/>
<path opacity="0.15" d="M175.745 98.9168C175.803 100.804 174.545 103.131 172.952 104.117C171.883 104.779 170.936 104.678 170.407 103.958C170.407 103.958 175.341 102.654 175.275 97.4571C175.564 97.7937 175.726 98.2878 175.745 98.9168Z" fill="#182F56"/>
<path opacity="0.15" d="M167.573 103.978C167.632 105.865 166.373 108.192 164.78 109.179C163.711 109.841 162.764 109.74 162.235 109.02C162.235 109.02 167.169 107.715 167.103 102.519C167.391 102.856 167.554 103.349 167.573 103.978Z" fill="#182F56"/>
<path opacity="0.15" d="M159.383 109.05C159.441 110.937 158.183 113.264 156.59 114.25C155.521 114.912 154.574 114.811 154.045 114.091C154.045 114.091 158.978 112.787 158.913 107.59C159.202 107.926 159.364 108.421 159.383 109.05Z" fill="#182F56"/>
</g>
<path opacity="0.5" d="M197.401 9.71708C196.183 9.07541 194.663 10.0606 194.663 10.0606L114.327 55.9073C114.327 55.9073 112.589 56.7764 111.771 58.0143C110.952 59.2471 111.099 62.324 111.099 62.324V75.6021C111.099 75.6021 110.604 77.9364 111.831 78.3507C113.064 78.765 114.14 78.0071 114.14 78.0071L195.956 30.4729C195.956 30.4729 197.315 29.8868 197.906 28.7752C198.487 27.6586 198.366 26.2591 198.366 26.2591V12.2282C198.366 12.2282 198.613 10.3436 197.406 9.71202L197.401 9.71708Z" fill="url(#paint43_linear_68_12775)"/>
<path opacity="0.9" d="M201.716 12.3185C200.503 11.687 198.983 12.6672 198.983 12.6672L118.647 58.5189C118.647 58.5189 116.914 59.3829 116.091 60.6207C115.272 61.8535 115.414 64.9356 115.414 64.9356V78.2086C115.414 78.2086 114.919 80.5479 116.151 80.9572C117.384 81.3715 118.46 80.6136 118.46 80.6136L200.276 33.0794C200.276 33.0794 201.64 32.4933 202.216 31.3868C202.797 30.2702 202.681 28.8706 202.681 28.8706V14.8397C202.681 14.8397 202.933 12.9501 201.721 12.3185H201.716Z" fill="url(#paint44_linear_68_12775)"/>
<path d="M187.603 23.4453L186.001 28.1189L182.419 30.7917L185.011 32.2064L184.399 36.6779L187.603 32.8834L190.806 32.9794L190.194 29.2153L192.786 24.8044L189.204 26.2697L187.603 23.4453Z" fill="white"/>
<path d="M172.988 31.7109L171.386 36.3845L167.81 39.0523L170.396 40.472L169.785 44.9485L172.988 41.1541L176.196 41.2501L175.58 37.486L178.172 33.065L174.595 34.5353L172.988 31.7109Z" fill="white"/>
<path d="M158.371 39.9817L156.774 44.6502L153.192 47.323L155.784 48.7428L155.168 53.2143L158.371 49.4198L161.574 49.5158L160.968 45.7517L163.56 41.3358L159.978 42.806L158.371 39.9817Z" fill="white"/>
<path d="M143.76 48.249L142.163 52.9226L138.576 55.5903L141.168 57.0152L140.557 61.4816L143.76 57.6922L146.963 57.7831L146.352 54.019L148.943 49.6082L145.361 51.0734L143.76 48.249Z" fill="white"/>
<path d="M129.149 56.5198L127.548 61.1934L123.966 63.8561L126.558 65.2758L125.946 69.7523L129.149 65.9529L132.352 66.0539L131.736 62.2847L134.328 57.8739L130.746 59.3441L129.149 56.5198Z" fill="white"/>
</g>
<defs>
<linearGradient id="paint0_linear_68_12775" x1="180.824" y1="44.5" x2="180.824" y2="184.055" gradientUnits="userSpaceOnUse">
<stop offset="0.288505" stop-color="#8E87BF" stop-opacity="0"/>
<stop offset="1" stop-color="#8E87BF"/>
</linearGradient>
<linearGradient id="paint1_linear_68_12775" x1="131" y1="44.5" x2="131" y2="184.5" gradientUnits="userSpaceOnUse">
<stop offset="0.288505" stop-color="#8E87BF" stop-opacity="0"/>
<stop offset="1" stop-color="#8E87BF"/>
</linearGradient>
<linearGradient id="paint2_linear_68_12775" x1="26.4059" y1="137.57" x2="26.2761" y2="137.536" gradientUnits="userSpaceOnUse">
<stop stop-color="#F3F4FB"/>
<stop offset="1" stop-color="#BCC2E6"/>
</linearGradient>
<linearGradient id="paint3_linear_68_12775" x1="145.044" y1="219.956" x2="66.877" y2="198.624" gradientUnits="userSpaceOnUse">
<stop stop-color="#F3F4FB"/>
<stop offset="1" stop-color="#BCC2E6"/>
</linearGradient>
<linearGradient id="paint4_linear_68_12775" x1="26.0094" y1="145.182" x2="272.543" y2="145.182" gradientUnits="userSpaceOnUse">
<stop stop-color="white"/>
<stop offset="1" stop-color="#DFE2F3"/>
</linearGradient>
<linearGradient id="paint5_linear_68_12775" x1="26.3305" y1="174.811" x2="272.86" y2="174.811" gradientUnits="userSpaceOnUse">
<stop stop-color="#F3F4FB"/>
<stop offset="1" stop-color="#FEFEFE"/>
</linearGradient>
<linearGradient id="paint6_linear_68_12775" x1="269.126" y1="231.603" x2="143.732" y2="180.073" gradientUnits="userSpaceOnUse">
<stop stop-color="#F3F4FB"/>
<stop offset="1" stop-color="#BCC2E6"/>
</linearGradient>
<linearGradient id="paint7_linear_68_12775" x1="180.217" y1="239.534" x2="165.176" y2="218.008" gradientUnits="userSpaceOnUse">
<stop stop-color="#64CEC3"/>
<stop offset="1" stop-color="#1C857A"/>
</linearGradient>
<linearGradient id="paint8_linear_68_12775" x1="180.217" y1="245.442" x2="165.176" y2="223.916" gradientUnits="userSpaceOnUse">
<stop stop-color="#64CEC3"/>
<stop offset="1" stop-color="#1C857A"/>
</linearGradient>
<linearGradient id="paint9_linear_68_12775" x1="180.211" y1="251.347" x2="165.166" y2="229.834" gradientUnits="userSpaceOnUse">
<stop stop-color="#64CEC3"/>
<stop offset="1" stop-color="#1C857A"/>
</linearGradient>
<linearGradient id="paint10_linear_68_12775" x1="180.217" y1="257.254" x2="165.176" y2="235.728" gradientUnits="userSpaceOnUse">
<stop stop-color="#64CEC3"/>
<stop offset="1" stop-color="#1C857A"/>
</linearGradient>
<linearGradient id="paint11_linear_68_12775" x1="180.217" y1="263.159" x2="165.176" y2="241.633" gradientUnits="userSpaceOnUse">
<stop stop-color="#64CEC3"/>
<stop offset="1" stop-color="#1C857A"/>
</linearGradient>
<linearGradient id="paint12_linear_68_12775" x1="187.501" y1="235.548" x2="172.456" y2="214.035" gradientUnits="userSpaceOnUse">
<stop stop-color="#64CEC3"/>
<stop offset="1" stop-color="#1C857A"/>
</linearGradient>
<linearGradient id="paint13_linear_68_12775" x1="187.507" y1="241.453" x2="172.466" y2="219.927" gradientUnits="userSpaceOnUse">
<stop stop-color="#64CEC3"/>
<stop offset="1" stop-color="#1C857A"/>
</linearGradient>
<linearGradient id="paint14_linear_68_12775" x1="187.507" y1="247.365" x2="172.466" y2="225.839" gradientUnits="userSpaceOnUse">
<stop stop-color="#64CEC3"/>
<stop offset="1" stop-color="#1C857A"/>
</linearGradient>
<linearGradient id="paint15_linear_68_12775" x1="187.507" y1="253.265" x2="172.466" y2="231.739" gradientUnits="userSpaceOnUse">
<stop stop-color="#64CEC3"/>
<stop offset="1" stop-color="#1C857A"/>
</linearGradient>
<linearGradient id="paint16_linear_68_12775" x1="187.507" y1="259.177" x2="172.466" y2="237.651" gradientUnits="userSpaceOnUse">
<stop stop-color="#64CEC3"/>
<stop offset="1" stop-color="#1C857A"/>
</linearGradient>
<linearGradient id="paint17_linear_68_12775" x1="194.796" y1="231.561" x2="179.756" y2="210.035" gradientUnits="userSpaceOnUse">
<stop stop-color="#64CEC3"/>
<stop offset="1" stop-color="#1C857A"/>
</linearGradient>
<linearGradient id="paint18_linear_68_12775" x1="194.796" y1="237.473" x2="179.755" y2="215.947" gradientUnits="userSpaceOnUse">
<stop stop-color="#64CEC3"/>
<stop offset="1" stop-color="#1C857A"/>
</linearGradient>
<linearGradient id="paint19_linear_68_12775" x1="194.796" y1="243.378" x2="179.755" y2="221.852" gradientUnits="userSpaceOnUse">
<stop stop-color="#64CEC3"/>
<stop offset="1" stop-color="#1C857A"/>
</linearGradient>
<linearGradient id="paint20_linear_68_12775" x1="194.796" y1="249.286" x2="179.755" y2="227.76" gradientUnits="userSpaceOnUse">
<stop stop-color="#64CEC3"/>
<stop offset="1" stop-color="#1C857A"/>
</linearGradient>
<linearGradient id="paint21_linear_68_12775" x1="194.796" y1="255.19" x2="179.755" y2="233.664" gradientUnits="userSpaceOnUse">
<stop stop-color="#64CEC3"/>
<stop offset="1" stop-color="#1C857A"/>
</linearGradient>
<linearGradient id="paint22_linear_68_12775" x1="202.086" y1="227.586" x2="187.033" y2="206.055" gradientUnits="userSpaceOnUse">
<stop stop-color="#64CEC3"/>
<stop offset="1" stop-color="#1C857A"/>
</linearGradient>
<linearGradient id="paint23_linear_68_12775" x1="202.086" y1="233.487" x2="187.046" y2="211.961" gradientUnits="userSpaceOnUse">
<stop stop-color="#64CEC3"/>
<stop offset="1" stop-color="#1C857A"/>
</linearGradient>
<linearGradient id="paint24_linear_68_12775" x1="202.086" y1="239.391" x2="187.046" y2="217.865" gradientUnits="userSpaceOnUse">
<stop stop-color="#64CEC3"/>
<stop offset="1" stop-color="#1C857A"/>
</linearGradient>
<linearGradient id="paint25_linear_68_12775" x1="202.086" y1="245.299" x2="187.046" y2="223.774" gradientUnits="userSpaceOnUse">
<stop stop-color="#64CEC3"/>
<stop offset="1" stop-color="#1C857A"/>
</linearGradient>
<linearGradient id="paint26_linear_68_12775" x1="202.086" y1="251.203" x2="187.046" y2="229.678" gradientUnits="userSpaceOnUse">
<stop stop-color="#64CEC3"/>
<stop offset="1" stop-color="#1C857A"/>
</linearGradient>
<linearGradient id="paint27_linear_68_12775" x1="209.376" y1="223.597" x2="194.336" y2="202.072" gradientUnits="userSpaceOnUse">
<stop stop-color="#64CEC3"/>
<stop offset="1" stop-color="#1C857A"/>
</linearGradient>
<linearGradient id="paint28_linear_68_12775" x1="209.376" y1="229.505" x2="194.336" y2="207.98" gradientUnits="userSpaceOnUse">
<stop stop-color="#64CEC3"/>
<stop offset="1" stop-color="#1C857A"/>
</linearGradient>
<linearGradient id="paint29_linear_68_12775" x1="209.376" y1="235.409" x2="194.336" y2="213.883" gradientUnits="userSpaceOnUse">
<stop stop-color="#64CEC3"/>
<stop offset="1" stop-color="#1C857A"/>
</linearGradient>
<linearGradient id="paint30_linear_68_12775" x1="209.376" y1="241.313" x2="194.336" y2="219.787" gradientUnits="userSpaceOnUse">
<stop stop-color="#64CEC3"/>
<stop offset="1" stop-color="#1C857A"/>
</linearGradient>
<linearGradient id="paint31_linear_68_12775" x1="209.376" y1="247.221" x2="194.336" y2="225.696" gradientUnits="userSpaceOnUse">
<stop stop-color="#64CEC3"/>
<stop offset="1" stop-color="#1C857A"/>
</linearGradient>
<linearGradient id="paint32_linear_68_12775" x1="252.226" y1="171.692" x2="231.929" y2="223.969" gradientUnits="userSpaceOnUse">
<stop stop-color="#8E87BF"/>
<stop offset="1" stop-color="#796ECA"/>
</linearGradient>
<linearGradient id="paint33_linear_68_12775" x1="257.918" y1="203.733" x2="257.918" y2="175.595" gradientUnits="userSpaceOnUse">
<stop stop-color="#5E569B"/>
<stop offset="0.99" stop-color="#796ECA"/>
</linearGradient>
<linearGradient id="paint34_linear_68_12775" x1="238.044" y1="203.468" x2="242.323" y2="177.366" gradientUnits="userSpaceOnUse">
<stop stop-color="#5E569B"/>
<stop offset="1" stop-color="#796ECA"/>
</linearGradient>
<linearGradient id="paint35_linear_68_12775" x1="59.3206" y1="208.778" x2="117.746" y2="208.778" gradientUnits="userSpaceOnUse">
<stop stop-color="#796ECA"/>
<stop offset="0.99" stop-color="#8E87BF"/>
</linearGradient>
<linearGradient id="paint36_linear_68_12775" x1="106.625" y1="205.42" x2="72.4467" y2="210.959" gradientUnits="userSpaceOnUse">
<stop stop-color="#8E87BF"/>
<stop offset="0.99" stop-color="#5E569B"/>
</linearGradient>
<linearGradient id="paint37_linear_68_12775" x1="155.508" y1="97.3682" x2="148.917" y2="146.125" gradientUnits="userSpaceOnUse">
<stop stop-color="#8E87BF"/>
<stop offset="1" stop-color="#5E569B"/>
</linearGradient>
<linearGradient id="paint38_linear_68_12775" x1="153.704" y1="122.521" x2="145.526" y2="182.977" gradientUnits="userSpaceOnUse">
<stop stop-color="#8E87BF"/>
<stop offset="1" stop-color="#5E569B"/>
</linearGradient>
<linearGradient id="paint39_linear_68_12775" x1="180.824" y1="45" x2="180.824" y2="184.555" gradientUnits="userSpaceOnUse">
<stop offset="0.288505" stop-color="#8E87BF" stop-opacity="0"/>
<stop offset="1" stop-color="#8E87BF"/>
</linearGradient>
<linearGradient id="paint40_linear_68_12775" x1="131" y1="45" x2="131" y2="185" gradientUnits="userSpaceOnUse">
<stop offset="0.288505" stop-color="#8E87BF" stop-opacity="0"/>
<stop offset="1" stop-color="#8E87BF"/>
</linearGradient>
<linearGradient id="paint41_linear_68_12775" x1="291.479" y1="313.924" x2="49.7434" y2="14.5645" gradientUnits="userSpaceOnUse">
<stop stop-color="#7169A9"/>
<stop offset="1" stop-color="#5E569B"/>
</linearGradient>
<linearGradient id="paint42_linear_68_12775" x1="232.102" y1="139.699" x2="147.18" y2="67.1233" gradientUnits="userSpaceOnUse">
<stop offset="0.522295" stop-color="#7169A9"/>
<stop offset="1" stop-color="#5E569B"/>
</linearGradient>
<linearGradient id="paint43_linear_68_12775" x1="126.114" y1="59.7069" x2="177.996" y2="2.68416" gradientUnits="userSpaceOnUse">
<stop stop-color="#5E569B"/>
<stop offset="1" stop-color="#796ECA"/>
</linearGradient>
<linearGradient id="paint44_linear_68_12775" x1="337.487" y1="188.992" x2="225.198" y2="-99.3768" gradientUnits="userSpaceOnUse">
<stop stop-color="#7169A9"/>
<stop offset="1" stop-color="#5E569B"/>
</linearGradient>
<clipPath id="clip0_68_12775">
<rect width="49.1164" height="49.1164" fill="white" transform="matrix(0.850174 -0.526501 0.030801 0.999526 145.122 93.3826)"/>
</clipPath>
</defs>

<style>
    .el1 {
        animation: move1 3s infinite;
        animation-timing-function: ease-in-out;
        }

    @keyframes move1 {
    0% {
    transform: translateY(0px);
    }

    70% {
    transform: translateY(10px);
    }

    100% {
    transform: translateY(0px);
    }
    }
</style>
</svg>
