<svg width="300" height="301" viewBox="0 0 300 301" fill="none" xmlns="http://www.w3.org/2000/svg">
    <g opacity="0.16">
        <path opacity="0.04"
            d="M258.323 239.45C260.711 206.773 212.904 176.648 151.541 172.163C90.1792 167.679 38.4994 190.533 36.1113 223.209C33.7231 255.886 81.531 286.011 142.893 290.496C204.255 294.98 255.935 272.126 258.323 239.45Z"
            fill="#030611" />
        <path opacity="0.07"
            d="M256.4 239.309C258.747 207.198 211.768 177.595 151.47 173.189C91.1724 168.782 40.3889 191.24 38.0422 223.35C35.6954 255.461 82.674 285.064 142.972 289.47C203.27 293.877 254.053 271.419 256.4 239.309Z"
            fill="#030611" />
        <path opacity="0.11"
            d="M254.469 239.168C256.774 207.626 210.627 178.547 151.396 174.219C92.1649 169.89 42.2799 191.95 39.9747 223.491C37.6695 255.033 83.817 284.112 143.048 288.441C202.279 292.77 252.164 270.709 254.469 239.168Z"
            fill="#030611" />
        <path opacity="0.15"
            d="M252.542 239.027C254.806 208.051 209.488 179.495 151.321 175.244C93.1542 170.993 44.1655 192.657 41.9017 223.632C39.6379 254.607 84.9562 283.164 143.123 287.415C201.29 291.666 250.278 270.002 252.542 239.027Z"
            fill="#030611" />
        <path opacity="0.19"
            d="M250.612 238.887C252.834 208.48 208.347 180.448 151.247 176.275C94.1467 172.102 46.0565 193.368 43.8343 223.774C41.612 254.181 86.0992 282.213 143.199 286.386C200.299 290.559 248.389 269.293 250.612 238.887Z"
            fill="#030611" />
        <path opacity="0.22"
            d="M248.678 238.744C250.859 208.903 207.201 181.393 151.166 177.298C95.1301 173.203 47.9363 194.073 45.7554 223.913C43.5746 253.753 87.2325 281.263 143.268 285.359C199.304 289.454 246.498 268.584 248.678 238.744Z"
            fill="#030611" />
        <path opacity="0.26"
            d="M246.748 238.602C248.887 209.331 206.06 182.345 151.091 178.328C96.1226 174.311 49.8272 194.783 47.688 224.054C45.5487 253.326 88.3756 280.311 143.344 284.329C198.313 288.346 244.609 267.874 246.748 238.602Z"
            fill="#030611" />
        <path opacity="0.3"
            d="M244.821 238.463C246.919 209.758 204.921 183.295 151.016 179.355C97.1119 175.415 51.7129 195.492 49.615 224.197C47.5171 252.902 89.5147 279.366 143.419 283.305C197.324 287.245 242.723 267.168 244.821 238.463Z"
            fill="#030611" />
        <path opacity="0.33"
            d="M242.894 238.32C244.95 210.184 203.784 184.245 150.946 180.383C98.1083 176.521 53.6077 196.2 51.5514 224.336C49.4951 252.472 90.6617 278.412 143.499 282.273C196.337 286.135 240.838 266.457 242.894 238.32Z"
            fill="#030611" />
        <path opacity="0.37"
            d="M240.965 238.18C242.98 210.61 202.642 185.193 150.869 181.409C99.0956 177.626 55.4914 196.908 53.4765 224.478C51.4616 252.048 91.7989 277.465 143.572 281.249C195.346 285.033 238.95 265.75 240.965 238.18Z"
            fill="#030611" />
        <path opacity="0.41"
            d="M239.035 238.039C241.008 211.035 201.502 186.14 150.795 182.434C100.089 178.728 57.3829 197.615 55.4093 224.618C53.4358 251.622 92.9419 276.517 143.649 280.223C194.355 283.929 237.061 265.042 239.035 238.039Z"
            fill="#030611" />
        <path opacity="0.44"
            d="M237.107 237.898C239.039 211.463 200.362 187.093 150.72 183.464C101.077 179.836 59.268 198.325 57.336 224.76C55.4041 251.194 94.081 275.565 143.723 279.193C193.366 282.821 235.175 264.333 237.107 237.898Z"
            fill="#030611" />
        <path opacity="0.48"
            d="M235.175 237.757C237.065 211.889 199.22 188.041 150.644 184.49C102.069 180.94 61.1575 199.033 59.2669 224.901C57.3764 250.77 95.2221 274.618 143.798 278.168C192.373 281.718 233.284 263.626 235.175 237.757Z"
            fill="#030611" />
        <path opacity="0.52"
            d="M233.243 237.617C235.092 212.317 198.076 188.993 150.564 185.521C103.053 182.048 63.0387 199.743 61.1897 225.042C59.3407 250.342 96.3573 273.666 143.869 277.139C191.38 280.611 231.394 262.917 233.243 237.617Z"
            fill="#030611" />
        <path opacity="0.56"
            d="M231.317 237.474C233.125 212.741 196.939 189.939 150.495 186.545C104.05 183.15 64.9341 200.449 63.1265 225.182C61.3189 249.915 97.5043 272.718 143.949 276.112C190.393 279.506 229.509 262.208 231.317 237.474Z"
            fill="#030611" />
        <path opacity="0.59"
            d="M229.386 237.335C231.152 213.17 195.795 190.892 150.415 187.576C105.035 184.259 66.8153 201.16 65.0493 225.324C63.2832 249.489 98.6395 271.767 144.02 275.083C189.4 278.4 227.619 261.499 229.386 237.335Z"
            fill="#030611" />
        <path opacity="0.63"
            d="M227.459 237.193C229.184 213.595 194.659 191.839 150.345 188.601C106.032 185.362 68.7107 201.867 66.9861 225.465C65.2614 249.063 99.7864 270.819 144.1 274.057C188.413 277.296 225.735 260.791 227.459 237.193Z"
            fill="#030611" />
        <path opacity="0.67"
            d="M225.532 237.053C227.215 214.023 193.519 192.792 150.27 189.631C107.021 186.47 70.5958 202.577 68.9127 225.606C67.2297 248.636 100.926 269.867 144.175 273.028C187.424 276.189 223.849 260.082 225.532 237.053Z"
            fill="#030611" />
        <path opacity="0.7"
            d="M223.596 236.911C225.237 214.448 192.373 193.739 150.19 190.656C108.008 187.573 72.4815 203.284 70.8398 225.747C69.1981 248.21 102.063 268.919 144.245 272.002C186.427 275.085 221.954 259.374 223.596 236.911Z"
            fill="#030611" />
        <path opacity="0.74"
            d="M221.668 236.77C223.268 214.876 191.233 194.691 150.115 191.686C108.997 188.681 74.3666 203.994 72.7664 225.888C71.1663 247.782 103.202 267.967 144.32 270.972C185.438 273.978 220.068 258.665 221.668 236.77Z"
            fill="#030611" />
        <path opacity="0.78"
            d="M219.74 236.629C221.298 215.301 190.094 195.638 150.043 192.711C109.992 189.784 76.26 204.701 74.7013 226.029C73.1425 247.357 104.347 267.019 144.398 269.947C184.449 272.874 218.181 257.957 219.74 236.629Z"
            fill="#030611" />
        <path opacity="0.81"
            d="M217.814 236.488C219.332 215.726 188.957 196.586 149.97 193.736C110.983 190.887 78.1476 205.408 76.6302 226.169C75.1129 246.931 105.488 266.071 144.475 268.921C183.462 271.77 216.297 257.249 217.814 236.488Z"
            fill="#030611" />
        <path opacity="0.85"
            d="M215.878 236.347C217.354 216.155 187.81 197.538 149.89 194.767C111.969 191.996 80.0327 206.119 78.5569 226.311C77.0811 246.504 106.625 265.12 144.545 267.892C182.466 270.663 214.402 256.54 215.878 236.347Z"
            fill="#030611" />
        <path opacity="0.89"
            d="M213.955 236.206C215.389 216.579 186.674 198.485 149.818 195.792C112.963 193.098 81.9222 206.825 80.4878 226.451C79.0534 246.078 107.768 264.172 144.624 266.865C181.48 269.559 212.52 255.832 213.955 236.206Z"
            fill="#030611" />
        <path opacity="0.93"
            d="M212.018 236.065C213.411 217.007 185.527 199.437 149.738 196.821C113.949 194.206 83.8073 207.535 82.4145 226.593C81.0217 245.65 108.905 263.22 144.695 265.836C180.484 268.451 210.625 255.122 212.018 236.065Z"
            fill="#030611" />
        <path opacity="0.96"
            d="M210.091 235.925C211.442 217.433 184.388 200.386 149.663 197.848C114.938 195.31 85.693 208.243 84.3415 226.734C82.9901 245.226 110.045 262.273 144.769 264.811C179.494 267.349 208.74 254.416 210.091 235.925Z"
            fill="#030611" />
        <path
            d="M208.16 235.783C209.47 217.861 183.247 201.337 149.589 198.878C115.931 196.418 87.5839 208.953 86.2741 226.875C84.9642 244.798 111.188 261.321 144.846 263.781C178.504 266.241 206.851 253.706 208.16 235.783Z"
            fill="#030611" />
    </g>
    <path
        d="M153.81 212.796V273.348C151.365 273.21 149.016 272.473 146.848 271.271L28.4272 203.295C27.506 202.788 26.9534 202.005 26.631 201.126L26.3086 200.942V139.146C26.3086 140.574 26.9994 142.006 28.4314 142.789L146.852 210.765C149.021 212.009 151.415 212.704 153.815 212.796H153.81Z"
        fill="#655DA0" />
    <path
        d="M272.876 146.155V206.431H272.83C272.692 207.905 271.955 209.291 270.477 210.12L162.8 271.271C159.987 272.837 156.897 273.532 153.807 273.347V212.796C156.897 213.072 159.987 212.381 162.8 210.811L270.477 149.614C271.858 148.831 272.646 147.537 272.784 146.155H272.876Z"
        fill="#645C9F" />
    <path d="M26.4467 137.555C26.3546 137.877 26.3086 138.246 26.3086 138.568V137.555H26.4467Z"
        fill="url(#paint0_linear_68_12612)" />
    <path
        d="M153.803 211.822V272.374C151.357 272.235 149.009 271.498 146.84 270.297L28.4194 202.321C27.4982 201.814 26.9456 201.031 26.6232 200.152L26.3008 199.967V138.172C26.3008 139.6 26.9916 141.032 28.4236 141.815L146.844 209.791C149.013 211.034 151.408 211.729 153.807 211.822H153.803Z"
        fill="url(#paint1_linear_68_12612)" />
    <path
        d="M272.483 149.622C272.345 151.003 271.562 152.297 270.176 153.08L162.5 214.277C157.521 217.091 151.48 217.045 146.543 214.231L28.1228 146.255C26.695 145.472 26 144.04 26 142.612C26 142.29 26.046 141.921 26.1382 141.599C26.3684 140.539 27.0132 139.568 28.1228 138.923L137.273 76.8972C141.791 74.3597 147.326 74.3597 151.844 76.9432L270.218 144.873C272.018 145.886 272.755 147.825 272.479 149.622H272.483Z"
        fill="url(#paint2_linear_68_12612)" />
    <path
        d="M270.498 148.55L162.797 209.743C157.844 212.557 151.777 212.544 146.836 209.709L28.4366 141.754C27.0925 140.984 26.4101 139.661 26.3389 138.312C26.2551 139.82 26.9376 141.369 28.4366 142.228L146.836 210.183C151.777 213.017 157.844 213.03 162.797 210.216L270.498 149.023C272.165 148.077 272.935 146.369 272.851 144.694C272.776 146.21 272.006 147.692 270.498 148.55Z"
        fill="url(#paint3_linear_68_12612)" />
    <path
        d="M272.876 145.582V205.858H272.83C272.692 207.332 271.955 208.718 270.477 209.547L162.8 270.697C159.987 272.263 156.897 272.958 153.807 272.774V212.222C156.897 212.499 159.987 211.808 162.8 210.238L270.477 149.041C271.858 148.258 272.646 146.964 272.784 145.582H272.876Z"
        fill="url(#paint4_linear_68_12612)" />
    <path
        d="M168.294 229.62C168.294 229.62 168.294 229.62 168.303 229.62L172.846 226.999C172.921 226.953 172.971 226.873 172.971 226.786V223.08C172.971 223.013 172.917 222.971 172.862 222.971C172.846 222.971 172.825 222.975 172.808 222.984L168.449 225.5C168.34 225.563 168.273 225.676 168.273 225.802V229.608C168.273 229.608 168.282 229.625 168.29 229.625L168.294 229.62Z"
        fill="url(#paint5_linear_68_12612)" />
    <path
        d="M168.294 235.529C168.294 235.529 168.294 235.529 168.303 235.529L172.846 232.907C172.921 232.861 172.971 232.782 172.971 232.694V228.988C172.971 228.921 172.917 228.879 172.862 228.879C172.846 228.879 172.825 228.883 172.808 228.892L168.449 231.408C168.34 231.471 168.273 231.584 168.273 231.71V235.516C168.273 235.516 168.282 235.533 168.29 235.533L168.294 235.529Z"
        fill="url(#paint6_linear_68_12612)" />
    <path
        d="M168.294 241.433C168.294 241.433 168.294 241.433 168.302 241.433L172.845 238.812C172.921 238.766 172.971 238.686 172.971 238.598V234.892C172.971 234.825 172.917 234.783 172.862 234.783C172.845 234.783 172.824 234.788 172.808 234.796L168.449 237.313C168.34 237.375 168.277 237.488 168.277 237.614V241.42C168.277 241.42 168.286 241.437 168.294 241.437V241.433Z"
        fill="url(#paint7_linear_68_12612)" />
    <path
        d="M168.294 247.34C168.294 247.34 168.294 247.34 168.303 247.34L172.846 244.719C172.921 244.673 172.971 244.593 172.971 244.505V240.8C172.971 240.733 172.917 240.691 172.862 240.691C172.846 240.691 172.825 240.695 172.808 240.703L168.449 243.22C168.34 243.283 168.273 243.396 168.273 243.521V247.327C168.273 247.327 168.282 247.344 168.29 247.344L168.294 247.34Z"
        fill="url(#paint8_linear_68_12612)" />
    <path
        d="M168.294 253.245C168.294 253.245 168.294 253.245 168.303 253.245L172.846 250.624C172.921 250.578 172.971 250.498 172.971 250.411V246.705C172.971 246.638 172.917 246.596 172.862 246.596C172.846 246.596 172.825 246.6 172.808 246.609L168.449 249.125C168.34 249.188 168.273 249.301 168.273 249.427V253.233C168.273 253.233 168.282 253.25 168.29 253.25L168.294 253.245Z"
        fill="url(#paint9_linear_68_12612)" />
    <path
        d="M175.583 225.635C175.583 225.635 175.583 225.635 175.592 225.635L180.134 223.013C180.21 222.967 180.26 222.888 180.26 222.8V219.094C180.26 219.027 180.206 218.985 180.151 218.985C180.134 218.985 180.113 218.99 180.097 218.998L175.738 221.514C175.629 221.577 175.566 221.69 175.566 221.816V225.622C175.566 225.622 175.575 225.639 175.583 225.639V225.635Z"
        fill="url(#paint10_linear_68_12612)" />
    <path
        d="M175.583 231.543H175.592L180.135 228.918C180.21 228.872 180.26 228.792 180.26 228.704V224.999C180.26 224.932 180.206 224.89 180.151 224.89C180.135 224.89 180.114 224.894 180.097 224.902L175.738 227.419C175.63 227.482 175.562 227.595 175.562 227.72V231.526C175.562 231.526 175.571 231.543 175.579 231.543H175.583Z"
        fill="url(#paint11_linear_68_12612)" />
    <path
        d="M175.583 237.451C175.583 237.451 175.583 237.451 175.592 237.451L180.135 234.83C180.21 234.784 180.26 234.704 180.26 234.616V230.911C180.26 230.844 180.206 230.802 180.151 230.802C180.135 230.802 180.114 230.806 180.097 230.814L175.738 233.331C175.63 233.394 175.562 233.507 175.562 233.632V237.439C175.562 237.439 175.571 237.455 175.579 237.455L175.583 237.451Z"
        fill="url(#paint12_linear_68_12612)" />
    <path
        d="M175.583 243.356H175.592L180.135 240.73C180.21 240.684 180.26 240.605 180.26 240.517V236.811C180.26 236.744 180.206 236.702 180.151 236.702C180.135 236.702 180.114 236.706 180.097 236.715L175.738 239.231C175.63 239.294 175.562 239.407 175.562 239.533V243.339C175.562 243.339 175.571 243.356 175.579 243.356H175.583Z"
        fill="url(#paint13_linear_68_12612)" />
    <path
        d="M175.583 249.263C175.583 249.263 175.583 249.263 175.592 249.263L180.135 246.642C180.21 246.596 180.26 246.517 180.26 246.429V242.723C180.26 242.656 180.206 242.614 180.151 242.614C180.135 242.614 180.114 242.618 180.097 242.627L175.738 245.143C175.63 245.206 175.562 245.319 175.562 245.445V249.251C175.562 249.251 175.571 249.268 175.579 249.268L175.583 249.263Z"
        fill="url(#paint14_linear_68_12612)" />
    <path
        d="M182.874 221.652H182.883L187.426 219.026C187.501 218.98 187.551 218.901 187.551 218.813V215.107C187.551 215.04 187.497 214.998 187.442 214.998C187.426 214.998 187.405 215.002 187.388 215.011L183.029 217.527C182.92 217.59 182.854 217.703 182.854 217.829V221.635C182.854 221.635 182.862 221.652 182.87 221.652H182.874Z"
        fill="url(#paint15_linear_68_12612)" />
    <path
        d="M182.874 227.56C182.874 227.56 182.874 227.56 182.883 227.56L187.426 224.938C187.501 224.892 187.551 224.813 187.551 224.725V221.019C187.551 220.952 187.497 220.91 187.442 220.91C187.426 220.91 187.405 220.914 187.388 220.923L183.029 223.439C182.92 223.502 182.854 223.615 182.854 223.741V227.547C182.854 227.547 182.862 227.564 182.87 227.564L182.874 227.56Z"
        fill="url(#paint16_linear_68_12612)" />
    <path
        d="M182.874 233.464C182.874 233.464 182.874 233.464 182.883 233.464L187.426 230.843C187.501 230.797 187.551 230.717 187.551 230.629V226.923C187.551 226.856 187.497 226.814 187.442 226.814C187.426 226.814 187.405 226.819 187.388 226.827L183.029 229.344C182.92 229.406 182.854 229.519 182.854 229.645V233.451C182.854 233.451 182.862 233.468 182.87 233.468L182.874 233.464Z"
        fill="url(#paint17_linear_68_12612)" />
    <path
        d="M182.874 239.372C182.874 239.372 182.874 239.372 182.883 239.372L187.426 236.751C187.501 236.705 187.551 236.625 187.551 236.537V232.832C187.551 232.765 187.497 232.723 187.442 232.723C187.426 232.723 187.405 232.727 187.388 232.735L183.029 235.252C182.92 235.315 182.854 235.428 182.854 235.553V239.359C182.854 239.359 182.862 239.376 182.87 239.376L182.874 239.372Z"
        fill="url(#paint18_linear_68_12612)" />
    <path
        d="M182.874 245.276C182.874 245.276 182.874 245.276 182.883 245.276L187.426 242.655C187.501 242.609 187.551 242.529 187.551 242.441V238.736C187.551 238.669 187.497 238.627 187.442 238.627C187.426 238.627 187.405 238.631 187.388 238.639L183.029 241.156C182.92 241.219 182.854 241.332 182.854 241.457V245.264C182.854 245.264 182.862 245.28 182.87 245.28L182.874 245.276Z"
        fill="url(#paint19_linear_68_12612)" />
    <path
        d="M190.164 217.669H190.172L194.715 215.044C194.79 214.998 194.84 214.918 194.84 214.826V211.121C194.84 211.054 194.786 211.012 194.732 211.012C194.715 211.012 194.694 211.016 194.677 211.024L190.318 213.541C190.21 213.604 190.143 213.717 190.143 213.842V217.649C190.143 217.649 190.151 217.665 190.159 217.665L190.164 217.669Z"
        fill="url(#paint20_linear_68_12612)" />
    <path
        d="M190.164 223.573C190.164 223.573 190.164 223.573 190.172 223.573L194.715 220.952C194.79 220.906 194.84 220.826 194.84 220.738V217.033C194.84 216.966 194.786 216.924 194.732 216.924C194.715 216.924 194.694 216.928 194.677 216.936L190.318 219.453C190.21 219.516 190.143 219.629 190.143 219.754V223.561C190.143 223.561 190.151 223.577 190.159 223.577L190.164 223.573Z"
        fill="url(#paint21_linear_68_12612)" />
    <path
        d="M190.164 229.482H190.172L194.715 226.856C194.79 226.81 194.84 226.731 194.84 226.643V222.937C194.84 222.87 194.786 222.828 194.732 222.828C194.715 222.828 194.694 222.832 194.677 222.841L190.318 225.357C190.21 225.42 190.143 225.533 190.143 225.659V229.465C190.143 229.465 190.151 229.482 190.159 229.482H190.164Z"
        fill="url(#paint22_linear_68_12612)" />
    <path
        d="M190.164 235.386C190.164 235.386 190.164 235.386 190.172 235.386L194.715 232.764C194.79 232.718 194.84 232.639 194.84 232.551V228.845C194.84 228.778 194.786 228.736 194.732 228.736C194.715 228.736 194.694 228.741 194.677 228.749L190.318 231.265C190.21 231.328 190.143 231.441 190.143 231.567V235.373C190.143 235.373 190.151 235.39 190.159 235.39L190.164 235.386Z"
        fill="url(#paint23_linear_68_12612)" />
    <path
        d="M190.164 241.294H190.172L194.715 238.669C194.79 238.622 194.84 238.543 194.84 238.455V234.749C194.84 234.682 194.786 234.64 194.732 234.64C194.715 234.64 194.694 234.645 194.677 234.653L190.318 237.17C190.21 237.232 190.143 237.345 190.143 237.471V241.277C190.143 241.277 190.151 241.294 190.159 241.294H190.164Z"
        fill="url(#paint24_linear_68_12612)" />
    <path
        d="M197.452 213.684C197.452 213.684 197.453 213.684 197.461 213.684L202.004 211.062C202.079 211.016 202.129 210.937 202.129 210.849V207.143C202.129 207.076 202.075 207.034 202.021 207.034C202.004 207.034 201.983 207.038 201.966 207.047L197.607 209.563C197.499 209.626 197.432 209.739 197.432 209.865V213.671C197.432 213.671 197.44 213.688 197.448 213.688L197.452 213.684Z"
        fill="url(#paint25_linear_68_12612)" />
    <path
        d="M197.452 219.592C197.452 219.592 197.453 219.592 197.461 219.592L202.004 216.971C202.079 216.924 202.129 216.845 202.129 216.757V213.051C202.129 212.984 202.075 212.942 202.021 212.942C202.004 212.942 201.983 212.947 201.966 212.955L197.607 215.472C197.499 215.534 197.432 215.647 197.432 215.773V219.579C197.432 219.579 197.44 219.596 197.448 219.596L197.452 219.592Z"
        fill="url(#paint26_linear_68_12612)" />
    <path
        d="M197.452 225.495C197.452 225.495 197.453 225.495 197.461 225.495L202.004 222.874C202.079 222.828 202.129 222.748 202.129 222.66V218.955C202.129 218.888 202.075 218.846 202.021 218.846C202.004 218.846 201.983 218.85 201.966 218.858L197.607 221.375C197.499 221.438 197.432 221.551 197.432 221.676V225.483C197.432 225.483 197.44 225.499 197.448 225.499L197.452 225.495Z"
        fill="url(#paint27_linear_68_12612)" />
    <path
        d="M197.452 231.404C197.452 231.404 197.453 231.404 197.461 231.404L202.004 228.782C202.079 228.736 202.129 228.657 202.129 228.565V224.859C202.129 224.792 202.075 224.75 202.021 224.75C202.004 224.75 201.983 224.754 201.966 224.763L197.607 227.279C197.499 227.342 197.432 227.455 197.432 227.581V231.387C197.432 231.387 197.44 231.404 197.448 231.404H197.452Z"
        fill="url(#paint28_linear_68_12612)" />
    <path
        d="M197.452 237.312C197.452 237.312 197.453 237.312 197.461 237.312L202.004 234.691C202.079 234.644 202.129 234.565 202.129 234.473V230.767C202.129 230.7 202.075 230.658 202.021 230.658C202.004 230.658 201.983 230.662 201.966 230.671L197.607 233.187C197.499 233.25 197.432 233.363 197.432 233.489V237.295C197.432 237.295 197.44 237.312 197.448 237.312H197.452Z"
        fill="url(#paint29_linear_68_12612)" />
    <path
        d="M261.813 171.665V203.216C261.813 203.459 261.75 203.702 261.692 203.949C261.508 204.434 261.206 204.803 260.779 205.046L222.045 227.397H221.987C221.924 227.397 221.865 227.334 221.865 227.276V194.871C221.865 193.773 222.414 192.798 223.326 192.312L254.021 174.587L256.579 173.126L260.478 170.873C260.599 170.815 260.783 170.752 260.905 170.752C261.332 170.752 261.817 171.116 261.817 171.665H261.813Z"
        fill="url(#paint30_linear_68_12612)" />
    <path
        d="M261.814 171.665V203.216C261.814 203.458 261.751 203.701 261.692 203.948L254.445 199.686L254.018 174.591L256.576 173.13L260.474 170.877C260.595 170.819 260.78 170.756 260.901 170.756C261.328 170.756 261.814 171.12 261.814 171.669V171.665Z"
        fill="url(#paint31_linear_68_12612)" />
    <path
        d="M256.576 173.126V200.168C256.576 200.9 256.149 201.629 255.479 201.993L221.857 221.422V194.866C221.857 193.769 222.406 192.794 223.319 192.308L256.572 173.122L256.576 173.126Z"
        fill="url(#paint32_linear_68_12612)" />
    <g opacity="0.4">
        <path
            d="M227.142 197.755C227.142 197.755 227.142 197.755 227.146 197.755L230.391 195.883C230.445 195.85 230.479 195.791 230.479 195.729V193.082C230.479 193.036 230.437 193.007 230.403 193.007C230.391 193.007 230.378 193.007 230.366 193.015L227.251 194.812C227.175 194.858 227.125 194.937 227.125 195.025V197.743C227.125 197.743 227.129 197.755 227.138 197.755H227.142Z"
            fill="white" />
    </g>
    <path
        d="M227.142 201.972C227.142 201.972 227.142 201.972 227.146 201.972L230.391 200.1C230.445 200.067 230.479 200.008 230.479 199.945V197.299C230.479 197.253 230.441 197.224 230.403 197.224C230.391 197.224 230.378 197.224 230.366 197.232L227.251 199.028C227.175 199.074 227.125 199.154 227.125 199.242V201.959C227.125 201.959 227.129 201.972 227.138 201.972H227.142Z"
        fill="white" />
    <path
        d="M227.142 206.192C227.142 206.192 227.142 206.192 227.146 206.192L230.391 204.321C230.445 204.287 230.479 204.229 230.479 204.166V201.519C230.479 201.473 230.441 201.444 230.403 201.444C230.391 201.444 230.378 201.444 230.366 201.457L227.251 203.253C227.175 203.299 227.125 203.379 227.125 203.467V206.184C227.125 206.184 227.129 206.197 227.138 206.197L227.142 206.192Z"
        fill="white" />
    <path
        d="M227.142 210.409C227.142 210.409 227.142 210.409 227.146 210.409L230.391 208.538C230.445 208.504 230.479 208.446 230.479 208.383V205.737C230.479 205.69 230.441 205.661 230.403 205.661C230.391 205.661 230.378 205.661 230.366 205.674L227.251 207.47C227.175 207.516 227.125 207.596 227.125 207.684V210.401C227.125 210.401 227.129 210.414 227.138 210.414L227.142 210.409Z"
        fill="white" />
    <path
        d="M227.142 214.63C227.142 214.63 227.142 214.63 227.146 214.63L230.391 212.758C230.445 212.725 230.479 212.666 230.479 212.604V209.957C230.479 209.911 230.437 209.882 230.403 209.882C230.391 209.882 230.378 209.882 230.366 209.89L227.251 211.687C227.175 211.733 227.125 211.812 227.125 211.9V214.618C227.125 214.618 227.129 214.63 227.138 214.63H227.142Z"
        fill="white" />
    <g opacity="0.4">
        <path
            d="M232.347 194.908H232.351L235.596 193.032C235.65 192.998 235.684 192.94 235.684 192.877V190.231C235.684 190.185 235.646 190.155 235.609 190.155C235.596 190.155 235.583 190.155 235.571 190.164L232.456 191.96C232.38 192.006 232.33 192.086 232.33 192.174V194.891C232.33 194.891 232.334 194.904 232.343 194.904L232.347 194.908Z"
            fill="white" />
    </g>
    <path
        d="M232.347 199.128C232.347 199.128 232.347 199.128 232.351 199.128L235.596 197.257C235.65 197.223 235.684 197.164 235.684 197.102V194.455C235.684 194.409 235.642 194.38 235.609 194.38C235.596 194.38 235.583 194.38 235.571 194.388L232.456 196.185C232.38 196.231 232.33 196.31 232.33 196.398V199.116C232.33 199.116 232.334 199.128 232.343 199.128H232.347Z"
        fill="white" />
    <g opacity="0.4">
        <path
            d="M232.347 203.345H232.351L235.596 201.469C235.65 201.436 235.684 201.377 235.684 201.314V198.668C235.684 198.622 235.646 198.593 235.609 198.593C235.596 198.593 235.583 198.593 235.571 198.601L232.456 200.397C232.38 200.443 232.33 200.523 232.33 200.611V203.328C232.33 203.328 232.334 203.341 232.343 203.341L232.347 203.345Z"
            fill="white" />
    </g>
    <g opacity="0.4">
        <path
            d="M232.347 207.566H232.351L235.596 205.69C235.65 205.657 235.684 205.598 235.684 205.535V202.889C235.684 202.843 235.646 202.813 235.609 202.813C235.596 202.813 235.583 202.813 235.571 202.822L232.456 204.618C232.38 204.664 232.33 204.744 232.33 204.832V207.549C232.33 207.549 232.334 207.562 232.343 207.562L232.347 207.566Z"
            fill="white" />
    </g>
    <g opacity="0.4">
        <path
            d="M232.347 211.783H232.351L235.596 209.907C235.65 209.873 235.684 209.815 235.684 209.752V207.106C235.684 207.06 235.646 207.03 235.609 207.03C235.596 207.03 235.583 207.03 235.571 207.039L232.456 208.835C232.38 208.881 232.33 208.961 232.33 209.049V211.766C232.33 211.766 232.334 211.779 232.343 211.779L232.347 211.783Z"
            fill="white" />
    </g>
    <path
        d="M237.556 192.061C237.556 192.061 237.556 192.061 237.56 192.061L240.805 190.189C240.859 190.156 240.893 190.097 240.893 190.034V187.388C240.893 187.342 240.855 187.313 240.817 187.313C240.805 187.313 240.792 187.312 240.78 187.325L237.665 189.121C237.589 189.167 237.539 189.247 237.539 189.335V192.052C237.539 192.052 237.543 192.065 237.552 192.065L237.556 192.061Z"
        fill="white" />
    <path
        d="M237.556 196.282H237.56L240.805 194.406C240.859 194.372 240.893 194.314 240.893 194.251V191.605C240.893 191.559 240.855 191.529 240.817 191.529C240.805 191.529 240.792 191.529 240.78 191.538L237.665 193.334C237.589 193.38 237.539 193.46 237.539 193.548V196.265C237.539 196.265 237.543 196.278 237.552 196.278L237.556 196.282Z"
        fill="white" />
    <path
        d="M237.556 200.499H237.56L240.805 198.623C240.859 198.589 240.893 198.531 240.893 198.468V195.821C240.893 195.775 240.851 195.746 240.817 195.746C240.805 195.746 240.792 195.746 240.78 195.754L237.665 197.551C237.589 197.597 237.539 197.676 237.539 197.764V200.482C237.539 200.482 237.543 200.494 237.552 200.494L237.556 200.499Z"
        fill="white" />
    <path
        d="M237.556 204.719H237.56L240.805 202.843C240.859 202.81 240.893 202.751 240.893 202.689V200.042C240.893 199.996 240.851 199.967 240.817 199.967C240.805 199.967 240.792 199.967 240.78 199.975L237.665 201.771C237.589 201.818 237.539 201.897 237.539 201.985V204.703C237.539 204.703 237.543 204.715 237.552 204.715L237.556 204.719Z"
        fill="white" />
    <path
        d="M237.556 208.94H237.56L240.805 207.064C240.859 207.031 240.893 206.972 240.893 206.909V204.263C240.893 204.217 240.851 204.188 240.817 204.188C240.805 204.188 240.792 204.188 240.78 204.196L237.665 205.992C237.589 206.038 237.539 206.118 237.539 206.206V208.923C237.539 208.923 237.543 208.936 237.552 208.936L237.556 208.94Z"
        fill="white" />
    <path
        d="M242.759 189.217H242.763L246.008 187.341C246.062 187.308 246.096 187.249 246.096 187.187V184.54C246.096 184.494 246.058 184.465 246.021 184.465C246.008 184.465 245.995 184.465 245.983 184.473L242.868 186.27C242.792 186.316 242.742 186.395 242.742 186.483V189.201C242.742 189.201 242.746 189.213 242.755 189.213L242.759 189.217Z"
        fill="white" />
    <g opacity="0.4">
        <path
            d="M242.759 193.434H242.763L246.008 191.558C246.062 191.525 246.096 191.466 246.096 191.403V188.757C246.096 188.711 246.058 188.682 246.021 188.682C246.008 188.682 245.995 188.682 245.983 188.69L242.868 190.486C242.792 190.532 242.742 190.612 242.742 190.7V193.417C242.742 193.417 242.746 193.43 242.755 193.43L242.759 193.434Z"
            fill="white" />
    </g>
    <path
        d="M242.759 197.655H242.763L246.008 195.779C246.062 195.745 246.096 195.687 246.096 195.624V192.977C246.096 192.931 246.058 192.902 246.021 192.902C246.008 192.902 245.995 192.902 245.983 192.915L242.868 194.711C242.792 194.757 242.742 194.837 242.742 194.925V197.642C242.742 197.642 242.746 197.655 242.755 197.655H242.759Z"
        fill="white" />
    <path
        d="M242.759 201.872H242.763L246.008 199.996C246.062 199.962 246.096 199.904 246.096 199.841V197.195C246.096 197.148 246.054 197.119 246.021 197.119C246.008 197.119 245.995 197.119 245.983 197.128L242.868 198.924C242.792 198.97 242.742 199.049 242.742 199.137V201.855C242.742 201.855 242.746 201.867 242.755 201.867L242.759 201.872Z"
        fill="white" />
    <path
        d="M242.759 206.092C242.759 206.092 242.759 206.092 242.763 206.092L246.008 204.22C246.062 204.187 246.096 204.128 246.096 204.065V201.419C246.096 201.373 246.054 201.344 246.021 201.344C246.008 201.344 245.995 201.344 245.983 201.352L242.868 203.148C242.792 203.195 242.742 203.274 242.742 203.362V206.08C242.742 206.08 242.746 206.092 242.755 206.092H242.759Z"
        fill="white" />
    <g opacity="0.4">
        <path
            d="M247.968 186.37C247.968 186.37 247.968 186.37 247.972 186.37L251.217 184.499C251.271 184.465 251.305 184.407 251.305 184.344V181.697C251.305 181.651 251.267 181.622 251.23 181.622C251.217 181.622 251.204 181.622 251.192 181.63L248.077 183.427C248.001 183.473 247.951 183.552 247.951 183.64V186.358C247.951 186.358 247.955 186.37 247.964 186.37H247.968Z"
            fill="white" />
    </g>
    <g opacity="0.4">
        <path
            d="M247.968 190.591C247.968 190.591 247.968 190.591 247.972 190.591L251.217 188.719C251.271 188.686 251.305 188.627 251.305 188.564V185.918C251.305 185.872 251.263 185.843 251.23 185.843C251.217 185.843 251.204 185.843 251.192 185.851L248.077 187.647C248.001 187.694 247.951 187.773 247.951 187.861V190.579C247.951 190.579 247.955 190.591 247.964 190.591H247.968Z"
            fill="white" />
    </g>
    <path
        d="M247.968 194.808C247.968 194.808 247.968 194.808 247.972 194.808L251.217 192.936C251.271 192.902 251.305 192.844 251.305 192.781V190.135C251.305 190.089 251.267 190.059 251.23 190.059C251.217 190.059 251.204 190.059 251.192 190.068L248.077 191.864C248.001 191.91 247.951 191.99 247.951 192.078V194.795C247.951 194.795 247.955 194.808 247.964 194.808H247.968Z"
        fill="white" />
    <path
        d="M247.968 199.029C247.968 199.029 247.968 199.029 247.972 199.029L251.217 197.157C251.271 197.123 251.305 197.065 251.305 197.002V194.356C251.305 194.31 251.267 194.28 251.23 194.28C251.217 194.28 251.204 194.28 251.192 194.289L248.077 196.085C248.001 196.131 247.951 196.211 247.951 196.299V199.016C247.951 199.016 247.955 199.029 247.964 199.029H247.968Z"
        fill="white" />
    <path
        d="M247.968 203.245C247.968 203.245 247.968 203.245 247.972 203.245L251.217 201.374C251.271 201.34 251.305 201.282 251.305 201.219V198.572C251.305 198.526 251.263 198.497 251.23 198.497C251.217 198.497 251.204 198.497 251.192 198.505L248.077 200.302C248.001 200.348 247.951 200.427 247.951 200.515V203.233C247.951 203.233 247.955 203.245 247.964 203.245H247.968Z"
        fill="white" />
    <path
        d="M117.746 225.965C117.746 226.986 117.49 227.853 117.03 228.464C116.469 229.331 115.497 229.792 114.375 229.792C113.458 229.792 112.336 229.486 111.16 228.82L65.8983 202.897C62.2766 200.858 59.3164 196.16 59.3164 192.538C59.3164 190.088 60.6437 188.761 62.6325 188.761H62.9884C63.8551 188.811 64.8767 189.167 65.8983 189.732L111.16 215.656C114.781 217.699 117.742 222.338 117.742 225.965H117.746Z"
        fill="url(#paint33_linear_68_12612)" />
    <path
        d="M117.745 225.965C117.745 226.986 117.489 227.853 117.029 228.464C116.162 228.414 115.241 228.054 114.224 227.493L68.912 201.62C65.2903 199.526 62.3301 194.883 62.3301 191.261C62.3301 190.239 62.5855 189.372 62.9917 188.761C63.8584 188.811 64.88 189.167 65.9016 189.732L111.163 215.656C114.785 217.699 117.745 222.338 117.745 225.965Z"
        fill="url(#paint34_linear_68_12612)" />
    <path d="M71.5083 200.36L69.6074 199.254V194.288L71.5083 195.389V200.36Z" fill="white" />
    <path d="M75.0554 202.411L73.1504 201.31V196.34L75.0554 197.441V202.411Z" fill="white" />
    <path d="M78.6024 204.463L76.6973 203.362V198.392L78.6024 199.497V204.463Z" fill="white" />
    <path d="M82.1473 206.515L80.2422 205.413V200.447L82.1473 201.549V206.515Z" fill="white" />
    <path d="M85.6942 208.571L83.7891 207.469V202.499L85.6942 203.6V208.571Z" fill="white" />
    <path d="M89.239 210.622L87.334 209.521V204.551L89.239 205.652V210.622Z" fill="white" />
    <path d="M92.786 212.675L90.8809 211.573V206.607L92.786 207.708V212.675Z" fill="white" />
    <path d="M96.3328 214.731L94.4277 213.629V208.659L96.3328 209.76V214.731Z" fill="white" />
    <path d="M99.8797 216.781L97.9746 215.68V210.71L99.8797 211.811V216.781Z" fill="white" />
    <path d="M103.422 218.834L101.521 217.733V212.767L103.422 213.868V218.834Z" fill="white" />
    <path d="M106.967 220.89L105.066 219.789V214.818L106.967 215.92V220.89Z" fill="white" />
    <path d="M110.514 222.942L108.613 221.84V216.87L110.514 217.971V222.942Z" fill="white" />
    <path
        d="M225.262 145.368L204.955 156.9L143.47 121.639L94.2809 149.551L73.9238 137.865L143.47 98.4207L225.262 145.368Z"
        fill="url(#paint35_linear_68_12612)" />
    <path d="M204.956 156.9L155.767 184.863L94.2812 149.552L143.47 121.639L204.956 156.9Z"
        fill="url(#paint36_linear_68_12612)" />
    <path d="M143.469 98.4207V121.639L204.955 156.9L225.261 145.368L143.469 98.4207Z" fill="#1C857A" />
    <path opacity="0.4" d="M156 45V184.555L205.648 156.473V57.4053L156 45Z"
        fill="url(#paint37_linear_68_12612)" />
    <path opacity="0.4" d="M156 45V185L106.001 156.276V57.4053L156 45Z"
        fill="url(#paint38_linear_68_12612)" />


    <g class="el1">
        <path opacity="0.7"
            d="M193.21 51.3221C191.387 50.3648 189.101 51.8463 189.101 51.8463L136.942 82.4855C136.942 82.4855 134.336 83.7846 133.098 85.6459C131.867 87.4996 132.08 92.1263 132.08 92.1263V149.401C132.08 149.401 131.336 152.918 133.182 153.534C135.035 154.157 136.653 153.01 136.653 153.01L191.038 119.833C191.038 119.833 193.081 118.952 193.963 117.28C194.836 115.609 194.654 113.505 194.654 113.505V55.1054C194.654 55.1054 195.034 52.2641 193.21 51.3145V51.3221Z"
            fill="url(#paint39_linear_68_12612)" />
        <path opacity="0.6"
            d="M199.699 55.2425C197.876 54.3004 195.59 55.7667 195.59 55.7667L143.423 86.4135C143.423 86.4135 140.818 87.7203 139.587 89.5816C138.349 91.4277 138.569 96.0618 138.569 96.0618V153.321C138.569 153.321 137.817 156.854 139.67 157.462C141.524 158.085 143.142 156.938 143.142 156.938L197.527 123.761C197.527 123.761 199.57 122.88 200.444 121.216C201.325 119.529 201.143 117.433 201.143 117.433V59.041C201.143 59.041 201.515 56.1997 199.692 55.2425H199.699Z"
            fill="white" />
        <g clip-path="url(#clip0_68_12612)">
            <path
                d="M185.13 98.4074L184.703 84.5355C184.53 78.9343 180.514 76.778 175.75 79.7284L156.223 91.8272C156.223 91.8272 156.122 91.8772 155.947 91.9855C153.839 93.2914 151.423 96.3835 151.559 100.796C151.569 101.129 151.671 101.396 151.85 101.557L166.427 114.666C166.686 114.9 167.065 114.898 167.496 114.626L179.946 106.834C180.307 106.667 180.641 106.486 180.949 106.295C182.671 105.229 183.647 103.791 184.164 102.772C185.317 100.492 185.144 98.5022 185.13 98.4074Z"
                fill="#C3CBD1" />
            <path
                d="M174.042 86.072L154.068 98.4419C150.757 100.492 148.16 105.327 148.28 109.221L148.709 123.15C148.829 127.042 151.62 128.54 154.932 126.489L159.72 123.524L159.831 127.339C159.884 129.053 160.903 129.336 161.883 128.729C162.338 128.447 162.804 127.97 163.231 127.349C163.267 127.295 163.303 127.241 163.335 127.186L169 117.777L174.906 114.12C178.217 112.069 180.814 107.234 180.694 103.342L180.265 89.4133C180.144 85.5204 177.353 84.0218 174.042 86.072Z"
                fill="url(#paint40_linear_68_12612)" />
            <path
                d="M156.6 114.744C158.196 113.756 159.443 111.433 159.386 109.556C159.328 107.679 157.987 106.959 156.39 107.948C154.794 108.937 153.547 111.259 153.605 113.136C153.663 115.013 155.004 115.733 156.6 114.744Z"
                fill="white" />
            <path
                d="M164.789 109.672C166.386 108.684 167.633 106.361 167.575 104.484C167.517 102.607 166.176 101.887 164.58 102.876C162.984 103.864 161.736 106.187 161.794 108.064C161.852 109.941 163.193 110.661 164.789 109.672Z"
                fill="white" />
            <path
                d="M172.959 104.613C174.556 103.624 175.803 101.301 175.745 99.4244C175.687 97.5476 174.346 96.8276 172.75 97.8162C171.153 98.8048 169.906 101.128 169.964 103.004C170.022 104.881 171.363 105.601 172.959 104.613Z"
                fill="white" />
            <path opacity="0.14"
                d="M158.572 124.233L154.931 126.488C151.616 128.541 148.83 127.046 148.709 123.149L148.28 109.219C148.248 108.16 148.413 107.042 148.752 105.925L150.944 120.968C150.944 120.968 151.681 126.75 158.572 124.233Z"
                fill="white" />
            <path opacity="0.1"
                d="M184.703 84.5361L185.121 98.0981L183.295 86.3617C183.295 86.3617 182.016 80.228 176.902 81.722L164.906 86.446L175.751 79.7298C180.514 76.7801 184.53 78.9365 184.703 84.5361Z"
                fill="#182F56" />
            <path opacity="0.15"
                d="M175.746 99.4168C175.804 101.304 174.546 103.631 172.953 104.617C171.884 105.279 170.937 105.178 170.408 104.458C170.408 104.458 175.342 103.154 175.276 97.9571C175.565 98.2937 175.727 98.7878 175.746 99.4168Z"
                fill="#182F56" />
            <path opacity="0.15"
                d="M167.574 104.478C167.633 106.365 166.374 108.692 164.781 109.679C163.712 110.341 162.765 110.24 162.236 109.52C162.236 109.52 167.17 108.215 167.104 103.019C167.392 103.356 167.555 103.849 167.574 104.478Z"
                fill="#182F56" />
            <path opacity="0.15"
                d="M159.385 109.55C159.443 111.437 158.185 113.764 156.592 114.75C155.523 115.412 154.576 115.311 154.047 114.591C154.047 114.591 158.98 113.287 158.914 108.09C159.204 108.426 159.366 108.921 159.385 109.55Z"
                fill="#182F56" />
        </g>
    
    <path opacity="0.5"
        d="M197.401 10.2171C196.183 9.57541 194.663 10.5606 194.663 10.5606L114.327 56.4073C114.327 56.4073 112.589 57.2764 111.771 58.5143C110.952 59.7471 111.099 62.824 111.099 62.824V76.1021C111.099 76.1021 110.604 78.4364 111.831 78.8507C113.064 79.265 114.14 78.5071 114.14 78.5071L195.956 30.9729C195.956 30.9729 197.315 30.3868 197.906 29.2752C198.487 28.1586 198.366 26.7591 198.366 26.7591V12.7282C198.366 12.7282 198.613 10.8436 197.406 10.212L197.401 10.2171Z"
        fill="url(#paint41_linear_68_12612)" />
    <path opacity="0.9"
        d="M201.715 12.8185C200.502 12.187 198.982 13.1672 198.982 13.1672L118.646 59.0189C118.646 59.0189 116.913 59.8829 116.09 61.1207C115.271 62.3535 115.413 65.4356 115.413 65.4356V78.7086C115.413 78.7086 114.918 81.0479 116.15 81.4572C117.383 81.8715 118.459 81.1136 118.459 81.1136L200.275 33.5794C200.275 33.5794 201.639 32.9933 202.215 31.8868C202.796 30.7702 202.68 29.3706 202.68 29.3706V15.3397C202.68 15.3397 202.932 13.4501 201.72 12.8185H201.715Z"
        fill="url(#paint42_linear_68_12612)" />
    <path
        d="M187.602 23.9453L186 28.6189L182.418 31.2917L185.01 32.7064L184.398 37.1779L187.602 33.3834L190.805 33.4794L190.193 29.7153L192.785 25.3044L189.203 26.7697L187.602 23.9453Z"
        fill="white" />
    <path
        d="M172.987 32.2109L171.385 36.8845L167.809 39.5523L170.395 40.972L169.784 45.4485L172.987 41.6541L176.195 41.7501L175.579 37.986L178.171 33.565L174.594 35.0353L172.987 32.2109Z"
        fill="white" />
    <path
        d="M158.37 40.4817L156.773 45.1502L153.191 47.823L155.783 49.2428L155.167 53.7143L158.37 49.9198L161.573 50.0158L160.967 46.2517L163.559 41.8358L159.977 43.306L158.37 40.4817Z"
        fill="white" />
    <path
        d="M143.758 48.749L142.161 53.4226L138.574 56.0903L141.166 57.5152L140.555 61.9816L143.758 58.1922L146.961 58.2831L146.35 54.519L148.941 50.1082L145.359 51.5734L143.758 48.749Z"
        fill="white" />
    <path
        d="M129.148 57.0198L127.547 61.6934L123.965 64.3561L126.557 65.7758L125.945 70.2523L129.148 66.4529L132.351 66.5539L131.735 62.7847L134.327 58.3739L130.745 59.8441L129.148 57.0198Z"
        fill="white" />
    </g>
    <defs>
        <linearGradient id="paint0_linear_68_12612" x1="26.4049" y1="138.07" x2="26.2751"
            y2="138.036" gradientUnits="userSpaceOnUse">
            <stop stop-color="#F3F4FB" />
            <stop offset="1" stop-color="#BCC2E6" />
        </linearGradient>
        <linearGradient id="paint1_linear_68_12612" x1="145.043" y1="220.456" x2="66.876"
            y2="199.124" gradientUnits="userSpaceOnUse">
            <stop stop-color="#F3F4FB" />
            <stop offset="1" stop-color="#BCC2E6" />
        </linearGradient>
        <linearGradient id="paint2_linear_68_12612" x1="26.0084" y1="145.681" x2="272.542"
            y2="145.681" gradientUnits="userSpaceOnUse">
            <stop stop-color="white" />
            <stop offset="1" stop-color="#DFE2F3" />
        </linearGradient>
        <linearGradient id="paint3_linear_68_12612" x1="26.3305" y1="175.311" x2="272.86"
            y2="175.311" gradientUnits="userSpaceOnUse">
            <stop stop-color="#F3F4FB" />
            <stop offset="1" stop-color="#FEFEFE" />
        </linearGradient>
        <linearGradient id="paint4_linear_68_12612" x1="269.124" y1="232.103" x2="143.73"
            y2="180.573" gradientUnits="userSpaceOnUse">
            <stop stop-color="#F3F4FB" />
            <stop offset="1" stop-color="#BCC2E6" />
        </linearGradient>
        <linearGradient id="paint5_linear_68_12612" x1="180.217" y1="240.034" x2="165.176"
            y2="218.508" gradientUnits="userSpaceOnUse">
            <stop stop-color="#7169A9" />
            <stop offset="1" stop-color="#5E569B" />
        </linearGradient>
        <linearGradient id="paint6_linear_68_12612" x1="180.217" y1="245.942" x2="165.176"
            y2="224.416" gradientUnits="userSpaceOnUse">
            <stop stop-color="#7169A9" />
            <stop offset="1" stop-color="#5E569B" />
        </linearGradient>
        <linearGradient id="paint7_linear_68_12612" x1="180.21" y1="251.846" x2="165.165"
            y2="230.333" gradientUnits="userSpaceOnUse">
            <stop stop-color="#7169A9" />
            <stop offset="1" stop-color="#5E569B" />
        </linearGradient>
        <linearGradient id="paint8_linear_68_12612" x1="180.217" y1="257.754" x2="165.176"
            y2="236.228" gradientUnits="userSpaceOnUse">
            <stop stop-color="#7169A9" />
            <stop offset="1" stop-color="#5E569B" />
        </linearGradient>
        <linearGradient id="paint9_linear_68_12612" x1="180.217" y1="263.659" x2="165.176"
            y2="242.133" gradientUnits="userSpaceOnUse">
            <stop stop-color="#7169A9" />
            <stop offset="1" stop-color="#5E569B" />
        </linearGradient>
        <linearGradient id="paint10_linear_68_12612" x1="187.499" y1="236.048" x2="172.454"
            y2="214.535" gradientUnits="userSpaceOnUse">
            <stop stop-color="#7169A9" />
            <stop offset="1" stop-color="#5E569B" />
        </linearGradient>
        <linearGradient id="paint11_linear_68_12612" x1="187.506" y1="241.953" x2="172.465"
            y2="220.427" gradientUnits="userSpaceOnUse">
            <stop stop-color="#7169A9" />
            <stop offset="1" stop-color="#5E569B" />
        </linearGradient>
        <linearGradient id="paint12_linear_68_12612" x1="187.506" y1="247.865" x2="172.465"
            y2="226.339" gradientUnits="userSpaceOnUse">
            <stop stop-color="#7169A9" />
            <stop offset="1" stop-color="#5E569B" />
        </linearGradient>
        <linearGradient id="paint13_linear_68_12612" x1="187.506" y1="253.765" x2="172.465"
            y2="232.239" gradientUnits="userSpaceOnUse">
            <stop stop-color="#7169A9" />
            <stop offset="1" stop-color="#5E569B" />
        </linearGradient>
        <linearGradient id="paint14_linear_68_12612" x1="187.506" y1="259.677" x2="172.465"
            y2="238.151" gradientUnits="userSpaceOnUse">
            <stop stop-color="#7169A9" />
            <stop offset="1" stop-color="#5E569B" />
        </linearGradient>
        <linearGradient id="paint15_linear_68_12612" x1="194.797" y1="232.061" x2="179.757"
            y2="210.535" gradientUnits="userSpaceOnUse">
            <stop stop-color="#7169A9" />
            <stop offset="1" stop-color="#5E569B" />
        </linearGradient>
        <linearGradient id="paint16_linear_68_12612" x1="194.797" y1="237.973" x2="179.756"
            y2="216.447" gradientUnits="userSpaceOnUse">
            <stop stop-color="#7169A9" />
            <stop offset="1" stop-color="#5E569B" />
        </linearGradient>
        <linearGradient id="paint17_linear_68_12612" x1="194.797" y1="243.878" x2="179.756"
            y2="222.352" gradientUnits="userSpaceOnUse">
            <stop stop-color="#7169A9" />
            <stop offset="1" stop-color="#5E569B" />
        </linearGradient>
        <linearGradient id="paint18_linear_68_12612" x1="194.797" y1="249.786" x2="179.756"
            y2="228.26" gradientUnits="userSpaceOnUse">
            <stop stop-color="#7169A9" />
            <stop offset="1" stop-color="#5E569B" />
        </linearGradient>
        <linearGradient id="paint19_linear_68_12612" x1="194.797" y1="255.69" x2="179.756"
            y2="234.164" gradientUnits="userSpaceOnUse">
            <stop stop-color="#7169A9" />
            <stop offset="1" stop-color="#5E569B" />
        </linearGradient>
        <linearGradient id="paint20_linear_68_12612" x1="202.086" y1="228.086" x2="187.033"
            y2="206.555" gradientUnits="userSpaceOnUse">
            <stop stop-color="#7169A9" />
            <stop offset="1" stop-color="#5E569B" />
        </linearGradient>
        <linearGradient id="paint21_linear_68_12612" x1="202.086" y1="233.987" x2="187.046"
            y2="212.461" gradientUnits="userSpaceOnUse">
            <stop stop-color="#7169A9" />
            <stop offset="1" stop-color="#5E569B" />
        </linearGradient>
        <linearGradient id="paint22_linear_68_12612" x1="202.086" y1="239.891" x2="187.046"
            y2="218.365" gradientUnits="userSpaceOnUse">
            <stop stop-color="#7169A9" />
            <stop offset="1" stop-color="#5E569B" />
        </linearGradient>
        <linearGradient id="paint23_linear_68_12612" x1="202.086" y1="245.799" x2="187.046"
            y2="224.274" gradientUnits="userSpaceOnUse">
            <stop stop-color="#7169A9" />
            <stop offset="1" stop-color="#5E569B" />
        </linearGradient>
        <linearGradient id="paint24_linear_68_12612" x1="202.086" y1="251.703" x2="187.046"
            y2="230.178" gradientUnits="userSpaceOnUse">
            <stop stop-color="#7169A9" />
            <stop offset="1" stop-color="#5E569B" />
        </linearGradient>
        <linearGradient id="paint25_linear_68_12612" x1="209.375" y1="224.097" x2="194.335"
            y2="202.572" gradientUnits="userSpaceOnUse">
            <stop stop-color="#7169A9" />
            <stop offset="1" stop-color="#5E569B" />
        </linearGradient>
        <linearGradient id="paint26_linear_68_12612" x1="209.375" y1="230.005" x2="194.335"
            y2="208.48" gradientUnits="userSpaceOnUse">
            <stop stop-color="#7169A9" />
            <stop offset="1" stop-color="#5E569B" />
        </linearGradient>
        <linearGradient id="paint27_linear_68_12612" x1="209.375" y1="235.909" x2="194.335"
            y2="214.383" gradientUnits="userSpaceOnUse">
            <stop stop-color="#7169A9" />
            <stop offset="1" stop-color="#5E569B" />
        </linearGradient>
        <linearGradient id="paint28_linear_68_12612" x1="209.375" y1="241.813" x2="194.335"
            y2="220.287" gradientUnits="userSpaceOnUse">
            <stop stop-color="#7169A9" />
            <stop offset="1" stop-color="#5E569B" />
        </linearGradient>
        <linearGradient id="paint29_linear_68_12612" x1="209.375" y1="247.721" x2="194.335"
            y2="226.196" gradientUnits="userSpaceOnUse">
            <stop stop-color="#7169A9" />
            <stop offset="1" stop-color="#5E569B" />
        </linearGradient>
        <linearGradient id="paint30_linear_68_12612" x1="252.225" y1="172.192" x2="231.928"
            y2="224.469" gradientUnits="userSpaceOnUse">
            <stop stop-color="#95ECE3" />
            <stop offset="1" stop-color="#64CEC3" />
        </linearGradient>
        <linearGradient id="paint31_linear_68_12612" x1="257.916" y1="204.233" x2="257.916"
            y2="176.095" gradientUnits="userSpaceOnUse">
            <stop stop-color="#1C857A" />
            <stop offset="0.99" stop-color="#64CEC3" />
        </linearGradient>
        <linearGradient id="paint32_linear_68_12612" x1="238.043" y1="203.968" x2="242.322"
            y2="177.866" gradientUnits="userSpaceOnUse">
            <stop stop-color="#1C857A" />
            <stop offset="1" stop-color="#35BCAE" />
        </linearGradient>
        <linearGradient id="paint33_linear_68_12612" x1="59.3206" y1="209.278" x2="117.746"
            y2="209.278" gradientUnits="userSpaceOnUse">
            <stop stop-color="#1C857A" />
            <stop offset="0.99" stop-color="#64CEC3" />
        </linearGradient>
        <linearGradient id="paint34_linear_68_12612" x1="106.624" y1="205.92" x2="72.4457"
            y2="211.459" gradientUnits="userSpaceOnUse">
            <stop stop-color="#95ECE3" />
            <stop offset="0.99" stop-color="#1C857A" />
        </linearGradient>
        <linearGradient id="paint35_linear_68_12612" x1="155.507" y1="97.8679" x2="148.916"
            y2="146.624" gradientUnits="userSpaceOnUse">
            <stop stop-color="#64CEC3" />
            <stop offset="1" stop-color="#1C857A" />
        </linearGradient>
        <linearGradient id="paint36_linear_68_12612" x1="153.703" y1="123.021" x2="145.525"
            y2="183.477" gradientUnits="userSpaceOnUse">
            <stop stop-color="#95ECE3" />
            <stop offset="1" stop-color="#35BCAE" />
        </linearGradient>
        <linearGradient id="paint37_linear_68_12612" x1="180.824" y1="45" x2="180.824" y2="184.555"
            gradientUnits="userSpaceOnUse">
            <stop offset="0.288505" stop-color="#95ECE3" stop-opacity="0" />
            <stop offset="1" stop-color="#95ECE3" />
        </linearGradient>
        <linearGradient id="paint38_linear_68_12612" x1="131" y1="45" x2="131" y2="185"
            gradientUnits="userSpaceOnUse">
            <stop offset="0.288505" stop-color="#95ECE3" stop-opacity="0" />
            <stop offset="1" stop-color="#95ECE3" />
        </linearGradient>
        <linearGradient id="paint39_linear_68_12612" x1="194.692" y1="102.36" x2="131.928"
            y2="102.36" gradientUnits="userSpaceOnUse">
            <stop stop-color="#95ECE3" />
            <stop offset="1" stop-color="#1C857A" />
        </linearGradient>
        <linearGradient id="paint40_linear_68_12612" x1="154.368" y1="123.825" x2="176.922"
            y2="86.2348" gradientUnits="userSpaceOnUse">
            <stop stop-color="#1C857A" />
            <stop offset="1" stop-color="#35BCAE" />
        </linearGradient>
        <linearGradient id="paint41_linear_68_12612" x1="126.114" y1="60.2069" x2="177.996"
            y2="3.18416" gradientUnits="userSpaceOnUse">
            <stop stop-color="#1C857A" />
            <stop offset="1" stop-color="#35BCAE" />
        </linearGradient>
        <linearGradient id="paint42_linear_68_12612" x1="130.429" y1="62.8134" x2="182.31"
            y2="5.79033" gradientUnits="userSpaceOnUse">
            <stop stop-color="#1C857A" />
            <stop offset="1" stop-color="#35BCAE" />
        </linearGradient>
        <clipPath id="clip0_68_12612">
            <rect width="49.1164" height="49.1164" fill="white"
                transform="matrix(0.850174 -0.526501 0.030801 0.999526 145.123 93.8826)" />
        </clipPath>
    </defs>



    <style>
        .el1 {
            animation: move1 3s infinite;
            animation-timing-function: ease-in-out;
            }

        @keyframes move1 {
        0% {
        transform: translateY(0px);
        }

        70% {
        transform: translateY(10px);
        }

        100% {
        transform: translateY(0px);
        }
        }
    </style>
</svg>