<svg width="17" height="16" viewBox="0 0 17 16" fill="none" xmlns="http://www.w3.org/2000/svg">
<g clip-path="url(#clip0_601_317)">
<path d="M11.3511 9.41194L9.12023 7.73881V4.33062C9.12023 3.98794 8.84323 3.71094 8.50055 3.71094C8.15786 3.71094 7.88086 3.98794 7.88086 4.33062V8.04869C7.88086 8.24388 7.97258 8.42794 8.12873 8.54444L10.6074 10.4035C10.719 10.4871 10.8491 10.5274 10.9786 10.5274C11.1676 10.5274 11.3535 10.4425 11.475 10.2789C11.6808 10.0056 11.625 9.61706 11.3511 9.41194Z" fill="#05A899"/>
<path d="M8.5 0C4.08853 0 0.5 3.58853 0.5 8C0.5 12.4115 4.08853 16 8.5 16C12.9115 16 16.5 12.4115 16.5 8C16.5 3.58853 12.9115 0 8.5 0ZM8.5 14.7607C4.77266 14.7607 1.73934 11.7273 1.73934 8C1.73934 4.27266 4.77266 1.23934 8.5 1.23934C12.228 1.23934 15.2607 4.27266 15.2607 8C15.2607 11.7273 12.2273 14.7607 8.5 14.7607Z" fill="#05A899"/>
</g>
<defs>
<clipPath id="clip0_601_317">
<rect width="16" height="16" fill="white" transform="translate(0.5)"/>
</clipPath>
</defs>
</svg>
