<svg width="16" height="16" viewBox="0 0 16 16" fill="none" xmlns="http://www.w3.org/2000/svg">
<g clip-path="url(#clip0_382_1625)">
<path d="M10.853 9.41194L8.62219 7.73881V4.33062C8.62219 3.98794 8.34519 3.71094 8.0025 3.71094C7.65981 3.71094 7.38281 3.98794 7.38281 4.33062V8.04869C7.38281 8.24388 7.47453 8.42794 7.63069 8.54444L10.1094 10.4035C10.2209 10.4871 10.3511 10.5274 10.4806 10.5274C10.6696 10.5274 10.8555 10.4425 10.9769 10.2789C11.1827 10.0056 11.1269 9.61706 10.853 9.41194Z" fill="#2BDBC8"/>
<path d="M8 0C3.58853 0 0 3.58853 0 8C0 12.4115 3.58853 16 8 16C12.4115 16 16 12.4115 16 8C16 3.58853 12.4115 0 8 0ZM8 14.7607C4.27266 14.7607 1.23934 11.7273 1.23934 8C1.23934 4.27266 4.27266 1.23934 8 1.23934C11.728 1.23934 14.7607 4.27266 14.7607 8C14.7607 11.7273 11.7273 14.7607 8 14.7607Z" fill="#2BDBC8"/>
</g>
<defs>
<clipPath id="clip0_382_1625">
<rect width="16" height="16" fill="white"/>
</clipPath>
</defs>
</svg>
