<svg width="25" height="25" viewBox="0 0 25 25" fill="none" xmlns="http://www.w3.org/2000/svg">
<path d="M5 14C4.44772 14 4 13.5523 4 13C4 12.4477 4.44772 12 5 12V14ZM20.7071 12.2929C21.0976 12.6834 21.0976 13.3166 20.7071 13.7071L14.3431 20.0711C13.9526 20.4616 13.3195 20.4616 12.9289 20.0711C12.5384 19.6805 12.5384 19.0474 12.9289 18.6569L18.5858 13L12.9289 7.34315C12.5384 6.95262 12.5384 6.31946 12.9289 5.92893C13.3195 5.53841 13.9526 5.53841 14.3431 5.92893L20.7071 12.2929ZM5 12L20 12V14L5 14V12Z" fill="#05A899"/>
</svg>
