<svg width="25" height="25" viewBox="0 0 25 25" fill="none" xmlns="http://www.w3.org/2000/svg">
<path d="M20 14C20.5523 14 21 13.5523 21 13C21 12.4477 20.5523 12 20 12V14ZM4.29289 12.2929C3.90237 12.6834 3.90237 13.3166 4.29289 13.7071L10.6569 20.0711C11.0474 20.4616 11.6805 20.4616 12.0711 20.0711C12.4616 19.6805 12.4616 19.0474 12.0711 18.6569L6.41421 13L12.0711 7.34315C12.4616 6.95262 12.4616 6.31946 12.0711 5.92893C11.6805 5.53841 11.0474 5.53841 10.6569 5.92893L4.29289 12.2929ZM20 12L5 12V14L20 14V12Z" fill="#05A899"/>
</svg>
