<svg width="30" height="30" viewBox="0 0 30 30" fill="none" xmlns="http://www.w3.org/2000/svg">
<circle cx="15" cy="15" r="15" fill="#848484" fill-opacity="0.1"/>
<path fill-rule="evenodd" clip-rule="evenodd" d="M20.833 9.16694C21.1258 9.45983 21.1258 9.9347 20.833 10.2276L10.7567 20.3039C10.4638 20.5968 9.98891 20.5968 9.69602 20.3039C9.40313 20.011 9.40313 19.5361 9.69602 19.2432L19.7723 9.16694C20.0652 8.87404 20.5401 8.87404 20.833 9.16694Z" fill="#212121"/>
<path fill-rule="evenodd" clip-rule="evenodd" d="M9.70014 10.7551C9.40725 10.4622 9.40725 9.98729 9.70014 9.69439C9.99303 9.4015 10.4679 9.4015 10.7608 9.69439L20.8371 19.7707C21.13 20.0636 21.13 20.5384 20.8371 20.8313C20.5442 21.1242 20.0693 21.1242 19.7764 20.8313L9.70014 10.7551Z" fill="#212121"/>
</svg>
