<svg width="19" height="18" viewBox="0 0 19 18" fill="none" xmlns="http://www.w3.org/2000/svg">
<circle cx="9.5" cy="9" r="9" fill="#FDC010"/>
<path d="M12.8333 3H8.83333C8.3029 3 7.79419 3.20452 7.41912 3.56856C7.04405 3.9326 6.83333 4.42634 6.83333 4.94118V10.1176H6.16667C5.98986 10.1176 5.82029 10.1858 5.69526 10.3072C5.57024 10.4285 5.5 10.5931 5.5 10.7647C5.5 10.9363 5.57024 11.1009 5.69526 11.2222C5.82029 11.3436 5.98986 11.4118 6.16667 11.4118H6.83333V13.3529C6.83333 13.5246 6.90357 13.6891 7.0286 13.8105C7.15362 13.9318 7.32319 14 7.5 14C7.67681 14 7.84638 13.9318 7.9714 13.8105C8.09643 13.6891 8.16667 13.5246 8.16667 13.3529V11.4118H10.8333C11.0101 11.4118 11.1797 11.3436 11.3047 11.2222C11.4298 11.1009 11.5 10.9363 11.5 10.7647C11.5 10.5931 11.4298 10.4285 11.3047 10.3072C11.1797 10.1858 11.0101 10.1176 10.8333 10.1176H8.16667V8.82353H12.1667C12.3435 8.82353 12.513 8.75536 12.6381 8.63401C12.7631 8.51266 12.8333 8.34808 12.8333 8.17647C12.8333 8.00486 12.7631 7.84028 12.6381 7.71893C12.513 7.59758 12.3435 7.52941 12.1667 7.52941H8.16667V4.94118C8.16667 4.76957 8.2369 4.60498 8.36193 4.48364C8.48695 4.36229 8.65652 4.29412 8.83333 4.29412H12.8333C13.0101 4.29412 13.1797 4.22595 13.3047 4.1046C13.4298 3.98325 13.5 3.81867 13.5 3.64706C13.5 3.47545 13.4298 3.31087 13.3047 3.18952C13.1797 3.06817 13.0101 3 12.8333 3Z" fill="white"/>
</svg>
