<svg width="19" height="18" viewBox="0 0 19 18" fill="none" xmlns="http://www.w3.org/2000/svg">
<g clip-path="url(#clip0_818_17862)">
<path d="M9.5 18C14.4706 18 18.5 13.9706 18.5 9C18.5 4.02944 14.4706 0 9.5 0C4.52944 0 0.5 4.02944 0.5 9C0.5 13.9706 4.52944 18 9.5 18Z" fill="#FFC400"/>
<path d="M9.49981 0C9.31735 0 9.13633 0.00608203 8.95654 0.0168047C13.6741 0.297738 17.4133 4.21189 17.4133 9C17.4133 13.7881 13.6741 17.7023 8.95658 17.9832C9.13633 17.9939 9.31735 18 9.49981 18C14.4704 18 18.4998 13.9706 18.4998 9C18.4998 4.02943 14.4704 0 9.49981 0Z" fill="#FFAB00"/>
<path d="M9.49992 16.9134C5.12638 16.9134 1.58643 13.374 1.58643 8.99992C1.58643 4.62638 5.12582 1.08643 9.49992 1.08643C13.8735 1.08643 17.4134 4.62578 17.4134 8.99992C17.4134 13.3736 13.8739 16.9134 9.49992 16.9134Z" fill="#FFD740"/>
<path d="M12.8797 10.6274C12.609 10.4977 12.2846 10.6119 12.155 10.8825C11.6382 11.9607 10.7465 12.6043 9.76957 12.6043C8.79269 12.6043 7.90095 11.9606 7.38405 10.8822C7.35009 10.8115 7.31813 10.7393 7.28821 10.666H9.75977C10.0598 10.666 10.303 10.4228 10.303 10.1227C10.303 9.82271 10.0598 9.57946 9.75977 9.57946H7.0064C6.98221 9.38877 6.96955 9.1951 6.96955 8.99998C6.96955 8.8049 6.98218 8.61119 7.0064 8.4205H9.75977C10.0598 8.4205 10.303 8.17725 10.303 7.87723C10.303 7.57721 10.0598 7.33396 9.75977 7.33396H7.28821C7.31816 7.26055 7.35012 7.18834 7.38415 7.1175C7.90095 6.0393 8.79269 5.39562 9.76957 5.39562C10.7465 5.39562 11.6382 6.0393 12.155 7.1175C12.2846 7.38807 12.6092 7.50229 12.8797 7.3726C13.1502 7.24291 13.2645 6.91845 13.1348 6.64789C12.4433 5.20529 11.1539 4.30908 9.76961 4.30908C8.38537 4.30908 7.09591 5.20525 6.40452 6.64768C6.29905 6.86747 6.20905 7.09715 6.13491 7.33396H5.05157C4.75155 7.33396 4.5083 7.57721 4.5083 7.87723C4.5083 8.17725 4.75155 8.4205 5.05157 8.4205H5.91304C5.89342 8.61214 5.88312 8.8056 5.88312 8.99998C5.88312 9.19436 5.89346 9.38782 5.91304 9.57946H5.05157C4.75155 9.57946 4.5083 9.82267 4.5083 10.1227C4.5083 10.4228 4.75155 10.666 5.05157 10.666H6.13487C6.20902 10.9028 6.29898 11.1323 6.40442 11.3521C7.09587 12.7947 8.38537 13.6909 9.76961 13.6909C11.1539 13.6909 12.4433 12.7947 13.1348 11.3521C13.2645 11.0815 13.1502 10.7571 12.8797 10.6274Z" fill="white"/>
</g>
<defs>
<clipPath id="clip0_818_17862">
<rect width="18" height="18" fill="white" transform="translate(0.5)"/>
</clipPath>
</defs>
</svg>
