<svg width="25" height="25" viewBox="0 0 25 25" fill="none" xmlns="http://www.w3.org/2000/svg">
<path d="M20.8501 7.37793L15.6943 12.5005L20.8501 17.623C20.9433 17.4282 20.9998 17.2129 20.9998 16.9829V8.01805C20.9998 7.78805 20.9433 7.57273 20.8501 7.37793Z" fill="#6851A2"/>
<path d="M19.5058 6.52344H5.49413C5.26413 6.52344 5.04881 6.57998 4.854 6.67318L11.4436 13.2296C12.0262 13.8122 12.9737 13.8122 13.5564 13.2296L20.146 6.67318C19.9512 6.57998 19.7358 6.52344 19.5058 6.52344Z" fill="#6851A2"/>
<path d="M4.14975 7.37793C4.05654 7.57273 4 7.78805 4 8.01805V16.9829C4 17.2129 4.05654 17.4282 4.14975 17.623L9.30549 12.5005L4.14975 7.37793Z" fill="#6851A2"/>
<path d="M14.9902 13.2041L14.2606 13.9337C13.2898 14.9045 11.7101 14.9045 10.7393 13.9337L10.0098 13.2041L4.854 18.3266C5.04881 18.4198 5.26413 18.4764 5.49413 18.4764H19.5058C19.7358 18.4764 19.9512 18.4198 20.146 18.3266L14.9902 13.2041Z" fill="#6851A2"/>
</svg>
