<svg width="445" height="285" viewBox="0 0 445 285" fill="none" xmlns="http://www.w3.org/2000/svg">
<g clip-path="url(#clip0_818_17384)">
<path d="M339.964 190.135C340.013 190.135 340.061 190.122 340.103 190.097L444.861 129.729C444.925 129.693 444.972 129.632 444.991 129.561C445.01 129.49 445 129.414 444.963 129.351C444.926 129.287 444.865 129.24 444.794 129.221C444.723 129.202 444.647 129.212 444.583 129.249L339.964 189.537L206.884 112.847C206.842 112.823 206.794 112.81 206.745 112.81C206.696 112.81 206.648 112.823 206.606 112.847L117.929 163.949L59.4278 130.237C59.364 130.2 59.2884 130.19 59.2174 130.209C59.1464 130.229 59.0858 130.275 59.0491 130.338C59.0123 130.402 59.0023 130.478 59.0211 130.548C59.04 130.619 59.0864 130.68 59.1499 130.717L117.79 164.509C117.832 164.533 117.88 164.546 117.929 164.546C117.977 164.546 118.025 164.533 118.068 164.509L206.745 113.408L339.825 190.097C339.868 190.122 339.916 190.135 339.964 190.135Z" fill="#42E8E0"/>
<path d="M0.277924 229.392C0.326782 229.392 0.374786 229.379 0.416962 229.355L76.8848 185.289L124.284 212.603C124.326 212.627 124.374 212.64 124.423 212.64C124.471 212.64 124.519 212.627 124.562 212.603L310.502 105.452C310.544 105.428 310.579 105.393 310.603 105.351C310.628 105.309 310.641 105.261 310.641 105.212C310.641 105.164 310.628 105.116 310.603 105.074C310.579 105.032 310.544 104.997 310.502 104.972L215.425 50.183C215.393 50.1648 215.359 50.153 215.322 50.1482C215.286 50.1434 215.249 50.1458 215.214 50.1552C215.179 50.1646 215.146 50.1809 215.117 50.203C215.088 50.2252 215.064 50.2528 215.046 50.2843C215.027 50.3158 215.015 50.3507 215.011 50.3867C215.006 50.4228 215.008 50.4595 215.018 50.4947C215.027 50.5299 215.043 50.5628 215.066 50.5917C215.088 50.6206 215.115 50.6449 215.147 50.6631L309.808 105.212L124.423 212.043L77.0238 184.728C76.9815 184.704 76.9335 184.691 76.8848 184.691C76.836 184.691 76.7881 184.704 76.7458 184.728L0.138977 228.874C0.0860596 228.905 0.0447388 228.952 0.0213623 229.009C-0.00198364 229.065 -0.006073 229.127 0.00973511 229.186C0.0255737 229.245 0.0604248 229.297 0.108917 229.335C0.15741 229.372 0.216797 229.392 0.277924 229.392Z" fill="#42E8E0"/>
<path d="M172.537 266.277C172.586 266.277 172.634 266.264 172.676 266.24L229.432 233.534C229.475 233.509 229.51 233.474 229.534 233.432C229.558 233.39 229.571 233.342 229.571 233.294C229.571 233.245 229.558 233.197 229.534 233.155C229.51 233.113 229.475 233.078 229.432 233.053L158.836 192.372C158.773 192.335 158.697 192.325 158.626 192.344C158.555 192.363 158.494 192.409 158.457 192.473C158.42 192.537 158.41 192.612 158.429 192.683C158.448 192.754 158.495 192.815 158.558 192.852L228.738 233.293L172.398 265.76C172.345 265.79 172.304 265.837 172.28 265.894C172.257 265.95 172.253 266.013 172.269 266.072C172.285 266.13 172.32 266.183 172.368 266.22C172.417 266.257 172.476 266.277 172.537 266.277Z" fill="#42E8E0"/>
<path d="M89.5194 282.623C89.5683 282.623 89.6163 282.611 89.6584 282.586L396.328 105.861C396.36 105.843 396.387 105.819 396.409 105.79C396.432 105.761 396.448 105.728 396.457 105.693C396.467 105.658 396.469 105.621 396.464 105.585C396.46 105.549 396.448 105.514 396.43 105.482C396.411 105.451 396.387 105.423 396.358 105.401C396.329 105.379 396.296 105.363 396.261 105.353C396.226 105.344 396.189 105.342 396.153 105.346C396.117 105.351 396.082 105.363 396.05 105.381L89.3805 282.106C89.3276 282.136 89.2863 282.184 89.2629 282.24C89.2396 282.296 89.2355 282.359 89.2513 282.418C89.2672 282.477 89.302 282.529 89.3504 282.566C89.3989 282.603 89.4583 282.623 89.5194 282.623Z" fill="#42E8E0"/>
<path d="M274.853 207.316C274.901 207.316 274.949 207.303 274.992 207.279L355.476 160.898C355.518 160.873 355.554 160.838 355.578 160.796C355.602 160.754 355.615 160.706 355.615 160.658C355.615 160.609 355.602 160.561 355.578 160.519C355.554 160.477 355.518 160.442 355.476 160.418L284.881 119.736C284.85 119.718 284.815 119.706 284.779 119.701C284.742 119.696 284.706 119.699 284.67 119.708C284.635 119.718 284.602 119.734 284.573 119.756C284.544 119.778 284.52 119.806 284.502 119.837C284.484 119.869 284.472 119.904 284.467 119.94C284.462 119.976 284.464 120.012 284.474 120.048C284.483 120.083 284.5 120.116 284.522 120.145C284.544 120.174 284.572 120.198 284.603 120.216L354.782 160.658L274.853 206.718L83.1321 96.2356C83.0683 96.1988 82.9925 96.1888 82.9214 96.2078C82.8502 96.2268 82.7895 96.2732 82.7526 96.3369C82.7158 96.4005 82.7057 96.4762 82.7248 96.5472C82.7438 96.6183 82.7903 96.6789 82.8541 96.7156L274.714 207.279C274.756 207.303 274.804 207.316 274.853 207.316Z" fill="#42E8E0"/>
<path opacity="0.3" d="M327.759 106.837L352.089 92.8166L327.76 78.7966L303.431 92.8166L327.759 106.837Z" fill="#42E8E0"/>
<path opacity="0.5" d="M327.759 90.6868L352.089 76.6659L327.76 62.6459L303.431 76.6668L327.759 90.6868Z" fill="#42E8E0"/>
<path opacity="0.7" d="M327.759 77.7406L352.089 63.7206L327.76 49.7007L303.431 63.7206L327.759 77.7406Z" fill="#42E8E0"/>
<path d="M327.76 78.4301C327.881 78.4299 328 78.3981 328.106 78.338L352.435 64.3171C352.539 64.2565 352.626 64.1694 352.687 64.0647C352.747 63.9599 352.779 63.8411 352.779 63.7202C352.779 63.5993 352.747 63.4805 352.687 63.3757C352.626 63.271 352.539 63.184 352.435 63.1234L328.106 49.1034C328 49.0433 327.881 49.0117 327.76 49.0117C327.639 49.0117 327.52 49.0433 327.414 49.1034L303.085 63.1243C302.981 63.1849 302.894 63.2719 302.833 63.3767C302.773 63.4814 302.741 63.6002 302.741 63.7211C302.741 63.8421 302.773 63.9608 302.833 64.0656C302.894 64.1704 302.981 64.2574 303.085 64.318L327.414 78.338C327.52 78.3981 327.639 78.4299 327.76 78.4301ZM350.708 63.7203L327.76 76.9452L304.812 63.7211L327.76 50.4961L350.708 63.7203Z" fill="#42E8E0"/>
<path opacity="0.7" d="M134.23 263.965L158.559 249.944L134.23 235.924L109.901 249.945L134.23 263.965Z" fill="#42E8E0"/>
<path d="M134.23 264.654C134.351 264.653 134.47 264.622 134.575 264.561L158.904 250.541C159.009 250.48 159.096 250.393 159.157 250.288C159.217 250.183 159.249 250.065 159.249 249.944C159.249 249.823 159.217 249.704 159.157 249.599C159.096 249.494 159.009 249.407 158.904 249.347L134.576 235.327C134.471 235.267 134.352 235.235 134.231 235.235C134.109 235.235 133.99 235.267 133.885 235.327L109.555 249.348C109.45 249.408 109.363 249.495 109.303 249.6C109.242 249.705 109.21 249.824 109.21 249.945C109.21 250.065 109.242 250.184 109.303 250.289C109.363 250.394 109.45 250.481 109.555 250.541L133.884 264.561C133.989 264.622 134.108 264.653 134.23 264.654ZM157.178 249.944L134.23 263.169L111.281 249.945L134.231 236.719L157.178 249.944Z" fill="#42E8E0"/>
<path opacity="0.7" d="M80.4396 250.636L93.2041 243.279L80.4396 235.924L67.6752 243.28L80.4396 250.636Z" fill="#42E8E0"/>
<path opacity="0.5" d="M80.4396 243.279L93.2041 235.924L80.4396 228.568L67.6752 235.924L80.4396 243.279Z" fill="#42E8E0"/>
<path opacity="0.3" d="M80.4396 235.924L93.2041 228.568L80.4396 221.212L67.6752 228.568L80.4396 235.924Z" fill="#42E8E0"/>
<path d="M80.4395 251.325C80.5608 251.324 80.6799 251.293 80.7852 251.232L93.5504 243.876C93.6552 243.816 93.7422 243.729 93.8027 243.624C93.8632 243.519 93.895 243.4 93.895 243.28C93.895 243.159 93.8632 243.04 93.8027 242.935C93.7422 242.83 93.6552 242.743 93.5504 242.683L80.7852 235.327C80.6799 235.267 80.5608 235.235 80.4395 235.235C80.3183 235.235 80.1991 235.267 80.0939 235.327L67.3296 242.683C67.2248 242.743 67.1377 242.83 67.0772 242.935C67.0167 243.04 66.9849 243.159 66.9849 243.28C66.9849 243.4 67.0167 243.519 67.0772 243.624C67.1377 243.729 67.2248 243.816 67.3296 243.876L80.0939 251.232C80.1991 251.292 80.3182 251.324 80.4395 251.325ZM91.824 243.28L80.4395 249.84L69.0558 243.28L80.4395 236.72L91.824 243.28Z" fill="#42E8E0"/>
<path opacity="0.7" d="M359.798 205.733L372.562 198.378L359.798 191.022L347.034 198.378L359.798 205.733Z" fill="#42E8E0"/>
<path d="M359.798 206.423C359.92 206.423 360.039 206.391 360.144 206.331L372.908 198.975C373.013 198.914 373.1 198.827 373.161 198.722C373.221 198.618 373.253 198.499 373.253 198.378C373.253 198.257 373.221 198.138 373.161 198.033C373.1 197.929 373.013 197.842 372.908 197.781L360.144 190.425C360.039 190.365 359.92 190.333 359.798 190.333C359.677 190.333 359.558 190.365 359.453 190.425L346.687 197.781C346.583 197.842 346.496 197.929 346.435 198.033C346.375 198.138 346.343 198.257 346.343 198.378C346.343 198.499 346.375 198.618 346.435 198.722C346.496 198.827 346.583 198.914 346.687 198.975L359.453 206.331C359.558 206.391 359.677 206.423 359.798 206.423ZM371.182 198.378L359.798 204.938L348.414 198.378L359.798 191.818L371.182 198.378Z" fill="#42E8E0"/>
<path opacity="0.5" d="M191.259 213.996L323.905 130.763L269.872 96.9183L185.769 155.399L147.607 202.871L191.259 213.996Z" fill="#0F054C"/>
<path opacity="0.5" d="M210.333 71.3225C208.877 75.4746 218.691 82.6807 232.252 87.4178C245.814 92.1549 257.988 92.6291 259.443 88.477C260.899 84.325 251.085 77.1189 237.524 72.3818C223.963 67.6447 211.789 67.1704 210.333 71.3225Z" fill="#0F054C"/>
<path d="M244.669 56.2144L244.499 51.9436L243.505 49.4427L242.873 51.5128L244.669 56.2144Z" fill="#DD821F"/>
<path d="M199.757 57.0295L199.589 52.8381C199.589 52.8381 203.14 56.3748 203.142 56.4609C203.144 56.5469 199.757 57.0295 199.757 57.0295Z" fill="#FFD85A"/>
<path d="M222.521 69.4596C234.922 69.1633 244.762 62.8703 244.5 51.9435C244.238 41.0167 233.973 32.3991 221.572 32.6955C209.172 32.9919 199.332 42.0901 199.594 53.0168C199.856 63.9436 210.121 69.756 222.521 69.4596Z" fill="#FFD85A"/>
<path d="M199.764 57.2878C199.502 46.361 209.341 37.2627 221.742 36.9662C234.142 36.6697 244.407 45.2872 244.67 56.214C244.932 67.1408 235.092 76.239 222.692 76.5355C210.291 76.8321 200.026 68.2145 199.764 57.2878Z" fill="#FFD85A"/>
<path d="M237.887 42.4958C239.926 44.1726 241.586 46.2627 242.755 48.6277C243.924 50.9927 244.577 53.5786 244.669 56.2143C244.931 67.141 235.091 76.2391 222.691 76.5356C216.931 76.7283 211.294 74.8445 206.811 71.229L237.887 42.4958Z" fill="#DD821F"/>
<path d="M200.765 57.2637C200.514 46.8243 209.915 38.132 221.763 37.8488C233.61 37.5656 243.417 45.7988 243.668 56.2381C243.918 66.6775 234.517 75.3698 222.67 75.653C210.823 75.9362 201.015 67.703 200.765 57.2637Z" fill="#F9BF30"/>
<path d="M204.996 57.1628C204.795 48.7823 212.342 41.8043 221.853 41.577C231.363 41.3497 239.236 47.9591 239.437 56.3395C239.638 64.72 232.091 71.698 222.581 71.9253C213.07 72.1526 205.197 65.5432 204.996 57.1628Z" fill="#F2B42A"/>
<path d="M204.996 57.1625C204.987 56.8152 204.997 56.4714 205.015 56.1292C205.807 64.0133 213.414 70.0784 222.531 69.8606C231.647 69.6427 238.955 63.221 239.368 55.308C239.402 55.649 239.429 55.9919 239.437 56.3393C239.638 64.7197 232.091 71.6977 222.58 71.9251C213.07 72.1524 205.197 65.5429 204.996 57.1625Z" fill="#FFD85A"/>
<path d="M218.913 58.0302L222.445 54.7645C225.846 55.5347 232.185 56.9763 237.25 58.1632C236.553 60.1018 235.448 61.8688 234.009 63.345C232.57 64.8212 230.831 65.9723 228.908 66.7207L218.913 58.0302Z" fill="#FFD85A"/>
<path d="M224.471 67.8772C223.91 67.9454 223.339 67.9896 222.76 68.0035C218.854 68.1325 215.029 66.8748 211.965 64.4538L217.731 59.1231L224.471 67.8772Z" fill="#FFD85A"/>
<path d="M226.233 51.2616L232.887 45.1094C235.124 47.0609 237.125 49.2117 237.665 52.0865L226.233 51.2616Z" fill="#FFD85A"/>
<path d="M222.753 43.3914C213.243 43.6187 205.696 50.5967 205.897 58.9772C205.938 60.6368 206.284 62.2748 206.919 63.8095C205.718 61.7949 205.055 59.506 204.996 57.1625C204.795 48.7821 212.342 41.8041 221.852 41.5768C229.436 41.3955 235.973 45.5629 238.415 51.5069C235.488 46.5485 229.539 43.2292 222.753 43.3914Z" fill="#DD821F"/>
<path d="M244.499 51.9436C244.649 53.3865 244.584 54.8435 244.307 56.2676C243.812 54.6655 242.74 49.8697 242.74 49.8697L241.03 46.0589L239.606 44.888L237.196 43.1347L236.997 37.6384C239.236 39.3145 241.072 41.4688 242.37 43.9437C243.668 46.4187 244.395 49.1519 244.499 51.9436Z" fill="#DD821F"/>
<path d="M201.044 51.383L200.949 50.2569C200.95 50.1817 200.92 50.1094 200.868 50.0558C200.815 50.0022 200.743 49.9717 200.667 49.9711L200.583 49.9731C200.507 49.9774 200.437 50.0112 200.387 50.0673C200.337 50.1233 200.311 50.1969 200.315 50.272L200.409 51.3982C200.409 51.4734 200.438 51.5457 200.491 51.5993C200.544 51.6528 200.616 51.6833 200.691 51.684L200.776 51.6819C200.851 51.6777 200.921 51.6438 200.972 51.5877C201.022 51.5317 201.048 51.458 201.044 51.383Z" fill="#DD821F"/>
<path d="M203.017 47.0679L202.901 45.0436C202.902 44.958 202.868 44.8756 202.808 44.8146C202.748 44.7536 202.666 44.7189 202.58 44.7181L202.383 44.7229C202.297 44.7278 202.217 44.7663 202.16 44.8302C202.103 44.894 202.073 44.9779 202.078 45.0634L202.194 47.0876C202.193 47.1732 202.227 47.2556 202.287 47.3166C202.347 47.3776 202.429 47.4123 202.515 47.4131L202.712 47.4084C202.798 47.4035 202.878 47.365 202.935 47.3011C202.992 47.2373 203.022 47.1534 203.017 47.0679Z" fill="#DD821F"/>
<path d="M205.751 43.3049L205.637 41.3422C205.638 41.2455 205.6 41.1524 205.532 41.0834C205.464 41.0144 205.371 40.9752 205.274 40.9743L204.931 40.9825C204.834 40.988 204.743 41.0316 204.678 41.1037C204.614 41.1759 204.58 41.2706 204.586 41.3673L204.7 43.3299C204.699 43.4267 204.737 43.5198 204.805 43.5888C204.873 43.6577 204.966 43.697 205.063 43.6978L205.407 43.6896C205.503 43.6841 205.594 43.6406 205.659 43.5684C205.723 43.4963 205.757 43.4015 205.751 43.3049Z" fill="#DD821F"/>
<path d="M209.846 40.2662L209.721 37.8879C209.722 37.7911 209.684 37.698 209.616 37.629C209.548 37.56 209.455 37.5208 209.358 37.52L209.015 37.5282C208.918 37.5337 208.827 37.5772 208.763 37.6494C208.698 37.7215 208.665 37.8163 208.67 37.9129L208.794 40.2913C208.794 40.3881 208.832 40.4812 208.9 40.5502C208.968 40.6192 209.06 40.6584 209.157 40.6593L209.501 40.651C209.598 40.6455 209.688 40.6019 209.753 40.5298C209.818 40.4576 209.851 40.3628 209.846 40.2662Z" fill="#DD821F"/>
<path d="M213.965 38.2706L213.832 35.5302C213.832 35.4334 213.795 35.3403 213.727 35.2714C213.659 35.2024 213.566 35.1632 213.469 35.1624L213.125 35.1706C213.028 35.1761 212.938 35.2197 212.873 35.2918C212.808 35.3639 212.775 35.4587 212.78 35.5553L212.914 38.2958C212.913 38.3925 212.951 38.4856 213.019 38.5546C213.087 38.6236 213.179 38.6628 213.276 38.6636L213.62 38.6554C213.717 38.6499 213.808 38.6063 213.872 38.5342C213.937 38.462 213.97 38.3673 213.965 38.2706Z" fill="#DD821F"/>
<path d="M218.102 37.0532L217.972 34.42C217.973 34.3232 217.935 34.2301 217.867 34.1611C217.799 34.0922 217.706 34.0529 217.609 34.0521L217.266 34.0603C217.169 34.0658 217.078 34.1094 217.013 34.1815C216.949 34.2537 216.915 34.3485 216.921 34.4451L217.051 37.0784C217.051 37.1752 217.088 37.2682 217.156 37.3372C217.224 37.4061 217.317 37.4454 217.414 37.4462L217.758 37.438C217.855 37.4325 217.945 37.3889 218.01 37.3168C218.074 37.2447 218.108 37.1499 218.102 37.0532Z" fill="#DD821F"/>
<path d="M222.26 36.6379L222.128 33.9642C222.129 33.8674 222.091 33.7744 222.023 33.7054C221.955 33.6364 221.862 33.5972 221.765 33.5964L221.422 33.6046C221.325 33.6101 221.234 33.6537 221.17 33.7258C221.105 33.798 221.072 33.8927 221.077 33.9894L221.208 36.663C221.208 36.7598 221.246 36.8529 221.314 36.9219C221.382 36.9908 221.474 37.0301 221.571 37.0309L221.915 37.0227C222.012 37.0172 222.102 36.9736 222.167 36.9015C222.232 36.8294 222.265 36.7346 222.26 36.6379Z" fill="#DD821F"/>
<path d="M226.429 36.7265L226.302 34.2209C226.302 34.1241 226.265 34.031 226.197 33.962C226.129 33.893 226.036 33.8538 225.939 33.853L225.595 33.8612C225.498 33.8667 225.408 33.9103 225.343 33.9824C225.278 34.0545 225.245 34.1493 225.25 34.2459L225.378 36.7516C225.377 36.8484 225.415 36.9415 225.483 37.0104C225.551 37.0794 225.644 37.1186 225.741 37.1195L226.084 37.1112C226.181 37.1058 226.272 37.0622 226.337 36.99C226.401 36.9179 226.434 36.8231 226.429 36.7265Z" fill="#DD821F"/>
<path d="M230.618 37.6372L230.493 35.2108C230.493 35.1141 230.455 35.021 230.387 34.952C230.319 34.8831 230.227 34.8439 230.13 34.843L229.786 34.8512C229.689 34.8567 229.599 34.9003 229.534 34.9724C229.469 35.0446 229.436 35.1394 229.441 35.236L229.567 37.6622C229.566 37.759 229.604 37.8521 229.672 37.9211C229.74 37.9901 229.833 38.0293 229.93 38.0302L230.273 38.0219C230.37 38.0165 230.461 37.9729 230.525 37.9007C230.59 37.8286 230.623 37.7338 230.618 37.6372Z" fill="#DD821F"/>
<path d="M234.834 39.6796L234.704 37.0534C234.704 36.9567 234.666 36.8636 234.598 36.7946C234.53 36.7257 234.438 36.6864 234.341 36.6856L233.997 36.6938C233.9 36.6993 233.81 36.7429 233.745 36.815C233.68 36.8872 233.647 36.982 233.652 37.0786L233.783 39.7047C233.782 39.8015 233.82 39.8946 233.888 39.9636C233.956 40.0326 234.049 40.0718 234.145 40.0727L234.489 40.0644C234.586 40.059 234.677 40.0154 234.741 39.9432C234.806 39.8711 234.839 39.7762 234.834 39.6796Z" fill="#DD821F"/>
<path d="M79.3615 162.623L79.3948 171.482L79.4003 171.479C79.3997 171.547 79.4189 171.614 79.4556 171.671C79.4923 171.729 79.5449 171.774 79.607 171.803L176.122 227.079C176.317 227.167 176.529 227.207 176.742 227.198C176.956 227.189 177.163 227.13 177.35 227.025L193.08 217.905C193.151 217.871 193.214 217.822 193.264 217.762C193.314 217.701 193.35 217.63 193.37 217.554L193.373 217.556V217.549C193.374 217.539 193.372 217.531 193.373 217.521L193.34 208.573L185.709 212.927L96.6507 161.92C96.4561 161.833 96.2437 161.792 96.0306 161.802C95.8175 161.811 95.6095 161.87 95.4235 161.974L90.0251 165.104L79.3615 162.623Z" fill="url(#paint2_linear_818_17384)"/>
<path d="M96.6148 153.016L193.13 208.293C193.445 208.474 193.407 208.791 193.044 209.001L177.314 218.122C177.128 218.226 176.92 218.285 176.706 218.294C176.493 218.304 176.281 218.263 176.086 218.176L79.5712 162.899C79.2561 162.718 79.2948 162.401 79.6574 162.191L95.3876 153.07C95.5736 152.966 95.7816 152.907 95.9947 152.898C96.2079 152.888 96.4202 152.929 96.6148 153.016Z" fill="url(#paint3_linear_818_17384)"/>
<path opacity="0.6" d="M100.106 166.337L175.947 208.977C176.533 205.891 177.4 202.865 178.538 199.936L102.832 156.578C101.602 159.733 100.689 163.002 100.106 166.337Z" fill="#24126A"/>
<path d="M93.2711 158.129L184.28 210.251C184.495 210.375 184.469 210.591 184.221 210.735L180.269 213.027C180.142 213.098 179.999 213.138 179.854 213.145C179.708 213.151 179.563 213.123 179.43 213.064L88.4212 160.941C88.2059 160.817 88.2323 160.601 88.4802 160.457L92.432 158.165C92.5593 158.094 92.7014 158.054 92.8472 158.047C92.9929 158.041 93.1381 158.069 93.2711 158.129Z" fill="#24126A"/>
<path d="M88.4213 160.941L90.2719 162.001L92.4052 160.764C92.5324 160.692 92.6746 160.652 92.8203 160.646C92.966 160.639 93.1111 160.667 93.2441 160.727L182.402 211.79L184.221 210.735C184.469 210.591 184.495 210.375 184.28 210.251L93.2711 158.129C93.1381 158.069 92.9929 158.041 92.8472 158.047C92.7015 158.054 92.5593 158.094 92.4321 158.165L88.4802 160.457C88.2323 160.601 88.2058 160.817 88.4213 160.941Z" fill="#453C9E"/>
<path opacity="0.96" d="M322.688 68.356L246.976 24.9935C247.012 38.5334 237.533 55.0232 225.804 61.8242L121.466 122.322C107.678 130.316 96.5358 149.698 96.5783 165.614L172.291 208.976C172.248 193.061 183.39 173.678 197.178 165.684L301.516 105.187C313.245 98.3857 322.725 81.896 322.688 68.356Z" fill="url(#paint4_linear_818_17384)"/>
<path opacity="0.8" d="M96.5787 165.614L172.291 208.976C172.289 208.278 172.316 207.57 172.357 206.86L172.351 206.858L96.6445 163.502C96.6041 164.211 96.5769 164.917 96.5787 165.614Z" fill="#453C9E"/>
<g opacity="0.32">
<path d="M206.215 133.097L223.363 142.919L221.713 143.876L204.565 134.054L206.215 133.097Z" fill="#453C9E"/>
<path d="M197.42 128.061L203.594 131.597L201.944 132.553L195.77 129.017L197.42 128.061Z" fill="#453C9E"/>
<path d="M190.605 124.157L194.8 126.56L193.151 127.517L188.955 125.114L190.605 124.157Z" fill="#453C9E"/>
<path d="M217.788 135.382L227.132 140.734L225.482 141.69L216.138 136.339L217.788 135.382Z" fill="#453C9E"/>
<path d="M203.718 127.324L215.168 133.882L213.519 134.838L202.067 128.281L203.718 127.324Z" fill="#453C9E"/>
<path d="M196.901 123.42L201.097 125.824L199.447 126.78L195.251 124.377L196.901 123.42Z" fill="#453C9E"/>
<path d="M190.415 119.705L194.611 122.109L192.961 123.065L188.766 120.662L190.415 119.705Z" fill="#453C9E"/>
<path d="M224.14 134.677L230.901 138.549L229.251 139.505L222.49 135.634L224.14 134.677Z" fill="#453C9E"/>
<path d="M219.209 131.853L221.52 133.177L219.87 134.133L217.56 132.809L219.209 131.853Z" fill="#453C9E"/>
<path d="M212.394 127.95L216.589 130.352L214.94 131.309L210.743 128.906L212.394 127.95Z" fill="#453C9E"/>
<path d="M209.715 122.072L234.669 136.363L233.02 137.32L208.066 123.028L209.715 122.072Z" fill="#453C9E"/>
<path d="M200.921 117.035L207.096 120.572L205.446 121.528L199.271 117.992L200.921 117.035Z" fill="#453C9E"/>
<path d="M231.677 130.307L238.438 134.178L236.788 135.135L230.027 131.263L231.677 130.307Z" fill="#453C9E"/>
<path d="M215.81 121.219L229.057 128.806L227.407 129.763L214.161 122.176L215.81 121.219Z" fill="#453C9E"/>
<path d="M208.995 117.316L213.191 119.719L211.541 120.675L207.346 118.273L208.995 117.316Z" fill="#453C9E"/>
<path d="M228.374 124.071L242.207 131.994L240.557 132.95L226.724 125.027L228.374 124.071Z" fill="#453C9E"/>
<path d="M215.751 116.841L225.754 122.571L224.104 123.528L214.101 117.798L215.751 116.841Z" fill="#453C9E"/>
<path d="M206.37 111.468L213.13 115.341L211.48 116.297L204.72 112.425L206.37 111.468Z" fill="#453C9E"/>
<path d="M241.303 127.132L245.975 129.809L244.325 130.765L239.653 128.089L241.303 127.132Z" fill="#453C9E"/>
<path d="M232.509 122.096L238.683 125.632L237.033 126.588L230.859 123.052L232.509 122.096Z" fill="#453C9E"/>
<path d="M219.941 114.897L229.889 120.595L228.239 121.552L218.291 115.854L219.941 114.897Z" fill="#453C9E"/>
<path d="M235.432 119.427L249.744 127.623L248.094 128.58L233.783 120.383L235.432 119.427Z" fill="#453C9E"/>
<path d="M219.403 110.246L232.812 117.926L231.163 118.883L217.753 111.203L219.403 110.246Z" fill="#453C9E"/>
<path d="M212.588 106.343L216.783 108.746L215.133 109.702L210.938 107.299L212.588 106.343Z" fill="#453C9E"/>
<path d="M206.047 102.597L210.242 104.999L208.592 105.956L204.397 103.554L206.047 102.597Z" fill="#453C9E"/>
<path d="M244.938 120.527L253.512 125.438L251.862 126.395L243.288 121.484L244.938 120.527Z" fill="#453C9E"/>
<path d="M171.43 113.176L159.539 106.366L157.89 107.323L169.78 114.133L171.43 113.176Z" fill="#453C9E"/>
<path d="M172.652 109.532L163.308 104.181L161.658 105.137L171.003 110.489L172.652 109.532Z" fill="#453C9E"/>
<path d="M173.837 105.868L167.076 101.996L165.427 102.952L172.188 106.824L173.837 105.868Z" fill="#453C9E"/>
<path d="M180.679 105.442L170.845 99.8098L169.195 100.767L179.029 106.399L180.679 105.442Z" fill="#453C9E"/>
<path d="M181.375 101.497L174.614 97.6249L172.964 98.5818L179.725 102.454L181.375 101.497Z" fill="#453C9E"/>
<path d="M186.957 100.351L178.383 95.4397L176.733 96.3957L185.307 101.307L186.957 100.351Z" fill="#453C9E"/>
<path d="M186.824 95.9305L182.152 93.2549L180.502 94.211L185.173 96.8866L186.824 95.9305Z" fill="#453C9E"/>
<path d="M194.973 96.2539L185.92 91.069L184.27 92.026L193.323 97.2108L194.973 96.2539Z" fill="#453C9E"/>
<path d="M198.264 93.7951L189.689 88.8841L188.039 89.8411L196.614 94.7521L198.264 93.7951Z" fill="#453C9E"/>
<path d="M238.672 116.938L242.318 119.027L240.668 119.983L237.022 117.895L238.672 116.938Z" fill="#453C9E"/>
<path d="M227.844 110.736L236.052 115.438L234.402 116.394L226.194 111.693L227.844 110.736Z" fill="#453C9E"/>
<path d="M238.095 93.9708L251.946 101.904L250.296 102.86L236.445 94.9278L238.095 93.9708Z" fill="#453C9E"/>
<path d="M228.609 88.5383L234.064 91.6625L232.415 92.6195L226.959 89.4944L228.609 88.5383Z" fill="#453C9E"/>
</g>
<path opacity="0.5" d="M146.433 121.708C144.559 127.054 157.193 136.331 174.653 142.43C192.112 148.529 207.785 149.139 209.659 143.794C211.534 138.448 198.899 129.171 181.44 123.072C163.98 116.973 148.307 116.363 146.433 121.708Z" fill="#0F054C"/>
<path d="M190.639 102.257L190.42 96.7595L189.139 93.54L188.327 96.2043L190.639 102.257Z" fill="#DD821F"/>
<path d="M132.818 103.307L132.601 97.911C132.601 97.911 137.173 102.464 137.175 102.575C137.178 102.686 132.818 103.307 132.818 103.307Z" fill="#FFD85A"/>
<path d="M162.125 119.31C178.089 118.929 190.758 110.827 190.42 96.7593C190.083 82.6919 176.867 71.5973 160.902 71.9789C144.938 72.3604 132.269 84.0737 132.607 98.1412C132.944 112.209 146.16 119.692 162.125 119.31Z" fill="#FFD85A"/>
<path d="M132.826 103.639C132.488 89.5719 145.157 77.8587 161.121 77.4771C177.086 77.0956 190.302 88.1902 190.639 102.258C190.976 116.325 178.308 128.038 162.343 128.42C146.379 128.801 133.163 117.707 132.826 103.639Z" fill="#FFD85A"/>
<path d="M181.907 84.5961C184.533 86.7548 186.669 89.4456 188.174 92.4904C189.68 95.5351 190.52 98.8644 190.639 102.258C190.976 116.325 178.308 128.038 162.343 128.42C154.928 128.668 147.67 126.243 141.899 121.588L181.907 84.5961Z" fill="#DD821F"/>
<path d="M134.115 103.609C133.793 90.1687 145.896 78.978 161.148 78.6134C176.401 78.2489 189.027 88.8486 189.349 102.288C189.672 115.728 177.569 126.919 162.316 127.284C147.064 127.648 134.438 117.048 134.115 103.609Z" fill="#F9BF30"/>
<path d="M139.562 103.479C139.303 92.6894 149.019 83.7057 161.263 83.4129C173.508 83.1201 183.644 91.6291 183.903 102.418C184.162 113.208 174.446 122.191 162.201 122.484C149.957 122.777 139.821 114.268 139.562 103.479Z" fill="#F2B42A"/>
<path d="M139.562 103.478C139.551 103.031 139.564 102.589 139.587 102.148C140.607 112.298 150.4 120.107 162.137 119.826C173.874 119.546 183.282 111.278 183.814 101.091C183.858 101.53 183.892 101.971 183.903 102.419C184.162 113.208 174.445 122.192 162.201 122.484C149.957 122.777 139.821 114.268 139.562 103.478Z" fill="#FFD85A"/>
<path d="M157.479 104.595L162.026 100.391C166.405 101.383 174.566 103.239 181.086 104.767C180.189 107.262 178.766 109.537 176.914 111.438C175.061 113.338 172.822 114.82 170.347 115.784L157.479 104.595Z" fill="#FFD85A"/>
<path d="M164.635 117.273C163.912 117.361 163.178 117.418 162.432 117.435C157.404 117.602 152.479 115.982 148.534 112.866L155.957 106.003L164.635 117.273Z" fill="#FFD85A"/>
<path d="M166.904 95.8814L175.47 87.9609C178.351 90.4733 180.926 93.2423 181.622 96.9435L166.904 95.8814Z" fill="#FFD85A"/>
<path d="M162.423 85.749C150.179 86.0417 140.463 95.0253 140.722 105.815C140.775 107.951 141.221 110.06 142.037 112.036C140.491 109.442 139.639 106.496 139.562 103.478C139.303 92.6892 149.019 83.7055 161.263 83.4128C171.026 83.1795 179.443 88.5447 182.587 96.1973C178.819 89.8136 171.159 85.5402 162.423 85.749Z" fill="#DD821F"/>
<path d="M190.42 96.7593C190.613 98.617 190.529 100.493 190.172 102.326C189.536 100.264 188.155 94.0894 188.155 94.0894L185.954 89.1833L184.121 87.6758L181.018 85.4186L180.761 78.3424C183.644 80.5003 186.007 83.2738 187.678 86.4601C189.349 89.6465 190.286 93.1652 190.42 96.7593Z" fill="#DD821F"/>
<path d="M134.474 96.0377L134.352 94.5879C134.353 94.4911 134.315 94.398 134.247 94.3291C134.179 94.2601 134.086 94.2208 133.989 94.22L133.88 94.2226C133.783 94.2281 133.693 94.2717 133.628 94.3438C133.563 94.416 133.53 94.5108 133.535 94.6074L133.657 96.0573C133.656 96.1541 133.694 96.2472 133.762 96.3161C133.83 96.3851 133.923 96.4243 134.02 96.4252L134.129 96.4226C134.226 96.4171 134.316 96.3735 134.381 96.3013C134.446 96.2292 134.479 96.1344 134.474 96.0377Z" fill="#DD821F"/>
<path d="M137.014 90.4821L136.865 87.8761C136.866 87.7658 136.823 87.6598 136.745 87.5812C136.668 87.5027 136.562 87.458 136.452 87.457L136.198 87.4631C136.088 87.4693 135.984 87.519 135.911 87.6012C135.837 87.6833 135.799 87.7913 135.805 87.9014L135.954 90.5075C135.954 90.6177 135.997 90.7238 136.074 90.8024C136.152 90.8809 136.257 90.9256 136.368 90.9266L136.621 90.9205C136.732 90.9143 136.835 90.8646 136.908 90.7824C136.982 90.7002 137.02 90.5922 137.014 90.4821Z" fill="#DD821F"/>
<path d="M140.535 85.6375L140.388 83.1108C140.388 82.9862 140.34 82.8663 140.252 82.7775C140.165 82.6887 140.045 82.6382 139.921 82.6371L139.478 82.6477C139.354 82.6548 139.237 82.7109 139.154 82.8038C139.07 82.8967 139.027 83.0187 139.034 83.1431L139.182 85.6699C139.181 85.7945 139.229 85.9144 139.317 86.0032C139.405 86.092 139.524 86.1424 139.649 86.1435L140.091 86.1329C140.216 86.1258 140.332 86.0697 140.416 85.9768C140.499 85.8839 140.542 85.7619 140.535 85.6375Z" fill="#DD821F"/>
<path d="M145.806 81.7256L145.646 78.6636C145.647 78.539 145.598 78.4192 145.51 78.3304C145.423 78.2416 145.304 78.1911 145.179 78.19L144.736 78.2006C144.612 78.2076 144.495 78.2638 144.412 78.3566C144.328 78.4495 144.286 78.5715 144.292 78.696L144.452 81.758C144.452 81.8826 144.5 82.0024 144.588 82.0912C144.675 82.18 144.795 82.2305 144.92 82.2316L145.362 82.221C145.487 82.214 145.603 82.1578 145.687 82.065C145.77 81.9721 145.813 81.8501 145.806 81.7256Z" fill="#DD821F"/>
<path d="M151.109 79.1565L150.937 75.6284C150.938 75.5038 150.89 75.384 150.802 75.2952C150.714 75.2064 150.595 75.1559 150.47 75.1548L150.028 75.1653C149.903 75.1724 149.786 75.2286 149.703 75.3214C149.62 75.4143 149.577 75.5363 149.584 75.6607L149.755 79.1888C149.754 79.3134 149.803 79.4333 149.891 79.5221C149.978 79.6109 150.098 79.6613 150.222 79.6624L150.665 79.6519C150.789 79.6448 150.906 79.5887 150.989 79.4958C151.073 79.4029 151.115 79.2809 151.109 79.1565Z" fill="#DD821F"/>
<path d="M156.436 77.5891L156.268 74.199C156.269 74.0744 156.22 73.9545 156.133 73.8657C156.045 73.777 155.926 73.7265 155.801 73.7253L155.359 73.7359C155.234 73.743 155.117 73.7991 155.034 73.892C154.951 73.9849 154.908 74.1069 154.915 74.2313L155.083 77.6214C155.082 77.746 155.131 77.8659 155.218 77.9547C155.306 78.0435 155.425 78.094 155.55 78.0951L155.993 78.0845C156.117 78.0774 156.234 78.0213 156.317 77.9284C156.4 77.8355 156.443 77.7135 156.436 77.5891Z" fill="#DD821F"/>
<path d="M161.788 77.0544L161.619 73.6122C161.62 73.4877 161.571 73.3678 161.484 73.279C161.396 73.1902 161.277 73.1397 161.152 73.1386L160.71 73.1492C160.585 73.1562 160.468 73.2124 160.385 73.3052C160.302 73.3981 160.259 73.5202 160.266 73.6446L160.435 77.0868C160.434 77.2113 160.483 77.3312 160.57 77.42C160.658 77.5087 160.777 77.5592 160.902 77.5604L161.344 77.5497C161.469 77.5427 161.586 77.4866 161.669 77.3937C161.752 77.3008 161.795 77.1788 161.788 77.0544Z" fill="#DD821F"/>
<path d="M167.156 77.1684L166.992 73.9427C166.992 73.8181 166.944 73.6982 166.856 73.6094C166.769 73.5206 166.649 73.4701 166.524 73.4691L166.082 73.4796C165.957 73.4867 165.84 73.5428 165.757 73.6357C165.674 73.7286 165.631 73.8506 165.638 73.975L165.802 77.2009C165.801 77.3254 165.85 77.4453 165.937 77.5341C166.025 77.6228 166.144 77.6734 166.269 77.6745L166.712 77.6638C166.836 77.6568 166.953 77.6007 167.036 77.5078C167.119 77.4149 167.162 77.2929 167.156 77.1684Z" fill="#DD821F"/>
<path d="M172.549 78.3409L172.387 75.2173C172.388 75.0927 172.339 74.9728 172.252 74.884C172.164 74.7952 172.045 74.7447 171.92 74.7437L171.477 74.7542C171.353 74.7613 171.236 74.8174 171.153 74.9103C171.07 75.0031 171.027 75.1252 171.034 75.2496L171.195 78.3732C171.194 78.4978 171.243 78.6177 171.331 78.7065C171.418 78.7953 171.537 78.8457 171.662 78.8468L172.105 78.8363C172.229 78.8292 172.346 78.7731 172.429 78.6802C172.513 78.5873 172.555 78.4653 172.549 78.3409Z" fill="#DD821F"/>
<path d="M177.977 80.9705L177.809 77.5895C177.81 77.4649 177.761 77.3451 177.674 77.2563C177.586 77.1675 177.467 77.117 177.342 77.1159L176.899 77.1265C176.775 77.1335 176.658 77.1896 176.575 77.2825C176.492 77.3754 176.449 77.4974 176.456 77.6219L176.623 81.0028C176.623 81.1274 176.671 81.2473 176.759 81.3361C176.846 81.4249 176.966 81.4754 177.09 81.4765L177.533 81.4659C177.658 81.4588 177.774 81.4027 177.858 81.3098C177.941 81.217 177.984 81.0949 177.977 80.9705Z" fill="#DD821F"/>
<path opacity="0.5" d="M261.441 188.877C259.796 193.57 270.888 201.715 286.216 207.069C301.544 212.423 315.304 212.959 316.95 208.266C318.595 203.573 307.503 195.428 292.175 190.074C276.846 184.72 263.087 184.184 261.441 188.877Z" fill="#0F054C"/>
<path d="M300.251 171.8L300.059 166.973L298.935 164.146L298.22 166.485L300.251 171.8Z" fill="#DD821F"/>
<path d="M249.488 172.722L249.298 167.984C249.298 167.984 253.311 171.982 253.313 172.079C253.316 172.176 249.488 172.722 249.488 172.722Z" fill="#FFD85A"/>
<path d="M275.217 186.771C289.233 186.436 300.355 179.323 300.059 166.973C299.762 154.623 288.16 144.882 274.144 145.217C260.128 145.552 249.006 155.836 249.303 168.186C249.599 180.536 261.201 187.106 275.217 186.771Z" fill="#FFD85A"/>
<path d="M249.495 173.013C249.198 160.663 260.32 150.38 274.336 150.045C288.352 149.71 299.954 159.45 300.251 171.8C300.547 184.151 289.425 194.434 275.409 194.769C261.393 195.104 249.791 185.363 249.495 173.013Z" fill="#FFD85A"/>
<path d="M292.585 156.295C294.89 158.19 296.766 160.552 298.087 163.225C299.409 165.898 300.146 168.821 300.251 171.8C300.547 184.15 289.425 194.434 275.41 194.769C268.899 194.987 262.528 192.858 257.461 188.771L292.585 156.295Z" fill="#DD821F"/>
<path d="M250.627 172.986C250.344 161.187 260.97 151.362 274.36 151.042C287.751 150.722 298.836 160.028 299.119 171.827C299.402 183.627 288.776 193.451 275.385 193.771C261.995 194.091 250.91 184.786 250.627 172.986Z" fill="#F9BF30"/>
<path d="M255.409 172.872C255.182 163.4 263.712 155.513 274.461 155.256C285.211 154.999 294.11 162.469 294.337 171.941C294.564 181.414 286.034 189.301 275.284 189.558C264.535 189.815 255.636 182.344 255.409 172.872Z" fill="#F2B42A"/>
<path d="M255.409 172.872C255.399 172.479 255.41 172.091 255.431 171.704C256.326 180.615 264.924 187.471 275.228 187.224C285.532 186.978 293.792 179.72 294.259 170.776C294.298 171.161 294.327 171.549 294.337 171.942C294.564 181.414 286.034 189.301 275.284 189.558C264.534 189.815 255.636 182.344 255.409 172.872Z" fill="#FFD85A"/>
<path d="M271.139 173.853L275.131 170.162C278.975 171.032 286.14 172.662 291.864 174.003C291.077 176.194 289.828 178.191 288.201 179.86C286.575 181.528 284.609 182.83 282.436 183.675L271.139 173.853Z" fill="#FFD85A"/>
<path d="M277.421 184.983C276.786 185.06 276.142 185.11 275.487 185.125C271.072 185.271 266.749 183.849 263.286 181.113L269.802 175.088L277.421 184.983Z" fill="#FFD85A"/>
<path d="M279.413 166.202L286.933 159.249C289.463 161.454 291.724 163.885 292.334 167.135L279.413 166.202Z" fill="#FFD85A"/>
<path d="M275.48 157.307C264.73 157.564 256.2 165.451 256.427 174.923C256.474 176.799 256.865 178.65 257.582 180.385C256.225 178.108 255.476 175.521 255.409 172.872C255.182 163.4 263.712 155.513 274.462 155.256C283.033 155.051 290.422 159.761 293.182 166.48C289.874 160.875 283.15 157.123 275.48 157.307Z" fill="#DD821F"/>
<path d="M300.059 166.973C300.228 168.604 300.155 170.251 299.842 171.86C299.283 170.05 298.07 164.629 298.07 164.629L296.138 160.322L294.528 158.998L291.804 157.017L291.579 150.804C294.11 152.699 296.185 155.134 297.652 157.931C299.119 160.729 299.941 163.818 300.059 166.973Z" fill="#DD821F"/>
<path d="M250.942 166.34L250.835 165.067C250.836 164.982 250.803 164.9 250.743 164.839C250.683 164.779 250.602 164.744 250.517 164.744L250.421 164.746C250.336 164.751 250.256 164.789 250.2 164.852C250.143 164.916 250.114 164.999 250.118 165.084L250.225 166.357C250.224 166.442 250.258 166.523 250.317 166.584C250.377 166.644 250.458 166.679 250.544 166.68L250.639 166.677C250.724 166.673 250.804 166.634 250.861 166.571C250.917 166.508 250.947 166.424 250.942 166.34Z" fill="#DD821F"/>
<path d="M253.172 161.462L253.041 159.174C253.042 159.078 253.004 158.984 252.936 158.915C252.868 158.846 252.775 158.807 252.678 158.806L252.455 158.812C252.359 158.817 252.268 158.861 252.203 158.933C252.139 159.005 252.105 159.1 252.111 159.197L252.242 161.485C252.241 161.581 252.279 161.674 252.347 161.743C252.415 161.812 252.507 161.852 252.604 161.852L252.827 161.847C252.924 161.842 253.015 161.798 253.079 161.726C253.144 161.654 253.177 161.559 253.172 161.462Z" fill="#DD821F"/>
<path d="M256.263 157.209L256.134 154.99C256.134 154.881 256.092 154.776 256.015 154.698C255.938 154.62 255.833 154.576 255.724 154.575L255.335 154.584C255.226 154.59 255.123 154.639 255.05 154.721C254.977 154.803 254.94 154.91 254.946 155.019L255.075 157.237C255.074 157.347 255.117 157.452 255.194 157.53C255.271 157.608 255.375 157.652 255.485 157.653L255.873 157.644C255.983 157.638 256.085 157.588 256.158 157.507C256.231 157.425 256.269 157.318 256.263 157.209Z" fill="#DD821F"/>
<path d="M260.89 153.774L260.75 151.086C260.751 150.977 260.708 150.872 260.631 150.794C260.554 150.716 260.449 150.671 260.34 150.67L259.951 150.68C259.842 150.686 259.74 150.735 259.666 150.817C259.593 150.898 259.556 151.005 259.562 151.115L259.702 153.803C259.702 153.912 259.744 154.017 259.821 154.095C259.898 154.173 260.003 154.218 260.112 154.219L260.501 154.209C260.61 154.203 260.713 154.154 260.786 154.072C260.859 153.991 260.897 153.884 260.89 153.774Z" fill="#DD821F"/>
<path d="M265.546 151.519L265.396 148.422C265.397 148.312 265.354 148.207 265.277 148.129C265.2 148.051 265.095 148.007 264.986 148.006L264.597 148.015C264.488 148.021 264.385 148.071 264.312 148.152C264.239 148.234 264.202 148.341 264.208 148.45L264.358 151.547C264.357 151.657 264.4 151.762 264.477 151.84C264.554 151.918 264.659 151.962 264.768 151.963L265.157 151.954C265.266 151.948 265.368 151.898 265.442 151.817C265.515 151.735 265.552 151.628 265.546 151.519Z" fill="#DD821F"/>
<path d="M270.223 150.143L270.076 147.167C270.076 147.057 270.034 146.952 269.957 146.874C269.88 146.796 269.775 146.752 269.665 146.751L269.277 146.76C269.168 146.766 269.065 146.816 268.992 146.897C268.919 146.979 268.881 147.086 268.887 147.195L269.035 150.171C269.034 150.281 269.077 150.386 269.154 150.464C269.231 150.542 269.335 150.586 269.445 150.587L269.833 150.578C269.943 150.572 270.045 150.522 270.118 150.441C270.191 150.359 270.229 150.252 270.223 150.143Z" fill="#DD821F"/>
<path d="M274.922 149.674L274.773 146.651C274.774 146.542 274.731 146.437 274.654 146.359C274.577 146.281 274.473 146.237 274.363 146.236L273.975 146.245C273.865 146.251 273.763 146.3 273.69 146.382C273.617 146.464 273.579 146.571 273.585 146.68L273.733 149.702C273.733 149.811 273.776 149.917 273.852 149.994C273.929 150.072 274.034 150.117 274.144 150.118L274.532 150.108C274.641 150.102 274.744 150.053 274.817 149.971C274.89 149.89 274.928 149.783 274.922 149.674Z" fill="#DD821F"/>
<path d="M279.634 149.774L279.49 146.942C279.491 146.832 279.448 146.727 279.371 146.649C279.294 146.571 279.19 146.527 279.08 146.526L278.692 146.535C278.582 146.541 278.48 146.591 278.407 146.672C278.334 146.754 278.296 146.861 278.302 146.97L278.446 149.802C278.445 149.911 278.488 150.017 278.565 150.095C278.642 150.173 278.746 150.217 278.856 150.218L279.244 150.208C279.354 150.202 279.456 150.153 279.529 150.072C279.602 149.99 279.64 149.883 279.634 149.774Z" fill="#DD821F"/>
<path d="M284.369 150.803L284.227 148.061C284.228 147.951 284.185 147.846 284.108 147.768C284.031 147.69 283.927 147.646 283.817 147.645L283.429 147.654C283.319 147.66 283.217 147.71 283.144 147.791C283.071 147.873 283.033 147.98 283.039 148.089L283.181 150.831C283.18 150.941 283.223 151.046 283.3 151.124C283.377 151.202 283.481 151.246 283.591 151.247L283.979 151.238C284.089 151.232 284.191 151.182 284.264 151.101C284.337 151.019 284.375 150.912 284.369 150.803Z" fill="#DD821F"/>
<path d="M289.134 153.112L288.987 150.143C288.988 150.034 288.945 149.929 288.868 149.851C288.791 149.773 288.686 149.728 288.577 149.727L288.188 149.737C288.079 149.743 287.976 149.792 287.903 149.874C287.83 149.955 287.793 150.062 287.799 150.172L287.946 153.14C287.945 153.249 287.988 153.355 288.065 153.433C288.142 153.511 288.246 153.555 288.356 153.556L288.744 153.547C288.854 153.54 288.956 153.491 289.029 153.409C289.102 153.328 289.14 153.221 289.134 153.112Z" fill="#DD821F"/>
</g>
<defs>
<radialGradient id="paint0_radial_818_17384" cx="0" cy="0" r="1" gradientUnits="userSpaceOnUse" gradientTransform="translate(327.547 61.762) rotate(29.9543) scale(87.4669 75.6787)">
<stop stop-color="#42E8E0"/>
<stop offset="0.15393" stop-color="#33AEB9"/>
<stop offset="0.3113" stop-color="#267A95"/>
<stop offset="0.46634" stop-color="#1B5078"/>
<stop offset="0.61557" stop-color="#132E61"/>
<stop offset="0.75743" stop-color="#0D1651"/>
<stop offset="0.88894" stop-color="#090847"/>
<stop offset="1" stop-color="#080344"/>
</radialGradient>
<radialGradient id="paint1_radial_818_17384" cx="0" cy="0" r="1" gradientUnits="userSpaceOnUse" gradientTransform="translate(80.4398 243.28) rotate(29.9543) scale(59.0839 51.1209)">
<stop stop-color="#42E8E0"/>
<stop offset="0.15393" stop-color="#33AEB9"/>
<stop offset="0.3113" stop-color="#267A95"/>
<stop offset="0.46634" stop-color="#1B5078"/>
<stop offset="0.61557" stop-color="#132E61"/>
<stop offset="0.75743" stop-color="#0D1651"/>
<stop offset="0.88894" stop-color="#090847"/>
<stop offset="1" stop-color="#080344"/>
</radialGradient>
<linearGradient id="paint2_linear_818_17384" x1="197.5" y1="193.322" x2="92.5074" y2="195.353" gradientUnits="userSpaceOnUse">
<stop stop-color="#5761D7"/>
<stop offset="0.03979" stop-color="#5C66D9"/>
<stop offset="0.0867" stop-color="#6A73DF"/>
<stop offset="0.13721" stop-color="#8289E8"/>
<stop offset="0.1899" stop-color="#A3A7F5"/>
<stop offset="0.22368" stop-color="#BCBEFF"/>
</linearGradient>
<linearGradient id="paint3_linear_818_17384" x1="166.323" y1="139.098" x2="126.109" y2="201.719" gradientUnits="userSpaceOnUse">
<stop stop-color="#C0BFF6"/>
<stop offset="0.29376" stop-color="#C5C4F7"/>
<stop offset="0.63992" stop-color="#D3D2F9"/>
<stop offset="1" stop-color="#E9E9FD"/>
</linearGradient>
<linearGradient id="paint4_linear_818_17384" x1="262.378" y1="26.3692" x2="153.166" y2="212.798" gradientUnits="userSpaceOnUse">
<stop stop-color="#C0BFF6"/>
<stop offset="0.11724" stop-color="#D0CFF9"/>
<stop offset="0.26269" stop-color="#E9E9FD"/>
<stop offset="0.51435" stop-color="#C0BFF6"/>
<stop offset="0.62174" stop-color="#D0CFF9"/>
<stop offset="0.75497" stop-color="#E9E9FD"/>
<stop offset="1" stop-color="#C0BFF6"/>
</linearGradient>
<clipPath id="clip0_818_17384">
<rect width="445" height="285" fill="white" transform="matrix(-1 0 0 1 445 0)"/>
</clipPath>
</defs>
</svg>
