<svg width="20" height="20" viewBox="0 0 20 20" fill="none" xmlns="http://www.w3.org/2000/svg">
<path d="M10.0003 18.333C14.6027 18.333 18.3337 14.602 18.3337 9.99967C18.3337 5.3973 14.6027 1.66634 10.0003 1.66634C5.39795 1.66634 1.66699 5.3973 1.66699 9.99967C1.66699 14.602 5.39795 18.333 10.0003 18.333Z" fill="#6851A2"/>
<path d="M10.0002 7.19161C10.5755 7.19161 11.0418 6.72524 11.0418 6.14994C11.0418 5.57465 10.5755 5.10828 10.0002 5.10828C9.42487 5.10828 8.9585 5.57465 8.9585 6.14994C8.9585 6.72524 9.42487 7.19161 10.0002 7.19161Z" fill="white"/>
<path d="M10.0002 14.8999C9.77915 14.8999 9.56719 14.8121 9.41091 14.6559C9.25463 14.4996 9.16683 14.2876 9.16683 14.0666V9.89994C8.94582 9.89994 8.73385 9.81215 8.57757 9.65587C8.42129 9.49959 8.3335 9.28762 8.3335 9.06661C8.3335 8.8456 8.42129 8.63363 8.57757 8.47735C8.73385 8.32107 8.94582 8.23328 9.16683 8.23328H10.0002C10.2212 8.23328 10.4331 8.32107 10.5894 8.47735C10.7457 8.63363 10.8335 8.8456 10.8335 9.06661V14.0666C10.8335 14.2876 10.7457 14.4996 10.5894 14.6559C10.4331 14.8121 10.2212 14.8999 10.0002 14.8999Z" fill="white"/>
<path d="M10.8335 14.8999H9.16683C8.94582 14.8999 8.73385 14.8121 8.57757 14.6559C8.42129 14.4996 8.3335 14.2876 8.3335 14.0666C8.3335 13.8456 8.42129 13.6336 8.57757 13.4774C8.73385 13.3211 8.94582 13.2333 9.16683 13.2333H10.8335C11.0545 13.2333 11.2665 13.3211 11.4228 13.4774C11.579 13.6336 11.6668 13.8456 11.6668 14.0666C11.6668 14.2876 11.579 14.4996 11.4228 14.6559C11.2665 14.8121 11.0545 14.8999 10.8335 14.8999Z" fill="white"/>
</svg>
