<svg width="25" height="25" viewBox="0 0 25 25" fill="none" xmlns="http://www.w3.org/2000/svg">
<path d="M12.2432 3C8.2493 3 5 6.2493 5 10.2432C5 15.1998 11.482 22.4763 11.758 22.7836C12.0172 23.0723 12.4698 23.0718 12.7285 22.7836C13.0045 22.4763 19.4865 15.1998 19.4865 10.2432C19.4864 6.2493 16.2371 3 12.2432 3ZM12.2432 13.8875C10.2338 13.8875 8.59902 12.2527 8.59902 10.2432C8.59902 8.23375 10.2338 6.59899 12.2432 6.59899C14.2527 6.59899 15.8874 8.23379 15.8874 10.2432C15.8874 12.2527 14.2527 13.8875 12.2432 13.8875Z" fill="#6851A2"/>
</svg>
