<svg width="576" height="634" viewBox="0 0 576 634" fill="none" xmlns="http://www.w3.org/2000/svg">
<g opacity="0.2">
<path d="M575.514 428.973L574.325 428.287L574.214 428.351L563.467 422.146L563.578 422.082L562.389 421.396L562.278 421.46L551.531 415.255L551.642 415.191L550.453 414.505L550.342 414.569L539.595 408.364L539.706 408.3L538.517 407.613L538.406 407.678L527.659 401.473L527.771 401.409L526.582 400.722L526.47 400.786L515.724 394.582L515.835 394.518L514.646 393.831L514.535 393.895L503.788 387.691L503.899 387.626L502.71 386.94L502.599 387.004L491.852 380.799L491.963 380.735L490.774 380.049L490.663 380.113L479.916 373.908L480.027 373.844L478.838 373.158L478.727 373.222L467.98 367.017L468.091 366.953L466.902 366.266L466.791 366.33L456.044 360.126L456.155 360.062L454.966 359.375L454.855 359.439L444.108 353.235L444.219 353.17L443.03 352.484L442.919 352.548L432.172 346.343L432.283 346.279L431.094 345.593L430.983 345.657L420.236 339.452L420.347 339.388L419.159 338.702L419.048 338.766L408.301 332.561L408.411 332.497L407.223 331.81L407.112 331.875L396.365 325.67L396.476 325.606L395.287 324.919L395.176 324.983L384.429 318.779L384.54 318.714L383.351 318.028L383.24 318.092L372.493 311.887L372.604 311.823L371.415 311.137L371.304 311.201L360.557 304.996L360.668 304.932L359.479 304.246L359.368 304.31L348.621 298.105L348.732 298.041L347.543 297.354L347.432 297.419L336.685 291.214L336.796 291.15L335.607 290.463L335.496 290.527L324.749 284.323L324.86 284.259L323.671 283.572L323.56 283.636L312.813 277.431L312.924 277.367L311.736 276.681L311.625 276.745L300.878 270.54L300.989 270.476L299.8 269.79L299.689 269.854L288.942 263.649L289.053 263.585L287.864 262.898L287.753 262.963L286.564 263.649L275.817 269.854L274.628 270.54L263.882 276.745L262.693 277.431L251.946 283.636L250.757 284.322L240.011 290.527L238.822 291.213L228.075 297.418L226.886 298.104L216.14 304.309L214.951 304.995L204.204 311.2L203.015 311.886L192.269 318.091L191.08 318.777L180.333 324.982L179.144 325.668L168.397 331.872L167.208 332.559L156.462 338.764L155.273 339.45L144.526 345.654L143.337 346.341L132.591 352.545L131.402 353.232L120.547 359.499L119.466 360.123L108.72 366.327L107.531 367.014L96.7842 373.218L95.5954 373.905L84.8488 380.109L83.6598 380.796L72.9132 387L71.7242 387.687L60.9776 393.891L59.7886 394.578L49.042 400.782L47.8532 401.469L37.1066 407.673L35.9176 408.36L25.171 414.564L23.9822 415.251L13.2355 421.455L12.0466 422.142L1.29995 428.346L0.110993 429.033L0 429.097L1.18896 429.783L1.29995 429.719L12.0468 435.924L11.9358 435.988L13.1247 436.674L13.2357 436.61L23.9827 442.815L23.8717 442.879L25.0607 443.566L25.1717 443.501L35.9187 449.706L35.8075 449.77L36.9965 450.457L37.1076 450.393L47.8546 456.597L47.7434 456.662L48.9324 457.348L49.0434 457.284L59.7904 463.489L59.6794 463.553L60.8684 464.239L60.9793 464.175L71.7263 470.38L71.6153 470.444L72.8041 471.13L72.9153 471.066L83.6621 477.271L83.5511 477.335L84.7401 478.022L84.8512 477.957L95.5981 484.162L95.4871 484.226L96.676 484.913L96.787 484.849L107.534 491.053L107.423 491.117L108.612 491.804L108.723 491.74L119.47 497.945L119.359 498.009L120.548 498.695L120.659 498.631L131.406 504.836L131.295 504.9L132.484 505.586L132.595 505.522L143.342 511.727L143.231 511.791L144.419 512.478L144.531 512.413L155.277 518.618L155.166 518.682L156.355 519.369L156.466 519.305L167.213 525.509L167.102 525.573L168.291 526.26L168.402 526.196L179.149 532.4L179.038 532.465L180.227 533.151L180.338 533.087L191.085 539.292L190.974 539.356L192.163 540.042L192.274 539.978L203.021 546.183L202.91 546.247L204.099 546.933L204.21 546.869L214.957 553.074L214.846 553.138L216.035 553.825L216.146 553.76L226.893 559.965L226.782 560.029L227.971 560.716L228.082 560.652L238.829 566.856L238.718 566.921L239.907 567.607L240.018 567.543L250.765 573.748L250.654 573.812L251.842 574.498L251.953 574.434L262.7 580.639L262.589 580.703L263.778 581.389L263.889 581.325L274.636 587.53L274.525 587.594L275.714 588.28L275.825 588.216L286.572 594.421L286.461 594.485L287.65 595.172L288.123 594.899L288.95 594.421L300.466 587.773L300.886 587.53L311.632 581.326L312.821 580.639L323.568 574.435L324.459 573.92L335.503 567.544L336.088 567.206L347.439 560.653L348.628 559.966L359.414 553.739L360.563 553.075L371.757 546.613L372.499 546.184L383.246 539.98L384.434 539.293L395.181 533.089L396.315 532.434L407.117 526.198L408.306 525.511L419.052 519.307L420.241 518.62L430.988 512.416L432.177 511.73L442.923 505.525L444.112 504.838L454.859 498.634L456.048 497.948L466.794 491.743L467.983 491.056L478.73 484.852L479.919 484.166L490.665 477.961L491.854 477.274L502.601 471.07L503.79 470.384L514.536 464.179L515.725 463.493L526.472 457.288L527.661 456.602L538.407 450.397L539.596 449.711L550.355 443.499L551.532 442.82L562.278 436.615L563.467 435.929L574.214 429.724L575.403 429.038L575.514 428.973ZM561.089 422.146L550.343 428.351L539.596 422.146L550.342 415.942L561.089 422.146ZM286.568 429.035L275.821 435.24L265.074 429.035L275.821 422.83L286.568 429.035ZM277.01 422.144L287.757 415.939L298.504 422.144L287.757 428.349L277.01 422.144ZM287.757 429.721L298.504 435.926L287.757 442.131L277.01 435.926L287.757 429.721ZM288.946 429.035L299.692 422.831L310.439 429.035L299.693 435.24L288.946 429.035ZM300.881 422.144L311.628 415.94L322.375 422.144L311.628 428.349L300.881 422.144ZM299.692 421.458L288.945 415.253L299.692 409.048L310.439 415.253L299.692 421.458ZM287.757 414.567L277.01 408.362L287.756 402.157L298.503 408.362L287.757 414.567ZM286.568 415.253L275.821 421.458L265.074 415.253L275.821 409.048L286.568 415.253ZM274.632 422.144L263.886 428.349L253.139 422.144L263.885 415.939L274.632 422.144ZM262.697 429.035L251.95 435.24L241.203 429.035L251.95 422.83L262.697 429.035ZM263.886 429.721L274.633 435.926L263.886 442.131L253.139 435.926L263.886 429.721ZM275.821 436.613L286.568 442.817L275.822 449.022L265.075 442.817L275.821 436.613ZM287.757 443.504L298.504 449.708L287.758 455.913L277.011 449.708L287.757 443.504ZM288.946 442.817L299.693 436.613L310.44 442.817L299.693 449.022L288.946 442.817ZM300.882 435.926L311.628 429.722L322.375 435.926L311.629 442.131L300.882 435.926ZM312.817 429.035L323.564 422.831L334.311 429.035L323.564 435.24L312.817 429.035ZM324.753 422.144L335.499 415.94L346.246 422.144L335.5 428.349L324.753 422.144ZM323.564 421.458L312.817 415.253L323.564 409.049L334.31 415.253L323.564 421.458ZM311.628 414.567L300.881 408.362L311.628 402.157L322.375 408.362L311.628 414.567ZM299.692 407.676L288.945 401.471L299.692 395.266L310.439 401.471L299.692 407.676ZM287.756 400.784L277.009 394.579L287.756 388.375L298.503 394.58L287.756 400.784ZM286.567 401.471L275.821 407.675L265.074 401.471L275.82 395.266L286.567 401.471ZM274.632 408.362L263.885 414.566L253.138 408.361L263.885 402.157L274.632 408.362ZM262.696 415.253L251.95 421.457L241.203 415.253L251.949 409.048L262.696 415.253ZM250.761 422.144L240.014 428.348L229.267 422.143L240.014 415.939L250.761 422.144ZM238.825 429.035L228.079 435.239L217.332 429.034L228.078 422.83L238.825 429.035ZM240.014 429.721L250.761 435.926L240.015 442.131L229.268 435.926L240.014 429.721ZM251.95 436.612L262.697 442.817L251.95 449.022L241.203 442.817L251.95 436.612ZM263.886 443.504L274.633 449.708L263.886 455.913L253.139 449.708L263.886 443.504ZM275.822 450.395L286.569 456.599L275.822 462.804L265.075 456.599L275.822 450.395ZM287.758 457.286L298.505 463.491L287.758 469.695L277.011 463.49L287.758 457.286ZM288.947 456.599L299.693 450.395L310.44 456.6L299.694 462.804L288.947 456.599ZM300.882 449.708L311.629 443.504L322.376 449.709L311.629 455.913L300.882 449.708ZM312.818 442.817L323.564 436.613L334.311 442.818L323.565 449.022L312.818 442.817ZM324.753 435.926L335.5 429.722L346.247 435.927L335.5 442.131L324.753 435.926ZM336.689 429.035L347.435 422.831L358.182 429.036L347.436 435.24L336.689 429.035ZM348.624 422.144L359.371 415.94L370.118 422.145L359.371 428.349L348.624 422.144ZM347.435 421.458L336.688 415.253L347.435 409.049L358.182 415.253L347.435 421.458ZM335.499 414.567L324.752 408.362L335.499 402.158L346.246 408.362L335.499 414.567ZM323.564 407.676L312.817 401.471L323.563 395.266L334.31 401.471L323.564 407.676ZM311.628 400.785L300.881 394.58L311.627 388.375L322.374 394.58L311.628 400.785ZM299.692 393.893L288.945 387.689L299.691 381.484L310.438 387.689L299.692 393.893ZM287.756 387.002L277.009 380.797L287.756 374.593L298.502 380.797L287.756 387.002ZM286.567 387.689L275.82 393.893L265.073 387.688L275.82 381.484L286.567 387.689ZM274.631 394.579L263.885 400.784L253.138 394.579L263.884 388.375L274.631 394.579ZM262.696 401.47L251.949 407.675L241.202 401.47L251.949 395.266L262.696 401.47ZM250.76 408.361L240.014 414.566L229.267 408.361L240.013 402.157L250.76 408.361ZM238.825 415.252L228.078 421.457L217.331 415.252L228.078 409.048L238.825 415.252ZM226.889 422.143L216.143 428.348L205.396 422.143L216.142 415.939L226.889 422.143ZM214.954 429.034L204.207 435.239L193.46 429.034L204.207 422.83L214.954 429.034ZM216.143 429.721L226.89 435.926L216.143 442.13L205.396 435.925L216.143 429.721ZM228.079 436.612L238.826 442.817L228.079 449.021L217.332 442.817L228.079 436.612ZM240.015 443.503L250.761 449.708L240.015 455.913L229.268 449.708L240.015 443.503ZM251.95 450.394L262.697 456.599L251.951 462.804L241.204 456.599L251.95 450.394ZM263.886 457.286L274.633 463.49L263.887 469.695L253.14 463.49L263.886 457.286ZM275.822 464.177L286.569 470.382L275.822 476.586L265.076 470.381L275.822 464.177ZM287.758 471.068L298.505 477.273L287.758 483.477L277.012 477.273L287.758 471.068ZM288.947 470.382L299.694 464.177L310.441 470.382L299.694 476.586L288.947 470.382ZM300.883 463.491L311.629 457.286L322.376 463.491L311.629 469.695L300.883 463.491ZM312.818 456.6L323.565 450.395L334.312 456.6L323.565 462.804L312.818 456.6ZM324.754 449.709L335.5 443.504L346.247 449.709L335.501 455.913L324.754 449.709ZM336.689 442.818L347.436 436.613L358.183 442.818L347.436 449.022L336.689 442.818ZM348.625 435.927L359.371 429.722L370.118 435.927L359.371 442.132L348.625 435.927ZM360.56 429.036L371.307 422.831L382.054 429.036L371.307 435.24L360.56 429.036ZM372.496 422.145L383.242 415.94L393.989 422.145L383.243 428.35L372.496 422.145ZM371.307 421.458L360.56 415.253L371.306 409.049L382.053 415.254L371.307 421.458ZM359.371 414.567L348.624 408.362L359.37 402.158L370.117 408.362L359.371 414.567ZM347.435 407.676L336.688 401.471L347.435 395.267L358.181 401.472L347.435 407.676ZM335.499 400.785L324.752 394.58L335.499 388.375L346.246 394.58L335.499 400.785ZM323.563 393.894L312.816 387.689L323.563 381.484L334.31 387.689L323.563 393.894ZM311.627 387.002L300.88 380.797L311.627 374.593L322.374 380.798L311.627 387.002ZM299.691 380.111L288.945 373.906L299.691 367.702L310.438 373.907L299.691 380.111ZM287.756 373.22L277.009 367.015L287.755 360.811L298.502 367.015L287.756 373.22ZM286.567 373.906L275.82 380.111L265.073 373.906L275.82 367.702L286.567 373.906ZM274.631 380.797L263.884 387.002L253.137 380.797L263.884 374.593L274.631 380.797ZM262.696 387.688L251.949 393.893L241.202 387.688L251.949 381.484L262.696 387.688ZM250.76 394.579L240.013 400.784L229.266 394.579L240.013 388.374L250.76 394.579ZM238.824 401.47L228.078 407.675L217.331 401.47L228.077 395.266L238.824 401.47ZM226.889 408.361L216.142 414.566L205.395 408.361L216.142 402.156L226.889 408.361ZM214.953 415.252L204.207 421.457L193.46 415.252L204.206 409.048L214.953 415.252ZM203.018 422.143L192.271 428.348L181.524 422.143L192.271 415.938L203.018 422.143ZM191.082 429.034L180.336 435.239L169.589 429.034L180.335 422.83L191.082 429.034ZM192.271 429.721L203.018 435.925L192.272 442.13L181.525 435.925L192.271 429.721ZM204.207 436.612L214.954 442.817L204.208 449.021L193.461 442.816L204.207 436.612ZM216.143 443.503L226.89 449.708L216.143 455.913L205.396 449.708L216.143 443.503ZM228.079 450.394L238.826 456.599L228.079 462.804L217.332 456.599L228.079 450.394ZM240.015 457.285L250.762 463.49L240.015 469.695L229.268 463.49L240.015 457.285ZM251.951 464.177L262.698 470.381L251.951 476.586L241.204 470.381L251.951 464.177ZM263.887 471.068L274.634 477.272L263.887 483.477L253.14 477.272L263.887 471.068ZM275.823 477.959L286.569 484.164L275.823 490.368L265.076 484.164L275.823 477.959ZM287.758 484.85L298.505 491.055L287.759 497.26L277.012 491.055L287.758 484.85ZM288.947 484.164L299.694 477.959L310.441 484.164L299.694 490.369L288.947 484.164ZM300.883 477.273L311.629 471.068L322.376 477.273L311.63 483.478L300.883 477.273ZM312.818 470.382L323.565 464.177L334.312 470.382L323.565 476.587L312.818 470.382ZM324.754 463.491L335.5 457.286L346.247 463.491L335.501 469.696L324.754 463.491ZM336.689 456.6L347.436 450.395L358.183 456.6L347.436 462.805L336.689 456.6ZM348.625 449.709L359.372 443.504L370.118 449.709L359.372 455.914L348.625 449.709ZM360.56 442.818L371.307 436.613L382.054 442.818L371.307 449.023L360.56 442.818ZM372.496 435.927L383.243 429.722L393.989 435.927L383.243 442.132L372.496 435.927ZM384.432 429.036L395.178 422.831L405.925 429.036L395.178 435.241L384.432 429.036ZM396.367 422.145L407.114 415.94L417.861 422.145L407.114 428.35L396.367 422.145ZM395.178 421.458L384.431 415.254L395.178 409.049L405.925 415.254L395.178 421.458ZM383.242 414.567L372.495 408.362L383.242 402.158L393.989 408.363L383.242 414.567ZM371.306 407.676L360.559 401.472L371.306 395.267L382.053 401.472L371.306 407.676ZM359.37 400.785L348.624 394.58L359.37 388.376L370.117 394.58L359.37 400.785ZM347.435 393.894L336.688 387.689L347.434 381.484L358.181 387.689L347.435 393.894ZM335.499 387.003L324.752 380.798L335.498 374.593L346.245 380.798L335.499 387.003ZM323.563 380.111L312.816 373.907L323.563 367.702L334.31 373.907L323.563 380.111ZM311.627 373.22L300.88 367.015L311.627 360.811L322.374 367.015L311.627 373.22ZM299.691 366.329L288.944 360.124L299.691 353.92L310.438 360.124L299.691 366.329ZM287.755 359.438L277.008 353.233L287.755 347.028L298.502 353.233L287.755 359.438ZM286.566 360.124L275.82 366.329L265.073 360.124L275.819 353.919L286.566 360.124ZM274.631 367.015L263.884 373.22L253.137 367.015L263.884 360.81L274.631 367.015ZM262.695 373.906L251.949 380.111L241.202 373.906L251.948 367.701L262.695 373.906ZM250.76 380.797L240.013 387.002L229.266 380.797L240.013 374.592L250.76 380.797ZM238.824 387.688L228.077 393.893L217.33 387.688L228.077 381.483L238.824 387.688ZM226.889 394.579L216.142 400.784L205.395 394.579L216.142 388.374L226.889 394.579ZM214.953 401.47L204.206 407.675L193.459 401.47L204.206 395.265L214.953 401.47ZM203.017 408.361L192.271 414.566L181.524 408.361L192.27 402.156L203.017 408.361ZM191.082 415.252L180.335 421.457L169.588 415.252L180.335 409.047L191.082 415.252ZM179.146 422.143L168.4 428.348L157.653 422.143L168.399 415.938L179.146 422.143ZM167.211 429.034L156.464 435.238L145.717 429.034L156.464 422.829L167.211 429.034ZM168.4 429.72L179.147 435.925L168.4 442.13L157.653 435.925L168.4 429.72ZM180.336 436.612L191.083 442.816L180.336 449.021L169.589 442.816L180.336 436.612ZM192.272 443.503L203.019 449.708L192.272 455.912L181.525 449.707L192.272 443.503ZM204.208 450.394L214.954 456.599L204.208 462.803L193.461 456.599L204.208 450.394ZM216.143 457.285L226.89 463.49L216.144 469.695L205.397 463.49L216.143 457.285ZM228.079 464.176L238.826 470.381L228.08 476.586L217.333 470.381L228.079 464.176ZM240.015 471.068L250.762 477.272L240.015 483.477L229.269 477.272L240.015 471.068ZM251.951 477.959L262.698 484.164L251.951 490.368L241.204 484.163L251.951 477.959ZM263.887 484.85L274.634 491.055L263.887 497.259L253.14 491.054L263.887 484.85ZM275.823 491.741L286.57 497.946L275.823 504.151L265.076 497.946L275.823 491.741ZM287.759 498.632L298.506 504.837L287.759 511.042L277.012 504.837L287.759 498.632ZM288.948 497.946L299.694 491.741L310.441 497.946L299.695 504.151L288.948 497.946ZM300.883 491.055L311.63 484.85L322.377 491.055L311.63 497.26L300.883 491.055ZM312.819 484.164L323.565 477.959L334.312 484.164L323.566 490.369L312.819 484.164ZM324.754 477.273L335.501 471.069L346.248 477.273L335.501 483.478L324.754 477.273ZM336.69 470.382L347.436 464.177L358.183 470.382L347.437 476.587L336.69 470.382ZM348.625 463.491L359.372 457.287L370.119 463.491L359.372 469.696L348.625 463.491ZM360.561 456.6L371.307 450.395L382.054 456.6L371.308 462.805L360.561 456.6ZM372.496 449.709L383.243 443.505L393.99 449.709L383.243 455.914L372.496 449.709ZM384.432 442.818L395.178 436.613L405.925 442.818L395.179 449.023L384.432 442.818ZM396.367 435.927L407.114 429.723L417.861 435.927L407.114 442.132L396.367 435.927ZM408.303 429.036L419.05 422.831L429.796 429.036L419.05 435.241L408.303 429.036ZM420.239 422.145L430.985 415.941L441.732 422.145L430.985 428.35L420.239 422.145ZM419.05 421.459L408.303 415.254L419.049 409.049L429.796 415.254L419.05 421.459ZM407.114 414.568L396.367 408.363L407.113 402.158L417.86 408.363L407.114 414.568ZM395.178 407.676L384.431 401.472L395.178 395.267L405.924 401.472L395.178 407.676ZM383.242 400.785L372.495 394.58L383.242 388.376L393.988 394.58L383.242 400.785ZM371.306 393.894L360.559 387.689L371.306 381.485L382.053 387.69L371.306 393.894ZM359.37 387.003L348.623 380.798L359.37 374.593L370.117 380.798L359.37 387.003ZM347.434 380.112L336.687 373.907L347.434 367.702L358.181 373.907L347.434 380.112ZM335.498 373.22L324.751 367.016L335.498 360.811L346.245 367.016L335.498 373.22ZM323.563 366.329L312.816 360.124L323.562 353.92L334.309 360.125L323.563 366.329ZM311.627 359.438L300.88 353.233L311.626 347.029L322.373 353.233L311.627 359.438ZM299.691 352.547L288.944 346.342L299.69 340.138L310.437 346.342L299.691 352.547ZM287.755 345.656L277.008 339.451L287.755 333.246L298.502 339.451L287.755 345.656ZM286.566 346.342L275.819 352.547L265.072 346.342L275.819 340.137L286.566 346.342ZM274.63 353.233L263.884 359.438L253.137 353.233L263.883 347.028L274.63 353.233ZM262.695 360.124L251.948 366.329L241.201 360.124L251.948 353.919L262.695 360.124ZM250.759 367.015L240.013 373.22L229.266 367.015L240.012 360.81L250.759 367.015ZM238.824 373.906L228.077 380.111L217.33 373.906L228.077 367.701L238.824 373.906ZM226.888 380.797L216.142 387.002L205.395 380.797L216.141 374.592L226.888 380.797ZM214.953 387.688L204.206 393.893L193.459 387.688L204.206 381.483L214.953 387.688ZM203.017 394.579L192.27 400.784L181.523 394.579L192.27 388.374L203.017 394.579ZM191.082 401.47L180.335 407.674L169.588 401.47L180.335 395.265L191.082 401.47ZM179.146 408.361L168.399 414.566L157.652 408.361L168.399 402.156L179.146 408.361ZM167.21 415.252L156.464 421.456L145.717 415.252L156.464 409.047L167.21 415.252ZM155.275 422.143L144.528 428.348L133.781 422.143L144.528 415.938L155.275 422.143ZM143.339 429.034L132.593 435.238L121.846 429.034L132.592 422.829L143.339 429.034ZM144.528 429.72L155.275 435.925L144.529 442.13L133.782 435.925L144.528 429.72ZM156.464 436.612L167.211 442.816L156.465 449.021L145.718 442.816L156.464 436.612ZM168.4 443.503L179.147 449.707L168.401 455.912L157.654 449.707L168.4 443.503ZM180.336 450.394L191.083 456.599L180.336 462.803L169.589 456.598L180.336 450.394ZM192.272 457.285L203.019 463.49L192.272 469.695L181.525 463.49L192.272 457.285ZM204.208 464.176L214.955 470.381L204.208 476.586L193.461 470.381L204.208 464.176ZM216.144 471.067L226.891 477.272L216.144 483.477L205.397 477.272L216.144 471.067ZM228.08 477.959L238.827 484.163L228.08 490.368L217.333 484.163L228.08 477.959ZM240.016 484.85L250.762 491.054L240.016 497.259L229.269 491.054L240.016 484.85ZM251.951 491.741L262.698 497.946L251.952 504.15L241.205 497.946L251.951 491.741ZM263.887 498.632L274.634 504.837L263.888 511.042L253.141 504.837L263.887 498.632ZM275.823 505.523L286.57 511.728L275.823 517.933L265.077 511.728L275.823 505.523ZM287.759 512.415L298.506 518.619L287.759 524.824L277.013 518.619L287.759 512.415ZM288.948 511.728L299.695 505.524L310.442 511.729L299.695 517.933L288.948 511.728ZM300.884 504.837L311.63 498.633L322.377 504.837L311.63 511.042L300.884 504.837ZM312.819 497.946L323.566 491.742L334.313 497.946L323.566 504.151L312.819 497.946ZM324.755 491.055L335.501 484.851L346.248 491.055L335.501 497.26L324.755 491.055ZM336.69 484.164L347.437 477.96L358.184 484.165L347.437 490.369L336.69 484.164ZM348.626 477.273L359.372 471.069L370.119 477.273L359.373 483.478L348.626 477.273ZM360.561 470.382L371.308 464.178L382.055 470.383L371.308 476.587L360.561 470.382ZM372.497 463.491L383.243 457.287L393.99 463.492L383.244 469.696L372.497 463.491ZM384.432 456.6L395.179 450.396L405.926 456.601L395.179 462.805L384.432 456.6ZM396.368 449.709L407.114 443.505L417.861 449.71L407.115 455.914L396.368 449.709ZM408.303 442.818L419.05 436.614L429.797 442.819L419.05 449.023L408.303 442.818ZM420.239 435.927L430.986 429.723L441.732 435.928L430.986 442.132L420.239 435.927ZM432.174 429.036L442.921 422.832L453.668 429.037L442.921 435.241L432.174 429.036ZM444.11 422.145L454.857 415.941L465.603 422.146L454.857 428.35L444.11 422.145ZM442.921 421.459L432.174 415.254L442.921 409.05L453.668 415.254L442.921 421.459ZM430.985 414.568L420.238 408.363L430.985 402.158L441.732 408.363L430.985 414.568ZM419.049 407.676L408.302 401.472L419.049 395.267L429.796 401.472L419.049 407.676ZM407.113 400.785L396.366 394.58L407.113 388.376L417.86 394.581L407.113 400.785ZM395.177 393.894L384.43 387.69L395.177 381.485L405.924 387.69L395.177 393.894ZM383.241 387.003L372.495 380.798L383.241 374.594L393.988 380.798L383.241 387.003ZM371.306 380.112L360.559 373.907L371.305 367.702L382.052 373.907L371.306 380.112ZM359.37 373.221L348.623 367.016L359.369 360.811L370.116 367.016L359.37 373.221ZM347.434 366.329L336.687 360.125L347.434 353.92L358.181 360.125L347.434 366.329ZM335.498 359.438L324.751 353.233L335.498 347.029L346.245 353.234L335.498 359.438ZM323.562 352.547L312.815 346.342L323.562 340.138L334.309 346.342L323.562 352.547ZM311.626 345.656L300.879 339.451L311.626 333.246L322.373 339.451L311.626 345.656ZM299.69 338.765L288.943 332.56L299.69 326.356L310.437 332.56L299.69 338.765ZM287.754 331.874L277.008 325.669L287.754 319.464L298.501 325.669L287.754 331.874ZM286.566 332.56L275.819 338.764L265.072 332.56L275.819 326.355L286.566 332.56ZM274.63 339.451L263.883 345.656L253.136 339.451L263.883 333.246L274.63 339.451ZM262.694 346.342L251.948 352.546L241.201 346.342L251.948 340.137L262.694 346.342ZM250.759 353.233L240.012 359.438L229.265 353.233L240.012 347.028L250.759 353.233ZM238.823 360.124L228.077 366.328L217.33 360.124L228.076 353.919L238.823 360.124ZM226.888 367.015L216.141 373.22L205.394 367.015L216.141 360.81L226.888 367.015ZM214.952 373.906L204.206 380.11L193.459 373.906L204.205 367.701L214.952 373.906ZM203.017 380.797L192.27 387.001L181.523 380.797L192.27 374.592L203.017 380.797ZM191.081 387.688L180.335 393.892L169.588 387.688L180.334 381.483L191.081 387.688ZM179.146 394.579L168.399 400.783L157.652 394.579L168.399 388.374L179.146 394.579ZM167.21 401.47L156.463 407.674L145.717 401.47L156.463 395.265L167.21 401.47ZM155.275 408.361L144.528 414.565L133.781 408.361L144.528 402.156L155.275 408.361ZM143.339 415.252L132.592 421.456L121.845 415.252L132.592 409.047L143.339 415.252ZM131.404 422.143L120.657 428.347L109.91 422.142L120.657 415.938L131.404 422.143ZM119.468 429.034L108.721 435.238L97.9745 429.034L108.721 422.829L119.468 429.034ZM120.657 429.72L131.404 435.925L120.657 442.129L109.91 435.925L120.657 429.72ZM132.593 436.611L143.34 442.816L132.593 449.02L121.846 442.816L132.593 436.611ZM144.529 443.502L155.276 449.707L144.529 455.912L133.782 449.707L144.529 443.502ZM156.465 450.394L167.212 456.598L156.465 462.803L145.718 456.598L156.465 450.394ZM168.401 457.285L179.147 463.49L168.401 469.694L157.654 463.489L168.401 457.285ZM180.336 464.176L191.083 470.381L180.337 476.585L169.59 470.381L180.336 464.176ZM192.272 471.067L203.019 477.272L192.273 483.477L181.526 477.272L192.272 471.067ZM204.208 477.958L214.955 484.163L204.208 490.368L193.462 484.163L204.208 477.958ZM216.144 484.85L226.891 491.054L216.144 497.259L205.397 491.054L216.144 484.85ZM228.08 491.741L238.827 497.946L228.08 504.15L217.333 497.945L228.08 491.741ZM240.016 498.632L250.763 504.837L240.016 511.041L229.269 504.836L240.016 498.632ZM251.952 505.523L262.699 511.728L251.952 517.933L241.205 511.728L251.952 505.523ZM263.888 512.414L274.635 518.619L263.888 524.824L253.141 518.619L263.888 512.414ZM275.824 519.306L286.57 525.51L275.824 531.715L265.077 525.51L275.824 519.306ZM287.759 526.197L298.506 532.401L287.76 538.606L277.013 532.401L287.759 526.197ZM288.948 525.51L299.695 519.306L310.442 525.51L299.695 531.715L288.948 525.51ZM300.884 518.619L311.63 512.415L322.377 518.619L311.631 524.824L300.884 518.619ZM312.819 511.729L323.566 505.524L334.313 511.729L323.566 517.933L312.819 511.729ZM324.755 504.837L335.501 498.633L346.248 504.837L335.502 511.042L324.755 504.837ZM336.69 497.946L347.437 491.742L358.184 497.946L347.437 504.151L336.69 497.946ZM348.626 491.056L359.373 484.851L370.119 491.056L359.373 497.26L348.626 491.056ZM360.561 484.165L371.308 477.96L382.055 484.165L371.308 490.369L360.561 484.165ZM372.497 477.273L383.244 471.069L393.991 477.273L383.244 483.478L372.497 477.273ZM384.433 470.383L395.179 464.178L405.926 470.383L395.179 476.587L384.433 470.383ZM396.368 463.492L407.115 457.287L417.862 463.492L407.115 469.696L396.368 463.492ZM408.304 456.601L419.05 450.396L429.797 456.601L419.051 462.805L408.304 456.601ZM420.239 449.71L430.986 443.505L441.733 449.71L430.986 455.914L420.239 449.71ZM432.175 442.819L442.921 436.614L453.668 442.819L442.922 449.023L432.175 442.819ZM444.11 435.928L454.857 429.723L465.604 435.928L454.857 442.132L444.11 435.928ZM456.046 429.037L466.792 422.832L477.539 429.037L466.793 435.241L456.046 429.037ZM467.981 422.146L478.728 415.941L489.475 422.146L478.728 428.35L467.981 422.146ZM466.792 421.459L456.045 415.254L466.792 409.05L477.539 415.255L466.792 421.459ZM454.856 414.568L444.11 408.363L454.856 402.159L465.603 408.363L454.856 414.568ZM442.921 407.677L432.174 401.472L442.92 395.267L453.667 401.472L442.921 407.677ZM430.985 400.786L420.238 394.581L430.984 388.376L441.731 394.581L430.985 400.786ZM419.049 393.894L408.302 387.69L419.049 381.485L429.795 387.69L419.049 393.894ZM407.113 387.003L396.366 380.798L407.113 374.594L417.86 380.799L407.113 387.003ZM395.177 380.112L384.43 373.907L395.177 367.703L405.924 373.908L395.177 380.112ZM383.241 373.221L372.494 367.016L383.241 360.811L393.988 367.016L383.241 373.221ZM371.305 366.33L360.558 360.125L371.305 353.92L382.052 360.125L371.305 366.33ZM359.369 359.438L348.622 353.234L359.369 347.029L370.116 353.234L359.369 359.438ZM347.434 352.547L336.687 346.342L347.433 340.138L358.18 346.343L347.434 352.547ZM335.498 345.656L324.751 339.451L335.497 333.247L346.244 339.452L335.498 345.656ZM323.562 338.765L312.815 332.56L323.561 326.356L334.308 332.56L323.562 338.765ZM311.626 331.874L300.879 325.669L311.626 319.464L322.372 325.669L311.626 331.874ZM299.69 324.982L288.943 318.778L299.69 312.573L310.437 318.778L299.69 324.982ZM287.754 318.091L277.007 311.887L287.754 305.682L298.501 311.887L287.754 318.091ZM286.565 318.778L275.819 324.982L265.072 318.778L275.818 312.573L286.565 318.778ZM274.63 325.669L263.883 331.873L253.136 325.669L263.883 319.464L274.63 325.669ZM262.694 332.56L251.948 338.764L241.201 332.56L251.947 326.355L262.694 332.56ZM250.759 339.451L240.012 345.655L229.265 339.451L240.012 333.246L250.759 339.451ZM238.823 346.342L228.076 352.546L217.329 346.341L228.076 340.137L238.823 346.342ZM226.888 353.233L216.141 359.437L205.394 353.233L216.141 347.028L226.888 353.233ZM214.952 360.124L204.205 366.328L193.458 360.123L204.205 353.919L214.952 360.124ZM203.016 367.015L192.27 373.219L181.523 367.015L192.27 360.81L203.016 367.015ZM191.081 373.906L180.334 380.11L169.587 373.905L180.334 367.701L191.081 373.906ZM179.145 380.797L168.399 387.001L157.652 380.797L168.398 374.592L179.145 380.797ZM167.21 387.688L156.463 393.892L145.716 387.687L156.463 381.483L167.21 387.688ZM155.274 394.579L144.528 400.783L133.781 394.579L144.527 388.374L155.274 394.579ZM143.339 401.47L132.592 407.674L121.845 401.469L132.592 395.265L143.339 401.47ZM131.403 408.361L120.657 414.565L109.91 408.36L120.656 402.156L131.403 408.361ZM119.468 415.252L108.721 421.456L97.9741 415.251L108.721 409.047L119.468 415.252ZM107.532 422.142L96.7855 428.347L86.0385 422.142L96.7852 415.938L107.532 422.142ZM95.5966 429.034L84.8499 435.238L74.1029 429.033L84.8496 422.829L95.5966 429.034ZM96.7855 429.72L107.533 435.925L96.7859 442.129L86.0389 435.924L96.7855 429.72ZM108.721 436.611L119.468 442.816L108.722 449.02L97.9748 442.816L108.721 436.611ZM120.657 443.502L131.404 449.707L120.658 455.912L109.911 449.707L120.657 443.502ZM132.593 450.393L143.34 456.598L132.594 462.803L121.847 456.598L132.593 450.393ZM144.529 457.285L155.276 463.489L144.53 469.694L133.783 463.489L144.529 457.285ZM156.465 464.176L167.212 470.381L156.465 476.585L145.718 470.38L156.465 464.176ZM168.401 471.067L179.148 477.272L168.401 483.477L157.654 477.272L168.401 471.067ZM180.337 477.958L191.084 484.163L180.337 490.367L169.59 484.163L180.337 477.958ZM192.273 484.849L203.02 491.054L192.273 497.259L181.526 491.054L192.273 484.849ZM204.209 491.741L214.955 497.945L204.209 504.15L193.462 497.945L204.209 491.741ZM216.144 498.632L226.891 504.836L216.145 511.041L205.398 504.836L216.144 498.632ZM228.08 505.523L238.827 511.728L228.081 517.932L217.334 511.728L228.08 505.523ZM240.016 512.414L250.763 518.619L240.016 524.824L229.27 518.619L240.016 512.414ZM251.952 519.305L262.699 525.51L251.952 531.715L241.206 525.51L251.952 519.305ZM263.888 526.196L274.635 532.401L263.888 538.606L253.141 532.401L263.888 526.196ZM275.824 533.088L286.571 539.292L275.824 545.497L265.077 539.292L275.824 533.088ZM287.76 539.979L298.507 546.184L287.76 552.388L277.013 546.183L287.76 539.979ZM288.949 539.292L299.695 533.088L310.442 539.293L299.696 545.497L288.949 539.292ZM300.884 532.401L311.631 526.197L322.378 532.402L311.631 538.606L300.884 532.401ZM312.82 525.51L323.566 519.306L334.313 525.511L323.567 531.715L312.82 525.51ZM324.755 518.619L335.502 512.415L346.249 518.62L335.502 524.824L324.755 518.619ZM336.691 511.729L347.437 505.524L358.184 511.729L347.438 517.933L336.691 511.729ZM348.626 504.837L359.373 498.633L370.12 504.838L359.373 511.042L348.626 504.837ZM360.562 497.946L371.308 491.742L382.055 497.947L371.309 504.151L360.562 497.946ZM372.497 491.056L383.244 484.851L393.991 491.056L383.244 497.26L372.497 491.056ZM384.433 484.165L395.18 477.96L405.926 484.165L395.18 490.369L384.433 484.165ZM396.368 477.273L407.115 471.069L417.862 477.274L407.115 483.478L396.368 477.273ZM408.304 470.383L419.051 464.178L429.798 470.383L419.051 476.587L408.304 470.383ZM420.24 463.492L430.986 457.287L441.733 463.492L430.986 469.696L420.24 463.492ZM432.175 456.601L442.922 450.396L453.669 456.601L442.922 462.806L432.175 456.601ZM444.111 449.71L454.857 443.505L465.604 449.71L454.858 455.914L444.111 449.71ZM456.046 442.819L466.793 436.614L477.54 442.819L466.793 449.023L456.046 442.819ZM467.982 435.928L478.728 429.723L489.475 435.928L478.729 442.133L467.982 435.928ZM479.917 429.037L490.664 422.832L501.411 429.037L490.664 435.242L479.917 429.037ZM491.853 422.146L502.599 415.941L513.346 422.146L502.6 428.35L491.853 422.146ZM490.664 421.459L479.917 415.255L490.664 409.05L501.41 415.255L490.664 421.459ZM478.728 414.568L467.981 408.363L478.728 402.159L489.475 408.364L478.728 414.568ZM466.792 407.677L456.045 401.472L466.792 395.268L477.539 401.472L466.792 407.677ZM454.856 400.786L444.109 394.581L454.856 388.376L465.603 394.581L454.856 400.786ZM442.92 393.894L432.173 387.69L442.92 381.485L453.667 387.69L442.92 393.894ZM430.984 387.003L420.237 380.799L430.984 374.594L441.731 380.799L430.984 387.003ZM419.048 380.112L408.302 373.908L419.048 367.703L429.795 373.908L419.048 380.112ZM407.113 373.221L396.366 367.016L407.112 360.812L417.859 367.016L407.113 373.221ZM395.177 366.33L384.43 360.125L395.176 353.921L405.923 360.125L395.177 366.33ZM383.241 359.439L372.494 353.234L383.24 347.029L393.987 353.234L383.241 359.439ZM371.305 352.547L360.558 346.343L371.305 340.138L382.052 346.343L371.305 352.547ZM359.369 345.656L348.622 339.452L359.369 333.247L370.116 339.452L359.369 345.656ZM347.433 338.765L336.686 332.56L347.433 326.356L358.18 332.56L347.433 338.765ZM335.497 331.874L324.75 325.669L335.497 319.465L346.244 325.669L335.497 331.874ZM323.561 324.983L312.814 318.778L323.561 312.574L334.308 318.778L323.561 324.983ZM311.625 318.092L300.878 311.887L311.625 305.682L322.372 311.887L311.625 318.092ZM299.69 311.2L288.943 304.996L299.689 298.791L310.436 304.996L299.69 311.2ZM287.754 304.309L277.007 298.104L287.753 291.9L298.5 298.105L287.754 304.309ZM286.565 304.996L275.818 311.2L265.071 304.995L275.818 298.791L286.565 304.996ZM274.629 311.887L263.883 318.091L253.136 311.886L263.882 305.682L274.629 311.887ZM262.694 318.778L251.947 324.982L241.2 318.777L251.947 312.573L262.694 318.778ZM250.758 325.669L240.012 331.873L229.265 325.668L240.011 319.464L250.758 325.669ZM238.823 332.56L228.076 338.764L217.329 332.559L228.076 326.355L238.823 332.56ZM226.887 339.451L216.141 345.655L205.394 339.45L216.14 333.246L226.887 339.451ZM214.952 346.341L204.205 352.546L193.458 346.341L204.205 340.137L214.952 346.341ZM203.016 353.233L192.269 359.437L181.522 353.232L192.269 347.028L203.016 353.233ZM191.081 360.123L180.334 366.328L169.587 360.123L180.334 353.919L191.081 360.123ZM179.145 367.015L168.398 373.219L157.651 367.014L168.398 360.81L179.145 367.015ZM167.209 373.905L156.463 380.11L145.716 373.905L156.462 367.701L167.209 373.905ZM155.274 380.797L144.527 387.001L133.78 380.796L144.527 374.592L155.274 380.797ZM143.338 387.687L132.592 393.892L121.845 387.687L132.591 381.483L143.338 387.687ZM131.403 394.578L120.656 400.783L109.909 394.578L120.656 388.374L131.403 394.578ZM119.467 401.469L108.721 407.674L97.9738 401.469L108.72 395.265L119.467 401.469ZM107.532 408.36L96.7852 414.565L86.0382 408.36L96.7848 402.156L107.532 408.36ZM95.5963 415.251L84.8496 421.456L74.1027 415.251L84.8493 409.047L95.5963 415.251ZM83.6607 422.142L72.9141 428.347L62.1672 422.142L72.9139 415.938L83.6607 422.142ZM71.7253 429.033L60.9786 435.238L50.2316 429.033L60.9783 422.829L71.7253 429.033ZM72.9142 429.72L83.6612 435.924L72.9146 442.129L62.1676 435.924L72.9142 429.72ZM84.8502 436.611L95.597 442.816L84.8504 449.02L74.1035 442.816L84.8502 436.611ZM96.7859 443.502L107.533 449.707L96.7863 455.911L86.0393 449.707L96.7859 443.502ZM108.722 450.393L119.469 456.598L108.722 462.802L97.9753 456.598L108.722 450.393ZM120.658 457.284L131.405 463.489L120.658 469.694L109.911 463.489L120.658 457.284ZM132.594 464.176L143.341 470.38L132.594 476.585L121.847 470.38L132.594 464.176ZM144.53 471.067L155.277 477.272L144.53 483.476L133.783 477.271L144.53 471.067ZM156.465 477.958L167.212 484.163L156.466 490.367L145.719 484.163L156.465 477.958ZM168.401 484.849L179.148 491.054L168.402 497.259L157.655 491.054L168.401 484.849ZM180.337 491.74L191.084 497.945L180.337 504.15L169.591 497.945L180.337 491.74ZM192.273 498.631L203.02 504.836L192.273 511.041L181.526 504.836L192.273 498.631ZM204.209 505.523L214.956 511.728L204.209 517.932L193.462 511.727L204.209 505.523ZM216.145 512.414L226.892 518.619L216.145 524.823L205.398 518.618L216.145 512.414ZM228.081 519.305L238.828 525.51L228.081 531.715L217.334 525.51L228.081 519.305ZM240.017 526.196L250.763 532.401L240.017 538.606L229.27 532.401L240.017 526.196ZM251.953 533.087L262.699 539.292L251.953 545.497L241.206 539.292L251.953 533.087ZM263.888 539.979L274.635 546.183L263.889 552.388L253.142 546.183L263.888 539.979ZM275.824 546.87L286.571 553.075L275.825 559.279L265.078 553.074L275.824 546.87ZM287.76 553.761L298.507 559.966L287.76 566.17L277.013 559.966L287.76 553.761ZM288.949 553.075L299.696 546.87L310.443 553.075L299.696 559.279L288.949 553.075ZM300.885 546.184L311.631 539.979L322.378 546.184L311.631 552.389L300.885 546.184ZM312.82 539.293L323.567 533.088L334.314 539.293L323.567 545.497L312.82 539.293ZM324.756 532.402L335.502 526.197L346.249 532.402L335.503 538.607L324.756 532.402ZM336.691 525.511L347.438 519.306L358.185 525.511L347.438 531.715L336.691 525.511ZM348.627 518.62L359.373 512.415L370.12 518.62L359.374 524.825L348.627 518.62ZM360.562 511.729L371.309 505.524L382.056 511.729L371.309 517.934L360.562 511.729ZM372.498 504.838L383.244 498.633L393.991 504.838L383.245 511.043L372.498 504.838ZM384.433 497.947L395.18 491.742L405.927 497.947L395.18 504.152L384.433 497.947ZM396.369 491.056L407.115 484.851L417.862 491.056L407.116 497.261L396.369 491.056ZM408.304 484.165L419.051 477.96L429.798 484.165L419.051 490.37L408.304 484.165ZM420.24 477.274L430.987 471.069L441.733 477.274L430.987 483.479L420.24 477.274ZM432.175 470.383L442.922 464.178L453.669 470.383L442.922 476.588L432.175 470.383ZM444.111 463.492L454.858 457.287L465.604 463.492L454.858 469.697L444.111 463.492ZM456.047 456.601L466.793 450.396L477.54 456.601L466.793 462.806L456.047 456.601ZM467.982 449.71L478.729 443.505L489.476 449.71L478.729 455.915L467.982 449.71ZM479.917 442.819L490.664 436.614L501.411 442.819L490.664 449.024L479.917 442.819ZM491.853 435.928L502.6 429.723L513.347 435.928L502.6 442.133L491.853 435.928ZM503.789 429.037L514.535 422.832L525.282 429.037L514.536 435.242L503.789 429.037ZM515.724 422.146L526.471 415.941L537.218 422.146L526.471 428.351L515.724 422.146ZM514.535 421.46L503.788 415.255L514.535 409.05L525.282 415.255L514.535 421.46ZM502.599 414.568L491.853 408.364L502.599 402.159L513.346 408.364L502.599 414.568ZM490.663 407.677L479.917 401.473L490.663 395.268L501.41 401.473L490.663 407.677ZM478.728 400.786L467.981 394.581L478.727 388.377L489.474 394.581L478.728 400.786ZM466.792 393.895L456.045 387.69L466.792 381.485L477.538 387.69L466.792 393.895ZM454.856 387.004L444.109 380.799L454.856 374.594L465.602 380.799L454.856 387.004ZM442.92 380.112L432.173 373.908L442.92 367.703L453.667 373.908L442.92 380.112ZM430.984 373.221L420.237 367.017L430.984 360.812L441.731 367.017L430.984 373.221ZM419.048 366.33L408.301 360.125L419.048 353.921L429.795 360.126L419.048 366.33ZM407.112 359.439L396.365 353.234L407.112 347.03L417.859 353.234L407.112 359.439ZM395.177 352.548L384.43 346.343L395.176 340.138L405.923 346.343L395.177 352.548ZM383.241 345.656L372.494 339.452L383.24 333.247L393.987 339.452L383.241 345.656ZM371.305 338.765L360.558 332.56L371.304 326.356L382.051 332.561L371.305 338.765ZM359.369 331.874L348.622 325.669L359.368 319.465L370.115 325.67L359.369 331.874ZM347.433 324.983L336.686 318.778L347.433 312.574L358.18 318.778L347.433 324.983ZM335.497 318.092L324.75 311.887L335.497 305.682L346.244 311.887L335.497 318.092ZM323.561 311.201L312.814 304.996L323.561 298.791L334.308 304.996L323.561 311.201ZM311.625 304.309L300.878 298.105L311.625 291.9L322.372 298.105L311.625 304.309ZM299.689 297.418L288.942 291.213L299.689 285.009L310.436 291.214L299.689 297.418ZM287.754 290.527L277.007 284.322L287.753 278.117L298.5 284.322L287.754 290.527ZM286.565 291.213L275.818 297.418L265.071 291.213L275.818 285.009L286.565 291.213ZM274.629 298.104L263.882 304.309L253.136 298.104L263.882 291.899L274.629 298.104ZM262.693 304.995L251.947 311.2L241.2 304.995L251.947 298.791L262.693 304.995ZM250.758 311.886L240.011 318.091L229.264 311.886L240.011 305.681L250.758 311.886ZM238.822 318.777L228.076 324.982L217.329 318.777L228.075 312.572L238.822 318.777ZM226.887 325.668L216.14 331.873L205.393 325.668L216.14 319.463L226.887 325.668ZM214.951 332.559L204.205 338.764L193.458 332.559L204.204 326.355L214.951 332.559ZM203.016 339.45L192.269 345.655L181.522 339.45L192.269 333.245L203.016 339.45ZM191.08 346.341L180.334 352.546L169.587 346.341L180.333 340.136L191.08 346.341ZM179.145 353.232L168.398 359.437L157.651 353.232L168.398 347.027L179.145 353.232ZM167.209 360.123L156.462 366.328L145.716 360.123L156.462 353.918L167.209 360.123ZM155.274 367.014L144.527 373.219L133.78 367.014L144.527 360.809L155.274 367.014ZM143.338 373.905L132.591 380.11L121.844 373.905L132.591 367.7L143.338 373.905ZM131.403 380.796L120.656 387.001L109.909 380.796L120.656 374.591L131.403 380.796ZM119.467 387.687L108.72 393.892L97.9735 387.687L108.72 381.482L119.467 387.687ZM107.532 394.578L96.7849 400.783L86.0379 394.578L96.7845 388.373L107.532 394.578ZM95.5959 401.469L84.8493 407.674L74.1025 401.469L84.8491 395.264L95.5959 401.469ZM83.6605 408.36L72.9139 414.565L62.1669 408.36L72.9135 402.155L83.6605 408.36ZM71.7249 415.251L60.9783 421.456L50.2313 415.251L60.9779 409.046L71.7249 415.251ZM59.7893 422.142L49.0427 428.347L38.2959 422.142L49.0425 415.937L59.7893 422.142ZM47.8537 429.033L37.1073 435.238L26.3603 429.033L37.1069 422.828L47.8537 429.033ZM49.0429 429.719L59.7897 435.924L49.043 442.129L38.2962 435.924L49.0429 429.719ZM60.9786 436.611L71.7256 442.815L60.979 449.02L50.232 442.815L60.9786 436.611ZM72.9146 443.502L83.6616 449.707L72.9148 455.911L62.1679 449.706L72.9146 443.502ZM84.8504 450.393L95.5973 456.598L84.8507 462.802L74.1039 456.598L84.8504 450.393ZM96.7863 457.284L107.533 463.489L96.7867 469.694L86.0397 463.489L96.7863 457.284ZM108.722 464.175L119.469 470.38L108.723 476.585L97.9756 470.38L108.722 464.175ZM120.658 471.067L131.405 477.271L120.658 483.476L109.912 477.271L120.658 471.067ZM132.594 477.958L143.341 484.163L132.594 490.367L121.847 484.162L132.594 477.958ZM144.53 484.849L155.277 491.054L144.53 497.258L133.783 491.054L144.53 484.849ZM156.466 491.74L167.213 497.945L156.466 504.15L145.719 497.945L156.466 491.74ZM168.402 498.631L179.148 504.836L168.402 511.041L157.655 504.836L168.402 498.631ZM180.337 505.523L191.084 511.727L180.338 517.932L169.591 511.727L180.337 505.523ZM192.273 512.414L203.02 518.618L192.274 524.823L181.527 518.618L192.273 512.414ZM204.209 519.305L214.956 525.51L204.209 531.714L193.463 525.51L204.209 519.305ZM216.145 526.196L226.892 532.401L216.145 538.606L205.399 532.401L216.145 526.196ZM228.081 533.087L238.828 539.292L228.081 545.497L217.334 539.292L228.081 533.087ZM240.017 539.979L250.764 546.183L240.017 552.388L229.27 546.183L240.017 539.979ZM251.953 546.87L262.7 553.074L251.953 559.279L241.206 553.074L251.953 546.87ZM263.889 553.761L274.636 559.966L263.889 566.17L253.142 559.965L263.889 553.761ZM275.824 560.652L286.571 566.857L275.825 573.061L265.078 566.857L275.824 560.652ZM287.76 567.543L298.507 573.748L287.761 579.952L277.014 573.748L287.76 567.543ZM288.949 566.857L299.696 560.652L310.443 566.857L299.696 573.062L288.949 566.857ZM300.885 559.966L311.632 553.761L322.378 559.966L311.632 566.171L300.885 559.966ZM312.82 553.075L323.567 546.87L334.314 553.075L323.567 559.28L312.82 553.075ZM324.756 546.184L335.503 539.979L346.25 546.184L335.503 552.389L324.756 546.184ZM336.691 539.293L347.438 533.088L358.185 539.293L347.438 545.498L336.691 539.293ZM348.627 532.402L359.374 526.197L370.121 532.402L359.374 538.607L348.627 532.402ZM360.563 525.511L371.309 519.306L382.056 525.511L371.31 531.716L360.563 525.511ZM372.498 518.62L383.245 512.415L393.992 518.62L383.245 524.825L372.498 518.62ZM384.434 511.729L395.18 505.524L405.927 511.729L395.181 517.934L384.434 511.729ZM396.369 504.838L407.116 498.633L417.863 504.838L407.116 511.043L396.369 504.838ZM408.305 497.947L419.051 491.742L429.798 497.947L419.052 504.152L408.305 497.947ZM420.24 491.056L430.987 484.851L441.734 491.056L430.987 497.261L420.24 491.056ZM432.176 484.165L442.922 477.96L453.669 484.165L442.923 490.37L432.176 484.165ZM444.111 477.274L454.858 471.069L465.605 477.274L454.858 483.479L444.111 477.274ZM456.047 470.383L466.793 464.178L477.54 470.383L466.794 476.588L456.047 470.383ZM467.982 463.492L478.729 457.287L489.476 463.492L478.729 469.697L467.982 463.492ZM479.918 456.601L490.665 450.396L501.411 456.601L490.665 462.806L479.918 456.601ZM491.853 449.71L502.6 443.505L513.347 449.71L502.6 455.915L491.853 449.71ZM503.789 442.819L514.536 436.614L525.283 442.819L514.536 449.024L503.789 442.819ZM515.725 435.928L526.471 429.723L537.218 435.928L526.471 442.133L515.725 435.928ZM527.66 429.037L538.407 422.832L549.154 429.037L538.407 435.242L527.66 429.037ZM549.153 415.255L538.407 421.46L527.66 415.255L538.406 409.05L549.153 415.255ZM537.217 408.364L526.471 414.569L515.724 408.364L526.471 402.159L537.217 408.364ZM525.282 401.473L514.535 407.677L503.788 401.473L514.535 395.268L525.282 401.473ZM513.346 394.582L502.599 400.786L491.852 394.581L502.599 388.377L513.346 394.582ZM501.41 387.69L490.663 393.895L479.916 387.69L490.663 381.486L501.41 387.69ZM489.474 380.799L478.727 387.004L467.98 380.799L478.727 374.594L489.474 380.799ZM477.538 373.908L466.791 380.113L456.044 373.908L466.791 367.703L477.538 373.908ZM465.602 367.017L454.855 373.221L444.109 367.017L454.855 360.812L465.602 367.017ZM453.666 360.126L442.92 366.33L432.173 360.126L442.919 353.921L453.666 360.126ZM441.73 353.235L430.984 359.439L420.237 353.234L430.983 347.03L441.73 353.235ZM429.794 346.343L419.048 352.548L408.301 346.343L419.048 340.139L429.794 346.343ZM417.859 339.452L407.112 345.657L396.365 339.452L407.112 333.247L417.859 339.452ZM405.923 332.561L395.176 338.765L384.429 332.561L395.176 326.356L405.923 332.561ZM393.987 325.67L383.24 331.874L372.493 325.67L383.24 319.465L393.987 325.67ZM382.051 318.778L371.304 324.983L360.557 318.778L371.304 312.574L382.051 318.778ZM370.115 311.887L359.368 318.092L348.621 311.887L359.368 305.683L370.115 311.887ZM358.179 304.996L347.433 311.201L336.686 304.996L347.432 298.792L358.179 304.996ZM346.243 298.105L335.497 304.31L324.75 298.105L335.496 291.9L346.243 298.105ZM334.307 291.214L323.561 297.418L312.814 291.214L323.56 285.009L334.307 291.214ZM322.372 284.323L311.625 290.527L300.878 284.322L311.625 278.118L322.372 284.323ZM310.436 277.431L299.689 283.636L288.942 277.431L299.689 271.227L310.436 277.431ZM287.753 264.335L298.5 270.54L287.753 276.745L277.006 270.54L287.753 264.335ZM275.817 271.226L286.564 277.431L275.818 283.636L265.071 277.431L275.817 271.226ZM263.882 278.117L274.629 284.322L263.882 290.527L253.135 284.322L263.882 278.117ZM251.946 285.008L262.693 291.213L251.947 297.418L241.2 291.213L251.946 285.008ZM240.011 291.899L250.758 298.104L240.011 304.309L229.264 298.104L240.011 291.899ZM228.075 298.79L238.822 304.995L228.075 311.2L217.328 304.995L228.075 298.79ZM216.14 305.681L226.887 311.886L216.14 318.091L205.393 311.886L216.14 305.681ZM204.204 312.572L214.951 318.777L204.204 324.982L193.457 318.777L204.204 312.572ZM192.268 319.463L203.015 325.668L192.269 331.873L181.522 325.668L192.268 319.463ZM180.333 326.354L191.08 332.559L180.333 338.764L169.586 332.559L180.333 326.354ZM168.397 333.245L179.144 339.45L168.398 345.655L157.651 339.45L168.397 333.245ZM156.462 340.136L167.209 346.341L156.462 352.546L145.715 346.341L156.462 340.136ZM144.526 347.027L155.273 353.232L144.527 359.437L133.78 353.232L144.526 347.027ZM143.338 360.123L132.591 366.328L121.844 360.123L132.591 353.918L143.338 360.123ZM120.655 360.809L131.402 367.014L120.656 373.219L109.909 367.014L120.655 360.809ZM108.72 367.7L119.467 373.905L108.72 380.11L97.9731 373.905L108.72 367.7ZM96.7842 374.591L107.531 380.796L96.7845 387.001L86.0375 380.796L96.7842 374.591ZM84.8486 381.482L95.5956 387.687L84.8489 393.892L74.1021 387.687L84.8486 381.482ZM72.9132 388.373L83.6601 394.578L72.9135 400.783L62.1665 394.578L72.9132 388.373ZM60.9776 395.264L71.7246 401.469L60.9779 407.673L50.2309 401.469L60.9776 395.264ZM49.0422 402.155L59.789 408.36L49.0423 414.564L38.2953 408.36L49.0422 402.155ZM37.1066 409.046L47.8535 415.251L37.1069 421.455L26.3599 415.251L37.1066 409.046ZM25.171 415.937L35.918 422.142L25.1713 428.346L14.4243 422.142L25.171 415.937ZM2.48891 429.033L13.2354 422.828L23.9824 429.033L13.2357 435.237L2.48891 429.033ZM14.4249 435.924L25.1713 429.719L35.9183 435.924L25.1717 442.129L14.4249 435.924ZM26.3606 442.815L37.1073 436.611L47.8541 442.815L37.1076 449.02L26.3606 442.815ZM38.2964 449.706L49.043 443.502L59.79 449.706L49.0434 455.911L38.2964 449.706ZM50.2324 456.597L60.979 450.393L71.726 456.598L60.9793 462.802L50.2324 456.597ZM62.1683 463.489L72.9149 457.284L83.6618 463.489L72.9153 469.693L62.1683 463.489ZM74.1043 470.38L84.8507 464.175L95.5977 470.38L84.8511 476.584L74.1043 470.38ZM86.04 477.271L96.7867 471.066L107.534 477.271L96.787 483.476L86.04 477.271ZM97.976 484.162L108.723 477.958L119.47 484.162L108.723 490.367L97.976 484.162ZM109.912 491.053L120.658 484.849L131.405 491.054L120.659 497.258L109.912 491.053ZM121.848 497.945L132.594 491.74L143.341 497.945L132.595 504.149L121.848 497.945ZM133.784 504.836L144.53 498.631L155.277 504.836L144.53 511.04L133.784 504.836ZM145.719 511.727L156.466 505.522L167.213 511.727L156.466 517.932L145.719 511.727ZM157.655 518.618L168.402 512.413L179.149 518.618L168.402 524.823L157.655 518.618ZM169.591 525.509L180.338 519.305L191.085 525.509L180.338 531.714L169.591 525.509ZM181.527 532.4L192.274 526.196L203.021 532.401L192.274 538.605L181.527 532.4ZM193.463 539.292L204.21 533.087L214.957 539.292L204.21 545.497L193.463 539.292ZM205.399 546.183L216.146 539.978L226.892 546.183L216.146 552.388L205.399 546.183ZM217.335 553.074L228.081 546.869L238.828 553.074L228.082 559.279L217.335 553.074ZM229.271 559.965L240.017 553.761L250.764 559.965L240.018 566.17L229.271 559.965ZM241.206 566.856L251.953 560.652L262.7 566.857L251.953 573.061L241.206 566.856ZM253.142 573.748L263.889 567.543L274.636 573.748L263.889 579.952L253.142 573.748ZM265.078 580.639L275.825 574.434L286.572 580.639L275.825 586.844L265.078 580.639ZM277.014 587.53L287.761 581.325L298.508 587.53L287.761 593.735L277.014 587.53ZM299.697 586.844L288.95 580.639L299.696 574.434L310.443 580.639L299.697 586.844ZM311.632 579.953L300.885 573.748L311.632 567.544L322.379 573.748L311.632 579.953ZM323.568 573.062L312.821 566.857L323.567 560.652L334.314 566.857L323.568 573.062ZM335.503 566.171L324.756 559.966L335.503 553.762L346.25 559.966L335.503 566.171ZM336.692 553.075L347.438 546.87L358.185 553.075L347.439 559.28L336.692 553.075ZM348.627 546.184L359.374 539.98L370.121 546.184L359.374 552.389L348.627 546.184ZM371.31 545.498L360.563 539.293L371.31 533.088L382.057 539.293L371.31 545.498ZM383.245 538.607L372.498 532.402L383.245 526.198L393.992 532.402L383.245 538.607ZM395.181 531.716L384.434 525.511L395.181 519.307L405.928 525.511L395.181 531.716ZM407.117 524.825L396.37 518.62L407.116 512.416L417.863 518.62L407.117 524.825ZM419.052 517.934L408.305 511.729L419.052 505.525L429.799 511.729L419.052 517.934ZM430.988 511.043L420.241 504.838L430.987 498.634L441.734 504.838L430.988 511.043ZM442.923 504.152L432.176 497.947L442.923 491.743L453.67 497.947L442.923 504.152ZM454.859 497.261L444.112 491.056L454.858 484.852L465.605 491.056L454.859 497.261ZM466.794 490.37L456.047 484.165L466.794 477.961L477.541 484.166L466.794 490.37ZM478.73 483.479L467.983 477.274L478.729 471.07L489.476 477.274L478.73 483.479ZM490.665 476.588L479.918 470.383L490.665 464.179L501.412 470.384L490.665 476.588ZM502.601 469.697L491.854 463.492L502.6 457.288L513.347 463.492L502.601 469.697ZM514.536 462.806L503.789 456.601L514.536 450.397L525.283 456.602L514.536 462.806ZM526.472 455.915L515.725 449.71L526.471 443.506L537.218 449.71L526.472 455.915ZM527.66 442.819L538.407 436.615L549.154 442.82L538.407 449.024L527.66 442.819ZM550.343 442.133L539.596 435.928L550.343 429.724L561.09 435.928L550.343 442.133ZM562.278 435.242L551.531 429.037L562.278 422.833L573.025 429.038L562.278 435.242Z" fill="#42E8E0" style="mix-blend-mode:lighten"/>
</g>
<path d="M408.076 377.581L404.984 379.366V377.295L408.076 375.511V377.581Z" fill="#42E8E0"/>
<path d="M408.076 391.591L404.984 393.376V381.255L408.076 379.471V391.591Z" fill="#42E8E0"/>
<path d="M408.076 398.288L404.984 400.073V395.262L408.076 393.478V398.288Z" fill="#42E8E0"/>
<path d="M408.076 405.233L404.984 407.017V402.205L408.076 400.42V405.233Z" fill="#42E8E0"/>
<path d="M412.686 381.621L409.594 383.406V378.595L412.686 376.811V381.621Z" fill="#42E8E0"/>
<path d="M412.686 390.818L409.594 392.601V385.537L412.686 383.752V390.818Z" fill="#42E8E0"/>
<path d="M412.686 399.282L409.594 401.067V395.007L412.686 393.223V399.282Z" fill="#42E8E0"/>
<path d="M408.076 412.178L404.984 413.961V409.15L408.076 407.365V412.178Z" fill="#42E8E0"/>
<path d="M412.686 374.921L409.594 376.704V374.633L412.686 372.849V374.921Z" fill="#42E8E0"/>
<path d="M410.38 417.583L404.984 420.698V418.687L410.38 415.574V417.583Z" fill="#42E8E0"/>
<g opacity="0.5">
<g opacity="0.11">
<path d="M296.223 529.394C294.052 528.141 291.591 527.481 289.085 527.479C286.58 527.478 284.117 528.136 281.946 529.387L196.86 578.398C196.555 578.574 196.301 578.828 196.125 579.133C195.948 579.439 195.855 579.785 195.855 580.138C195.855 580.49 195.948 580.837 196.125 581.142C196.301 581.448 196.555 581.701 196.86 581.878L282.655 631.412C284.57 632.517 286.743 633.099 288.954 633.099C291.166 633.099 293.338 632.517 295.253 631.412L381.181 581.924C381.486 581.748 381.74 581.494 381.916 581.189C382.092 580.883 382.185 580.537 382.185 580.184C382.185 579.832 382.092 579.485 381.916 579.18C381.74 578.874 381.486 578.621 381.181 578.444L296.223 529.394Z" fill="url(#paint0_linear_818_17968)"/>
</g>
<g opacity="0.11">
<path d="M296.223 515.062C294.052 513.809 291.591 513.149 289.085 513.147C286.58 513.146 284.117 513.804 281.946 515.055L196.86 564.066C196.555 564.242 196.301 564.496 196.125 564.801C195.948 565.107 195.855 565.453 195.855 565.806C195.855 566.159 195.948 566.505 196.125 566.81C196.301 567.116 196.555 567.37 196.86 567.546L282.655 617.08C284.57 618.185 286.743 618.767 288.954 618.767C291.166 618.767 293.338 618.185 295.253 617.08L381.181 567.592C381.486 567.416 381.74 567.162 381.916 566.857C382.092 566.552 382.185 566.205 382.185 565.852C382.185 565.5 382.092 565.153 381.916 564.848C381.74 564.542 381.486 564.289 381.181 564.112L296.223 515.062Z" fill="url(#paint1_linear_818_17968)"/>
</g>
<g opacity="0.11">
<path d="M296.223 500.73C294.052 499.477 291.591 498.817 289.085 498.815C286.58 498.814 284.117 499.472 281.946 500.723L196.86 549.734C196.555 549.91 196.301 550.164 196.125 550.469C195.948 550.775 195.855 551.121 195.855 551.474C195.855 551.826 195.948 552.173 196.125 552.478C196.301 552.784 196.555 553.037 196.86 553.214L282.655 602.747C284.57 603.853 286.743 604.435 288.954 604.435C291.166 604.435 293.338 603.853 295.253 602.747L381.181 553.26C381.486 553.084 381.74 552.83 381.916 552.525C382.092 552.219 382.185 551.873 382.185 551.52C382.185 551.168 382.092 550.821 381.916 550.516C381.74 550.21 381.486 549.957 381.181 549.78L296.223 500.73Z" fill="url(#paint2_linear_818_17968)"/>
</g>
<g opacity="0.11">
<path d="M296.223 486.395C294.052 485.142 291.591 484.482 289.085 484.48C286.58 484.479 284.117 485.137 281.946 486.388L196.86 535.399C196.555 535.575 196.301 535.829 196.125 536.134C195.948 536.44 195.855 536.786 195.855 537.139C195.855 537.491 195.948 537.838 196.125 538.143C196.301 538.449 196.555 538.702 196.86 538.879L282.655 588.412C284.57 589.518 286.743 590.1 288.954 590.1C291.166 590.1 293.338 589.518 295.253 588.412L381.181 538.925C381.486 538.749 381.74 538.495 381.916 538.19C382.092 537.885 382.185 537.538 382.185 537.185C382.185 536.833 382.092 536.486 381.916 536.181C381.74 535.875 381.486 535.622 381.181 535.445L296.223 486.395Z" fill="url(#paint3_linear_818_17968)"/>
</g>
<path opacity="0.11" d="M381.181 535.445L296.223 486.395C294.052 485.142 291.591 484.482 289.085 484.48C286.58 484.479 284.117 485.137 281.946 486.388L196.86 535.399C196.553 535.574 196.299 535.827 196.122 536.133C195.946 536.438 195.854 536.786 195.855 537.139V580.14C195.854 580.493 195.946 580.84 196.122 581.146C196.299 581.452 196.553 581.705 196.86 581.88L282.655 631.414C284.57 632.519 286.743 633.102 288.954 633.102C291.166 633.102 293.338 632.519 295.253 631.414L381.181 581.927C381.487 581.752 381.742 581.498 381.919 581.193C382.095 580.887 382.187 580.539 382.185 580.186V537.186C382.187 536.832 382.095 536.485 381.919 536.179C381.742 535.874 381.487 535.62 381.181 535.445Z" fill="url(#paint4_linear_818_17968)"/>
</g>
<g opacity="0.11">
<path d="M297.703 436.686C295.087 435.176 292.12 434.38 289.1 434.379C286.079 434.377 283.111 435.17 280.494 436.678L177.927 495.758C177.559 495.971 177.253 496.276 177.041 496.645C176.828 497.013 176.716 497.43 176.716 497.856C176.716 498.281 176.828 498.698 177.041 499.067C177.253 499.435 177.559 499.74 177.927 499.953L281.348 559.663C283.657 560.996 286.276 561.698 288.942 561.698C291.607 561.698 294.226 560.996 296.535 559.663L400.115 500.009C400.483 499.797 400.789 499.491 401.002 499.123C401.214 498.755 401.326 498.337 401.326 497.912C401.326 497.487 401.214 497.069 401.002 496.701C400.789 496.333 400.483 496.027 400.115 495.814L297.703 436.686Z" fill="url(#paint5_linear_818_17968)"/>
</g>
<g opacity="0.11">
<path d="M297.703 419.407C295.087 417.897 292.12 417.101 289.099 417.1C286.079 417.098 283.111 417.891 280.493 419.399L177.927 478.479C177.559 478.691 177.253 478.997 177.04 479.365C176.828 479.733 176.716 480.151 176.716 480.576C176.716 481.001 176.828 481.419 177.04 481.787C177.253 482.155 177.559 482.461 177.927 482.674L281.348 542.384C283.656 543.717 286.275 544.419 288.941 544.419C291.607 544.419 294.226 543.717 296.534 542.384L400.115 482.73C400.483 482.517 400.789 482.212 401.001 481.843C401.214 481.475 401.326 481.058 401.326 480.632C401.326 480.207 401.214 479.79 401.001 479.421C400.789 479.053 400.483 478.747 400.115 478.535L297.703 419.407Z" fill="url(#paint6_linear_818_17968)"/>
</g>
<g opacity="0.11">
<path d="M297.702 402.128C295.086 400.618 292.119 399.822 289.099 399.82C286.078 399.819 283.11 400.612 280.493 402.119L177.926 461.2C177.558 461.412 177.252 461.718 177.04 462.086C176.827 462.454 176.715 462.872 176.715 463.297C176.715 463.722 176.827 464.14 177.04 464.508C177.252 464.876 177.558 465.182 177.926 465.394L281.347 525.104C283.656 526.437 286.275 527.139 288.941 527.139C291.606 527.139 294.225 526.437 296.534 525.104L400.114 465.451C400.482 465.238 400.788 464.932 401.001 464.564C401.213 464.196 401.325 463.778 401.325 463.353C401.325 462.928 401.213 462.51 401.001 462.142C400.788 461.774 400.482 461.468 400.114 461.256L297.702 402.128Z" fill="url(#paint7_linear_818_17968)"/>
</g>
<g opacity="0.11">
<path d="M297.703 384.85C295.087 383.339 292.12 382.544 289.099 382.542C286.079 382.54 283.111 383.333 280.493 384.841L177.927 443.921C177.559 444.134 177.253 444.439 177.04 444.808C176.828 445.176 176.716 445.593 176.716 446.019C176.716 446.444 176.828 446.861 177.04 447.23C177.253 447.598 177.559 447.904 177.927 448.116L281.348 507.826C283.656 509.159 286.275 509.861 288.941 509.861C291.607 509.861 294.226 509.159 296.534 507.826L400.115 448.172C400.483 447.96 400.789 447.654 401.001 447.286C401.214 446.918 401.326 446.5 401.326 446.075C401.326 445.65 401.214 445.232 401.001 444.864C400.789 444.496 400.483 444.19 400.115 443.977L297.703 384.85Z" fill="url(#paint8_linear_818_17968)"/>
</g>
<path opacity="0.11" d="M400.115 443.977L297.703 384.85C295.087 383.339 292.12 382.544 289.099 382.542C286.079 382.54 283.111 383.333 280.493 384.841L177.927 443.921C177.557 444.132 177.25 444.437 177.037 444.806C176.824 445.175 176.714 445.593 176.716 446.019V497.854C176.714 498.28 176.824 498.698 177.037 499.067C177.25 499.435 177.557 499.741 177.927 499.951L281.348 559.662C283.657 560.995 286.275 561.696 288.941 561.696C291.607 561.696 294.226 560.995 296.534 559.662L400.115 500.008C400.484 499.797 400.792 499.492 401.004 499.123C401.217 498.754 401.328 498.336 401.326 497.91V446.075C401.328 445.649 401.217 445.231 401.004 444.862C400.792 444.493 400.484 444.188 400.115 443.977Z" fill="url(#paint9_linear_818_17968)"/>
<g opacity="0.11">
<path d="M299.548 342.485C296.376 340.653 292.778 339.688 289.116 339.687C285.453 339.685 281.854 340.646 278.681 342.474L154.313 414.112C153.867 414.37 153.496 414.741 153.238 415.187C152.98 415.634 152.845 416.14 152.845 416.656C152.845 417.171 152.98 417.677 153.238 418.124C153.496 418.57 153.867 418.941 154.313 419.199L279.717 491.601C282.516 493.217 285.692 494.068 288.924 494.068C292.157 494.068 295.332 493.217 298.132 491.601L423.729 419.267C424.175 419.009 424.546 418.638 424.803 418.192C425.061 417.745 425.197 417.239 425.197 416.724C425.197 416.208 425.061 415.702 424.803 415.255C424.546 414.809 424.175 414.438 423.729 414.18L299.548 342.485Z" fill="url(#paint10_linear_818_17968)"/>
</g>
<g opacity="0.11">
<path d="M299.547 321.53C296.376 319.698 292.778 318.733 289.115 318.731C285.453 318.73 281.854 319.691 278.68 321.519L154.313 393.157C153.866 393.415 153.495 393.786 153.238 394.232C152.98 394.678 152.844 395.185 152.844 395.7C152.844 396.216 152.98 396.722 153.238 397.169C153.495 397.615 153.866 397.986 154.313 398.244L279.716 470.646C282.516 472.262 285.691 473.113 288.924 473.113C292.156 473.113 295.332 472.262 298.131 470.646L423.728 398.312C424.174 398.054 424.545 397.683 424.803 397.237C425.061 396.79 425.196 396.284 425.196 395.768C425.196 395.253 425.061 394.747 424.803 394.3C424.545 393.854 424.174 393.483 423.728 393.225L299.547 321.53Z" fill="url(#paint11_linear_818_17968)"/>
</g>
<g opacity="0.11">
<path d="M299.548 300.581C296.377 298.75 292.779 297.785 289.116 297.783C285.454 297.781 281.855 298.743 278.681 300.571L154.314 372.209C153.867 372.467 153.496 372.837 153.239 373.284C152.981 373.73 152.845 374.237 152.845 374.752C152.845 375.268 152.981 375.774 153.239 376.221C153.496 376.667 153.867 377.038 154.314 377.296L279.717 449.697C282.517 451.313 285.692 452.164 288.925 452.164C292.157 452.164 295.333 451.313 298.132 449.697L423.729 377.364C424.175 377.106 424.546 376.735 424.804 376.289C425.062 375.842 425.197 375.336 425.197 374.82C425.197 374.305 425.062 373.798 424.804 373.352C424.546 372.905 424.175 372.535 423.729 372.277L299.548 300.581Z" fill="url(#paint12_linear_818_17968)"/>
</g>
<g opacity="0.11">
<path d="M299.548 279.631C296.377 277.8 292.779 276.835 289.116 276.833C285.454 276.831 281.855 277.793 278.681 279.621L154.314 351.259C153.867 351.516 153.496 351.887 153.239 352.334C152.981 352.78 152.845 353.286 152.845 353.802C152.845 354.318 152.981 354.824 153.239 355.27C153.496 355.717 153.867 356.088 154.314 356.345L279.717 428.747C282.517 430.363 285.692 431.214 288.925 431.214C292.157 431.214 295.333 430.363 298.132 428.747L423.729 356.413C424.175 356.156 424.546 355.785 424.804 355.338C425.062 354.892 425.197 354.386 425.197 353.87C425.197 353.355 425.062 352.848 424.804 352.402C424.546 351.955 424.175 351.584 423.729 351.327L299.548 279.631Z" fill="url(#paint13_linear_818_17968)"/>
</g>
<path opacity="0.5" d="M423.728 351.324L299.547 279.628C296.375 277.797 292.778 276.832 289.115 276.83C285.453 276.828 281.854 277.79 278.68 279.618L154.313 351.256C153.864 351.511 153.492 351.882 153.234 352.329C152.976 352.775 152.841 353.283 152.844 353.799V416.652C152.841 417.168 152.976 417.676 153.234 418.123C153.492 418.57 153.864 418.94 154.313 419.196L279.716 491.597C282.516 493.214 285.691 494.065 288.924 494.065C292.156 494.065 295.332 493.214 298.131 491.597L423.728 419.264C424.176 419.008 424.548 418.638 424.806 418.191C425.064 417.744 425.199 417.237 425.196 416.72V353.867C425.199 353.351 425.065 352.844 424.806 352.397C424.548 351.95 424.176 351.579 423.728 351.324Z" fill="url(#paint14_linear_818_17968)"/>
<g opacity="0.11">
<path d="M299.548 279.631C296.377 277.8 292.779 276.835 289.116 276.833C285.454 276.831 281.855 277.793 278.681 279.621L154.314 351.259C153.867 351.516 153.496 351.887 153.239 352.334C152.981 352.78 152.845 353.286 152.845 353.802C152.845 354.318 152.981 354.824 153.239 355.27C153.496 355.717 153.867 356.088 154.314 356.345L279.717 428.747C282.517 430.363 285.692 431.214 288.925 431.214C292.157 431.214 295.333 430.363 298.132 428.747L423.729 356.413C424.175 356.156 424.546 355.785 424.804 355.338C425.062 354.892 425.197 354.386 425.197 353.87C425.197 353.355 425.062 352.848 424.804 352.402C424.546 351.955 424.175 351.584 423.729 351.327L299.548 279.631Z" fill="url(#paint15_linear_818_17968)"/>
</g>
<path d="M423.728 353.519L298.131 425.853C295.332 427.469 292.156 428.32 288.924 428.32C285.691 428.32 282.516 427.469 279.716 425.853L154.313 353.451C153.857 353.19 153.481 352.812 153.223 352.354C152.842 353.029 152.743 353.826 152.947 354.574C153.151 355.321 153.642 355.958 154.313 356.345L279.716 428.746C282.516 430.363 285.691 431.214 288.924 431.214C292.156 431.214 295.332 430.363 298.131 428.746L423.728 356.413C424.399 356.026 424.89 355.389 425.094 354.642C425.298 353.894 425.198 353.097 424.817 352.423C424.56 352.88 424.183 353.258 423.728 353.519Z" fill="url(#paint16_linear_818_17968)"/>
<path opacity="0.2" d="M289.021 393.552C326.837 393.552 357.492 375.853 357.492 354.02C357.492 332.187 326.837 314.488 289.021 314.488C251.205 314.488 220.55 332.187 220.55 354.02C220.55 375.853 251.205 393.552 289.021 393.552Z" fill="#180D5B"/>

<g style="mix-blend-mode:lighten">
<path d="M330.054 507.707C327.76 503.783 324.354 500.626 320.266 498.638C316.178 496.649 311.592 495.918 307.089 496.535C302.585 497.153 298.366 499.092 294.964 502.108C291.563 505.124 289.132 509.08 287.979 513.478C286.826 517.875 287.003 522.515 288.488 526.812C289.972 531.108 292.697 534.868 296.318 537.616C299.94 540.364 304.295 541.976 308.832 542.249C313.37 542.522 317.887 541.443 321.811 539.149C327.074 536.073 330.898 531.032 332.444 525.135C333.99 519.239 333.13 512.97 330.054 507.707Z" fill="#7936BD"/>
</g>
<g style="mix-blend-mode:lighten">
<path d="M296.59 496.004C295.301 493.798 293.386 492.024 291.088 490.906C288.79 489.788 286.213 489.377 283.681 489.724C281.149 490.072 278.778 491.162 276.866 492.857C274.953 494.552 273.587 496.776 272.939 499.248C272.291 501.72 272.39 504.328 273.225 506.743C274.059 509.159 275.591 511.272 277.627 512.817C279.662 514.361 282.11 515.268 284.661 515.421C287.212 515.574 289.751 514.968 291.957 513.678C293.422 512.822 294.703 511.686 295.729 510.334C296.754 508.983 297.504 507.442 297.934 505.801C298.364 504.16 298.467 502.45 298.237 500.769C298.006 499.088 297.447 497.469 296.59 496.004Z" fill="#7936BD"/>
</g>
<g clip-path="url(#clip0_818_17968)">
<path fill-rule="evenodd" clip-rule="evenodd" d="M244.662 62.7928C235.403 33.6367 254.449 35.6232 252.646 27.4675C251.675 23.4649 251.884 19.2669 253.248 15.3805C254.612 11.494 257.072 8.08507 260.332 5.56525C270.802 -1.99182 292.692 -3.49398 301.006 11.577C305.405 19.5516 305.886 23.2708 311.091 26.6189C321.973 33.6184 333.696 30.7774 341.491 42.9335C346.284 50.4099 345.614 59.643 339.61 65.1427C354.12 71.4997 354.032 83.0151 343.074 97.6792C330.768 114.147 303.892 124.463 330.812 138.56C293.243 152.736 253.077 124.372 248.452 91.1707C247.093 81.408 247.58 71.9834 244.662 62.7928Z" fill="#1E1273"/>
<path fill-rule="evenodd" clip-rule="evenodd" d="M263.209 12.043C261.476 21.7093 276.312 27.87 277.963 39.2824C280.735 37.157 285.606 36.4362 286.945 39.765C289.313 45.6584 283.657 49.4422 290.926 55.1263C296.692 59.0525 302.116 63.4581 307.14 68.2963C310.657 71.7637 318.495 80.1694 317.126 91.4585C315.973 100.953 299.013 124.446 311.743 136.467C275.081 140.649 264.67 102.144 251.391 73.065C243.223 55.1777 247.024 50.0236 253.256 43.2442C257.554 38.5697 256.412 34.2945 256.465 28.9488C256.253 25.8063 256.749 22.6563 257.916 19.7306C259.083 16.8049 260.892 14.178 263.209 12.043Z" fill="#00004B"/>
<path fill-rule="evenodd" clip-rule="evenodd" d="M247.251 143.81C246.883 147.297 247.414 152.626 247.144 165.744C246.954 175.021 248.198 191.221 249.171 205.131C249.575 210.89 250.376 215.981 250.887 220.463C251.258 223.72 252.681 226.925 253.151 230.096C256.677 253.921 261.217 275.573 263.925 304.374C264.547 310.996 265.244 314.4 264.078 320.978C263.85 322.257 263.214 323.544 263.049 324.83C262.234 331.182 261.617 337.504 259.128 342.781C258.767 343.549 258.207 345.575 257.759 346.412C257.759 346.412 263.455 348.392 264.147 348.491C264.841 348.588 274.02 346.038 274.02 346.038C274.02 346.038 277.435 330.726 277.382 329.842C276.789 319.808 283.755 321.655 277.571 314.056C276.99 313.106 277.14 313.022 277.148 311.897C277.224 301.973 278.913 287.575 280.18 274.692C283.802 237.88 277.65 240.519 276.273 222.931C278.805 201.76 283.939 171.698 283.397 145.642L247.251 143.81Z" fill="#E7A376"/>
<path fill-rule="evenodd" clip-rule="evenodd" d="M260.341 339.987C259.354 341.798 258.29 344.395 257.382 346.352C256.441 348.34 255.666 350.403 255.066 352.518C254.915 352.921 254.855 353.352 254.891 353.78C254.927 354.209 255.058 354.624 255.275 354.996C257.492 357.968 268.599 352.546 272.321 349.26C274.727 347.139 274.771 344.628 275.336 341.563C276.185 336.962 276.33 336.445 277.432 331.717L278.683 344.552L279.741 345.192C279.946 339.629 280.476 334.082 281.329 328.581C281.651 326.801 282.201 324.77 282.279 323.785C282.57 321.757 282.243 319.688 281.339 317.849C280.435 316.01 278.997 314.487 277.213 313.478C278.185 317.011 275.622 322.759 274.456 329.996C273.236 337.569 269.039 345.848 265.741 346.55C264.352 346.845 261.279 345.111 259.608 344.16C258.973 343.799 259.693 341.629 260.341 339.987Z" fill="#052F4D"/>
<path fill-rule="evenodd" clip-rule="evenodd" d="M292.212 132.721C295.979 144.947 303.48 156.151 304.954 165.743C306.439 175.407 305.633 184.555 303.765 198.993C302.495 208.806 297.506 230.947 298.569 239.353C300.123 251.653 304.6 258.939 306.085 273.342C307.279 284.936 305.367 301.781 304.793 317.832C304.575 323.937 305.099 324.027 306.555 329.557C307.032 331.441 307.378 333.356 307.591 335.287C308.315 341.047 308.45 346.866 307.993 352.654C307.799 355.108 306.891 356.281 306.658 359.635L292.996 363.983C293.31 361.081 293.72 356.645 293.904 351.754C294.069 347.379 294.026 342.641 294.014 338.305C293.997 332.083 294.61 328.174 293.505 322.292C289.831 302.722 284.135 285.501 280.283 269.413C278.27 261.006 277.676 253.527 274.718 241.507C273.433 236.646 272.596 231.678 272.219 226.665C271.439 213.288 268.877 197.239 268.794 183.507C257.735 167.485 250.551 159.616 247.553 151.274C247.34 147.235 247.788 143.189 248.879 139.294L292.212 132.721Z" fill="#F0B186"/>
<path fill-rule="evenodd" clip-rule="evenodd" d="M305.264 324.837C306.66 327.3 307.647 329.973 308.187 332.752C308.808 336.577 307.816 342.808 308.583 347.543L309.802 355.059C310.512 359.436 309.79 362.631 305.268 366.914C301.167 370.795 296.931 372.718 294.38 371.861C292.5 371.23 290.685 368.301 292.324 359.742C293.396 352.634 293.952 345.459 293.987 338.272C294.59 344.001 294.536 349.78 293.825 355.496C293.594 357.556 293.468 360.881 295.882 360.911C305.869 361.037 306.018 358.338 306.434 355.209C307.543 346.854 307.253 332.28 305.264 324.837Z" fill="#052F4D"/>
<path fill-rule="evenodd" clip-rule="evenodd" d="M292.212 132.721C295.978 144.947 303.48 156.151 304.953 165.743C307.168 180.154 304.622 191.593 300.719 222.952C300.349 226.811 300.633 230.705 301.561 234.469C303.888 245.386 293.143 248.445 280.372 244.407C264.772 239.476 250.4 227.829 249.476 222.454C247.732 207.145 243.388 178.031 243.658 164.913C243.926 151.796 246.883 147.297 247.251 143.809L247.38 140.433C247.813 137.723 286.671 133.561 292.212 132.721Z" fill="#433BB4"/>
<path fill-rule="evenodd" clip-rule="evenodd" d="M245.525 97.3925C252.946 88.2039 262.662 75.2147 264.37 71.7582C268.82 62.7541 270.833 57.747 267.188 54.7994C265.318 53.184 262.931 52.292 260.459 52.2852C257.988 52.2784 255.596 53.1571 253.717 54.7621C248.727 59.0759 245.148 67.9624 242.924 70.9458C237.981 77.5744 234.143 81.9919 229.568 87.4251C225.714 91.6606 222.579 96.4968 220.287 101.743C219.27 104.663 219.478 109.031 222.302 111.13C228.92 116.047 241.609 102.242 245.525 97.3925Z" fill="#DBE0EE"/>
<path fill-rule="evenodd" clip-rule="evenodd" d="M298.446 118.233C293.15 130.481 301.497 137.549 298.255 145.986L299.84 149.659C290.175 156.594 255.784 155.435 247.119 141.686L246.937 134.829C245.446 131.545 246.326 126.672 246.764 124.483C248.155 117.522 247.504 113.828 248.266 105.777C248.469 103.621 248.68 101.443 248.898 99.2677C248.944 98.8161 248.987 98.3683 249.027 97.9243C246.371 96.0881 244.485 93.3378 243.73 90.1993C243.195 87.9174 243.155 85.5477 243.611 83.249C244.068 80.9502 245.011 78.7755 246.377 76.8707C249.255 72.67 252.224 69.9107 253.658 66.5652C255.989 57.2285 263.401 53.6297 268.311 55.1048C271.063 55.9305 278.638 56.819 285.882 60.444C290.219 62.9882 294.258 66.007 297.926 69.4447C301.762 72.6373 306.199 72.1417 307.998 77.8037C308.417 79.1268 307.279 80.5234 307.384 82.0595C308.125 92.8733 302.807 108.149 298.446 118.233Z" fill="#EFF2F8"/>
<path fill-rule="evenodd" clip-rule="evenodd" d="M263.148 135.163C249.485 125.06 249.766 121.218 240.676 102.145C241.488 100.661 242.65 99.3972 244.062 98.4648C245.474 97.5324 247.093 96.9594 248.778 96.7959C252.573 101.696 264.381 111.517 272.476 121.447C276.363 126.214 277.737 133.733 275.14 135.704C273.181 137.037 270.846 137.709 268.478 137.62C266.506 137.317 264.659 136.466 263.148 135.163Z" fill="#E0E4F0"/>
<path fill-rule="evenodd" clip-rule="evenodd" d="M265.278 101.548C267.55 101.619 269.815 101.826 272.063 102.165C274.765 103.19 277.176 104.858 279.087 107.025L271.111 119.814C267.881 116.036 264.206 112.313 260.734 108.911L260.883 106.698L265.278 101.548Z" fill="#F0B186"/>
<path fill-rule="evenodd" clip-rule="evenodd" d="M266.03 101.349C263.768 101.975 261.904 107.482 262.197 110.675C250.486 112.457 230.364 114.728 223.609 112.968C220.601 112.185 219.269 108.841 219.829 104.075C220.245 100.531 225.594 96.365 233.613 96.2843C240.994 96.2097 259.226 100.058 266.03 101.349Z" fill="#DEE3F0"/>
<path fill-rule="evenodd" clip-rule="evenodd" d="M310.655 90.489C308.516 97.497 280.314 142.36 267.339 137.36C261.979 135.295 264.952 128.477 267.541 123.197C271.025 116.096 287.945 86.5713 292.713 80.1877C302.887 66.5629 314.597 77.574 310.655 90.489Z" fill="#E7EAF4"/>
<path fill-rule="evenodd" clip-rule="evenodd" d="M248.3 96.8609C245.46 92.6711 242.936 90.0152 240.787 90.3184C237.707 91.3446 235.114 93.469 233.502 96.2854L233.613 96.2841C237.671 96.4192 241.714 96.8505 245.708 97.5744C246.54 97.2317 247.41 96.9921 248.3 96.8609Z" fill="#E7A376"/>
<path fill-rule="evenodd" clip-rule="evenodd" d="M227.423 89.8955C225.35 91.4427 223.792 93.5794 222.953 96.0261C226.18 95.8489 229.416 95.9113 232.635 96.2128C233.42 96.2965 234.21 96.3327 235 96.3212L244.385 94.0311L246.196 94.2528C244.762 92.1717 242.935 90.391 240.817 89.0109C238.099 87.5914 234.309 88.7444 227.423 89.8955Z" fill="#E7A376"/>
<path fill-rule="evenodd" clip-rule="evenodd" d="M283.719 43.375C282.628 49.7045 283.134 56.2057 285.191 62.2906C279.88 67.2037 270.434 65.1158 268.239 60.6625C268.704 57.7828 269.243 55.1377 269.555 52.1794L283.719 43.375Z" fill="#E7A376"/>
<path fill-rule="evenodd" clip-rule="evenodd" d="M261.779 15.9424C258.922 20.167 257.697 25.2847 258.332 30.3441C258.5 31.5147 258.329 32.7089 257.838 33.7851C255.361 39.3703 255.584 41.1027 256.811 45.5788C258.003 49.9311 257.922 52.2068 259.409 53.7005C261.016 55.0418 263.055 55.756 265.149 55.7111C269.114 55.9605 275.919 53.3479 279.875 51.1857C282.808 49.5831 282.696 48.4861 283.934 45.7088C288.073 42.1103 285.392 39.4833 284.005 39.2148C280.026 38.4432 279.384 43.023 277.026 44.0354C277.418 35.9881 262.073 22.4044 261.779 15.9424Z" fill="#F0B186"/>
<path fill-rule="evenodd" clip-rule="evenodd" d="M261.779 15.9424C264.006 25.8245 276.919 33.3034 277.026 44.0354C273.494 32.8822 260.969 25.2477 261.779 15.9424Z" fill="#E7A376"/>
<path fill-rule="evenodd" clip-rule="evenodd" d="M261.251 33.4406C260.885 32.6958 260.414 32.0078 259.851 31.3976C258.697 30.5624 257.682 29.5498 256.845 28.3975C257.308 29.7273 258.105 30.9161 259.159 31.8501C259.786 32.4674 260.489 33.0019 261.251 33.4406Z" fill="#401C28"/>
<path fill-rule="evenodd" clip-rule="evenodd" d="M265.849 36.2744C266.855 36.3497 267.827 36.6665 268.684 37.1978C269.568 37.9963 270.546 38.686 271.595 39.2519C270.384 38.9585 269.224 38.4848 268.154 37.8468C267.308 37.4256 266.776 36.6178 265.849 36.2744Z" fill="#401C28"/>
<path fill-rule="evenodd" clip-rule="evenodd" d="M259.722 46.1344C260.395 46.3759 261.031 46.7103 261.612 47.1278C262.963 47.9828 264.507 48.4857 266.103 48.5905C263.239 49.1044 261.128 49.1745 259.443 47.8778C259.202 47.6924 258.772 45.8495 259.722 46.1344Z" fill="#EC8780"/>
<path fill-rule="evenodd" clip-rule="evenodd" d="M262.016 35.2275C259.71 39.5687 256.292 39.6638 259.997 42.794C254.881 40.1769 259.299 39.1716 262.016 35.2275Z" fill="#E7A376"/>
<path fill-rule="evenodd" clip-rule="evenodd" d="M259.595 31.332C259.266 31.332 259 31.7079 259 32.1699C259 32.6311 259.266 33.0065 259.595 33.0065C259.922 33.0065 260.188 32.6311 260.188 32.1699C260.188 31.7079 259.922 31.332 259.595 31.332Z" fill="#401C28"/>
<path fill-rule="evenodd" clip-rule="evenodd" d="M268.323 37.0889C267.968 37.0889 267.72 37.3971 267.72 37.8967C267.72 38.3949 268.008 38.7983 268.362 38.7983C268.717 38.7983 269.003 38.3949 269.003 37.8967C269.014 37.7986 269.004 37.6995 268.975 37.6053C268.946 37.5111 268.898 37.4236 268.835 37.3482C268.771 37.2728 268.693 37.211 268.605 37.1664C268.517 37.1219 268.421 37.0955 268.323 37.0889Z" fill="#401C28"/>
</g>
<defs>
<linearGradient id="paint0_linear_818_17968" x1="195.855" y1="580.289" x2="382.185" y2="580.289" gradientUnits="userSpaceOnUse">
<stop stop-color="#5761D7"/>
<stop offset="0.07258" stop-color="#5472D8"/>
<stop offset="0.27907" stop-color="#4E9CDB"/>
<stop offset="0.4801" stop-color="#49BDDD"/>
<stop offset="0.67151" stop-color="#45D5DF"/>
<stop offset="0.84927" stop-color="#43E3E0"/>
<stop offset="1" stop-color="#42E8E0"/>
</linearGradient>
<linearGradient id="paint1_linear_818_17968" x1="195.855" y1="565.957" x2="382.185" y2="565.957" gradientUnits="userSpaceOnUse">
<stop stop-color="#5761D7"/>
<stop offset="0.07258" stop-color="#5472D8"/>
<stop offset="0.27907" stop-color="#4E9CDB"/>
<stop offset="0.4801" stop-color="#49BDDD"/>
<stop offset="0.67151" stop-color="#45D5DF"/>
<stop offset="0.84927" stop-color="#43E3E0"/>
<stop offset="1" stop-color="#42E8E0"/>
</linearGradient>
<linearGradient id="paint2_linear_818_17968" x1="195.855" y1="551.625" x2="382.185" y2="551.625" gradientUnits="userSpaceOnUse">
<stop stop-color="#5761D7"/>
<stop offset="0.07258" stop-color="#5472D8"/>
<stop offset="0.27907" stop-color="#4E9CDB"/>
<stop offset="0.4801" stop-color="#49BDDD"/>
<stop offset="0.67151" stop-color="#45D5DF"/>
<stop offset="0.84927" stop-color="#43E3E0"/>
<stop offset="1" stop-color="#42E8E0"/>
</linearGradient>
<linearGradient id="paint3_linear_818_17968" x1="195.855" y1="537.29" x2="382.185" y2="537.29" gradientUnits="userSpaceOnUse">
<stop stop-color="#5761D7"/>
<stop offset="0.07258" stop-color="#5472D8"/>
<stop offset="0.27907" stop-color="#4E9CDB"/>
<stop offset="0.4801" stop-color="#49BDDD"/>
<stop offset="0.67151" stop-color="#45D5DF"/>
<stop offset="0.84927" stop-color="#43E3E0"/>
<stop offset="1" stop-color="#42E8E0"/>
</linearGradient>
<linearGradient id="paint4_linear_818_17968" x1="195.855" y1="558.791" x2="382.185" y2="558.791" gradientUnits="userSpaceOnUse">
<stop stop-color="#5761D7"/>
<stop offset="0.07258" stop-color="#5472D8"/>
<stop offset="0.27907" stop-color="#4E9CDB"/>
<stop offset="0.4801" stop-color="#49BDDD"/>
<stop offset="0.67151" stop-color="#45D5DF"/>
<stop offset="0.84927" stop-color="#43E3E0"/>
<stop offset="1" stop-color="#42E8E0"/>
</linearGradient>
<linearGradient id="paint5_linear_818_17968" x1="176.716" y1="498.038" x2="401.326" y2="498.038" gradientUnits="userSpaceOnUse">
<stop stop-color="#5761D7"/>
<stop offset="0.07258" stop-color="#5472D8"/>
<stop offset="0.27907" stop-color="#4E9CDB"/>
<stop offset="0.4801" stop-color="#49BDDD"/>
<stop offset="0.67151" stop-color="#45D5DF"/>
<stop offset="0.84927" stop-color="#43E3E0"/>
<stop offset="1" stop-color="#42E8E0"/>
</linearGradient>
<linearGradient id="paint6_linear_818_17968" x1="176.716" y1="480.759" x2="401.326" y2="480.759" gradientUnits="userSpaceOnUse">
<stop stop-color="#5761D7"/>
<stop offset="0.07258" stop-color="#5472D8"/>
<stop offset="0.27907" stop-color="#4E9CDB"/>
<stop offset="0.4801" stop-color="#49BDDD"/>
<stop offset="0.67151" stop-color="#45D5DF"/>
<stop offset="0.84927" stop-color="#43E3E0"/>
<stop offset="1" stop-color="#42E8E0"/>
</linearGradient>
<linearGradient id="paint7_linear_818_17968" x1="176.715" y1="463.48" x2="401.325" y2="463.48" gradientUnits="userSpaceOnUse">
<stop stop-color="#5761D7"/>
<stop offset="0.07258" stop-color="#5472D8"/>
<stop offset="0.27907" stop-color="#4E9CDB"/>
<stop offset="0.4801" stop-color="#49BDDD"/>
<stop offset="0.67151" stop-color="#45D5DF"/>
<stop offset="0.84927" stop-color="#43E3E0"/>
<stop offset="1" stop-color="#42E8E0"/>
</linearGradient>
<linearGradient id="paint8_linear_818_17968" x1="176.716" y1="446.201" x2="401.326" y2="446.201" gradientUnits="userSpaceOnUse">
<stop stop-color="#5761D7"/>
<stop offset="0.07258" stop-color="#5472D8"/>
<stop offset="0.27907" stop-color="#4E9CDB"/>
<stop offset="0.4801" stop-color="#49BDDD"/>
<stop offset="0.67151" stop-color="#45D5DF"/>
<stop offset="0.84927" stop-color="#43E3E0"/>
<stop offset="1" stop-color="#42E8E0"/>
</linearGradient>
<linearGradient id="paint9_linear_818_17968" x1="176.716" y1="472.119" x2="401.326" y2="472.119" gradientUnits="userSpaceOnUse">
<stop stop-color="#5761D7"/>
<stop offset="0.07258" stop-color="#5472D8"/>
<stop offset="0.27907" stop-color="#4E9CDB"/>
<stop offset="0.4801" stop-color="#49BDDD"/>
<stop offset="0.67151" stop-color="#45D5DF"/>
<stop offset="0.84927" stop-color="#43E3E0"/>
<stop offset="1" stop-color="#42E8E0"/>
</linearGradient>
<linearGradient id="paint10_linear_818_17968" x1="152.845" y1="416.877" x2="425.197" y2="416.877" gradientUnits="userSpaceOnUse">
<stop stop-color="#5761D7"/>
<stop offset="0.07258" stop-color="#5472D8"/>
<stop offset="0.27907" stop-color="#4E9CDB"/>
<stop offset="0.4801" stop-color="#49BDDD"/>
<stop offset="0.67151" stop-color="#45D5DF"/>
<stop offset="0.84927" stop-color="#43E3E0"/>
<stop offset="1" stop-color="#42E8E0"/>
</linearGradient>
<linearGradient id="paint11_linear_818_17968" x1="152.844" y1="395.922" x2="425.196" y2="395.922" gradientUnits="userSpaceOnUse">
<stop stop-color="#5761D7"/>
<stop offset="0.07258" stop-color="#5472D8"/>
<stop offset="0.27907" stop-color="#4E9CDB"/>
<stop offset="0.4801" stop-color="#49BDDD"/>
<stop offset="0.67151" stop-color="#45D5DF"/>
<stop offset="0.84927" stop-color="#43E3E0"/>
<stop offset="1" stop-color="#42E8E0"/>
</linearGradient>
<linearGradient id="paint12_linear_818_17968" x1="152.845" y1="374.974" x2="425.197" y2="374.974" gradientUnits="userSpaceOnUse">
<stop stop-color="#5761D7"/>
<stop offset="0.07258" stop-color="#5472D8"/>
<stop offset="0.27907" stop-color="#4E9CDB"/>
<stop offset="0.4801" stop-color="#49BDDD"/>
<stop offset="0.67151" stop-color="#45D5DF"/>
<stop offset="0.84927" stop-color="#43E3E0"/>
<stop offset="1" stop-color="#42E8E0"/>
</linearGradient>
<linearGradient id="paint13_linear_818_17968" x1="152.845" y1="354.024" x2="425.197" y2="354.024" gradientUnits="userSpaceOnUse">
<stop stop-color="#5761D7"/>
<stop offset="0.07258" stop-color="#5472D8"/>
<stop offset="0.27907" stop-color="#4E9CDB"/>
<stop offset="0.4801" stop-color="#49BDDD"/>
<stop offset="0.67151" stop-color="#45D5DF"/>
<stop offset="0.84927" stop-color="#43E3E0"/>
<stop offset="1" stop-color="#42E8E0"/>
</linearGradient>
<linearGradient id="paint14_linear_818_17968" x1="152.844" y1="385.447" x2="425.196" y2="385.447" gradientUnits="userSpaceOnUse">
<stop stop-color="#5761D7"/>
<stop offset="0.07258" stop-color="#5472D8"/>
<stop offset="0.27907" stop-color="#4E9CDB"/>
<stop offset="0.4801" stop-color="#49BDDD"/>
<stop offset="0.67151" stop-color="#45D5DF"/>
<stop offset="0.84927" stop-color="#43E3E0"/>
<stop offset="1" stop-color="#42E8E0"/>
</linearGradient>
<linearGradient id="paint15_linear_818_17968" x1="152.845" y1="354.024" x2="425.197" y2="354.024" gradientUnits="userSpaceOnUse">
<stop stop-color="#5761D7"/>
<stop offset="0.07258" stop-color="#5472D8"/>
<stop offset="0.27907" stop-color="#4E9CDB"/>
<stop offset="0.4801" stop-color="#49BDDD"/>
<stop offset="0.67151" stop-color="#45D5DF"/>
<stop offset="0.84927" stop-color="#43E3E0"/>
<stop offset="1" stop-color="#42E8E0"/>
</linearGradient>
<linearGradient id="paint16_linear_818_17968" x1="152.846" y1="391.784" x2="425.195" y2="391.784" gradientUnits="userSpaceOnUse">
<stop stop-color="#5761D7"/>
<stop offset="0.07258" stop-color="#5472D8"/>
<stop offset="0.27907" stop-color="#4E9CDB"/>
<stop offset="0.4801" stop-color="#49BDDD"/>
<stop offset="0.67151" stop-color="#45D5DF"/>
<stop offset="0.84927" stop-color="#43E3E0"/>
<stop offset="1" stop-color="#42E8E0"/>
</linearGradient>
<radialGradient id="paint17_radial_818_17968" cx="0" cy="0" r="1" gradientUnits="userSpaceOnUse" gradientTransform="translate(310.443 539.979) rotate(30.0007) scale(87.9275 76.1486)">
<stop stop-color="#42E8E0"/>
<stop offset="0.05657" stop-color="#3DD0D1"/>
<stop offset="0.18857" stop-color="#349DB2"/>
<stop offset="0.32305" stop-color="#2B7197"/>
<stop offset="0.45759" stop-color="#244D82"/>
<stop offset="0.59233" stop-color="#1F3171"/>
<stop offset="0.72732" stop-color="#1B1D65"/>
<stop offset="0.86289" stop-color="#19115D"/>
<stop offset="1" stop-color="#180D5B"/>
</radialGradient>
<clipPath id="clip0_818_17968">
<rect width="140.296" height="388.92" fill="white" transform="translate(213.107)"/>
</clipPath>
</defs>
</svg>
