<svg width="26" height="26" viewBox="0 0 26 26" fill="none" xmlns="http://www.w3.org/2000/svg">
<path d="M2 14.2131V11.7862C2 11.5036 2.22918 11.2744 2.5118 11.2744H4.19931C4.43549 11.2744 4.63835 11.1122 4.6965 10.8833C4.90106 10.0788 5.2197 9.31979 5.63383 8.62425C5.75432 8.422 5.7246 8.16449 5.55817 7.99797L4.36374 6.80344C4.16388 6.60358 4.16388 6.27953 4.36374 6.07967L6.07977 4.36354C6.27963 4.16368 6.60368 4.16368 6.80364 4.36354L7.99806 5.55797C8.16459 5.7245 8.42199 5.75412 8.62435 5.63363C9.31979 5.2195 10.0788 4.90086 10.8834 4.6963C11.1123 4.63815 11.2745 4.43519 11.2745 4.19911V2.5118C11.2745 2.22918 11.5037 2 11.7863 2H14.2132C14.4958 2 14.725 2.22918 14.725 2.5118V4.19931C14.725 4.43549 14.8872 4.63835 15.1161 4.6965C15.9206 4.90106 16.6796 5.2197 17.3752 5.63383C17.5774 5.75432 17.8349 5.7246 18.0014 5.55817L19.1959 4.36374C19.3957 4.16388 19.7198 4.16388 19.9197 4.36374L21.6356 6.07977C21.8354 6.27963 21.8354 6.60368 21.6356 6.80354L20.4411 7.99797C20.2747 8.16449 20.245 8.4219 20.3655 8.62425C20.7796 9.31969 21.0983 10.0787 21.3028 10.8833C21.361 11.1122 21.5639 11.2744 21.8 11.2744H23.4875C23.7701 11.2744 23.9993 11.5036 23.9993 11.7862V14.2131C23.9993 14.4957 23.7701 14.7249 23.4875 14.7249H21.8C21.5638 14.7249 21.361 14.8871 21.3028 15.116C21.0983 15.9205 20.7796 16.6795 20.3655 17.3751C20.245 17.5773 20.2747 17.8348 20.4411 18.0013L21.6356 19.1958C21.8354 19.3956 21.8354 19.7197 21.6356 19.9195L19.9195 21.6357C19.7197 21.8355 19.3956 21.8355 19.1957 21.6357L18.0012 20.4412C17.8347 20.2747 17.5773 20.2451 17.375 20.3656C16.6794 20.7797 15.9205 21.0984 15.1159 21.3029C14.887 21.3611 14.7248 21.564 14.7248 21.8001V23.4876C14.7248 23.7702 14.4956 23.9994 14.213 23.9994H11.7861C11.5035 23.9994 11.2743 23.7702 11.2743 23.4876V21.8C11.2743 21.5639 11.1121 21.361 10.8832 21.3028C10.0787 21.0983 9.31969 20.7796 8.62415 20.3655C8.4219 20.245 8.1644 20.2747 7.99787 20.4411L6.80344 21.6356C6.60358 21.8354 6.27953 21.8354 6.07957 21.6356L4.36354 19.9194C4.16368 19.7196 4.16368 19.3955 4.36354 19.1957L5.55797 18.0011C5.7245 17.8347 5.75412 17.5772 5.63363 17.3749C5.21951 16.6794 4.90086 15.9204 4.6963 15.1158C4.63815 14.8869 4.43519 14.7247 4.19911 14.7247H2.5116C2.22908 14.7249 2 14.4957 2 14.2131Z" fill="#FDC010"/>
<path d="M15.922 4.94509C15.8815 5.11823 15.6189 5.58149 15.517 5.70748C15.3604 5.90114 15.0996 5.97669 14.861 5.90524C13.956 5.63433 13.8231 5.48051 13.4205 5.29206C13.2223 5.19929 13.0879 5.00894 13.0879 4.78997V2H14.2136C14.497 2 14.7253 2.22938 14.7253 2.5117V4.19981C14.7253 4.43529 14.8884 4.63915 15.1167 4.6973C15.3909 4.76675 15.66 4.84932 15.922 4.94509Z" fill="#D59800"/>
<path d="M16.7956 20.6804C16.3973 20.8555 15.6718 21.1477 15.2064 21.2788C15.1764 21.2878 15.1463 21.2948 15.1163 21.3029C14.9872 21.3359 14.8801 21.4139 14.8101 21.519C14.7871 21.553 14.768 21.5911 14.754 21.6311C14.744 21.6571 14.737 21.6852 14.732 21.7132C14.727 21.7412 14.725 21.7712 14.725 21.8002V23.4876C14.725 23.7648 14.5048 23.9909 14.2306 23.999H12.8315C12.9406 23.9029 13.0087 23.7608 13.0087 23.6036V21.0657C13.0087 20.8195 13.1788 20.6073 13.417 20.5473C14.2587 20.3331 15.0473 20.0819 15.7738 19.6506C15.985 19.5235 16.2542 19.5555 16.4283 19.7286L16.7956 20.6804Z" fill="#D59800"/>
<path d="M20.4423 7.9961C20.2762 8.16333 20.2455 8.42013 20.3668 8.62299C20.7736 9.30602 21.0875 10.0512 21.2925 10.8412H19.9856C19.7389 10.8412 19.5269 10.672 19.4657 10.4335C19.2517 9.59254 18.9193 8.79943 18.4861 8.07256C18.3607 7.8616 18.3913 7.59239 18.5656 7.41815L19.4068 6.577C19.6158 6.36804 19.6158 6.02957 19.4068 5.82061L18.5719 4.98676L19.1966 4.36197C19.3965 4.16222 19.7206 4.16222 19.9204 4.36197L21.637 6.07861C21.8369 6.27837 21.8369 6.60152 21.637 6.80237L20.4423 7.9961Z" fill="#D59800"/>
<path d="M24.0003 11.7862V14.2134C24.0003 14.4958 23.7719 14.7251 23.4886 14.7251H21.8014C21.565 14.7251 21.3621 14.8872 21.304 15.1165C21.0991 15.9208 20.781 16.6802 20.3671 17.3755C20.2458 17.5773 20.2764 17.8352 20.4426 18.0013L21.6373 19.1961C21.8372 19.3958 21.8372 19.7201 21.6373 19.9198L19.9207 21.6355C19.7209 21.8353 19.3967 21.8353 19.1969 21.6355L18.41 20.8488L19.4258 19.8733C19.6348 19.6643 19.6348 19.3259 19.4258 19.1169L18.3625 18.0842C18.1881 17.9099 18.1576 17.6408 18.2829 17.4298C18.7161 16.7029 19.6245 14.5891 19.8387 13.7491C19.8999 13.5096 20.1119 13.3403 20.3586 13.3403H21.6952C21.9908 13.3403 22.2736 13.1007 22.2736 12.8051V11.2744H23.4888C23.7719 11.2744 24.0003 11.5038 24.0003 11.7862Z" fill="#D59800"/>
<path d="M13.0003 18.0691C15.799 18.0691 18.0679 15.8003 18.0679 13.0015C18.0679 10.2027 15.799 7.93384 13.0003 7.93384C10.2015 7.93384 7.93262 10.2027 7.93262 13.0015C7.93262 15.8003 10.2015 18.0691 13.0003 18.0691Z" fill="#0A8A7B"/>
<path d="M18.0689 13.0005C18.0689 15.7996 15.8001 18.0684 13.0009 18.0684C11.804 18.0684 10.7031 17.6531 9.83545 16.9585C10.3268 17.1167 10.8502 17.2027 11.3937 17.2027C14.1918 17.2027 16.4606 14.934 16.4606 12.1348C16.4606 10.5345 15.719 9.10743 14.5611 8.17871C16.5967 8.83622 18.0689 10.7467 18.0689 13.0005Z" fill="#0A8A7B"/>
<path d="M13.0004 15.274C14.2573 15.274 15.2761 14.2551 15.2761 12.9982C15.2761 11.7413 14.2573 10.7224 13.0004 10.7224C11.7435 10.7224 10.7246 11.7413 10.7246 12.9982C10.7246 14.2551 11.7435 15.274 13.0004 15.274Z" fill="#D9E7EC"/>
<path d="M15.2753 12.9986C15.2753 14.2556 14.2565 15.2754 12.9996 15.2754C12.0889 15.2754 11.3022 14.74 10.939 13.9664C11.1691 14.0455 11.4173 14.0885 11.6745 14.0885C12.9315 14.0885 13.9513 13.0697 13.9513 11.8127C13.9513 11.4665 13.8742 11.1382 13.7351 10.845C14.6308 11.1502 15.2753 11.9999 15.2753 12.9986Z" fill="#C5D3DD"/>
</svg>
