<svg width="25" height="26" viewBox="0 0 25 26" fill="none" xmlns="http://www.w3.org/2000/svg">
<path d="M12.6474 7.13517C12.0285 7.13517 11.5269 6.63355 11.5269 6.01458V4.12059C11.5269 3.50162 12.0286 3 12.6474 3C13.2663 3 13.7682 3.50162 13.7682 4.12059V6.01444C13.7682 6.63355 13.2664 7.13517 12.6474 7.13517Z" fill="#6851A2"/>
<path d="M12.6742 22.4991C11.3472 22.4991 10.2715 21.4235 10.2715 20.0965V17.6221H15.0769V20.0965C15.0769 21.4235 14.0012 22.4991 12.6742 22.4991Z" fill="#6851A2"/>
<path d="M18.0233 15.0659V9.80981C18.0233 7.51755 16.165 5.65918 13.8726 5.65918H11.4187C9.12644 5.65918 7.26807 7.5174 7.26807 9.80981V15.0659C7.26807 15.7228 7.09095 16.3674 6.75541 16.9322L6.06975 18.086C5.87496 18.4139 6.11126 18.8291 6.4926 18.8291H18.7984C19.1798 18.8291 19.4161 18.4139 19.2213 18.086L18.5356 16.9322C18.2004 16.3675 18.0233 15.7228 18.0233 15.0659Z" fill="#FDC010"/>
<path d="M8.23558 18.1068L8.92109 16.9529C9.25663 16.3883 9.43375 15.7434 9.43375 15.0866V9.83056C9.43375 7.5383 11.2921 5.67993 13.5844 5.67993H11.4207C9.12824 5.67993 7.27002 7.5383 7.27002 9.83056V15.0866C7.27002 15.7434 7.0929 16.3883 6.75736 16.9529L6.0717 18.1068C5.87691 18.4347 6.11322 18.8499 6.49455 18.8499H8.65813C8.27695 18.8499 8.04064 18.4347 8.23558 18.1068Z" fill="#EFA00E"/>
</svg>
