<svg width="40" height="40" viewBox="0 0 40 40" fill="none" xmlns="http://www.w3.org/2000/svg">
<circle cx="20" cy="20" r="20" fill="#F8F8F8"/>
<path d="M27.624 13.0053C26.2218 12.3619 24.7181 11.8879 23.1459 11.6164C23.1173 11.6111 23.0887 11.6242 23.074 11.6504C22.8806 11.9944 22.6664 12.443 22.5164 12.7957C20.8254 12.5426 19.1431 12.5426 17.4868 12.7957C17.3368 12.4352 17.1148 11.9944 16.9205 11.6504C16.9058 11.6251 16.8772 11.612 16.8486 11.6164C15.2773 11.887 13.7736 12.361 12.3705 13.0053C12.3584 13.0105 12.348 13.0193 12.3411 13.0306C9.48897 17.2916 8.70763 21.4479 9.09091 25.5526C9.09263 25.5727 9.10393 25.5919 9.11953 25.6041C11.0013 26.986 12.8241 27.8249 14.613 28.381C14.6416 28.3897 14.672 28.3793 14.6902 28.3557C15.1133 27.7778 15.4905 27.1685 15.814 26.5277C15.8331 26.4902 15.8148 26.4457 15.7758 26.4308C15.1775 26.2038 14.6078 25.9271 14.0597 25.6128C14.0163 25.5875 14.0129 25.5255 14.0528 25.4958C14.1681 25.4094 14.2835 25.3195 14.3936 25.2287C14.4135 25.2121 14.4413 25.2086 14.4647 25.2191C18.0651 26.8629 21.9631 26.8629 25.521 25.2191C25.5444 25.2077 25.5722 25.2113 25.593 25.2278C25.7031 25.3186 25.8185 25.4094 25.9347 25.4958C25.9745 25.5255 25.9719 25.5875 25.9286 25.6128C25.3805 25.9332 24.8108 26.2038 24.2116 26.4299C24.1726 26.4447 24.1552 26.4901 24.1744 26.5276C24.5047 27.1675 24.882 27.7769 25.2973 28.3548C25.3147 28.3793 25.3459 28.3897 25.3745 28.381C27.1721 27.8249 28.9949 26.986 30.8766 25.604C30.8931 25.5918 30.9035 25.5735 30.9052 25.5534C31.364 20.8079 30.1369 16.6857 27.6525 13.0314C27.6465 13.0193 27.6361 13.0105 27.624 13.0053ZM16.3517 23.0532C15.2678 23.0532 14.3746 22.0581 14.3746 20.8359C14.3746 19.6137 15.2504 18.6185 16.3517 18.6185C17.4617 18.6185 18.3462 19.6224 18.3288 20.8359C18.3288 22.0581 17.453 23.0532 16.3517 23.0532ZM23.6619 23.0532C22.5779 23.0532 21.6848 22.0581 21.6848 20.8359C21.6848 19.6137 22.5606 18.6185 23.6619 18.6185C24.7718 18.6185 25.6564 19.6224 25.639 20.8359C25.639 22.0581 24.7719 23.0532 23.6619 23.0532Z" fill="#5E569B"/>
</svg>
