<svg width="40" height="40" viewBox="0 0 40 40" fill="none" xmlns="http://www.w3.org/2000/svg">
<circle cx="20" cy="20" r="20" fill="#F8F8F8"/>
<path d="M12.2739 9.2334C10.7738 9.2334 9.79297 10.2184 9.79297 11.5129C9.79297 12.779 10.7446 13.792 12.2164 13.792H12.2448C13.7743 13.792 14.7262 12.779 14.7262 11.5129C14.6976 10.2184 13.7743 9.2334 12.2739 9.2334Z" fill="#5E569B"/>
<path d="M10.0527 15.5887H14.4383V28.7814H10.0527V15.5887Z" fill="#5E569B"/>
<path d="M25.2032 15.282C22.8373 15.282 21.2509 17.5049 21.2509 17.5049V15.5916H16.8652V28.7843H21.2507V21.417C21.2507 21.0226 21.2793 20.6288 21.3951 20.3468C21.7122 19.5592 22.4336 18.7433 23.6452 18.7433C25.2321 18.7433 25.8668 19.9531 25.8668 21.7266V28.7843H30.252V21.2199C30.252 17.1677 28.0883 15.282 25.2032 15.282Z" fill="#5E569B"/>
</svg>
