<svg width="40" height="40" viewBox="0 0 40 40" fill="none" xmlns="http://www.w3.org/2000/svg">
<circle cx="20" cy="20" r="20" fill="#F8F8F8"/>
<g clip-path="url(#clip0_11721_447)">
<path d="M20 9C17.8129 9.0029 15.7161 9.87303 14.1696 11.4196C12.623 12.9661 11.7529 15.0629 11.75 17.25C11.75 23.1728 19.4362 30.5909 19.7628 30.9038C19.8263 30.9655 19.9114 31 20 31C20.0886 31 20.1737 30.9655 20.2372 30.9038C20.5637 30.5909 28.25 23.1728 28.25 17.25C28.2471 15.0629 27.377 12.9661 25.8304 11.4196C24.2839 9.87303 22.1871 9.0029 20 9ZM20 21.0312C19.2521 21.0312 18.5211 20.8095 17.8993 20.394C17.2774 19.9785 16.7928 19.388 16.5066 18.697C16.2204 18.0061 16.1455 17.2458 16.2914 16.5123C16.4373 15.7788 16.7974 15.1051 17.3263 14.5763C17.8551 14.0474 18.5288 13.6873 19.2623 13.5414C19.9958 13.3955 20.7561 13.4704 21.447 13.7566C22.138 14.0428 22.7285 14.5274 23.144 15.1493C23.5595 15.7711 23.7812 16.5021 23.7812 17.25C23.7806 18.2527 23.3821 19.2141 22.6731 19.9231C21.9641 20.6321 21.0027 21.0306 20 21.0312Z" fill="#5E569B"/>
</g>
<defs>
<clipPath id="clip0_11721_447">
<rect width="22" height="22" fill="white" transform="translate(9 9)"/>
</clipPath>
</defs>
</svg>
