<svg width="40" height="40" viewBox="0 0 40 40" fill="none" xmlns="http://www.w3.org/2000/svg">
<circle cx="20" cy="20" r="20" fill="#F8F8F8"/>
<path fill-rule="evenodd" clip-rule="evenodd" d="M11.6996 13.2269L17.6431 19.173C18.9393 20.4667 21.0583 20.4679 22.3557 19.173L28.2991 13.2269C28.359 13.1671 28.3502 13.0685 28.2808 13.0201C27.6746 12.5973 26.937 12.3467 26.1425 12.3467H13.8562C13.0617 12.3467 12.3241 12.5974 11.7179 13.0201C11.6485 13.0685 11.6398 13.1671 11.6996 13.2269ZM10.1113 16.0915C10.1113 15.4668 10.2662 14.8765 10.5391 14.3576C10.5818 14.2764 10.6899 14.26 10.7547 14.3249L16.6229 20.1931C18.4812 22.0541 21.5164 22.0551 23.3758 20.1931L29.244 14.3249C29.3089 14.26 29.417 14.2764 29.4597 14.3576C29.7325 14.8765 29.8874 15.4668 29.8874 16.0915V23.9091C29.8874 25.9756 28.2065 27.654 26.1425 27.654H13.8562C11.7924 27.654 10.1113 25.9756 10.1113 23.9091V16.0915Z" fill="#5E569B"/>
</svg>
