<svg width="1300" height="687" viewBox="0 0 1300 687" fill="none" xmlns="http://www.w3.org/2000/svg">
<rect y="367" width="1300" height="110" rx="16" fill="#E1EBF6"/>
<path d="M62 452.625C78.9137 452.625 92.625 438.914 92.625 422C92.625 405.086 78.9137 391.375 62 391.375C45.0863 391.375 31.375 405.086 31.375 422C31.375 438.914 45.0863 452.625 62 452.625Z" fill="white"/>
<path d="M65.3281 437.479H51.8281V443.25H65.3281V437.479Z" fill="#C5D3DD"/>
<path d="M54.3084 437.479H51.8281V443.25H54.3084V437.479Z" fill="#B6C4CF"/>
<path d="M71.641 446.25C71.641 446.594 71.3597 446.875 71.016 446.875H46.1406C45.7969 446.875 45.5156 446.594 45.5156 446.25V443.75C45.5156 443.406 45.7969 443.125 46.1406 443.125H71.016C71.3597 443.125 71.641 443.406 71.641 443.75V446.25Z" fill="#B6C4CF"/>
<path d="M47.9959 446.25V443.75C47.9959 443.406 48.2771 443.125 48.6209 443.125H46.1406C45.7969 443.125 45.5156 443.406 45.5156 443.75V446.25C45.5156 446.594 45.7969 446.875 46.1406 446.875H48.6209C48.2771 446.875 47.9959 446.594 47.9959 446.25Z" fill="#87939C"/>
<path d="M30 436.354C30 437.042 30.5625 437.604 31.25 437.604H87.152V429.235H30V436.354Z" fill="#D9E7EC"/>
<path d="M32.4802 436.354V429.235H30V436.354C30 437.042 30.5625 437.604 31.25 437.604H33.7302C33.0427 437.604 32.4802 437.042 32.4802 436.354Z" fill="#C5D3DD"/>
<path d="M68.7719 425.874C68.7719 425.598 68.9961 425.374 69.2719 425.374H87.1581V398.309C87.1581 397.553 86.5399 396.935 85.7842 396.935H31.374C30.6182 396.935 30 397.553 30 398.309V429.361H68.7719V425.874Z" fill="#445EA0"/>
<path d="M69.2719 425.374C68.9961 425.374 68.7719 425.598 68.7719 425.874V429.361H87.1581V425.374H69.2719Z" fill="#445EA0"/>
<path d="M68.7739 425.873C68.7739 425.597 68.9981 425.373 69.2739 425.373H84.4123V400.307C84.4123 399.963 84.131 399.682 83.7873 399.682H33.375C33.0313 399.682 32.75 399.963 32.75 400.307V425.987C32.75 426.331 33.0313 426.612 33.375 426.612H68.7738L68.7739 425.873Z" fill="#EEF6FF"/>
<path d="M69.2739 425.373C68.9981 425.373 68.7739 425.597 68.7739 425.873L68.7738 426.612H83.5163C84.0111 426.612 84.4123 426.211 84.4123 425.716V425.373H69.2739Z" fill="#EEF6FF"/>
<path d="M55.7474 414.493L53.7975 415.472H36.2059C35.8289 415.472 35.5234 415.165 35.5234 414.786V403.997C35.5234 403.618 35.829 403.312 36.2059 403.312H53.7975L55.7474 404.29V414.493Z" fill="#95ECE3"/>
<path d="M53.8281 403.312V415.472H56.0852C56.4646 415.472 56.7721 415.165 56.7721 414.786V403.997C56.7721 403.618 56.4645 403.312 56.0852 403.312H53.8281Z" fill="#64CEC3"/>
<path d="M41.8259 412.422L39.2377 409.834C38.9937 409.59 38.9937 409.194 39.2377 408.95L41.8259 406.362C42.07 406.118 42.4656 406.118 42.7097 406.362C42.9537 406.606 42.9537 407.001 42.7097 407.246L40.5634 409.392L42.7097 411.538C42.9537 411.782 42.9463 412.171 42.7097 412.422C42.5372 412.605 42.056 412.675 41.8259 412.422Z" fill="#0A8A7B"/>
<path d="M44.5748 412.539C44.2731 412.372 44.141 412.009 44.2953 411.701L46.8835 406.524C47.0378 406.216 47.4132 406.09 47.7219 406.245C48.0307 406.399 48.1558 406.775 48.0014 407.083L45.4132 412.26C45.2594 412.587 44.8924 412.716 44.5748 412.539Z" fill="#0A8A7B"/>
<path d="M49.5894 412.422C49.345 412.178 49.3454 411.782 49.5894 411.538L51.7358 409.392L49.5895 407.246C49.3455 407.001 49.3455 406.606 49.5895 406.362C49.8336 406.118 50.2293 406.118 50.4733 406.362L53.0615 408.95C53.3055 409.194 53.3055 409.59 53.0615 409.834L50.4733 412.422C50.2431 412.618 49.7865 412.618 49.5894 412.422Z" fill="#0A8A7B"/>
<path d="M41.8304 419.247H36.4414C35.9237 419.247 35.5039 418.827 35.5039 418.31C35.5039 417.792 35.9237 417.372 36.4414 417.372H41.8304C42.3482 417.372 42.7679 417.792 42.7679 418.31C42.7679 418.827 42.3482 419.247 41.8304 419.247Z" fill="#C3DDF4"/>
<path d="M41.8304 422.097H36.4414C35.9237 422.097 35.5039 421.677 35.5039 421.159C35.5039 420.641 35.9237 420.222 36.4414 420.222H41.8304C42.3482 420.222 42.7679 420.641 42.7679 421.159C42.7679 421.677 42.3482 422.097 41.8304 422.097Z" fill="#C3DDF4"/>
<path d="M48.3317 419.247H44.3242C43.8065 419.247 43.3867 418.827 43.3867 418.31C43.3867 417.792 43.8065 417.372 44.3242 417.372H48.3317C48.8495 417.372 49.2692 417.792 49.2692 418.31C49.2692 418.827 48.8495 419.247 48.3317 419.247Z" fill="#C3DDF4"/>
<path d="M48.3317 422.097H44.3242C43.8065 422.097 43.3867 421.677 43.3867 421.159C43.3867 420.641 43.8065 420.222 44.3242 420.222H48.3317C48.8495 420.222 49.2692 420.641 49.2692 421.159C49.2692 421.677 48.8495 422.097 48.3317 422.097Z" fill="#C3DDF4"/>
<path d="M55.8936 419.247H50.7891C50.2713 419.247 49.8516 418.827 49.8516 418.31C49.8516 417.792 50.2713 417.372 50.7891 417.372H55.8936C56.4113 417.372 56.8311 417.792 56.8311 418.31C56.8311 418.827 56.4113 419.247 55.8936 419.247Z" fill="#C3DDF4"/>
<path d="M55.8936 422.097H50.7891C50.2713 422.097 49.8516 421.677 49.8516 421.159C49.8516 420.641 50.2713 420.222 50.7891 420.222H55.8936C56.4113 420.222 56.8311 420.641 56.8311 421.159C56.8311 421.677 56.4113 422.097 55.8936 422.097Z" fill="#C3DDF4"/>
<path d="M58.5787 435.265C59.5391 435.265 60.3176 434.486 60.3176 433.526C60.3176 432.566 59.5391 431.787 58.5787 431.787C57.6184 431.787 56.8398 432.566 56.8398 433.526C56.8398 434.486 57.6184 435.265 58.5787 435.265Z" fill="#445EA0"/>
<path d="M71.6917 417.839C66.8354 417.839 62.8984 416.625 62.8984 415.127V420.012C62.8984 421.51 66.8352 422.724 71.6917 422.724C76.548 422.724 80.485 421.51 80.485 420.012C80.485 420.001 80.485 416.244 80.485 415.127C80.485 416.625 76.5482 417.839 71.6917 417.839Z" fill="#6851A2"/>
<path d="M79.6247 416.297V419.153C79.6247 420.65 75.6879 421.864 70.8314 421.864C67.3967 421.864 64.4239 421.257 62.9766 420.372C63.5469 421.699 67.2296 422.724 71.6906 422.724C76.5469 422.724 80.4839 421.51 80.4839 420.012C80.4839 420.001 80.4839 416.244 80.4839 415.127C80.4839 415.546 80.1752 415.943 79.6247 416.297Z" fill="#40297A"/>
<path d="M65.5237 419.992C65.9553 419.992 66.3052 419.642 66.3052 419.21C66.3052 418.779 65.9553 418.429 65.5237 418.429C65.0921 418.429 64.7422 418.779 64.7422 419.21C64.7422 419.642 65.0921 419.992 65.5237 419.992Z" fill="white"/>
<path d="M68.43 420.755C68.8616 420.755 69.2115 420.406 69.2115 419.974C69.2115 419.542 68.8616 419.192 68.43 419.192C67.9983 419.192 67.6484 419.542 67.6484 419.974C67.6484 420.406 67.9983 420.755 68.43 420.755Z" fill="white"/>
<path d="M71.6917 412.953C66.8354 412.953 62.8984 411.739 62.8984 410.241V415.126C62.8984 416.624 66.8352 417.838 71.6917 417.838C76.548 417.838 80.485 416.624 80.485 415.126C80.485 415.116 80.485 411.581 80.485 410.241C80.485 411.739 76.5482 412.953 71.6917 412.953Z" fill="#6851A2"/>
<path d="M79.6247 411.411V414.267C79.6247 415.765 75.6879 416.979 70.8314 416.979C67.3967 416.979 64.4239 416.371 62.9766 415.486C63.5469 416.813 67.2296 417.838 71.6906 417.838C76.5469 417.838 80.4839 416.624 80.4839 415.126C80.4839 415.116 80.4839 411.581 80.4839 410.241C80.4839 410.66 80.1752 411.057 79.6247 411.411Z" fill="#40297A"/>
<path d="M65.5237 415.106C65.9553 415.106 66.3052 414.756 66.3052 414.324C66.3052 413.893 65.9553 413.543 65.5237 413.543C65.0921 413.543 64.7422 413.893 64.7422 414.324C64.7422 414.756 65.0921 415.106 65.5237 415.106Z" fill="white"/>
<path d="M68.43 415.87C68.8616 415.87 69.2115 415.52 69.2115 415.088C69.2115 414.657 68.8616 414.307 68.43 414.307C67.9983 414.307 67.6484 414.657 67.6484 415.088C67.6484 415.52 67.9983 415.87 68.43 415.87Z" fill="white"/>
<path d="M71.6917 408.096C66.8354 408.096 62.8984 406.881 62.8984 405.384V410.242C62.8984 411.739 66.8352 412.954 71.6917 412.954C76.548 412.954 80.485 411.739 80.485 410.242C80.485 410.228 80.485 405.384 80.485 405.384C80.485 406.881 76.5482 408.096 71.6917 408.096Z" fill="#6851A2"/>
<path d="M79.6247 406.554V409.382C79.6247 410.88 75.6879 412.094 70.8314 412.094C67.3967 412.094 64.4239 411.487 62.9766 410.601C63.5469 411.929 67.2296 412.954 71.6906 412.954C76.5469 412.954 80.4839 411.739 80.4839 410.242C80.4839 410.228 80.4839 405.384 80.4839 405.384C80.4839 405.803 80.1752 406.2 79.6247 406.554Z" fill="#40297A"/>
<path d="M65.5237 410.221C65.9553 410.221 66.3052 409.871 66.3052 409.44C66.3052 409.008 65.9553 408.658 65.5237 408.658C65.0921 408.658 64.7422 409.008 64.7422 409.44C64.7422 409.871 65.0921 410.221 65.5237 410.221Z" fill="white"/>
<path d="M68.43 410.985C68.8616 410.985 69.2115 410.635 69.2115 410.203C69.2115 409.772 68.8616 409.422 68.43 409.422C67.9983 409.422 67.6484 409.772 67.6484 410.203C67.6484 410.635 67.9983 410.985 68.43 410.985Z" fill="white"/>
<path d="M71.6917 408.095C76.5481 408.095 80.485 406.881 80.485 405.384C80.485 403.886 76.5481 402.672 71.6917 402.672C66.8353 402.672 62.8984 403.886 62.8984 405.384C62.8984 406.881 66.8353 408.095 71.6917 408.095Z" fill="#7169A9"/>
<path d="M79.5452 404.165C79.5958 404.283 79.6245 404.402 79.6245 404.524C79.6245 406.022 75.6877 407.236 70.8312 407.236C67.3964 407.236 64.4237 406.628 62.9766 405.743C63.5469 407.071 67.2296 408.095 71.6906 408.095C76.5469 408.095 80.4839 406.881 80.4839 405.384C80.4837 404.945 80.1443 404.532 79.5452 404.165Z" fill="#40297A"/>
<path d="M111.35 431V413.5H118.8C119.95 413.5 120.917 413.667 121.7 414C122.5 414.333 123.1 414.833 123.5 415.5C123.917 416.15 124.125 416.942 124.125 417.875C124.125 418.842 123.867 419.658 123.35 420.325C122.833 420.992 122.108 421.45 121.175 421.7L121.15 421.2C121.933 421.367 122.617 421.667 123.2 422.1C123.783 422.517 124.233 423.042 124.55 423.675C124.883 424.292 125.05 425 125.05 425.8C125.05 426.65 124.908 427.4 124.625 428.05C124.358 428.7 123.958 429.242 123.425 429.675C122.892 430.108 122.258 430.442 121.525 430.675C120.792 430.892 119.967 431 119.05 431H111.35ZM114.525 428.075H118.9C119.517 428.075 120.033 427.983 120.45 427.8C120.883 427.617 121.208 427.35 121.425 427C121.658 426.633 121.775 426.2 121.775 425.7C121.775 425.233 121.65 424.833 121.4 424.5C121.167 424.167 120.825 423.917 120.375 423.75C119.925 423.567 119.392 423.475 118.775 423.475H114.525V428.075ZM114.525 420.675H118.5C118.983 420.675 119.4 420.583 119.75 420.4C120.117 420.217 120.4 419.967 120.6 419.65C120.8 419.333 120.9 418.967 120.9 418.55C120.9 417.883 120.675 417.367 120.225 417C119.775 416.617 119.117 416.425 118.25 416.425H114.525V420.675ZM132.963 431.25C131.879 431.25 130.896 430.95 130.013 430.35C129.129 429.75 128.421 428.933 127.888 427.9C127.354 426.867 127.088 425.692 127.088 424.375C127.088 423.058 127.354 421.883 127.888 420.85C128.421 419.817 129.146 419.008 130.063 418.425C130.979 417.842 132.013 417.55 133.163 417.55C133.829 417.55 134.438 417.65 134.988 417.85C135.538 418.033 136.021 418.3 136.438 418.65C136.854 419 137.196 419.4 137.463 419.85C137.746 420.3 137.938 420.783 138.038 421.3L137.363 421.125V417.825H140.463V431H137.338V427.85L138.063 427.725C137.946 428.175 137.729 428.617 137.413 429.05C137.113 429.467 136.729 429.842 136.263 430.175C135.813 430.492 135.304 430.75 134.738 430.95C134.188 431.15 133.596 431.25 132.963 431.25ZM133.813 428.525C134.529 428.525 135.163 428.35 135.713 428C136.263 427.65 136.688 427.167 136.988 426.55C137.304 425.917 137.463 425.192 137.463 424.375C137.463 423.575 137.304 422.867 136.988 422.25C136.688 421.633 136.263 421.15 135.713 420.8C135.163 420.45 134.529 420.275 133.813 420.275C133.096 420.275 132.463 420.45 131.913 420.8C131.379 421.15 130.963 421.633 130.663 422.25C130.363 422.867 130.213 423.575 130.213 424.375C130.213 425.192 130.363 425.917 130.663 426.55C130.963 427.167 131.379 427.65 131.913 428C132.463 428.35 133.096 428.525 133.813 428.525ZM149.678 431.25C148.444 431.25 147.336 430.95 146.353 430.35C145.369 429.75 144.594 428.933 144.028 427.9C143.461 426.867 143.178 425.7 143.178 424.4C143.178 423.1 143.461 421.933 144.028 420.9C144.594 419.867 145.369 419.05 146.353 418.45C147.336 417.85 148.444 417.55 149.678 417.55C150.861 417.55 151.936 417.775 152.903 418.225C153.869 418.675 154.619 419.3 155.153 420.1L153.453 422.15C153.203 421.8 152.886 421.483 152.503 421.2C152.119 420.917 151.711 420.692 151.278 420.525C150.844 420.358 150.411 420.275 149.978 420.275C149.244 420.275 148.586 420.458 148.003 420.825C147.436 421.175 146.986 421.667 146.653 422.3C146.319 422.917 146.153 423.617 146.153 424.4C146.153 425.183 146.319 425.883 146.653 426.5C147.003 427.117 147.469 427.608 148.053 427.975C148.636 428.342 149.286 428.525 150.003 428.525C150.436 428.525 150.853 428.458 151.253 428.325C151.669 428.175 152.061 427.967 152.428 427.7C152.794 427.433 153.136 427.1 153.453 426.7L155.153 428.775C154.586 429.508 153.803 430.108 152.803 430.575C151.819 431.025 150.778 431.25 149.678 431.25ZM160.379 426.975L159.779 424.1L166.029 417.825H170.129L160.379 426.975ZM157.504 431V412.5H160.579V431H157.504ZM166.404 431L161.554 425.125L163.729 423.275L170.204 431H166.404ZM171.726 425.325V422.375H179.451V425.325H171.726ZM188.728 431.25C187.345 431.25 186.12 430.958 185.053 430.375C184.003 429.792 183.178 429 182.578 428C181.995 426.983 181.703 425.825 181.703 424.525C181.703 423.492 181.87 422.55 182.203 421.7C182.536 420.85 182.995 420.117 183.578 419.5C184.178 418.867 184.886 418.383 185.703 418.05C186.536 417.7 187.445 417.525 188.428 417.525C189.295 417.525 190.103 417.692 190.853 418.025C191.603 418.358 192.253 418.817 192.803 419.4C193.353 419.967 193.77 420.65 194.053 421.45C194.353 422.233 194.495 423.092 194.478 424.025L194.453 425.1H183.778L183.203 423H191.878L191.478 423.425V422.875C191.428 422.358 191.261 421.908 190.978 421.525C190.695 421.125 190.328 420.817 189.878 420.6C189.445 420.367 188.961 420.25 188.428 420.25C187.611 420.25 186.92 420.408 186.353 420.725C185.803 421.042 185.386 421.5 185.103 422.1C184.82 422.683 184.678 423.417 184.678 424.3C184.678 425.15 184.853 425.892 185.203 426.525C185.57 427.158 186.078 427.65 186.728 428C187.395 428.333 188.17 428.5 189.053 428.5C189.67 428.5 190.236 428.4 190.753 428.2C191.27 428 191.828 427.642 192.428 427.125L193.953 429.25C193.503 429.667 192.986 430.025 192.403 430.325C191.836 430.608 191.236 430.833 190.603 431C189.97 431.167 189.345 431.25 188.728 431.25ZM197.201 431V417.825H200.201L200.251 420.525L199.676 420.825C199.843 420.225 200.168 419.683 200.651 419.2C201.135 418.7 201.71 418.3 202.376 418C203.043 417.7 203.726 417.55 204.426 417.55C205.426 417.55 206.26 417.75 206.926 418.15C207.61 418.55 208.118 419.15 208.451 419.95C208.801 420.75 208.976 421.75 208.976 422.95V431H205.901V423.175C205.901 422.508 205.81 421.958 205.626 421.525C205.443 421.075 205.16 420.75 204.776 420.55C204.393 420.333 203.926 420.233 203.376 420.25C202.926 420.25 202.51 420.325 202.126 420.475C201.76 420.608 201.435 420.808 201.151 421.075C200.885 421.325 200.668 421.617 200.501 421.95C200.351 422.283 200.276 422.65 200.276 423.05V431H198.751C198.451 431 198.168 431 197.901 431C197.651 431 197.418 431 197.201 431ZM217.736 431.25C216.569 431.25 215.519 430.958 214.586 430.375C213.669 429.775 212.936 428.967 212.386 427.95C211.852 426.917 211.586 425.733 211.586 424.4C211.586 423.083 211.852 421.908 212.386 420.875C212.919 419.842 213.644 419.033 214.561 418.45C215.494 417.85 216.544 417.55 217.711 417.55C218.344 417.55 218.952 417.65 219.536 417.85C220.136 418.05 220.669 418.325 221.136 418.675C221.602 419.008 221.969 419.383 222.236 419.8C222.519 420.217 222.677 420.65 222.711 421.1L221.886 421.2V412.5H224.961V431H221.986L221.911 427.9L222.511 427.95C222.494 428.367 222.344 428.767 222.061 429.15C221.794 429.533 221.444 429.883 221.011 430.2C220.577 430.517 220.069 430.775 219.486 430.975C218.919 431.158 218.336 431.25 217.736 431.25ZM218.336 428.65C219.052 428.65 219.686 428.467 220.236 428.1C220.786 427.733 221.211 427.233 221.511 426.6C221.827 425.967 221.986 425.233 221.986 424.4C221.986 423.583 221.827 422.858 221.511 422.225C221.211 421.575 220.786 421.075 220.236 420.725C219.686 420.358 219.052 420.175 218.336 420.175C217.619 420.175 216.986 420.358 216.436 420.725C215.886 421.075 215.452 421.575 215.136 422.225C214.836 422.858 214.686 423.583 214.686 424.4C214.686 425.233 214.836 425.967 215.136 426.6C215.452 427.233 215.886 427.733 216.436 428.1C216.986 428.467 217.619 428.65 218.336 428.65ZM236.35 431V413.5H239.6V428H247.675V431H236.35ZM256.376 431.25C255.059 431.25 253.884 430.958 252.851 430.375C251.817 429.775 251.001 428.958 250.401 427.925C249.801 426.892 249.501 425.717 249.501 424.4C249.501 423.083 249.801 421.908 250.401 420.875C251.001 419.842 251.817 419.033 252.851 418.45C253.884 417.85 255.059 417.55 256.376 417.55C257.676 417.55 258.842 417.85 259.876 418.45C260.909 419.033 261.717 419.842 262.301 420.875C262.901 421.908 263.201 423.083 263.201 424.4C263.201 425.717 262.901 426.892 262.301 427.925C261.717 428.958 260.909 429.775 259.876 430.375C258.842 430.958 257.676 431.25 256.376 431.25ZM256.376 428.525C257.092 428.525 257.726 428.342 258.276 427.975C258.842 427.608 259.284 427.117 259.601 426.5C259.934 425.883 260.092 425.183 260.076 424.4C260.092 423.6 259.934 422.892 259.601 422.275C259.284 421.658 258.842 421.175 258.276 420.825C257.726 420.458 257.092 420.275 256.376 420.275C255.659 420.275 255.009 420.458 254.426 420.825C253.859 421.175 253.417 421.667 253.101 422.3C252.784 422.917 252.626 423.617 252.626 424.4C252.626 425.183 252.784 425.883 253.101 426.5C253.417 427.117 253.859 427.608 254.426 427.975C255.009 428.342 255.659 428.525 256.376 428.525ZM271.876 436.75C270.893 436.75 269.91 436.6 268.926 436.3C267.96 436 267.176 435.608 266.576 435.125L267.676 432.85C268.026 433.1 268.418 433.317 268.851 433.5C269.285 433.683 269.743 433.825 270.226 433.925C270.726 434.025 271.218 434.075 271.701 434.075C272.585 434.075 273.318 433.933 273.901 433.65C274.501 433.383 274.951 432.967 275.251 432.4C275.551 431.85 275.701 431.158 275.701 430.325V427.9L276.151 428.075C276.051 428.592 275.776 429.083 275.326 429.55C274.876 430.017 274.31 430.4 273.626 430.7C272.943 430.983 272.243 431.125 271.526 431.125C270.276 431.125 269.168 430.833 268.201 430.25C267.251 429.667 266.493 428.875 265.926 427.875C265.376 426.858 265.101 425.692 265.101 424.375C265.101 423.058 265.376 421.892 265.926 420.875C266.476 419.842 267.226 419.033 268.176 418.45C269.143 417.85 270.226 417.55 271.426 417.55C271.926 417.55 272.41 417.608 272.876 417.725C273.343 417.842 273.768 418.008 274.151 418.225C274.551 418.442 274.91 418.683 275.226 418.95C275.543 419.217 275.801 419.5 276.001 419.8C276.201 420.1 276.326 420.392 276.376 420.675L275.726 420.875L275.776 417.825H278.801V430.1C278.801 431.167 278.643 432.108 278.326 432.925C278.01 433.742 277.551 434.433 276.951 435C276.351 435.583 275.626 436.017 274.776 436.3C273.926 436.6 272.96 436.75 271.876 436.75ZM272.001 428.5C272.751 428.5 273.41 428.325 273.976 427.975C274.56 427.625 275.01 427.142 275.326 426.525C275.643 425.908 275.801 425.2 275.801 424.4C275.801 423.583 275.635 422.867 275.301 422.25C274.985 421.617 274.543 421.125 273.976 420.775C273.41 420.425 272.751 420.25 272.001 420.25C271.251 420.25 270.593 420.433 270.026 420.8C269.46 421.15 269.01 421.642 268.676 422.275C268.36 422.892 268.201 423.6 268.201 424.4C268.201 425.183 268.36 425.892 268.676 426.525C269.01 427.142 269.46 427.625 270.026 427.975C270.593 428.325 271.251 428.5 272.001 428.5ZM282.708 431V417.825H285.783V431H282.708ZM284.208 415.025C283.591 415.025 283.108 414.875 282.758 414.575C282.424 414.258 282.258 413.817 282.258 413.25C282.258 412.717 282.433 412.283 282.783 411.95C283.133 411.617 283.608 411.45 284.208 411.45C284.841 411.45 285.324 411.608 285.658 411.925C286.008 412.225 286.183 412.667 286.183 413.25C286.183 413.767 286.008 414.192 285.658 414.525C285.308 414.858 284.824 415.025 284.208 415.025ZM295.332 431.25C294.099 431.25 292.99 430.95 292.007 430.35C291.024 429.75 290.249 428.933 289.682 427.9C289.115 426.867 288.832 425.7 288.832 424.4C288.832 423.1 289.115 421.933 289.682 420.9C290.249 419.867 291.024 419.05 292.007 418.45C292.99 417.85 294.099 417.55 295.332 417.55C296.515 417.55 297.59 417.775 298.557 418.225C299.524 418.675 300.274 419.3 300.807 420.1L299.107 422.15C298.857 421.8 298.54 421.483 298.157 421.2C297.774 420.917 297.365 420.692 296.932 420.525C296.499 420.358 296.065 420.275 295.632 420.275C294.899 420.275 294.24 420.458 293.657 420.825C293.09 421.175 292.64 421.667 292.307 422.3C291.974 422.917 291.807 423.617 291.807 424.4C291.807 425.183 291.974 425.883 292.307 426.5C292.657 427.117 293.124 427.608 293.707 427.975C294.29 428.342 294.94 428.525 295.657 428.525C296.09 428.525 296.507 428.458 296.907 428.325C297.324 428.175 297.715 427.967 298.082 427.7C298.449 427.433 298.79 427.1 299.107 426.7L300.807 428.775C300.24 429.508 299.457 430.108 298.457 430.575C297.474 431.025 296.432 431.25 295.332 431.25Z" fill="#5E569B"/>
<rect y="507" width="1300" height="132" rx="16" fill="#E1EBF6"/>
<path d="M62 603.625C78.9137 603.625 92.625 589.914 92.625 573C92.625 556.086 78.9137 542.375 62 542.375C45.0863 542.375 31.375 556.086 31.375 573C31.375 589.914 45.0863 603.625 62 603.625Z" fill="white"/>
<path d="M61.9996 556.828C60.9262 555.399 59.3611 554.392 57.5878 554.03L56.1172 555.553L57.5878 557.076C59.3015 557.684 60.529 559.32 60.529 561.235V565.647L61.2643 567.117L61.9996 565.647L63.029 561.237L61.9996 556.828Z" fill="#CDD9FB"/>
<path d="M63.4706 561.236C63.4706 559.321 64.698 557.685 66.4118 557.077L67.8824 555.554L66.4118 554.031C64.6392 554.393 63.0739 555.399 62 556.829V565.648L62.7353 567.118L63.4706 565.648C63.4706 564.179 63.4706 562.705 63.4706 561.236Z" fill="#B3C7EF"/>
<path d="M60.529 580.353V584.765C60.529 586.68 59.3015 588.316 57.5878 588.924L56.1172 590.447L57.5878 591.97C59.3604 591.608 60.9257 590.602 61.9996 589.172L62.7839 584.763L61.9996 580.353L61.2643 578.883L60.529 580.353Z" fill="#CDD9FB"/>
<path d="M66.4118 591.97L67.8824 590.447L66.4118 588.924C64.698 588.316 63.4706 586.68 63.4706 584.765C63.4706 583.296 63.4706 581.822 63.4706 580.353L62.7353 578.883L62 580.353V589.172C63.0733 590.601 64.6385 591.608 66.4118 591.97Z" fill="#B3C7EF"/>
<path d="M44.8308 565.647C43.7521 565.647 42.8828 566.522 42.8828 567.601V578.4C42.8828 579.479 43.7573 580.354 44.836 580.354H62.0007L63.4713 573L62.0007 565.647C61.1314 565.647 49.5657 565.647 44.8308 565.647Z" fill="#DAD8DB"/>
<path d="M81.1179 567.601C81.1179 566.522 80.2486 565.647 79.1699 565.647C74.435 565.647 62.8693 565.647 62 565.647V580.354H79.1647C80.2434 580.354 81.1179 579.479 81.1179 578.4V574.471L79.6473 573L81.1179 571.53V567.601Z" fill="#B6C4CF"/>
<path d="M48.7656 571.53H51.7068V574.471H48.7656V571.53Z" fill="#6851A2"/>
<path d="M54.6484 571.53H57.5896V574.471H54.6484V571.53Z" fill="#6851A2"/>
<path d="M66.4141 574.471H81.1201C81.1201 573.443 81.1201 572.559 81.1201 571.53C80.4412 571.53 67.0905 571.53 66.4141 571.53V574.471Z" fill="#6851A2"/>
<path d="M57.5885 560.753C57.5885 561.832 56.7222 562.706 55.6436 562.706C51.6865 562.706 42.902 562.706 38.9449 562.706C37.8662 562.706 37 561.836 37 560.757C37 557.923 37 552.783 37 549.949C37 548.87 37.8745 548 38.9531 548H55.6353C56.714 548 57.5885 548.874 57.5885 549.953V560.753Z" fill="#05A899"/>
<path d="M37 560.757V549.949C37 548.87 37.8745 548 38.9531 548V560.601C38.9531 560.702 38.9586 560.804 38.9855 560.902C39.13 561.426 39.6714 562.335 40.9856 562.706H38.9449C37.8662 562.706 37 561.836 37 560.757Z" fill="#0A8A7B"/>
<path d="M42.8828 553.883H45.824V556.824H42.8828V553.883Z" fill="#E6EFFB"/>
<path d="M48.7656 553.883H51.7068V556.824H48.7656V553.883Z" fill="#465A61"/>
<path d="M85.0494 562.706C86.1281 562.706 87.0025 561.836 87.0025 560.757C87.0025 557.923 87.0025 552.783 87.0025 549.949C87.0025 548.87 86.1363 548 85.0576 548C81.1005 548 72.3161 548 68.359 548C67.2803 548 66.4141 548.874 66.4141 549.953V560.753C66.4141 561.832 67.2885 562.706 68.3672 562.706H85.0494Z" fill="#FDC010"/>
<path d="M72.2969 553.883H75.2381V556.824H72.2969V553.883Z" fill="#E6EFFB"/>
<path d="M78.1797 553.883H81.1209V556.824H78.1797V553.883Z" fill="#465A61"/>
<path d="M57.5885 596.048C57.5885 597.127 56.7222 598.001 55.6436 598.001C51.6865 598.001 42.902 598.001 38.9449 598.001C37.8662 598.001 37 597.131 37 596.052C37 593.218 37 588.078 37 585.244C37 584.165 37.8745 583.295 38.9531 583.295H55.6353C56.714 583.295 57.5885 584.169 57.5885 585.248V596.048Z" fill="#ED2B4A"/>
<path d="M42.8828 589.177H45.824V592.118H42.8828V589.177Z" fill="#E6EFFB"/>
<path d="M48.7656 589.177H51.7068V592.118H48.7656V589.177Z" fill="#465A61"/>
<path d="M66.4141 596.048C66.4141 597.127 67.2885 598.001 68.3672 598.001H85.0494C86.1281 598.001 87.0025 597.131 87.0025 596.052C87.0025 593.218 87.0025 588.078 87.0025 585.244C87.0025 584.165 86.1363 583.295 85.0576 583.295C81.1005 583.295 72.3161 583.295 68.359 583.295C67.2803 583.295 66.4141 584.169 66.4141 585.248V596.048Z" fill="#6851A2"/>
<path d="M72.2969 589.177H75.2381V592.118H72.2969V589.177Z" fill="#E6EFFB"/>
<path d="M78.1797 589.177H81.1209V592.118H78.1797V589.177Z" fill="#465A61"/>
<path d="M66.4141 560.757V549.949C66.4141 548.87 67.2885 548 68.3672 548V560.601C68.3672 560.702 68.3727 560.804 68.3996 560.902C68.544 561.426 69.0855 562.335 70.3996 562.706H68.359C67.2803 562.706 66.4141 561.836 66.4141 560.757Z" fill="#D59800"/>
<path d="M37 596.055V585.247C37 584.168 37.8745 583.298 38.9531 583.298V595.898C38.9531 596 38.9586 596.102 38.9855 596.199C39.13 596.724 39.6714 597.633 40.9856 598.004H38.9449C37.8662 598.004 37 597.134 37 596.055Z" fill="#B73451"/>
<path d="M66.4141 596.055V585.247C66.4141 584.168 67.2885 583.298 68.3672 583.298V595.898C68.3672 596 68.3727 596.102 68.3996 596.199C68.544 596.724 69.0855 597.633 70.3996 598.004H68.359C67.2803 598.004 66.4141 597.134 66.4141 596.055Z" fill="#40297A"/>
<path d="M111.35 582V564.5H118.375C119.642 564.5 120.783 564.708 121.8 565.125C122.833 565.542 123.717 566.142 124.45 566.925C125.2 567.708 125.767 568.633 126.15 569.7C126.55 570.767 126.75 571.95 126.75 573.25C126.75 574.55 126.55 575.742 126.15 576.825C125.767 577.892 125.208 578.817 124.475 579.6C123.742 580.367 122.858 580.958 121.825 581.375C120.792 581.792 119.642 582 118.375 582H111.35ZM114.6 579.475L114.35 579H118.25C119.067 579 119.792 578.867 120.425 578.6C121.075 578.333 121.625 577.95 122.075 577.45C122.525 576.95 122.867 576.35 123.1 575.65C123.333 574.933 123.45 574.133 123.45 573.25C123.45 572.367 123.333 571.575 123.1 570.875C122.867 570.158 122.517 569.55 122.05 569.05C121.6 568.55 121.058 568.167 120.425 567.9C119.792 567.633 119.067 567.5 118.25 567.5H114.275L114.6 567.075V579.475ZM134.696 582.25C133.613 582.25 132.629 581.95 131.746 581.35C130.863 580.75 130.154 579.933 129.621 578.9C129.088 577.867 128.821 576.692 128.821 575.375C128.821 574.058 129.088 572.883 129.621 571.85C130.154 570.817 130.879 570.008 131.796 569.425C132.713 568.842 133.746 568.55 134.896 568.55C135.563 568.55 136.171 568.65 136.721 568.85C137.271 569.033 137.754 569.3 138.171 569.65C138.588 570 138.929 570.4 139.196 570.85C139.479 571.3 139.671 571.783 139.771 572.3L139.096 572.125V568.825H142.196V582H139.071V578.85L139.796 578.725C139.679 579.175 139.463 579.617 139.146 580.05C138.846 580.467 138.463 580.842 137.996 581.175C137.546 581.492 137.038 581.75 136.471 581.95C135.921 582.15 135.329 582.25 134.696 582.25ZM135.546 579.525C136.263 579.525 136.896 579.35 137.446 579C137.996 578.65 138.421 578.167 138.721 577.55C139.038 576.917 139.196 576.192 139.196 575.375C139.196 574.575 139.038 573.867 138.721 573.25C138.421 572.633 137.996 572.15 137.446 571.8C136.896 571.45 136.263 571.275 135.546 571.275C134.829 571.275 134.196 571.45 133.646 571.8C133.113 572.15 132.696 572.633 132.396 573.25C132.096 573.867 131.946 574.575 131.946 575.375C131.946 576.192 132.096 576.917 132.396 577.55C132.696 578.167 133.113 578.65 133.646 579C134.196 579.35 134.829 579.525 135.546 579.525ZM147.186 582V565.475H150.261V582H147.186ZM144.586 571.675V568.825H153.136V571.675H144.586ZM160.331 582.25C159.247 582.25 158.264 581.95 157.381 581.35C156.497 580.75 155.789 579.933 155.256 578.9C154.722 577.867 154.456 576.692 154.456 575.375C154.456 574.058 154.722 572.883 155.256 571.85C155.789 570.817 156.514 570.008 157.431 569.425C158.347 568.842 159.381 568.55 160.531 568.55C161.197 568.55 161.806 568.65 162.356 568.85C162.906 569.033 163.389 569.3 163.806 569.65C164.222 570 164.564 570.4 164.831 570.85C165.114 571.3 165.306 571.783 165.406 572.3L164.731 572.125V568.825H167.831V582H164.706V578.85L165.431 578.725C165.314 579.175 165.097 579.617 164.781 580.05C164.481 580.467 164.097 580.842 163.631 581.175C163.181 581.492 162.672 581.75 162.106 581.95C161.556 582.15 160.964 582.25 160.331 582.25ZM161.181 579.525C161.897 579.525 162.531 579.35 163.081 579C163.631 578.65 164.056 578.167 164.356 577.55C164.672 576.917 164.831 576.192 164.831 575.375C164.831 574.575 164.672 573.867 164.356 573.25C164.056 572.633 163.631 572.15 163.081 571.8C162.531 571.45 161.897 571.275 161.181 571.275C160.464 571.275 159.831 571.45 159.281 571.8C158.747 572.15 158.331 572.633 158.031 573.25C157.731 573.867 157.581 574.575 157.581 575.375C157.581 576.192 157.731 576.917 158.031 577.55C158.331 578.167 158.747 578.65 159.281 579C159.831 579.35 160.464 579.525 161.181 579.525ZM184.844 582.25C183.828 582.25 182.894 582.125 182.044 581.875C181.194 581.608 180.428 581.217 179.744 580.7C179.061 580.183 178.453 579.558 177.919 578.825L180.044 576.425C180.861 577.558 181.661 578.342 182.444 578.775C183.228 579.208 184.111 579.425 185.094 579.425C185.661 579.425 186.178 579.342 186.644 579.175C187.111 578.992 187.478 578.75 187.744 578.45C188.011 578.133 188.144 577.775 188.144 577.375C188.144 577.092 188.086 576.833 187.969 576.6C187.869 576.35 187.711 576.133 187.494 575.95C187.278 575.75 187.011 575.567 186.694 575.4C186.378 575.233 186.019 575.092 185.619 574.975C185.219 574.858 184.778 574.75 184.294 574.65C183.378 574.467 182.578 574.225 181.894 573.925C181.211 573.608 180.636 573.225 180.169 572.775C179.703 572.308 179.361 571.792 179.144 571.225C178.928 570.642 178.819 569.983 178.819 569.25C178.819 568.517 178.978 567.842 179.294 567.225C179.628 566.608 180.078 566.075 180.644 565.625C181.211 565.175 181.869 564.825 182.619 564.575C183.369 564.325 184.178 564.2 185.044 564.2C186.028 564.2 186.903 564.317 187.669 564.55C188.453 564.783 189.136 565.133 189.719 565.6C190.319 566.05 190.811 566.6 191.194 567.25L189.044 569.375C188.711 568.858 188.336 568.433 187.919 568.1C187.503 567.75 187.053 567.492 186.569 567.325C186.086 567.142 185.578 567.05 185.044 567.05C184.444 567.05 183.919 567.133 183.469 567.3C183.036 567.467 182.694 567.708 182.444 568.025C182.194 568.325 182.069 568.692 182.069 569.125C182.069 569.458 182.144 569.758 182.294 570.025C182.444 570.275 182.653 570.5 182.919 570.7C183.203 570.9 183.561 571.075 183.994 571.225C184.428 571.375 184.919 571.508 185.469 571.625C186.386 571.808 187.211 572.058 187.944 572.375C188.678 572.675 189.303 573.042 189.819 573.475C190.336 573.892 190.728 574.375 190.994 574.925C191.261 575.458 191.394 576.058 191.394 576.725C191.394 577.875 191.119 578.867 190.569 579.7C190.036 580.517 189.278 581.15 188.294 581.6C187.311 582.033 186.161 582.25 184.844 582.25ZM200.443 582.25C199.126 582.25 197.951 581.958 196.918 581.375C195.885 580.775 195.068 579.958 194.468 578.925C193.868 577.892 193.568 576.717 193.568 575.4C193.568 574.083 193.868 572.908 194.468 571.875C195.068 570.842 195.885 570.033 196.918 569.45C197.951 568.85 199.126 568.55 200.443 568.55C201.743 568.55 202.91 568.85 203.943 569.45C204.976 570.033 205.785 570.842 206.368 571.875C206.968 572.908 207.268 574.083 207.268 575.4C207.268 576.717 206.968 577.892 206.368 578.925C205.785 579.958 204.976 580.775 203.943 581.375C202.91 581.958 201.743 582.25 200.443 582.25ZM200.443 579.525C201.16 579.525 201.793 579.342 202.343 578.975C202.91 578.608 203.351 578.117 203.668 577.5C204.001 576.883 204.16 576.183 204.143 575.4C204.16 574.6 204.001 573.892 203.668 573.275C203.351 572.658 202.91 572.175 202.343 571.825C201.793 571.458 201.16 571.275 200.443 571.275C199.726 571.275 199.076 571.458 198.493 571.825C197.926 572.175 197.485 572.667 197.168 573.3C196.851 573.917 196.693 574.617 196.693 575.4C196.693 576.183 196.851 576.883 197.168 577.5C197.485 578.117 197.926 578.608 198.493 578.975C199.076 579.342 199.726 579.525 200.443 579.525ZM214.594 582.25C213.644 582.25 212.819 582.042 212.119 581.625C211.419 581.192 210.885 580.583 210.519 579.8C210.152 579 209.969 578.05 209.969 576.95V568.825H213.044V576.3C213.044 577 213.152 577.6 213.369 578.1C213.585 578.583 213.902 578.958 214.319 579.225C214.735 579.492 215.235 579.625 215.819 579.625C216.252 579.625 216.644 579.558 216.994 579.425C217.36 579.275 217.677 579.075 217.944 578.825C218.21 578.558 218.419 578.25 218.569 577.9C218.719 577.533 218.794 577.142 218.794 576.725V568.825H221.869V582H218.869L218.819 579.25L219.369 578.95C219.169 579.583 218.827 580.15 218.344 580.65C217.877 581.133 217.319 581.525 216.669 581.825C216.019 582.108 215.327 582.25 214.594 582.25ZM225.473 582V568.825H228.498L228.548 573.025L228.123 572.075C228.306 571.408 228.623 570.808 229.073 570.275C229.523 569.742 230.04 569.325 230.623 569.025C231.223 568.708 231.848 568.55 232.498 568.55C232.781 568.55 233.048 568.575 233.298 568.625C233.565 568.675 233.781 568.733 233.948 568.8L233.123 572.175C232.94 572.075 232.715 571.992 232.448 571.925C232.181 571.858 231.915 571.825 231.648 571.825C231.231 571.825 230.831 571.908 230.448 572.075C230.081 572.225 229.756 572.442 229.473 572.725C229.19 573.008 228.965 573.342 228.798 573.725C228.648 574.092 228.573 574.508 228.573 574.975V582H225.473ZM241.084 582.25C239.85 582.25 238.742 581.95 237.759 581.35C236.775 580.75 236 579.933 235.434 578.9C234.867 577.867 234.584 576.7 234.584 575.4C234.584 574.1 234.867 572.933 235.434 571.9C236 570.867 236.775 570.05 237.759 569.45C238.742 568.85 239.85 568.55 241.084 568.55C242.267 568.55 243.342 568.775 244.309 569.225C245.275 569.675 246.025 570.3 246.559 571.1L244.859 573.15C244.609 572.8 244.292 572.483 243.909 572.2C243.525 571.917 243.117 571.692 242.684 571.525C242.25 571.358 241.817 571.275 241.384 571.275C240.65 571.275 239.992 571.458 239.409 571.825C238.842 572.175 238.392 572.667 238.059 573.3C237.725 573.917 237.559 574.617 237.559 575.4C237.559 576.183 237.725 576.883 238.059 577.5C238.409 578.117 238.875 578.608 239.459 578.975C240.042 579.342 240.692 579.525 241.409 579.525C241.842 579.525 242.259 579.458 242.659 579.325C243.075 579.175 243.467 578.967 243.834 578.7C244.2 578.433 244.542 578.1 244.859 577.7L246.559 579.775C245.992 580.508 245.209 581.108 244.209 581.575C243.225 582.025 242.184 582.25 241.084 582.25ZM255.085 582.25C253.702 582.25 252.477 581.958 251.41 581.375C250.36 580.792 249.535 580 248.935 579C248.352 577.983 248.06 576.825 248.06 575.525C248.06 574.492 248.227 573.55 248.56 572.7C248.894 571.85 249.352 571.117 249.935 570.5C250.535 569.867 251.244 569.383 252.06 569.05C252.894 568.7 253.802 568.525 254.785 568.525C255.652 568.525 256.46 568.692 257.21 569.025C257.96 569.358 258.61 569.817 259.16 570.4C259.71 570.967 260.127 571.65 260.41 572.45C260.71 573.233 260.852 574.092 260.835 575.025L260.81 576.1H250.135L249.56 574H258.235L257.835 574.425V573.875C257.785 573.358 257.619 572.908 257.335 572.525C257.052 572.125 256.685 571.817 256.235 571.6C255.802 571.367 255.319 571.25 254.785 571.25C253.969 571.25 253.277 571.408 252.71 571.725C252.16 572.042 251.744 572.5 251.46 573.1C251.177 573.683 251.035 574.417 251.035 575.3C251.035 576.15 251.21 576.892 251.56 577.525C251.927 578.158 252.435 578.65 253.085 579C253.752 579.333 254.527 579.5 255.41 579.5C256.027 579.5 256.594 579.4 257.11 579.2C257.627 579 258.185 578.642 258.785 578.125L260.31 580.25C259.86 580.667 259.344 581.025 258.76 581.325C258.194 581.608 257.594 581.833 256.96 582C256.327 582.167 255.702 582.25 255.085 582.25ZM267.959 582.25C266.792 582.25 265.742 582.058 264.809 581.675C263.892 581.275 263.142 580.708 262.559 579.975L264.559 578.25C265.059 578.817 265.617 579.225 266.234 579.475C266.85 579.725 267.5 579.85 268.184 579.85C268.467 579.85 268.717 579.817 268.934 579.75C269.167 579.683 269.367 579.583 269.534 579.45C269.7 579.317 269.825 579.167 269.909 579C270.009 578.817 270.059 578.617 270.059 578.4C270.059 578 269.909 577.683 269.609 577.45C269.442 577.333 269.175 577.208 268.809 577.075C268.459 576.942 268 576.808 267.434 576.675C266.534 576.442 265.784 576.175 265.184 575.875C264.584 575.558 264.117 575.208 263.784 574.825C263.5 574.508 263.284 574.15 263.134 573.75C263 573.35 262.934 572.917 262.934 572.45C262.934 571.867 263.059 571.342 263.309 570.875C263.575 570.392 263.934 569.975 264.384 569.625C264.834 569.275 265.359 569.008 265.959 568.825C266.559 568.642 267.184 568.55 267.834 568.55C268.5 568.55 269.142 568.633 269.759 568.8C270.392 568.967 270.975 569.208 271.509 569.525C272.059 569.825 272.525 570.192 272.909 570.625L271.209 572.5C270.892 572.2 270.542 571.933 270.159 571.7C269.792 571.467 269.417 571.283 269.034 571.15C268.65 571 268.292 570.925 267.959 570.925C267.642 570.925 267.359 570.958 267.109 571.025C266.859 571.075 266.65 571.158 266.484 571.275C266.317 571.392 266.184 571.542 266.084 571.725C266 571.892 265.959 572.092 265.959 572.325C265.975 572.525 266.025 572.717 266.109 572.9C266.209 573.067 266.342 573.208 266.509 573.325C266.692 573.442 266.967 573.575 267.334 573.725C267.7 573.875 268.175 574.017 268.759 574.15C269.575 574.367 270.259 574.608 270.809 574.875C271.359 575.142 271.792 575.45 272.109 575.8C272.425 576.1 272.65 576.45 272.784 576.85C272.917 577.25 272.984 577.692 272.984 578.175C272.984 578.958 272.759 579.658 272.309 580.275C271.875 580.892 271.275 581.375 270.509 581.725C269.759 582.075 268.909 582.25 267.959 582.25Z" fill="#5E569B"/>
<rect y="125" width="1300" height="110" rx="16" fill="#E1EBF6"/>
<path d="M62 210.625C78.9137 210.625 92.625 196.914 92.625 180C92.625 163.086 78.9137 149.375 62 149.375C45.0863 149.375 31.375 163.086 31.375 180C31.375 196.914 45.0863 210.625 62 210.625Z" fill="white"/>
<path d="M65.3281 195.479H51.8281V201.25H65.3281V195.479Z" fill="#C5D3DD"/>
<path d="M54.3084 195.479H51.8281V201.25H54.3084V195.479Z" fill="#B6C4CF"/>
<path d="M71.641 204.25C71.641 204.594 71.3597 204.875 71.016 204.875H46.1406C45.7969 204.875 45.5156 204.594 45.5156 204.25V201.75C45.5156 201.406 45.7969 201.125 46.1406 201.125H71.016C71.3597 201.125 71.641 201.406 71.641 201.75V204.25Z" fill="#B6C4CF"/>
<path d="M47.9959 204.25V201.75C47.9959 201.406 48.2771 201.125 48.6209 201.125H46.1406C45.7969 201.125 45.5156 201.406 45.5156 201.75V204.25C45.5156 204.594 45.7969 204.875 46.1406 204.875H48.6209C48.2771 204.875 47.9959 204.594 47.9959 204.25Z" fill="#87939C"/>
<path d="M30 194.354C30 195.042 30.5625 195.604 31.25 195.604H68.7719V187.235H30V194.354Z" fill="#D9E7EC"/>
<path d="M32.4802 194.354V187.235H30V194.354C30 195.042 30.5625 195.604 31.25 195.604H33.7302C33.0427 195.604 32.4802 195.042 32.4802 194.354Z" fill="#C5D3DD"/>
<path d="M68.7719 183.874C68.7719 183.598 68.9961 183.374 69.2719 183.374H87.1581V156.309C87.1581 155.553 86.5399 154.935 85.7842 154.935H31.374C30.6182 154.935 30 155.553 30 156.309V187.361H68.7719V183.874Z" fill="#596C76"/>
<path d="M68.7739 183.873C68.7739 183.597 68.9981 183.373 69.2739 183.373H84.4122V158.307C84.4122 157.963 84.131 157.682 83.7872 157.682H33.375C33.0312 157.682 32.75 157.963 32.75 158.307V183.987C32.75 184.331 33.0312 184.612 33.375 184.612H68.7737L68.7739 183.873Z" fill="#EEF6FF"/>
<path d="M58.5787 193.265C59.5391 193.265 60.3176 192.486 60.3176 191.526C60.3176 190.566 59.5391 189.787 58.5787 189.787C57.6184 189.787 56.8398 190.566 56.8398 191.526C56.8398 192.486 57.6184 193.265 58.5787 193.265Z" fill="#445EA0"/>
<path d="M82.0454 173.797C82.0454 174.141 81.7642 174.422 81.4204 174.422H61.6133C61.2695 174.422 60.9883 174.141 60.9883 173.797V164.707C60.9883 164.363 61.2695 164.082 61.6133 164.082H81.4204C81.7642 164.082 82.0454 164.363 82.0454 164.707V173.797Z" fill="#ED2B4A"/>
<path d="M63.4685 173.797V164.707C63.4685 164.363 63.7498 164.082 64.0935 164.082H61.6133C61.2695 164.082 60.9883 164.363 60.9883 164.707V173.797C60.9883 174.141 61.2695 174.422 61.6133 174.422H64.0935C63.7498 174.422 63.4685 174.141 63.4685 173.797Z" fill="#B73451"/>
<path d="M67.4085 178.015H62.0195C61.5018 178.015 61.082 177.595 61.082 177.077C61.082 176.559 61.5018 176.14 62.0195 176.14H67.4085C67.9263 176.14 68.346 176.559 68.346 177.077C68.346 177.595 67.9263 178.015 67.4085 178.015Z" fill="#C3DDF4"/>
<path d="M67.4085 180.864H62.0195C61.5018 180.864 61.082 180.445 61.082 179.927C61.082 179.409 61.5018 178.989 62.0195 178.989H67.4085C67.9263 178.989 68.346 179.409 68.346 179.927C68.346 180.445 67.9263 180.864 67.4085 180.864Z" fill="#C3DDF4"/>
<path d="M73.9098 178.015H69.9023C69.3846 178.015 68.9648 177.595 68.9648 177.077C68.9648 176.559 69.3846 176.14 69.9023 176.14H73.9098C74.4276 176.14 74.8473 176.559 74.8473 177.077C74.8473 177.595 74.4276 178.015 73.9098 178.015Z" fill="#C3DDF4"/>
<path d="M73.9098 180.864H69.9023C69.3846 180.864 68.9648 180.445 68.9648 179.927C68.9648 179.409 69.3846 178.989 69.9023 178.989H73.9098C74.4276 178.989 74.8473 179.409 74.8473 179.927C74.8473 180.445 74.4276 180.864 73.9098 180.864Z" fill="#C3DDF4"/>
<path d="M81.4717 178.015H76.3672C75.8494 178.015 75.4297 177.595 75.4297 177.077C75.4297 176.559 75.8494 176.14 76.3672 176.14H81.4717C81.9894 176.14 82.4092 176.559 82.4092 177.077C82.4092 177.595 81.9894 178.015 81.4717 178.015Z" fill="#C3DDF4"/>
<path d="M81.4717 180.864H76.3672C75.8494 180.864 75.4297 180.445 75.4297 179.927C75.4297 179.409 75.8494 178.989 76.3672 178.989H81.4717C81.9894 178.989 82.4092 179.409 82.4092 179.927C82.4092 180.445 81.9894 180.864 81.4717 180.864Z" fill="#C3DDF4"/>
<path d="M74.9217 161.886C74.9217 162.229 74.6405 162.511 74.2967 162.511H72.9219C72.5781 162.511 72.2969 162.229 72.2969 161.886V160.511C72.2969 160.167 72.5781 159.886 72.9219 159.886H74.2967C74.6405 159.886 74.9217 160.167 74.9217 160.511V161.886Z" fill="#B73451"/>
<path d="M78.4217 161.886C78.4217 162.229 78.1405 162.511 77.7967 162.511H76.4219C76.0781 162.511 75.7969 162.229 75.7969 161.886V160.511C75.7969 160.167 76.0781 159.886 76.4219 159.886H77.7967C78.1405 159.886 78.4217 160.167 78.4217 160.511V161.886Z" fill="#B73451"/>
<path d="M81.9217 161.886C81.9217 162.229 81.6405 162.511 81.2967 162.511H79.9219C79.5781 162.511 79.2969 162.229 79.2969 161.886V160.511C79.2969 160.167 79.5781 159.886 79.9219 159.886H81.2967C81.6405 159.886 81.9217 160.167 81.9217 160.511V161.886Z" fill="#B73451"/>
<path d="M53.8594 180.126H52.7344C52.2166 180.126 51.7969 179.706 51.7969 179.188C51.7969 178.671 52.2166 178.251 52.7344 178.251H53.8594C54.3771 178.251 54.7969 178.671 54.7969 179.188C54.7969 179.706 54.3771 180.126 53.8594 180.126Z" fill="#95ECE3"/>
<path d="M49.6094 180.126H48.4844C47.9666 180.126 47.5469 179.706 47.5469 179.188C47.5469 178.671 47.9666 178.251 48.4844 178.251H49.6094C50.1271 178.251 50.5469 178.671 50.5469 179.188C50.5469 179.706 50.1271 180.126 49.6094 180.126Z" fill="#95ECE3"/>
<path d="M45.3594 180.126H44.2344C43.7166 180.126 43.2969 179.706 43.2969 179.188C43.2969 178.671 43.7166 178.251 44.2344 178.251H45.3594C45.8771 178.251 46.2969 178.671 46.2969 179.188C46.297 179.706 45.8773 180.126 45.3594 180.126Z" fill="#95ECE3"/>
<path d="M41.1094 180.126H39.9844C39.4666 180.126 39.0469 179.706 39.0469 179.188C39.0469 178.671 39.4666 178.251 39.9844 178.251H41.1094C41.6271 178.251 42.0469 178.671 42.0469 179.188C42.0469 179.706 41.6273 180.126 41.1094 180.126Z" fill="#95ECE3"/>
<path d="M57.5156 176.264C56.9979 176.264 56.5781 175.844 56.5781 175.326V174.201C56.5781 173.683 56.9979 173.264 57.5156 173.264C58.0334 173.264 58.4531 173.683 58.4531 174.201V175.326C58.4531 175.844 58.0334 176.264 57.5156 176.264Z" fill="#95ECE3"/>
<path d="M57.5156 172.014C56.9979 172.014 56.5781 171.594 56.5781 171.076V169.951C56.5781 169.433 56.9979 169.014 57.5156 169.014C58.0334 169.014 58.4531 169.433 58.4531 169.951V171.076C58.4531 171.594 58.0334 172.014 57.5156 172.014Z" fill="#95ECE3"/>
<path d="M57.5156 167.764C56.9979 167.764 56.5781 167.344 56.5781 166.826V165.701C56.5781 165.183 56.9979 164.764 57.5156 164.764C58.0334 164.764 58.4531 165.183 58.4531 165.701V166.826C58.4531 167.344 58.0334 167.764 57.5156 167.764Z" fill="#95ECE3"/>
<path d="M36.2656 176.264C35.7479 176.264 35.3281 175.844 35.3281 175.326V174.201C35.3281 173.683 35.7479 173.264 36.2656 173.264C36.7834 173.264 37.2031 173.683 37.2031 174.201V175.326C37.2031 175.844 36.7835 176.264 36.2656 176.264Z" fill="#95ECE3"/>
<path d="M36.2656 172.014C35.7479 172.014 35.3281 171.594 35.3281 171.076V169.951C35.3281 169.433 35.7479 169.014 36.2656 169.014C36.7834 169.014 37.2031 169.433 37.2031 169.951V171.076C37.2031 171.594 36.7835 172.014 36.2656 172.014Z" fill="#95ECE3"/>
<path d="M36.2656 167.764C35.7479 167.764 35.3281 167.344 35.3281 166.826V165.701C35.3281 165.183 35.7479 164.764 36.2656 164.764C36.7834 164.764 37.2031 165.183 37.2031 165.701V166.826C37.2031 167.344 36.7835 167.764 36.2656 167.764Z" fill="#95ECE3"/>
<path d="M53.8594 163.126H52.7344C52.2166 163.126 51.7969 162.706 51.7969 162.188C51.7969 161.671 52.2166 161.251 52.7344 161.251H53.8594C54.3771 161.251 54.7969 161.671 54.7969 162.188C54.7969 162.706 54.3771 163.126 53.8594 163.126Z" fill="#95ECE3"/>
<path d="M49.6094 163.126H48.4844C47.9666 163.126 47.5469 162.706 47.5469 162.188C47.5469 161.671 47.9666 161.251 48.4844 161.251H49.6094C50.1271 161.251 50.5469 161.671 50.5469 162.188C50.5469 162.706 50.1271 163.126 49.6094 163.126Z" fill="#95ECE3"/>
<path d="M45.3594 163.126H44.2344C43.7166 163.126 43.2969 162.706 43.2969 162.188C43.2969 161.671 43.7166 161.251 44.2344 161.251H45.3594C45.8771 161.251 46.2969 161.671 46.2969 162.188C46.2969 162.706 45.8773 163.126 45.3594 163.126Z" fill="#95ECE3"/>
<path d="M41.1094 163.126H39.9844C39.4666 163.126 39.0469 162.706 39.0469 162.188C39.0469 161.671 39.4666 161.251 39.9844 161.251H41.1094C41.6271 161.251 42.0469 161.671 42.0469 162.188C42.0469 162.706 41.6273 163.126 41.1094 163.126Z" fill="#95ECE3"/>
<path d="M55.0156 176.063C55.0156 176.407 54.7344 176.688 54.3906 176.688H39.3906C39.0469 176.688 38.7656 176.407 38.7656 176.063V165.313C38.7656 164.97 39.0469 164.688 39.3906 164.688H54.3906C54.7344 164.688 55.0156 164.97 55.0156 165.313V176.063Z" fill="#05A899"/>
<path d="M41.246 176.063V165.313C41.246 164.97 41.5272 164.688 41.871 164.688H39.3906C39.0469 164.688 38.7656 164.97 38.7656 165.313V176.063C38.7656 176.407 39.0469 176.688 39.3906 176.688H41.871C41.5272 176.688 41.246 176.407 41.246 176.063Z" fill="#0A8A7B"/>
<path d="M59.2656 163.126C59.2656 163.47 58.9844 163.751 58.6406 163.751H56.0156C55.6719 163.751 55.3906 163.47 55.3906 163.126V160.501C55.3906 160.157 55.6719 159.876 56.0156 159.876H58.6406C58.9844 159.876 59.2656 160.157 59.2656 160.501V163.126Z" fill="#05A899"/>
<path d="M38.5156 163.376C38.5156 163.72 38.2344 164.001 37.8906 164.001H35.2656C34.9219 164.001 34.6406 163.72 34.6406 163.376V160.751C34.6406 160.407 34.9219 160.126 35.2656 160.126H37.8906C38.2344 160.126 38.5156 160.407 38.5156 160.751V163.376Z" fill="#05A899"/>
<path d="M59.2656 180.61C59.2656 180.954 58.9844 181.235 58.6406 181.235H56.0156C55.6719 181.235 55.3906 180.954 55.3906 180.61V177.985C55.3906 177.642 55.6719 177.36 56.0156 177.36H58.6406C58.9844 177.36 59.2656 177.642 59.2656 177.985V180.61Z" fill="#05A899"/>
<path d="M38.5156 180.61C38.5156 180.954 38.2344 181.235 37.8906 181.235H35.2656C34.9219 181.235 34.6406 180.954 34.6406 180.61V177.985C34.6406 177.642 34.9219 177.36 35.2656 177.36H37.8906C38.2344 177.36 38.5156 177.642 38.5156 177.985V180.61Z" fill="#05A899"/>
<path d="M56.7684 163.126V160.501C56.7684 160.157 57.0496 159.876 57.3934 159.876H56.0156C55.6719 159.876 55.3906 160.157 55.3906 160.501V163.126C55.3906 163.47 55.6719 163.751 56.0156 163.751H57.3934C57.0496 163.751 56.7684 163.47 56.7684 163.126Z" fill="#0A8A7B"/>
<path d="M36.0184 163.376V160.751C36.0184 160.407 36.2996 160.126 36.6434 160.126H35.2656C34.9219 160.126 34.6406 160.407 34.6406 160.751V163.376C34.6406 163.72 34.9219 164.001 35.2656 164.001H36.6434C36.2996 164.001 36.0184 163.72 36.0184 163.376Z" fill="#0A8A7B"/>
<path d="M56.7684 180.61V177.985C56.7684 177.642 57.0496 177.36 57.3934 177.36H56.0156C55.6719 177.36 55.3906 177.642 55.3906 177.985V180.61C55.3906 180.954 55.6719 181.235 56.0156 181.235H57.3934C57.0496 181.235 56.7684 180.954 56.7684 180.61Z" fill="#0A8A7B"/>
<path d="M36.0184 180.61V177.985C36.0184 177.642 36.2996 177.36 36.6434 177.36H35.2656C34.9219 177.36 34.6406 177.642 34.6406 177.985V180.61C34.6406 180.954 34.9219 181.235 35.2656 181.235H36.6434C36.2996 181.235 36.0184 180.954 36.0184 180.61Z" fill="#0A8A7B"/>
<path d="M84.4339 193.846C84.4146 193.793 84.4161 193.763 84.4188 193.754C84.4188 193.754 84.4266 193.753 84.4337 193.753C84.4479 193.753 84.4728 193.756 84.5104 193.77L89.7734 195.703V183.873C89.7734 183.529 89.4922 183.248 89.1484 183.248H69.2734C68.9297 183.248 68.6484 183.529 68.6484 183.873V198.223C68.6484 198.567 68.9297 198.848 69.2734 198.848H86.2709L84.4339 193.846Z" fill="#B6C4CF"/>
<path d="M71.1287 198.223V183.873C71.1287 183.529 71.4099 183.248 71.7537 183.248H69.2734C68.9297 183.248 68.6484 183.529 68.6484 183.873V198.223C68.6484 198.567 68.9297 198.848 69.2734 198.848H71.7537C71.4099 198.848 71.1287 198.567 71.1287 198.223Z" fill="#87939C"/>
<path d="M84.5504 193.652C84.3445 193.577 84.2378 193.683 84.3134 193.889L87.609 202.862C87.6846 203.068 87.8735 203.11 88.0286 202.954L89.7783 201.205C89.9334 201.05 90.1873 201.05 90.3426 201.205L92.3586 203.221C92.5138 203.376 92.7676 203.376 92.9229 203.221L93.8821 202.262C94.0373 202.107 94.0373 201.853 93.8821 201.698L91.866 199.681C91.7109 199.526 91.7109 199.272 91.866 199.117L93.6155 197.368C93.7708 197.213 93.7291 197.024 93.5231 196.948L84.5504 193.652Z" fill="#383838"/>
<path d="M111.35 189V171.5H114.6V189H111.35ZM112.85 181.825V178.875H121.875V181.825H112.85ZM112.85 174.5V171.5H122.95V174.5H112.85ZM125.79 189V175.825H128.815L128.865 180.025L128.44 179.075C128.624 178.408 128.94 177.808 129.39 177.275C129.84 176.742 130.357 176.325 130.94 176.025C131.54 175.708 132.165 175.55 132.815 175.55C133.099 175.55 133.365 175.575 133.615 175.625C133.882 175.675 134.099 175.733 134.265 175.8L133.44 179.175C133.257 179.075 133.032 178.992 132.765 178.925C132.499 178.858 132.232 178.825 131.965 178.825C131.549 178.825 131.149 178.908 130.765 179.075C130.399 179.225 130.074 179.442 129.79 179.725C129.507 180.008 129.282 180.342 129.115 180.725C128.965 181.092 128.89 181.508 128.89 181.975V189H125.79ZM141.776 189.25C140.46 189.25 139.285 188.958 138.251 188.375C137.218 187.775 136.401 186.958 135.801 185.925C135.201 184.892 134.901 183.717 134.901 182.4C134.901 181.083 135.201 179.908 135.801 178.875C136.401 177.842 137.218 177.033 138.251 176.45C139.285 175.85 140.46 175.55 141.776 175.55C143.076 175.55 144.243 175.85 145.276 176.45C146.31 177.033 147.118 177.842 147.701 178.875C148.301 179.908 148.601 181.083 148.601 182.4C148.601 183.717 148.301 184.892 147.701 185.925C147.118 186.958 146.31 187.775 145.276 188.375C144.243 188.958 143.076 189.25 141.776 189.25ZM141.776 186.525C142.493 186.525 143.126 186.342 143.676 185.975C144.243 185.608 144.685 185.117 145.001 184.5C145.335 183.883 145.493 183.183 145.476 182.4C145.493 181.6 145.335 180.892 145.001 180.275C144.685 179.658 144.243 179.175 143.676 178.825C143.126 178.458 142.493 178.275 141.776 178.275C141.06 178.275 140.41 178.458 139.826 178.825C139.26 179.175 138.818 179.667 138.501 180.3C138.185 180.917 138.026 181.617 138.026 182.4C138.026 183.183 138.185 183.883 138.501 184.5C138.818 185.117 139.26 185.608 139.826 185.975C140.41 186.342 141.06 186.525 141.776 186.525ZM151.352 189V175.825H154.352L154.402 178.525L153.827 178.825C153.993 178.225 154.318 177.683 154.802 177.2C155.285 176.7 155.86 176.3 156.527 176C157.193 175.7 157.877 175.55 158.577 175.55C159.577 175.55 160.41 175.75 161.077 176.15C161.76 176.55 162.268 177.15 162.602 177.95C162.952 178.75 163.127 179.75 163.127 180.95V189H160.052V181.175C160.052 180.508 159.96 179.958 159.777 179.525C159.593 179.075 159.31 178.75 158.927 178.55C158.543 178.333 158.077 178.233 157.527 178.25C157.077 178.25 156.66 178.325 156.277 178.475C155.91 178.608 155.585 178.808 155.302 179.075C155.035 179.325 154.818 179.617 154.652 179.95C154.502 180.283 154.427 180.65 154.427 181.05V189H152.902C152.602 189 152.318 189 152.052 189C151.802 189 151.568 189 151.352 189ZM168.011 189V172.475H171.086V189H168.011ZM165.411 178.675V175.825H173.961V178.675H165.411ZM175.803 183.325V180.375H183.528V183.325H175.803ZM192.805 189.25C191.422 189.25 190.197 188.958 189.13 188.375C188.08 187.792 187.255 187 186.655 186C186.072 184.983 185.78 183.825 185.78 182.525C185.78 181.492 185.947 180.55 186.28 179.7C186.613 178.85 187.072 178.117 187.655 177.5C188.255 176.867 188.963 176.383 189.78 176.05C190.613 175.7 191.522 175.525 192.505 175.525C193.372 175.525 194.18 175.692 194.93 176.025C195.68 176.358 196.33 176.817 196.88 177.4C197.43 177.967 197.847 178.65 198.13 179.45C198.43 180.233 198.572 181.092 198.555 182.025L198.53 183.1H187.855L187.28 181H195.955L195.555 181.425V180.875C195.505 180.358 195.338 179.908 195.055 179.525C194.772 179.125 194.405 178.817 193.955 178.6C193.522 178.367 193.038 178.25 192.505 178.25C191.688 178.25 190.997 178.408 190.43 178.725C189.88 179.042 189.463 179.5 189.18 180.1C188.897 180.683 188.755 181.417 188.755 182.3C188.755 183.15 188.93 183.892 189.28 184.525C189.647 185.158 190.155 185.65 190.805 186C191.472 186.333 192.247 186.5 193.13 186.5C193.747 186.5 194.313 186.4 194.83 186.2C195.347 186 195.905 185.642 196.505 185.125L198.03 187.25C197.58 187.667 197.063 188.025 196.48 188.325C195.913 188.608 195.313 188.833 194.68 189C194.047 189.167 193.422 189.25 192.805 189.25ZM201.279 189V175.825H204.279L204.329 178.525L203.754 178.825C203.92 178.225 204.245 177.683 204.729 177.2C205.212 176.7 205.787 176.3 206.454 176C207.12 175.7 207.804 175.55 208.504 175.55C209.504 175.55 210.337 175.75 211.004 176.15C211.687 176.55 212.195 177.15 212.529 177.95C212.879 178.75 213.054 179.75 213.054 180.95V189H209.979V181.175C209.979 180.508 209.887 179.958 209.704 179.525C209.52 179.075 209.237 178.75 208.854 178.55C208.47 178.333 208.004 178.233 207.454 178.25C207.004 178.25 206.587 178.325 206.204 178.475C205.837 178.608 205.512 178.808 205.229 179.075C204.962 179.325 204.745 179.617 204.579 179.95C204.429 180.283 204.354 180.65 204.354 181.05V189H202.829C202.529 189 202.245 189 201.979 189C201.729 189 201.495 189 201.279 189ZM221.813 189.25C220.646 189.25 219.596 188.958 218.663 188.375C217.746 187.775 217.013 186.967 216.463 185.95C215.93 184.917 215.663 183.733 215.663 182.4C215.663 181.083 215.93 179.908 216.463 178.875C216.996 177.842 217.721 177.033 218.638 176.45C219.571 175.85 220.621 175.55 221.788 175.55C222.421 175.55 223.03 175.65 223.613 175.85C224.213 176.05 224.746 176.325 225.213 176.675C225.68 177.008 226.046 177.383 226.313 177.8C226.596 178.217 226.755 178.65 226.788 179.1L225.963 179.2V170.5H229.038V189H226.063L225.988 185.9L226.588 185.95C226.571 186.367 226.421 186.767 226.138 187.15C225.871 187.533 225.521 187.883 225.088 188.2C224.655 188.517 224.146 188.775 223.563 188.975C222.996 189.158 222.413 189.25 221.813 189.25ZM222.413 186.65C223.13 186.65 223.763 186.467 224.313 186.1C224.863 185.733 225.288 185.233 225.588 184.6C225.905 183.967 226.063 183.233 226.063 182.4C226.063 181.583 225.905 180.858 225.588 180.225C225.288 179.575 224.863 179.075 224.313 178.725C223.763 178.358 223.13 178.175 222.413 178.175C221.696 178.175 221.063 178.358 220.513 178.725C219.963 179.075 219.53 179.575 219.213 180.225C218.913 180.858 218.763 181.583 218.763 182.4C218.763 183.233 218.913 183.967 219.213 184.6C219.53 185.233 219.963 185.733 220.513 186.1C221.063 186.467 221.696 186.65 222.413 186.65Z" fill="#5E569B"/>
</svg>
