<svg width="1300" height="693" viewBox="0 0 1300 693" fill="none" xmlns="http://www.w3.org/2000/svg">
<g filter="url(#filter0_d_542_4000)">
<rect x="331" y="397" width="215" height="50" rx="10" fill="url(#paint0_linear_542_4000)" shape-rendering="crispEdges"/>
<path d="M374.153 428.17C370.515 428.17 367.795 425.603 367.795 422.05C367.795 418.497 370.515 415.93 374.17 415.93C376.108 415.93 377.774 416.627 378.879 417.919L377.451 419.262C376.584 418.327 375.513 417.868 374.272 417.868C371.807 417.868 370.022 419.602 370.022 422.05C370.022 424.498 371.807 426.232 374.272 426.232C375.513 426.232 376.584 425.773 377.451 424.821L378.879 426.181C377.774 427.473 376.108 428.17 374.153 428.17ZM380.792 428V415.386H382.917V428H380.792ZM389.175 418.82C391.793 418.82 393.306 420.061 393.306 422.679V428H391.3V426.895C390.79 427.677 389.804 428.119 388.444 428.119C386.37 428.119 385.061 426.98 385.061 425.399C385.061 423.886 386.081 422.696 388.835 422.696H391.181V422.56C391.181 421.319 390.433 420.588 388.92 420.588C387.9 420.588 386.846 420.928 386.166 421.489L385.333 419.942C386.302 419.194 387.713 418.82 389.175 418.82ZM388.886 426.572C389.923 426.572 390.824 426.096 391.181 425.161V424.107H388.988C387.543 424.107 387.152 424.651 387.152 425.314C387.152 426.079 387.798 426.572 388.886 426.572ZM398.838 428.119C397.325 428.119 395.812 427.677 394.996 427.099L395.812 425.484C396.611 426.011 397.835 426.385 398.974 426.385C400.317 426.385 400.878 426.011 400.878 425.382C400.878 423.648 395.268 425.28 395.268 421.659C395.268 419.942 396.815 418.82 399.263 418.82C400.47 418.82 401.847 419.109 402.663 419.602L401.847 421.217C400.98 420.707 400.113 420.537 399.246 420.537C397.954 420.537 397.342 420.962 397.342 421.557C397.342 423.393 402.952 421.761 402.952 425.314C402.952 427.014 401.388 428.119 398.838 428.119ZM407.587 428.119C406.074 428.119 404.561 427.677 403.745 427.099L404.561 425.484C405.36 426.011 406.584 426.385 407.723 426.385C409.066 426.385 409.627 426.011 409.627 425.382C409.627 423.648 404.017 425.28 404.017 421.659C404.017 419.942 405.564 418.82 408.012 418.82C409.219 418.82 410.596 419.109 411.412 419.602L410.596 421.217C409.729 420.707 408.862 420.537 407.995 420.537C406.703 420.537 406.091 420.962 406.091 421.557C406.091 423.393 411.701 421.761 411.701 425.314C411.701 427.014 410.137 428.119 407.587 428.119ZM414.602 417.426C413.82 417.426 413.242 416.865 413.242 416.151C413.242 415.437 413.82 414.876 414.602 414.876C415.384 414.876 415.962 415.403 415.962 416.1C415.962 416.848 415.401 417.426 414.602 417.426ZM413.531 428V418.922H415.656V428H413.531ZM422.61 428.119C419.737 428.119 417.697 426.181 417.697 423.461C417.697 420.741 419.737 418.82 422.61 418.82C424.378 418.82 425.789 419.551 426.486 420.928L424.854 421.88C424.31 421.013 423.494 420.622 422.593 420.622C421.029 420.622 419.839 421.71 419.839 423.461C419.839 425.229 421.029 426.3 422.593 426.3C423.494 426.3 424.31 425.909 424.854 425.042L426.486 425.994C425.789 427.354 424.378 428.119 422.61 428.119ZM431.791 418.82C434.409 418.82 435.922 420.061 435.922 422.679V428H433.916V426.895C433.406 427.677 432.42 428.119 431.06 428.119C428.986 428.119 427.677 426.98 427.677 425.399C427.677 423.886 428.697 422.696 431.451 422.696H433.797V422.56C433.797 421.319 433.049 420.588 431.536 420.588C430.516 420.588 429.462 420.928 428.782 421.489L427.949 419.942C428.918 419.194 430.329 418.82 431.791 418.82ZM431.502 426.572C432.539 426.572 433.44 426.096 433.797 425.161V424.107H431.604C430.159 424.107 429.768 424.651 429.768 425.314C429.768 426.079 430.414 426.572 431.502 426.572ZM438.649 428V415.386H440.774V428H438.649ZM453.973 428.17C450.335 428.17 447.615 425.603 447.615 422.05C447.615 418.497 450.335 415.93 453.99 415.93C455.928 415.93 457.594 416.627 458.699 417.919L457.271 419.262C456.404 418.327 455.333 417.868 454.092 417.868C451.627 417.868 449.842 419.602 449.842 422.05C449.842 424.498 451.627 426.232 454.092 426.232C455.333 426.232 456.404 425.773 457.271 424.821L458.699 426.181C457.594 427.473 455.928 428.17 453.973 428.17ZM464.361 428.119C461.573 428.119 459.533 426.181 459.533 423.461C459.533 420.741 461.573 418.82 464.361 418.82C467.183 418.82 469.206 420.741 469.206 423.461C469.206 426.181 467.183 428.119 464.361 428.119ZM464.361 426.3C465.908 426.3 467.064 425.195 467.064 423.461C467.064 421.727 465.908 420.622 464.361 420.622C462.831 420.622 461.675 421.727 461.675 423.461C461.675 425.195 462.831 426.3 464.361 426.3ZM478.004 415.386H480.129V428H478.089V426.827C477.375 427.694 476.321 428.119 475.08 428.119C472.445 428.119 470.49 426.283 470.49 423.461C470.49 420.639 472.445 418.82 475.08 418.82C476.253 418.82 477.29 419.211 478.004 420.044V415.386ZM475.335 426.3C476.865 426.3 478.038 425.195 478.038 423.461C478.038 421.727 476.865 420.622 475.335 420.622C473.805 420.622 472.632 421.727 472.632 423.461C472.632 425.195 473.805 426.3 475.335 426.3ZM483.98 417.426C483.198 417.426 482.62 416.865 482.62 416.151C482.62 415.437 483.198 414.876 483.98 414.876C484.762 414.876 485.34 415.403 485.34 416.1C485.34 416.848 484.779 417.426 483.98 417.426ZM482.909 428V418.922H485.034V428H482.909ZM492.974 418.82C495.15 418.82 496.765 420.061 496.765 422.798V428H494.64V423.07C494.64 421.455 493.841 420.673 492.481 420.673C490.968 420.673 489.948 421.591 489.948 423.41V428H487.823V418.922H489.846V420.095C490.543 419.262 491.648 418.82 492.974 418.82ZM506.53 418.922H508.553V426.623C508.553 429.921 506.836 431.417 503.657 431.417C501.957 431.417 500.274 430.975 499.237 430.125L500.189 428.527C500.988 429.19 502.28 429.615 503.538 429.615C505.544 429.615 506.428 428.697 506.428 426.861V426.385C505.68 427.201 504.609 427.592 503.385 427.592C500.784 427.592 498.795 425.824 498.795 423.189C498.795 420.554 500.784 418.82 503.385 418.82C504.66 418.82 505.782 419.228 506.53 420.129V418.922ZM503.708 425.79C505.306 425.79 506.462 424.736 506.462 423.189C506.462 421.659 505.306 420.622 503.708 420.622C502.093 420.622 500.937 421.659 500.937 423.189C500.937 424.736 502.093 425.79 503.708 425.79Z" fill="white"/>
</g>
<path d="M849 343L844.093 351.5L853.907 351.5L849 343ZM849 391L853.907 382.5L844.093 382.5L849 391ZM848.15 350.65L848.15 383.35L849.85 383.35L849.85 350.65L848.15 350.65Z" fill="#35BCAE"/>
<g filter="url(#filter1_d_542_4000)">
<rect x="331" y="537" width="861" height="72" rx="10" fill="url(#paint1_linear_542_4000)" shape-rendering="crispEdges"/>
<path d="M377.302 568L376.248 565.45H370.723L369.669 568H366.847L372.151 556.1H374.871L380.192 568H377.302ZM371.607 563.359H375.381L373.494 558.803L371.607 563.359ZM386.578 556.1C389.757 556.1 391.746 557.749 391.746 560.418C391.746 563.07 389.757 564.719 386.578 564.719H384.181V568H381.427V556.1H386.578ZM386.425 562.475C388.108 562.475 388.958 561.71 388.958 560.418C388.958 559.109 388.108 558.344 386.425 558.344H384.181V562.475H386.425ZM393.712 568V556.1H396.466V568H393.712ZM414.695 566.521L413.25 568.204L411.822 566.878C410.734 567.728 409.374 568.204 407.844 568.204C405.226 568.204 403.305 566.844 403.305 564.94C403.305 563.444 404.104 562.407 405.923 561.387C405.056 560.486 404.699 559.721 404.699 558.871C404.699 557.137 406.161 555.947 408.405 555.947C410.462 555.947 411.822 557.001 411.822 558.684C411.822 559.908 411.108 560.809 409.493 561.693L411.669 563.716C411.924 563.189 412.128 562.56 412.264 561.863L414.389 562.526C414.168 563.546 413.811 564.464 413.301 565.229L414.695 566.521ZM408.405 557.749C407.589 557.749 407.113 558.208 407.113 558.837C407.113 559.296 407.3 559.636 408.031 560.35C409.204 559.721 409.578 559.279 409.578 558.735C409.578 558.157 409.17 557.749 408.405 557.749ZM408.031 566.13C408.847 566.13 409.612 565.892 410.258 565.433L407.385 562.747C406.297 563.376 405.906 563.92 405.906 564.651C405.906 565.518 406.722 566.13 408.031 566.13ZM429.481 556.1H432.201V568H429.94L424.007 560.775V568H421.287V556.1H423.565L429.481 563.325V556.1ZM440.779 568.204C437.022 568.204 434.268 565.586 434.268 562.05C434.268 558.514 437.022 555.896 440.779 555.896C444.519 555.896 447.29 558.497 447.29 562.05C447.29 565.603 444.519 568.204 440.779 568.204ZM440.779 565.858C442.904 565.858 444.502 564.311 444.502 562.05C444.502 559.789 442.904 558.242 440.779 558.242C438.654 558.242 437.056 559.789 437.056 562.05C437.056 564.311 438.654 565.858 440.779 565.858ZM457.554 556.1H460.274V568H458.013L452.08 560.775V568H449.36V556.1H451.638L457.554 563.325V556.1ZM476.795 568L475.741 565.45H470.216L469.162 568H466.34L471.644 556.1H474.364L479.685 568H476.795ZM471.1 563.359H474.874L472.987 558.803L471.1 563.359ZM486.071 556.1C489.25 556.1 491.239 557.749 491.239 560.418C491.239 563.07 489.25 564.719 486.071 564.719H483.674V568H480.92V556.1H486.071ZM485.918 562.475C487.601 562.475 488.451 561.71 488.451 560.418C488.451 559.109 487.601 558.344 485.918 558.344H483.674V562.475H485.918ZM493.205 568V556.1H495.959V568H493.205ZM370.74 593.298C369.482 591.241 368.768 588.47 368.768 585.342C368.768 582.214 369.482 579.409 370.74 577.386H371.896C370.553 579.715 369.958 582.316 369.958 585.342C369.958 588.368 370.553 590.969 371.896 593.298H370.74ZM374.533 590V578.1H379.378C383.186 578.1 385.753 580.548 385.753 584.05C385.753 587.552 383.186 590 379.378 590H374.533ZM375.791 588.912H379.31C382.472 588.912 384.512 586.906 384.512 584.05C384.512 581.194 382.472 579.188 379.31 579.188H375.791V588.912ZM396.075 583.863C397.605 584.203 398.523 585.206 398.523 586.821C398.523 588.844 397.027 590 394.052 590H388.578V578.1H393.712C396.364 578.1 397.894 579.222 397.894 581.16C397.894 582.52 397.163 583.421 396.075 583.863ZM393.627 579.137H389.836V583.455H393.627C395.531 583.455 396.636 582.724 396.636 581.296C396.636 579.868 395.531 579.137 393.627 579.137ZM394.035 588.963C396.126 588.963 397.265 588.283 397.265 586.719C397.265 585.172 396.126 584.492 394.035 584.492H389.836V588.963H394.035ZM401.308 588.232C401.835 588.232 402.209 588.64 402.209 589.15C402.209 589.439 402.141 589.66 401.971 590.136L401.257 592.482H400.441L401.019 590.017C400.662 589.915 400.407 589.592 400.407 589.15C400.407 588.623 400.798 588.232 401.308 588.232ZM417.639 579.188H410.737V583.863H416.891V584.951H410.737V590H409.479V578.1H417.639V579.188ZM420.428 579.103C419.935 579.103 419.544 578.712 419.544 578.236C419.544 577.777 419.935 577.386 420.428 577.386C420.921 577.386 421.312 577.76 421.312 578.219C421.312 578.712 420.938 579.103 420.428 579.103ZM419.816 590V581.058H421.023V590H419.816ZM424.381 590V577.386H425.588V590H424.381ZM436.75 585.529C436.75 585.631 436.733 585.767 436.733 585.903H429.253C429.389 587.773 430.817 589.014 432.772 589.014C433.86 589.014 434.829 588.623 435.509 587.841L436.189 588.623C435.39 589.575 434.149 590.085 432.738 590.085C429.95 590.085 428.046 588.181 428.046 585.529C428.046 582.877 429.899 580.99 432.415 580.99C434.931 580.99 436.75 582.843 436.75 585.529ZM432.415 582.027C430.681 582.027 429.406 583.251 429.253 585.002H435.594C435.441 583.251 434.166 582.027 432.415 582.027ZM441.603 590.085C440.124 590.085 438.696 589.609 437.965 588.98L438.509 588.028C439.223 588.589 440.43 589.031 441.688 589.031C443.388 589.031 444.085 588.453 444.085 587.569C444.085 585.24 438.288 587.076 438.288 583.54C438.288 582.078 439.546 580.99 441.824 580.99C442.98 580.99 444.238 581.313 444.986 581.823L444.459 582.792C443.677 582.248 442.742 582.027 441.824 582.027C440.209 582.027 439.495 582.656 439.495 583.506C439.495 585.92 445.292 584.101 445.292 587.535C445.292 589.082 443.932 590.085 441.603 590.085ZM447.66 588.232C448.187 588.232 448.561 588.64 448.561 589.15C448.561 589.439 448.493 589.66 448.323 590.136L447.609 592.482H446.793L447.371 590.017C447.014 589.915 446.759 589.592 446.759 589.15C446.759 588.623 447.15 588.232 447.66 588.232ZM459.112 590.102C457.327 590.102 455.576 589.473 454.692 588.555L455.185 587.586C456.035 588.419 457.548 589.031 459.112 589.031C461.339 589.031 462.308 588.096 462.308 586.923C462.308 583.659 454.981 585.665 454.981 581.262C454.981 579.511 456.341 577.998 459.367 577.998C460.71 577.998 462.104 578.389 463.056 579.052L462.631 580.055C461.611 579.392 460.421 579.069 459.367 579.069C457.191 579.069 456.222 580.038 456.222 581.228C456.222 584.492 463.549 582.52 463.549 586.855C463.549 588.606 462.155 590.102 459.112 590.102ZM469.149 583.2C471.699 583.336 472.974 584.679 472.974 586.583C472.974 588.572 471.529 590.102 468.656 590.102C466.939 590.102 465.29 589.507 464.372 588.572L464.967 587.603C465.732 588.402 467.109 588.98 468.656 588.98C470.628 588.98 471.716 588.062 471.716 586.583C471.716 585.155 470.713 584.22 468.503 584.22H467.653V583.319L470.951 579.188H464.865V578.1H472.515V578.967L469.149 583.2ZM484.554 580.99C487.104 580.99 489.008 582.826 489.008 585.529C489.008 588.232 487.104 590.085 484.554 590.085C483.075 590.085 481.834 589.439 481.103 588.232V590H479.947V577.386H481.154V582.758C481.902 581.602 483.126 580.99 484.554 580.99ZM484.469 589.014C486.356 589.014 487.801 587.62 487.801 585.529C487.801 583.438 486.356 582.044 484.469 582.044C482.565 582.044 481.137 583.438 481.137 585.529C481.137 587.62 482.565 589.014 484.469 589.014ZM498.319 581.058H499.526V590H498.37V588.368C497.741 589.456 496.585 590.085 495.157 590.085C492.879 590.085 491.383 588.81 491.383 586.243V581.058H492.59V586.124C492.59 588.028 493.576 588.997 495.276 588.997C497.146 588.997 498.319 587.79 498.319 585.75V581.058ZM506.613 590.085C503.944 590.085 502.006 588.198 502.006 585.529C502.006 582.86 503.944 580.99 506.613 580.99C508.126 580.99 509.401 581.585 510.115 582.758L509.214 583.37C508.602 582.469 507.65 582.044 506.613 582.044C504.658 582.044 503.23 583.438 503.23 585.529C503.23 587.637 504.658 589.014 506.613 589.014C507.65 589.014 508.602 588.606 509.214 587.705L510.115 588.317C509.401 589.473 508.126 590.085 506.613 590.085ZM519.272 590L515.668 585.512L513.56 587.45V590H512.353V577.386H513.56V585.937L518.898 581.058H520.394L516.569 584.713L520.751 590H519.272ZM530.001 585.529C530.001 585.631 529.984 585.767 529.984 585.903H522.504C522.64 587.773 524.068 589.014 526.023 589.014C527.111 589.014 528.08 588.623 528.76 587.841L529.44 588.623C528.641 589.575 527.4 590.085 525.989 590.085C523.201 590.085 521.297 588.181 521.297 585.529C521.297 582.877 523.15 580.99 525.666 580.99C528.182 580.99 530.001 582.843 530.001 585.529ZM525.666 582.027C523.932 582.027 522.657 583.251 522.504 585.002H528.845C528.692 583.251 527.417 582.027 525.666 582.027ZM536.741 588.589L537.166 589.456C536.69 589.881 535.976 590.085 535.279 590.085C533.596 590.085 532.661 589.133 532.661 587.484V582.078H531.063V581.058H532.661V579.103H533.868V581.058H536.588V582.078H533.868V587.416C533.868 588.47 534.412 589.048 535.415 589.048C535.908 589.048 536.401 588.895 536.741 588.589ZM541.761 590.085C540.282 590.085 538.854 589.609 538.123 588.98L538.667 588.028C539.381 588.589 540.588 589.031 541.846 589.031C543.546 589.031 544.243 588.453 544.243 587.569C544.243 585.24 538.446 587.076 538.446 583.54C538.446 582.078 539.704 580.99 541.982 580.99C543.138 580.99 544.396 581.313 545.144 581.823L544.617 582.792C543.835 582.248 542.9 582.027 541.982 582.027C540.367 582.027 539.653 582.656 539.653 583.506C539.653 585.92 545.45 584.101 545.45 587.535C545.45 589.082 544.09 590.085 541.761 590.085ZM547.817 588.232C548.344 588.232 548.718 588.64 548.718 589.15C548.718 589.439 548.65 589.66 548.48 590.136L547.766 592.482H546.95L547.528 590.017C547.171 589.915 546.916 589.592 546.916 589.15C546.916 588.623 547.307 588.232 547.817 588.232ZM564.148 579.188H557.246V583.863H563.4V584.951H557.246V590H555.988V578.1H564.148V579.188ZM569.141 590V579.188H564.959V578.1H574.581V579.188H570.399V590H569.141ZM581.044 578.1C584.07 578.1 585.906 579.63 585.906 582.18C585.906 584.713 584.07 586.243 581.044 586.243H577.848V590H576.59V578.1H581.044ZM581.01 585.138C583.39 585.138 584.648 584.05 584.648 582.18C584.648 580.276 583.39 579.188 581.01 579.188H577.848V585.138H581.01ZM588.175 588.232C588.702 588.232 589.076 588.64 589.076 589.15C589.076 589.439 589.008 589.66 588.838 590.136L588.124 592.482H587.308L587.886 590.017C587.529 589.915 587.274 589.592 587.274 589.15C587.274 588.623 587.665 588.232 588.175 588.232ZM599.627 590.102C597.842 590.102 596.091 589.473 595.207 588.555L595.7 587.586C596.55 588.419 598.063 589.031 599.627 589.031C601.854 589.031 602.823 588.096 602.823 586.923C602.823 583.659 595.496 585.665 595.496 581.262C595.496 579.511 596.856 577.998 599.882 577.998C601.225 577.998 602.619 578.389 603.571 579.052L603.146 580.055C602.126 579.392 600.936 579.069 599.882 579.069C597.706 579.069 596.737 580.038 596.737 581.228C596.737 584.492 604.064 582.52 604.064 586.855C604.064 588.606 602.67 590.102 599.627 590.102ZM614.353 585.529C614.353 585.631 614.336 585.767 614.336 585.903H606.856C606.992 587.773 608.42 589.014 610.375 589.014C611.463 589.014 612.432 588.623 613.112 587.841L613.792 588.623C612.993 589.575 611.752 590.085 610.341 590.085C607.553 590.085 605.649 588.181 605.649 585.529C605.649 582.877 607.502 580.99 610.018 580.99C612.534 580.99 614.353 582.843 614.353 585.529ZM610.018 582.027C608.284 582.027 607.009 583.251 606.856 585.002H613.197C613.044 583.251 611.769 582.027 610.018 582.027ZM621.366 580.99C623.542 580.99 625.038 582.248 625.038 584.815V590H623.831V584.934C623.831 583.047 622.845 582.078 621.145 582.078C619.224 582.078 618.017 583.268 618.017 585.308V590H616.81V581.058H617.966V582.707C618.612 581.619 619.819 580.99 621.366 580.99ZM630.712 590.085C629.233 590.085 627.805 589.609 627.074 588.98L627.618 588.028C628.332 588.589 629.539 589.031 630.797 589.031C632.497 589.031 633.194 588.453 633.194 587.569C633.194 585.24 627.397 587.076 627.397 583.54C627.397 582.078 628.655 580.99 630.933 580.99C632.089 580.99 633.347 581.313 634.095 581.823L633.568 582.792C632.786 582.248 631.851 582.027 630.933 582.027C629.318 582.027 628.604 582.656 628.604 583.506C628.604 585.92 634.401 584.101 634.401 587.535C634.401 589.082 633.041 590.085 630.712 590.085ZM640.287 590.085C637.669 590.085 635.731 588.181 635.731 585.529C635.731 582.877 637.669 580.99 640.287 580.99C642.905 580.99 644.826 582.877 644.826 585.529C644.826 588.181 642.905 590.085 640.287 590.085ZM640.287 589.014C642.191 589.014 643.602 587.62 643.602 585.529C643.602 583.438 642.191 582.044 640.287 582.044C638.383 582.044 636.955 583.438 636.955 585.529C636.955 587.62 638.383 589.014 640.287 589.014ZM648.446 582.809C649.007 581.619 650.146 580.99 651.795 580.99V582.163C651.693 582.163 651.591 582.146 651.506 582.146C649.636 582.146 648.497 583.336 648.497 585.444V590H647.29V581.058H648.446V582.809ZM656.444 590.085C654.965 590.085 653.537 589.609 652.806 588.98L653.35 588.028C654.064 588.589 655.271 589.031 656.529 589.031C658.229 589.031 658.926 588.453 658.926 587.569C658.926 585.24 653.129 587.076 653.129 583.54C653.129 582.078 654.387 580.99 656.665 580.99C657.821 580.99 659.079 581.313 659.827 581.823L659.3 582.792C658.518 582.248 657.583 582.027 656.665 582.027C655.05 582.027 654.336 582.656 654.336 583.506C654.336 585.92 660.133 584.101 660.133 587.535C660.133 589.082 658.773 590.085 656.444 590.085ZM662.501 588.232C663.028 588.232 663.402 588.64 663.402 589.15C663.402 589.439 663.334 589.66 663.164 590.136L662.45 592.482H661.634L662.212 590.017C661.855 589.915 661.6 589.592 661.6 589.15C661.6 588.623 661.991 588.232 662.501 588.232ZM679.222 590L674.36 584.407L671.929 586.872V590H670.671V578.1H671.929V585.291L678.916 578.1H680.361L675.21 583.489L680.718 590H679.222ZM685.398 580.99C687.71 580.99 689.019 582.146 689.019 584.458V590H687.863V588.606C687.319 589.524 686.265 590.085 684.786 590.085C682.763 590.085 681.522 589.031 681.522 587.484C681.522 586.107 682.406 584.951 684.973 584.951H687.812V584.407C687.812 582.877 686.945 582.044 685.279 582.044C684.123 582.044 683.035 582.452 682.304 583.098L681.76 582.197C682.661 581.432 683.987 580.99 685.398 580.99ZM684.973 589.133C686.333 589.133 687.336 588.487 687.812 587.314V585.852H685.007C683.273 585.852 682.712 586.532 682.712 587.45C682.712 588.487 683.545 589.133 684.973 589.133ZM695.255 578.321C694.218 578.321 693.674 578.899 693.674 580.004V581.058H696.428V582.078H693.708V590H692.501V582.078H690.903V581.058H692.501V579.953C692.501 578.355 693.453 577.301 695.204 577.301C695.867 577.301 696.547 577.488 696.989 577.862L696.581 578.763C696.241 578.474 695.765 578.321 695.255 578.321ZM704.977 590L701.373 585.512L699.265 587.45V590H698.058V577.386H699.265V585.937L704.603 581.058H706.099L702.274 584.713L706.456 590H704.977ZM711.23 580.99C713.542 580.99 714.851 582.146 714.851 584.458V590H713.695V588.606C713.151 589.524 712.097 590.085 710.618 590.085C708.595 590.085 707.354 589.031 707.354 587.484C707.354 586.107 708.238 584.951 710.805 584.951H713.644V584.407C713.644 582.877 712.777 582.044 711.111 582.044C709.955 582.044 708.867 582.452 708.136 583.098L707.592 582.197C708.493 581.432 709.819 580.99 711.23 580.99ZM710.805 589.133C712.165 589.133 713.168 588.487 713.644 587.314V585.852H710.839C709.105 585.852 708.544 586.532 708.544 587.45C708.544 588.487 709.377 589.133 710.805 589.133ZM718.265 588.232C718.792 588.232 719.166 588.64 719.166 589.15C719.166 589.439 719.098 589.66 718.928 590.136L718.214 592.482H717.398L717.976 590.017C717.619 589.915 717.364 589.592 717.364 589.15C717.364 588.623 717.755 588.232 718.265 588.232ZM726.3 590.085C725.807 590.085 725.399 589.677 725.399 589.15C725.399 588.623 725.807 588.232 726.3 588.232C726.793 588.232 727.218 588.623 727.218 589.15C727.218 589.677 726.793 590.085 726.3 590.085ZM729.903 590.085C729.41 590.085 729.002 589.677 729.002 589.15C729.002 588.623 729.41 588.232 729.903 588.232C730.396 588.232 730.821 588.623 730.821 589.15C730.821 589.677 730.396 590.085 729.903 590.085ZM733.505 590.085C733.012 590.085 732.604 589.677 732.604 589.15C732.604 588.623 733.012 588.232 733.505 588.232C733.998 588.232 734.423 588.623 734.423 589.15C734.423 589.677 733.998 590.085 733.505 590.085ZM737.142 593.298H735.986C737.346 590.969 737.941 588.368 737.941 585.342C737.941 582.316 737.346 579.715 735.986 577.386H737.142C738.417 579.409 739.131 582.214 739.131 585.342C739.131 588.47 738.417 591.241 737.142 593.298Z" fill="white"/>
</g>
<path d="M439 453L434.093 461.5L443.907 461.5L439 453ZM439 531L443.907 522.5L434.093 522.5L439 531ZM438.15 460.65L438.15 523.35L439.85 523.35L439.85 460.65L438.15 460.65Z" fill="#35BCAE"/>
<path d="M636 343L631.093 351.5L640.907 351.5L636 343ZM636 531L640.907 522.5L631.093 522.5L636 531ZM635.15 350.65L635.15 523.35L636.85 523.35L636.85 350.65L635.15 350.65Z" fill="#35BCAE"/>
<g filter="url(#filter2_d_542_4000)">
<rect x="331" y="155" width="215" height="50" rx="10" fill="url(#paint2_linear_542_4000)" shape-rendering="crispEdges"/>
<path d="M374.153 186.17C370.515 186.17 367.795 183.603 367.795 180.05C367.795 176.497 370.515 173.93 374.17 173.93C376.108 173.93 377.774 174.627 378.879 175.919L377.451 177.262C376.584 176.327 375.513 175.868 374.272 175.868C371.807 175.868 370.022 177.602 370.022 180.05C370.022 182.498 371.807 184.232 374.272 184.232C375.513 184.232 376.584 183.773 377.451 182.821L378.879 184.181C377.774 185.473 376.108 186.17 374.153 186.17ZM380.792 186V173.386H382.917V186H380.792ZM389.175 176.82C391.793 176.82 393.306 178.061 393.306 180.679V186H391.3V184.895C390.79 185.677 389.804 186.119 388.444 186.119C386.37 186.119 385.061 184.98 385.061 183.399C385.061 181.886 386.081 180.696 388.835 180.696H391.181V180.56C391.181 179.319 390.433 178.588 388.92 178.588C387.9 178.588 386.846 178.928 386.166 179.489L385.333 177.942C386.302 177.194 387.713 176.82 389.175 176.82ZM388.886 184.572C389.923 184.572 390.824 184.096 391.181 183.161V182.107H388.988C387.543 182.107 387.152 182.651 387.152 183.314C387.152 184.079 387.798 184.572 388.886 184.572ZM398.838 186.119C397.325 186.119 395.812 185.677 394.996 185.099L395.812 183.484C396.611 184.011 397.835 184.385 398.974 184.385C400.317 184.385 400.878 184.011 400.878 183.382C400.878 181.648 395.268 183.28 395.268 179.659C395.268 177.942 396.815 176.82 399.263 176.82C400.47 176.82 401.847 177.109 402.663 177.602L401.847 179.217C400.98 178.707 400.113 178.537 399.246 178.537C397.954 178.537 397.342 178.962 397.342 179.557C397.342 181.393 402.952 179.761 402.952 183.314C402.952 185.014 401.388 186.119 398.838 186.119ZM407.587 186.119C406.074 186.119 404.561 185.677 403.745 185.099L404.561 183.484C405.36 184.011 406.584 184.385 407.723 184.385C409.066 184.385 409.627 184.011 409.627 183.382C409.627 181.648 404.017 183.28 404.017 179.659C404.017 177.942 405.564 176.82 408.012 176.82C409.219 176.82 410.596 177.109 411.412 177.602L410.596 179.217C409.729 178.707 408.862 178.537 407.995 178.537C406.703 178.537 406.091 178.962 406.091 179.557C406.091 181.393 411.701 179.761 411.701 183.314C411.701 185.014 410.137 186.119 407.587 186.119ZM414.602 175.426C413.82 175.426 413.242 174.865 413.242 174.151C413.242 173.437 413.82 172.876 414.602 172.876C415.384 172.876 415.962 173.403 415.962 174.1C415.962 174.848 415.401 175.426 414.602 175.426ZM413.531 186V176.922H415.656V186H413.531ZM422.61 186.119C419.737 186.119 417.697 184.181 417.697 181.461C417.697 178.741 419.737 176.82 422.61 176.82C424.378 176.82 425.789 177.551 426.486 178.928L424.854 179.88C424.31 179.013 423.494 178.622 422.593 178.622C421.029 178.622 419.839 179.71 419.839 181.461C419.839 183.229 421.029 184.3 422.593 184.3C423.494 184.3 424.31 183.909 424.854 183.042L426.486 183.994C425.789 185.354 424.378 186.119 422.61 186.119ZM431.791 176.82C434.409 176.82 435.922 178.061 435.922 180.679V186H433.916V184.895C433.406 185.677 432.42 186.119 431.06 186.119C428.986 186.119 427.677 184.98 427.677 183.399C427.677 181.886 428.697 180.696 431.451 180.696H433.797V180.56C433.797 179.319 433.049 178.588 431.536 178.588C430.516 178.588 429.462 178.928 428.782 179.489L427.949 177.942C428.918 177.194 430.329 176.82 431.791 176.82ZM431.502 184.572C432.539 184.572 433.44 184.096 433.797 183.161V182.107H431.604C430.159 182.107 429.768 182.651 429.768 183.314C429.768 184.079 430.414 184.572 431.502 184.572ZM438.649 186V173.386H440.774V186H438.649ZM453.973 186.17C450.335 186.17 447.615 183.603 447.615 180.05C447.615 176.497 450.335 173.93 453.99 173.93C455.928 173.93 457.594 174.627 458.699 175.919L457.271 177.262C456.404 176.327 455.333 175.868 454.092 175.868C451.627 175.868 449.842 177.602 449.842 180.05C449.842 182.498 451.627 184.232 454.092 184.232C455.333 184.232 456.404 183.773 457.271 182.821L458.699 184.181C457.594 185.473 455.928 186.17 453.973 186.17ZM464.361 186.119C461.573 186.119 459.533 184.181 459.533 181.461C459.533 178.741 461.573 176.82 464.361 176.82C467.183 176.82 469.206 178.741 469.206 181.461C469.206 184.181 467.183 186.119 464.361 186.119ZM464.361 184.3C465.908 184.3 467.064 183.195 467.064 181.461C467.064 179.727 465.908 178.622 464.361 178.622C462.831 178.622 461.675 179.727 461.675 181.461C461.675 183.195 462.831 184.3 464.361 184.3ZM478.004 173.386H480.129V186H478.089V184.827C477.375 185.694 476.321 186.119 475.08 186.119C472.445 186.119 470.49 184.283 470.49 181.461C470.49 178.639 472.445 176.82 475.08 176.82C476.253 176.82 477.29 177.211 478.004 178.044V173.386ZM475.335 184.3C476.865 184.3 478.038 183.195 478.038 181.461C478.038 179.727 476.865 178.622 475.335 178.622C473.805 178.622 472.632 179.727 472.632 181.461C472.632 183.195 473.805 184.3 475.335 184.3ZM483.98 175.426C483.198 175.426 482.62 174.865 482.62 174.151C482.62 173.437 483.198 172.876 483.98 172.876C484.762 172.876 485.34 173.403 485.34 174.1C485.34 174.848 484.779 175.426 483.98 175.426ZM482.909 186V176.922H485.034V186H482.909ZM492.974 176.82C495.15 176.82 496.765 178.061 496.765 180.798V186H494.64V181.07C494.64 179.455 493.841 178.673 492.481 178.673C490.968 178.673 489.948 179.591 489.948 181.41V186H487.823V176.922H489.846V178.095C490.543 177.262 491.648 176.82 492.974 176.82ZM506.53 176.922H508.553V184.623C508.553 187.921 506.836 189.417 503.657 189.417C501.957 189.417 500.274 188.975 499.237 188.125L500.189 186.527C500.988 187.19 502.28 187.615 503.538 187.615C505.544 187.615 506.428 186.697 506.428 184.861V184.385C505.68 185.201 504.609 185.592 503.385 185.592C500.784 185.592 498.795 183.824 498.795 181.189C498.795 178.554 500.784 176.82 503.385 176.82C504.66 176.82 505.782 177.228 506.53 178.129V176.922ZM503.708 183.79C505.306 183.79 506.462 182.736 506.462 181.189C506.462 179.659 505.306 178.622 503.708 178.622C502.093 178.622 500.937 179.659 500.937 181.189C500.937 182.736 502.093 183.79 503.708 183.79Z" fill="white"/>
</g>
<g filter="url(#filter3_d_542_4000)">
<rect x="566" y="155" width="190" height="50" rx="10" fill="url(#paint3_linear_542_4000)" shape-rendering="crispEdges"/>
<path d="M618.587 186V174.1H620.797V184.13H627.019V186H618.587ZM632.557 186.119C629.769 186.119 627.729 184.181 627.729 181.461C627.729 178.741 629.769 176.82 632.557 176.82C635.379 176.82 637.402 178.741 637.402 181.461C637.402 184.181 635.379 186.119 632.557 186.119ZM632.557 184.3C634.104 184.3 635.26 183.195 635.26 181.461C635.26 179.727 634.104 178.622 632.557 178.622C631.027 178.622 629.871 179.727 629.871 181.461C629.871 183.195 631.027 184.3 632.557 184.3ZM651.459 176.922H653.346L649.997 186H647.957L645.611 179.744L643.231 186H641.191L637.859 176.922H639.865L642.262 183.62L644.761 176.922H646.546L648.994 183.654L651.459 176.922ZM654.099 182.158V180.39H658.774V182.158H654.099ZM666.894 186.17C663.256 186.17 660.536 183.603 660.536 180.05C660.536 176.497 663.256 173.93 666.911 173.93C668.849 173.93 670.515 174.627 671.62 175.919L670.192 177.262C669.325 176.327 668.254 175.868 667.013 175.868C664.548 175.868 662.763 177.602 662.763 180.05C662.763 182.498 664.548 184.232 667.013 184.232C668.254 184.232 669.325 183.773 670.192 182.821L671.62 184.181C670.515 185.473 668.849 186.17 666.894 186.17ZM677.282 186.119C674.494 186.119 672.454 184.181 672.454 181.461C672.454 178.741 674.494 176.82 677.282 176.82C680.104 176.82 682.127 178.741 682.127 181.461C682.127 184.181 680.104 186.119 677.282 186.119ZM677.282 184.3C678.829 184.3 679.985 183.195 679.985 181.461C679.985 179.727 678.829 178.622 677.282 178.622C675.752 178.622 674.596 179.727 674.596 181.461C674.596 183.195 675.752 184.3 677.282 184.3ZM690.925 173.386H693.05V186H691.01V184.827C690.296 185.694 689.242 186.119 688.001 186.119C685.366 186.119 683.411 184.283 683.411 181.461C683.411 178.639 685.366 176.82 688.001 176.82C689.174 176.82 690.211 177.211 690.925 178.044V173.386ZM688.256 184.3C689.786 184.3 690.959 183.195 690.959 181.461C690.959 179.727 689.786 178.622 688.256 178.622C686.726 178.622 685.553 179.727 685.553 181.461C685.553 183.195 686.726 184.3 688.256 184.3ZM704.364 181.512C704.364 181.682 704.347 181.937 704.33 182.141H697.207C697.462 183.467 698.567 184.317 700.148 184.317C701.168 184.317 701.967 183.994 702.613 183.331L703.752 184.64C702.936 185.609 701.661 186.119 700.097 186.119C697.054 186.119 695.082 184.164 695.082 181.461C695.082 178.758 697.071 176.82 699.774 176.82C702.426 176.82 704.364 178.673 704.364 181.512ZM699.774 178.52C698.397 178.52 697.394 179.404 697.19 180.73H702.341C702.171 179.421 701.168 178.52 699.774 178.52Z" fill="white"/>
</g>
<path d="M661 211L656.093 219.5L665.907 219.5L661 211ZM661 259L665.907 250.5L656.093 250.5L661 259ZM660.15 218.65L660.15 251.35L661.85 251.35L661.85 218.65L660.15 218.65Z" fill="#35BCAE"/>
<path d="M930 211L925.093 219.5L934.907 219.5L930 211ZM930 259L934.907 250.5L925.093 250.5L930 259ZM929.15 218.65L929.15 251.35L930.85 251.35L930.85 218.65L929.15 218.65Z" fill="#35BCAE"/>
<path d="M439 211L434.093 219.5L443.907 219.5L439 211ZM439 259L443.907 250.5L434.093 250.5L439 259ZM438.15 218.65L438.15 251.35L439.85 251.35L439.85 218.65L438.15 218.65Z" fill="#35BCAE"/>
<g filter="url(#filter4_d_542_4000)">
<rect x="331" y="265" width="609" height="72" rx="10" fill="url(#paint4_linear_542_4000)" shape-rendering="crispEdges"/>
<path d="M377.302 296L376.248 293.45H370.723L369.669 296H366.847L372.151 284.1H374.871L380.192 296H377.302ZM371.607 291.359H375.381L373.494 286.803L371.607 291.359ZM386.578 284.1C389.757 284.1 391.746 285.749 391.746 288.418C391.746 291.07 389.757 292.719 386.578 292.719H384.181V296H381.427V284.1H386.578ZM386.425 290.475C388.108 290.475 388.958 289.71 388.958 288.418C388.958 287.109 388.108 286.344 386.425 286.344H384.181V290.475H386.425ZM393.712 296V284.1H396.466V296H393.712ZM409.255 284.1C412.434 284.1 414.423 285.749 414.423 288.418C414.423 291.07 412.434 292.719 409.255 292.719H406.858V296H404.104V284.1H409.255ZM409.102 290.475C410.785 290.475 411.635 289.71 411.635 288.418C411.635 287.109 410.785 286.344 409.102 286.344H406.858V290.475H409.102ZM416.369 296V283.386H419.021V296H416.369ZM425.171 286.718C427.959 286.718 429.574 288.01 429.574 290.781V296H427.092V294.861C426.599 295.694 425.647 296.136 424.304 296.136C422.162 296.136 420.887 294.946 420.887 293.365C420.887 291.75 422.026 290.628 424.814 290.628H426.922C426.922 289.489 426.242 288.826 424.814 288.826C423.845 288.826 422.842 289.149 422.179 289.676L421.227 287.823C422.23 287.109 423.709 286.718 425.171 286.718ZM424.967 294.351C425.851 294.351 426.616 293.943 426.922 293.11V292.175H425.103C423.862 292.175 423.471 292.634 423.471 293.246C423.471 293.909 424.032 294.351 424.967 294.351ZM437.159 293.688L437.873 295.558C437.329 295.949 436.53 296.136 435.714 296.136C433.555 296.136 432.297 295.031 432.297 292.855V289.098H430.886V287.058H432.297V284.831H434.949V287.058H437.227V289.098H434.949V292.821C434.949 293.603 435.374 294.028 436.088 294.028C436.479 294.028 436.87 293.909 437.159 293.688ZM442.269 286.667V287.058H444.615V289.098H442.337V296H439.685V289.098H438.274V287.058H439.685V286.65C439.685 284.593 440.943 283.25 443.221 283.25C443.969 283.25 444.751 283.403 445.244 283.743L444.547 285.664C444.258 285.46 443.884 285.341 443.476 285.341C442.694 285.341 442.269 285.766 442.269 286.667ZM450.172 296.136C447.265 296.136 445.14 294.181 445.14 291.427C445.14 288.673 447.265 286.718 450.172 286.718C453.079 286.718 455.187 288.673 455.187 291.427C455.187 294.181 453.079 296.136 450.172 296.136ZM450.172 293.96C451.498 293.96 452.501 293.008 452.501 291.427C452.501 289.846 451.498 288.894 450.172 288.894C448.846 288.894 447.826 289.846 447.826 291.427C447.826 293.008 448.846 293.96 450.172 293.96ZM459.492 288.061C460.138 287.177 461.226 286.718 462.637 286.718V289.166C462.416 289.149 462.246 289.132 462.042 289.132C460.58 289.132 459.611 289.931 459.611 291.682V296H456.959V286.854H459.492V288.061ZM475.927 286.718C478.103 286.718 479.667 287.976 479.667 290.764V296H477.015V291.172C477.015 289.693 476.352 289.013 475.281 289.013C474.091 289.013 473.258 289.778 473.258 291.41V296H470.606V291.172C470.606 289.693 469.977 289.013 468.872 289.013C467.699 289.013 466.866 289.778 466.866 291.41V296H464.214V286.854H466.747V287.908C467.427 287.126 468.447 286.718 469.62 286.718C470.895 286.718 471.983 287.211 472.629 288.214C473.36 287.279 474.55 286.718 475.927 286.718ZM485.121 296.136C483.574 296.136 482.01 295.711 481.16 295.15L482.044 293.246C482.86 293.773 484.101 294.13 485.223 294.13C486.447 294.13 486.906 293.807 486.906 293.297C486.906 291.801 481.381 293.331 481.381 289.676C481.381 287.942 482.945 286.718 485.614 286.718C486.872 286.718 488.266 287.007 489.133 287.517L488.249 289.404C487.348 288.894 486.447 288.724 485.614 288.724C484.424 288.724 483.914 289.098 483.914 289.574C483.914 291.138 489.439 289.625 489.439 293.229C489.439 294.929 487.858 296.136 485.121 296.136ZM370.74 321.298C369.482 319.241 368.768 316.47 368.768 313.342C368.768 310.214 369.482 307.409 370.74 305.386H371.896C370.553 307.715 369.958 310.316 369.958 313.342C369.958 316.368 370.553 318.969 371.896 321.298H370.74ZM383.424 318L381.996 314.821H375.366L373.938 318H372.629L378.069 306.1H379.31L384.75 318H383.424ZM375.825 313.801H381.537L378.681 307.409L375.825 313.801ZM391.07 308.99C393.62 308.99 395.524 310.826 395.524 313.529C395.524 316.249 393.62 318.085 391.07 318.085C389.642 318.085 388.418 317.473 387.67 316.317V321.298H386.463V309.058H387.619V310.826C388.35 309.636 389.591 308.99 391.07 308.99ZM390.985 317.014C392.872 317.014 394.317 315.62 394.317 313.529C394.317 311.455 392.872 310.044 390.985 310.044C389.081 310.044 387.653 311.455 387.653 313.529C387.653 315.62 389.081 317.014 390.985 317.014ZM398.597 307.103C398.104 307.103 397.713 306.712 397.713 306.236C397.713 305.777 398.104 305.386 398.597 305.386C399.09 305.386 399.481 305.76 399.481 306.219C399.481 306.712 399.107 307.103 398.597 307.103ZM397.985 318V309.058H399.192V318H397.985ZM409.673 309.058H410.829V316.912C410.829 319.989 409.316 321.383 406.358 321.383C404.726 321.383 403.128 320.89 402.193 320.006L402.805 319.088C403.655 319.853 404.947 320.312 406.324 320.312C408.585 320.312 409.622 319.275 409.622 317.065V315.926C408.874 317.065 407.599 317.66 406.137 317.66C403.587 317.66 401.649 315.875 401.649 313.308C401.649 310.741 403.587 308.99 406.137 308.99C407.633 308.99 408.925 309.602 409.673 310.775V309.058ZM406.256 316.589C408.228 316.589 409.656 315.246 409.656 313.308C409.656 311.37 408.228 310.044 406.256 310.044C404.284 310.044 402.873 311.37 402.873 313.308C402.873 315.246 404.284 316.589 406.256 316.589ZM422.007 313.529C422.007 313.631 421.99 313.767 421.99 313.903H414.51C414.646 315.773 416.074 317.014 418.029 317.014C419.117 317.014 420.086 316.623 420.766 315.841L421.446 316.623C420.647 317.575 419.406 318.085 417.995 318.085C415.207 318.085 413.303 316.181 413.303 313.529C413.303 310.877 415.156 308.99 417.672 308.99C420.188 308.99 422.007 310.843 422.007 313.529ZM417.672 310.027C415.938 310.027 414.663 311.251 414.51 313.002H420.851C420.698 311.251 419.423 310.027 417.672 310.027ZM432.267 313.529C432.267 313.631 432.25 313.767 432.25 313.903H424.77C424.906 315.773 426.334 317.014 428.289 317.014C429.377 317.014 430.346 316.623 431.026 315.841L431.706 316.623C430.907 317.575 429.666 318.085 428.255 318.085C425.467 318.085 423.563 316.181 423.563 313.529C423.563 310.877 425.416 308.99 427.932 308.99C430.448 308.99 432.267 310.843 432.267 313.529ZM427.932 310.027C426.198 310.027 424.923 311.251 424.77 313.002H431.111C430.958 311.251 429.683 310.027 427.932 310.027ZM437.065 319.7L442.675 303.686H443.78L438.17 319.7H437.065ZM460.894 306.1H461.931V318H460.724V308.48L456.049 316.487H455.454L450.779 308.531V318H449.572V306.1H450.609L455.777 314.923L460.894 306.1ZM472.404 309.058H473.611V318H472.455V316.368C471.826 317.456 470.67 318.085 469.242 318.085C466.964 318.085 465.468 316.81 465.468 314.243V309.058H466.675V314.124C466.675 316.028 467.661 316.997 469.361 316.997C471.231 316.997 472.404 315.79 472.404 313.75V309.058ZM476.992 318V305.386H478.199V318H476.992ZM489.36 313.529C489.36 313.631 489.343 313.767 489.343 313.903H481.863C481.999 315.773 483.427 317.014 485.382 317.014C486.47 317.014 487.439 316.623 488.119 315.841L488.799 316.623C488 317.575 486.759 318.085 485.348 318.085C482.56 318.085 480.656 316.181 480.656 313.529C480.656 310.877 482.509 308.99 485.025 308.99C487.541 308.99 489.36 310.843 489.36 313.529ZM485.025 310.027C483.291 310.027 482.016 311.251 481.863 313.002H488.204C488.051 311.251 486.776 310.027 485.025 310.027ZM494.214 318.085C492.735 318.085 491.307 317.609 490.576 316.98L491.12 316.028C491.834 316.589 493.041 317.031 494.299 317.031C495.999 317.031 496.696 316.453 496.696 315.569C496.696 313.24 490.899 315.076 490.899 311.54C490.899 310.078 492.157 308.99 494.435 308.99C495.591 308.99 496.849 309.313 497.597 309.823L497.07 310.792C496.288 310.248 495.353 310.027 494.435 310.027C492.82 310.027 492.106 310.656 492.106 311.506C492.106 313.92 497.903 312.101 497.903 315.535C497.903 317.082 496.543 318.085 494.214 318.085ZM503.789 318.085C501.171 318.085 499.233 316.181 499.233 313.529C499.233 310.877 501.171 308.99 503.789 308.99C506.407 308.99 508.328 310.877 508.328 313.529C508.328 316.181 506.407 318.085 503.789 318.085ZM503.789 317.014C505.693 317.014 507.104 315.62 507.104 313.529C507.104 311.438 505.693 310.044 503.789 310.044C501.885 310.044 500.457 311.438 500.457 313.529C500.457 315.62 501.885 317.014 503.789 317.014ZM513.75 306.321C512.713 306.321 512.169 306.899 512.169 308.004V309.058H514.923V310.078H512.203V318H510.996V310.078H509.398V309.058H510.996V307.953C510.996 306.355 511.948 305.301 513.699 305.301C514.362 305.301 515.042 305.488 515.484 305.862L515.076 306.763C514.736 306.474 514.26 306.321 513.75 306.321ZM520.837 316.589L521.262 317.456C520.786 317.881 520.072 318.085 519.375 318.085C517.692 318.085 516.757 317.133 516.757 315.484V310.078H515.159V309.058H516.757V307.103H517.964V309.058H520.684V310.078H517.964V315.416C517.964 316.47 518.508 317.048 519.511 317.048C520.004 317.048 520.497 316.895 520.837 316.589ZM525.801 319.7L531.411 303.686H532.516L526.906 319.7H525.801ZM538.171 318.085C537.678 318.085 537.27 317.677 537.27 317.15C537.27 316.623 537.678 316.232 538.171 316.232C538.664 316.232 539.089 316.623 539.089 317.15C539.089 317.677 538.664 318.085 538.171 318.085ZM541.774 318.085C541.281 318.085 540.873 317.677 540.873 317.15C540.873 316.623 541.281 316.232 541.774 316.232C542.267 316.232 542.692 316.623 542.692 317.15C542.692 317.677 542.267 318.085 541.774 318.085ZM545.376 318.085C544.883 318.085 544.475 317.677 544.475 317.15C544.475 316.623 544.883 316.232 545.376 316.232C545.869 316.232 546.294 316.623 546.294 317.15C546.294 317.677 545.869 318.085 545.376 318.085ZM549.013 321.298H547.857C549.217 318.969 549.812 316.368 549.812 313.342C549.812 310.316 549.217 307.715 547.857 305.386H549.013C550.288 307.409 551.002 310.214 551.002 313.342C551.002 316.47 550.288 319.241 549.013 321.298Z" fill="white"/>
</g>
<path d="M1016 211L1010.23 221L1021.77 221L1016 211ZM1016 391L1021.77 381L1010.23 381L1016 391ZM1015 220L1015 382L1017 382L1017 220L1015 220Z" fill="#29B3A4"/>
<path d="M129.034 676L129.034 664.1H134.236C138.095 664.1 140.73 666.48 140.73 670.05C140.73 673.62 138.095 676 134.236 676H129.034ZM131.244 674.13H134.134C136.786 674.13 138.503 672.515 138.503 670.05C138.503 667.585 136.786 665.97 134.134 665.97H131.244L131.244 674.13ZM146.343 666.82C148.961 666.82 150.474 668.061 150.474 670.679V676H148.468V674.895C147.958 675.677 146.972 676.119 145.612 676.119C143.538 676.119 142.229 674.98 142.229 673.399C142.229 671.886 143.249 670.696 146.003 670.696H148.349V670.56C148.349 669.319 147.601 668.588 146.088 668.588C145.068 668.588 144.014 668.928 143.334 669.489L142.501 667.942C143.47 667.194 144.881 666.82 146.343 666.82ZM146.054 674.572C147.091 674.572 147.992 674.096 148.349 673.161V672.107H146.156C144.711 672.107 144.32 672.651 144.32 673.314C144.32 674.079 144.966 674.572 146.054 674.572ZM158.063 673.994L158.658 675.507C158.148 675.915 157.383 676.119 156.618 676.119C154.629 676.119 153.49 675.065 153.49 673.059V668.69H151.994L151.994 666.99H153.49V664.916H155.615V666.99H158.046L158.046 668.69H155.615V673.008C155.615 673.892 156.057 674.368 156.873 674.368C157.315 674.368 157.74 674.249 158.063 673.994ZM163.874 666.82C166.492 666.82 168.005 668.061 168.005 670.679V676H165.999V674.895C165.489 675.677 164.503 676.119 163.143 676.119C161.069 676.119 159.76 674.98 159.76 673.399C159.76 671.886 160.78 670.696 163.534 670.696H165.88V670.56C165.88 669.319 165.132 668.588 163.619 668.588C162.599 668.588 161.545 668.928 160.865 669.489L160.032 667.942C161.001 667.194 162.412 666.82 163.874 666.82ZM163.585 674.572C164.622 674.572 165.523 674.096 165.88 673.161V672.107H163.687C162.242 672.107 161.851 672.651 161.851 673.314C161.851 674.079 162.497 674.572 163.585 674.572ZM177.845 674.147H184.56V676H175.635L175.635 664.1H184.322V665.953H177.845V669.047H183.591L183.591 670.866H177.845V674.147ZM194.83 676H192.433L190.104 672.855L187.758 676H185.412L188.948 671.393L185.565 666.922H187.928L190.155 669.897L192.382 666.922H194.677L191.277 671.359L194.83 676ZM200.265 676.119C197.392 676.119 195.352 674.181 195.352 671.461C195.352 668.741 197.392 666.82 200.265 666.82C202.033 666.82 203.444 667.551 204.141 668.928L202.509 669.88C201.965 669.013 201.149 668.622 200.248 668.622C198.684 668.622 197.494 669.71 197.494 671.461C197.494 673.229 198.684 674.3 200.248 674.3C201.149 674.3 201.965 673.909 202.509 673.042L204.141 673.994C203.444 675.354 202.033 676.119 200.265 676.119ZM211.045 666.82C213.221 666.82 214.836 668.061 214.836 670.798L214.836 676H212.711L212.711 671.07C212.711 669.455 211.912 668.673 210.552 668.673C209.039 668.673 208.019 669.591 208.019 671.41L208.019 676H205.894L205.894 663.386H208.019V667.976C208.716 667.228 209.787 666.82 211.045 666.82ZM221 666.82C223.618 666.82 225.131 668.061 225.131 670.679L225.131 676H223.125V674.895C222.615 675.677 221.629 676.119 220.269 676.119C218.195 676.119 216.886 674.98 216.886 673.399C216.886 671.886 217.906 670.696 220.66 670.696H223.006V670.56C223.006 669.319 222.258 668.588 220.745 668.588C219.725 668.588 218.671 668.928 217.991 669.489L217.158 667.942C218.127 667.194 219.538 666.82 221 666.82ZM220.711 674.572C221.748 674.572 222.649 674.096 223.006 673.161V672.107H220.813C219.368 672.107 218.977 672.651 218.977 673.314C218.977 674.079 219.623 674.572 220.711 674.572ZM233.009 666.82C235.185 666.82 236.8 668.061 236.8 670.798L236.8 676H234.675L234.675 671.07C234.675 669.455 233.876 668.673 232.516 668.673C231.003 668.673 229.983 669.591 229.983 671.41L229.983 676H227.858L227.858 666.922H229.881V668.095C230.578 667.262 231.683 666.82 233.009 666.82ZM246.566 666.922H248.589L248.589 674.623C248.589 677.921 246.872 679.417 243.693 679.417C241.993 679.417 240.31 678.975 239.273 678.125L240.225 676.527C241.024 677.19 242.316 677.615 243.574 677.615C245.58 677.615 246.464 676.697 246.464 674.861V674.385C245.716 675.201 244.645 675.592 243.421 675.592C240.82 675.592 238.831 673.824 238.831 671.189C238.831 668.554 240.82 666.82 243.421 666.82C244.696 666.82 245.818 667.228 246.566 668.129V666.922ZM243.744 673.79C245.342 673.79 246.498 672.736 246.498 671.189C246.498 669.659 245.342 668.622 243.744 668.622C242.129 668.622 240.973 669.659 240.973 671.189C240.973 672.736 242.129 673.79 243.744 673.79ZM259.917 671.512C259.917 671.682 259.9 671.937 259.883 672.141H252.76C253.015 673.467 254.12 674.317 255.701 674.317C256.721 674.317 257.52 673.994 258.166 673.331L259.305 674.64C258.489 675.609 257.214 676.119 255.65 676.119C252.607 676.119 250.635 674.164 250.635 671.461C250.635 668.758 252.624 666.82 255.327 666.82C257.979 666.82 259.917 668.673 259.917 671.512ZM255.327 668.52C253.95 668.52 252.947 669.404 252.743 670.73H257.894C257.724 669.421 256.721 668.52 255.327 668.52Z" fill="#3B3838"/>
<path d="M299 687L289 681.226V692.774L299 687ZM89 687L99 692.774V681.226L89 687ZM290 686H98V688H290V686Z" fill="#35BCAE"/>
<defs>
<filter id="filter0_d_542_4000" x="321" y="391" width="235" height="70" filterUnits="userSpaceOnUse" color-interpolation-filters="sRGB">
<feFlood flood-opacity="0" result="BackgroundImageFix"/>
<feColorMatrix in="SourceAlpha" type="matrix" values="0 0 0 0 0 0 0 0 0 0 0 0 0 0 0 0 0 0 127 0" result="hardAlpha"/>
<feMorphology radius="2" operator="erode" in="SourceAlpha" result="effect1_dropShadow_542_4000"/>
<feOffset dy="4"/>
<feGaussianBlur stdDeviation="6"/>
<feComposite in2="hardAlpha" operator="out"/>
<feColorMatrix type="matrix" values="0 0 0 0 0.133333 0 0 0 0 0.133333 0 0 0 0 0.133333 0 0 0 0.08 0"/>
<feBlend mode="normal" in2="BackgroundImageFix" result="effect1_dropShadow_542_4000"/>
<feBlend mode="normal" in="SourceGraphic" in2="effect1_dropShadow_542_4000" result="shape"/>
</filter>
<filter id="filter1_d_542_4000" x="321" y="531" width="881" height="92" filterUnits="userSpaceOnUse" color-interpolation-filters="sRGB">
<feFlood flood-opacity="0" result="BackgroundImageFix"/>
<feColorMatrix in="SourceAlpha" type="matrix" values="0 0 0 0 0 0 0 0 0 0 0 0 0 0 0 0 0 0 127 0" result="hardAlpha"/>
<feMorphology radius="2" operator="erode" in="SourceAlpha" result="effect1_dropShadow_542_4000"/>
<feOffset dy="4"/>
<feGaussianBlur stdDeviation="6"/>
<feComposite in2="hardAlpha" operator="out"/>
<feColorMatrix type="matrix" values="0 0 0 0 0.133333 0 0 0 0 0.133333 0 0 0 0 0.133333 0 0 0 0.08 0"/>
<feBlend mode="normal" in2="BackgroundImageFix" result="effect1_dropShadow_542_4000"/>
<feBlend mode="normal" in="SourceGraphic" in2="effect1_dropShadow_542_4000" result="shape"/>
</filter>
<filter id="filter2_d_542_4000" x="321" y="149" width="235" height="70" filterUnits="userSpaceOnUse" color-interpolation-filters="sRGB">
<feFlood flood-opacity="0" result="BackgroundImageFix"/>
<feColorMatrix in="SourceAlpha" type="matrix" values="0 0 0 0 0 0 0 0 0 0 0 0 0 0 0 0 0 0 127 0" result="hardAlpha"/>
<feMorphology radius="2" operator="erode" in="SourceAlpha" result="effect1_dropShadow_542_4000"/>
<feOffset dy="4"/>
<feGaussianBlur stdDeviation="6"/>
<feComposite in2="hardAlpha" operator="out"/>
<feColorMatrix type="matrix" values="0 0 0 0 0.133333 0 0 0 0 0.133333 0 0 0 0 0.133333 0 0 0 0.08 0"/>
<feBlend mode="normal" in2="BackgroundImageFix" result="effect1_dropShadow_542_4000"/>
<feBlend mode="normal" in="SourceGraphic" in2="effect1_dropShadow_542_4000" result="shape"/>
</filter>
<filter id="filter3_d_542_4000" x="556" y="149" width="210" height="70" filterUnits="userSpaceOnUse" color-interpolation-filters="sRGB">
<feFlood flood-opacity="0" result="BackgroundImageFix"/>
<feColorMatrix in="SourceAlpha" type="matrix" values="0 0 0 0 0 0 0 0 0 0 0 0 0 0 0 0 0 0 127 0" result="hardAlpha"/>
<feMorphology radius="2" operator="erode" in="SourceAlpha" result="effect1_dropShadow_542_4000"/>
<feOffset dy="4"/>
<feGaussianBlur stdDeviation="6"/>
<feComposite in2="hardAlpha" operator="out"/>
<feColorMatrix type="matrix" values="0 0 0 0 0.133333 0 0 0 0 0.133333 0 0 0 0 0.133333 0 0 0 0.08 0"/>
<feBlend mode="normal" in2="BackgroundImageFix" result="effect1_dropShadow_542_4000"/>
<feBlend mode="normal" in="SourceGraphic" in2="effect1_dropShadow_542_4000" result="shape"/>
</filter>
<filter id="filter4_d_542_4000" x="321" y="259" width="629" height="92" filterUnits="userSpaceOnUse" color-interpolation-filters="sRGB">
<feFlood flood-opacity="0" result="BackgroundImageFix"/>
<feColorMatrix in="SourceAlpha" type="matrix" values="0 0 0 0 0 0 0 0 0 0 0 0 0 0 0 0 0 0 127 0" result="hardAlpha"/>
<feMorphology radius="2" operator="erode" in="SourceAlpha" result="effect1_dropShadow_542_4000"/>
<feOffset dy="4"/>
<feGaussianBlur stdDeviation="6"/>
<feComposite in2="hardAlpha" operator="out"/>
<feColorMatrix type="matrix" values="0 0 0 0 0.133333 0 0 0 0 0.133333 0 0 0 0 0.133333 0 0 0 0.08 0"/>
<feBlend mode="normal" in2="BackgroundImageFix" result="effect1_dropShadow_542_4000"/>
<feBlend mode="normal" in="SourceGraphic" in2="effect1_dropShadow_542_4000" result="shape"/>
</filter>
<linearGradient id="paint0_linear_542_4000" x1="331" y1="422" x2="546" y2="422" gradientUnits="userSpaceOnUse">
<stop stop-color="#1CA99A"/>
<stop offset="1" stop-color="#35BCAE"/>
</linearGradient>
<linearGradient id="paint1_linear_542_4000" x1="331" y1="573" x2="1192" y2="573" gradientUnits="userSpaceOnUse">
<stop stop-color="#1CA99A"/>
<stop offset="1" stop-color="#35BCAE"/>
</linearGradient>
<linearGradient id="paint2_linear_542_4000" x1="331" y1="180" x2="546" y2="180" gradientUnits="userSpaceOnUse">
<stop stop-color="#1CA99A"/>
<stop offset="1" stop-color="#35BCAE"/>
</linearGradient>
<linearGradient id="paint3_linear_542_4000" x1="566" y1="180" x2="756" y2="180" gradientUnits="userSpaceOnUse">
<stop stop-color="#1CA99A"/>
<stop offset="1" stop-color="#35BCAE"/>
</linearGradient>
<linearGradient id="paint4_linear_542_4000" x1="331" y1="301" x2="940" y2="301" gradientUnits="userSpaceOnUse">
<stop stop-color="#1CA99A"/>
<stop offset="1" stop-color="#35BCAE"/>
</linearGradient>
</defs>
</svg>
