<svg width="23" height="23" viewBox="0 0 23 23" fill="none" xmlns="http://www.w3.org/2000/svg">
<g clip-path="url(#clip0_11741_591)">
<path d="M19.124 4.5053C17.7218 3.86192 16.2181 3.38789 14.6459 3.11637C14.6173 3.11113 14.5887 3.12424 14.574 3.1504C14.3806 3.49437 14.1664 3.94305 14.0164 4.29574C12.3254 4.04257 10.6431 4.04257 8.98683 4.29574C8.83679 3.93523 8.61481 3.49437 8.42055 3.1504C8.40581 3.1251 8.37719 3.11199 8.34858 3.11637C6.77729 3.38699 5.27365 3.86102 3.87054 4.5053C3.85838 4.51054 3.84799 4.51926 3.84107 4.5306C0.988974 8.7916 0.20763 12.9479 0.590911 17.0526C0.59263 17.0727 0.603931 17.0919 0.619528 17.1041C2.50126 18.486 4.32408 19.3249 6.113 19.881C6.14161 19.8897 6.17195 19.8793 6.19017 19.8557C6.61333 19.2778 6.99055 18.6685 7.31397 18.0277C7.33305 17.9902 7.31483 17.9457 7.27582 17.9308C6.67748 17.7038 6.10776 17.4271 5.55969 17.1128C5.51633 17.0875 5.51285 17.0255 5.55277 16.9958C5.6681 16.9094 5.78347 16.8195 5.8936 16.7287C5.91354 16.7121 5.94129 16.7086 5.96471 16.7191C9.56515 18.3629 13.4631 18.3629 17.021 16.7191C17.0444 16.7077 17.0722 16.7113 17.093 16.7278C17.2031 16.8186 17.3185 16.9094 17.4347 16.9958C17.4745 17.0255 17.4719 17.0875 17.4286 17.1128C16.8805 17.4332 16.3108 17.7038 15.7116 17.9299C15.6726 17.9447 15.6552 17.9901 15.6744 18.0276C16.0047 18.6675 16.382 19.2769 16.7973 19.8548C16.8147 19.8793 16.8459 19.8897 16.8745 19.881C18.6721 19.3249 20.4949 18.486 22.3766 17.104C22.3931 17.0918 22.4035 17.0735 22.4052 17.0534C22.864 12.3079 21.6369 8.1857 19.1525 4.53142C19.1465 4.51926 19.1361 4.51054 19.124 4.5053ZM7.85173 14.5532C6.76775 14.5532 5.87456 13.5581 5.87456 12.3359C5.87456 11.1137 6.7504 10.1185 7.85173 10.1185C8.96165 10.1185 9.84621 11.1224 9.82885 12.3359C9.82885 13.5581 8.95297 14.5532 7.85173 14.5532ZM15.1619 14.5532C14.0779 14.5532 13.1848 13.5581 13.1848 12.3359C13.1848 11.1137 14.0606 10.1185 15.1619 10.1185C16.2718 10.1185 17.1564 11.1224 17.139 12.3359C17.139 13.5581 16.2719 14.5532 15.1619 14.5532Z" fill="#5E569B"/>
</g>
<defs>
<clipPath id="clip0_11741_591">
<rect width="22" height="22" fill="white" transform="translate(0.5 0.5)"/>
</clipPath>
</defs>
</svg>
