<svg width="80" height="80" viewBox="0 0 80 80" fill="none" xmlns="http://www.w3.org/2000/svg">
<rect width="80" height="80" rx="12" fill="#F1F6FB"/>
<path d="M45.8652 59.7773H34.0527V64.8272H45.8652V59.7773Z" fill="#C5D3DD"/>
<path d="M36.223 59.7773H34.0527V64.8272H36.223V59.7773Z" fill="#B6C4CF"/>
<path d="M51.389 67.4531C51.389 67.7539 51.1429 68 50.8421 68H29.0762C28.7754 68 28.5293 67.7539 28.5293 67.4531V65.2656C28.5293 64.9648 28.7754 64.7188 29.0762 64.7188H50.8421C51.1429 64.7188 51.389 64.9648 51.389 65.2656V67.4531Z" fill="#B6C4CF"/>
<path d="M30.6995 67.4531V65.2656C30.6995 64.9648 30.9456 64.7188 31.2464 64.7188H29.0762C28.7754 64.7188 28.5293 64.9648 28.5293 65.2656V67.4531C28.5293 67.7539 28.7754 68 29.0762 68H31.2464C30.9456 68 30.6995 67.7539 30.6995 67.4531Z" fill="#87939C"/>
<path d="M14.9531 58.7935C14.9531 59.395 15.4453 59.8872 16.0469 59.8872H64.9611V52.5645H14.9531V58.7935Z" fill="#D9E7EC"/>
<path d="M17.1233 58.7935V52.5645H14.9531V58.7935C14.9531 59.395 15.4453 59.8872 16.0469 59.8872H18.2171C17.6155 59.8872 17.1233 59.395 17.1233 58.7935Z" fill="#C5D3DD"/>
<path d="M48.8785 49.6236C48.8785 49.3823 49.0747 49.1861 49.316 49.1861H64.9665V25.504C64.9665 24.8427 64.4255 24.3018 63.7643 24.3018H16.1554C15.4941 24.3018 14.9531 24.8427 14.9531 25.504V52.6747H48.8785V49.6236Z" fill="#6851A2"/>
<path d="M49.316 49.1861C49.0747 49.1861 48.8785 49.3823 48.8785 49.6236V52.6747H64.9665V49.1861H49.316Z" fill="#6851A2"/>
<path d="M48.8783 49.6224C48.8783 49.3811 49.0745 49.1849 49.3158 49.1849H62.5619V27.252C62.5619 26.9512 62.3158 26.7051 62.015 26.7051H17.9043C17.6035 26.7051 17.3574 26.9512 17.3574 27.252V49.7221C17.3574 50.0228 17.6035 50.2689 17.9043 50.2689H48.8782L48.8783 49.6224Z" fill="#EEF6FF"/>
<path d="M49.3158 49.1849C49.0745 49.1849 48.8783 49.3811 48.8783 49.6224L48.8782 50.2689H61.7779C62.2109 50.2689 62.5619 49.9179 62.5619 49.4849V49.1849H49.3158Z" fill="#EEF6FF"/>
<path d="M25.3052 46.0127H20.5898C20.1368 46.0127 19.7695 45.6455 19.7695 45.1924C19.7695 44.7392 20.1368 44.3721 20.5898 44.3721H25.3052C25.7582 44.3721 26.1255 44.7392 26.1255 45.1924C26.1255 45.6455 25.7582 46.0127 25.3052 46.0127Z" fill="#C3DDF4"/>
<path d="M25.3052 48.5059H20.5898C20.1368 48.5059 19.7695 48.1387 19.7695 47.6855C19.7695 47.2324 20.1368 46.8652 20.5898 46.8652H25.3052C25.7582 46.8652 26.1255 47.2324 26.1255 47.6855C26.1255 48.1387 25.7582 48.5059 25.3052 48.5059Z" fill="#C3DDF4"/>
<path d="M30.9948 46.0127H27.4883C27.0352 46.0127 26.668 45.6455 26.668 45.1924C26.668 44.7392 27.0352 44.3721 27.4883 44.3721H30.9948C31.4479 44.3721 31.8152 44.7392 31.8152 45.1924C31.8152 45.6455 31.4479 46.0127 30.9948 46.0127Z" fill="#C3DDF4"/>
<path d="M30.9948 48.5059H27.4883C27.0352 48.5059 26.668 48.1387 26.668 47.6855C26.668 47.2324 27.0352 46.8652 27.4883 46.8652H30.9948C31.4479 46.8652 31.8152 47.2324 31.8152 47.6855C31.8152 48.1387 31.4479 48.5059 30.9948 48.5059Z" fill="#C3DDF4"/>
<path d="M37.611 46.0127H33.1445C32.6915 46.0127 32.3242 45.6455 32.3242 45.1924C32.3242 44.7392 32.6915 44.3721 33.1445 44.3721H37.611C38.064 44.3721 38.4313 44.7392 38.4313 45.1924C38.4313 45.6455 38.064 46.0127 37.611 46.0127Z" fill="#C3DDF4"/>
<path d="M37.611 48.5059H33.1445C32.6915 48.5059 32.3242 48.1387 32.3242 47.6855C32.3242 47.2324 32.6915 46.8652 33.1445 46.8652H37.611C38.064 46.8652 38.4313 47.2324 38.4313 47.6855C38.4313 48.1387 38.064 48.5059 37.611 48.5059Z" fill="#C3DDF4"/>
<path d="M39.959 57.8409C40.7993 57.8409 41.4805 57.1597 41.4805 56.3194C41.4805 55.4791 40.7993 54.7979 39.959 54.7979C39.1187 54.7979 38.4375 55.4791 38.4375 56.3194C38.4375 57.1597 39.1187 57.8409 39.959 57.8409Z" fill="#445EA0"/>
<path d="M52.1995 29.0469V33.8073C52.1995 36.6501 50.5014 39.2314 47.875 40.3221C42.6762 42.4833 36.8104 42.4833 31.6116 40.3221C28.9852 39.2314 27.2871 36.6501 27.2871 33.8073V29.0469H52.1995Z" fill="#665E66"/>
<path d="M43.0086 41.69C39.1867 42.2849 35.2375 41.8297 31.6116 40.3221C28.9852 39.2314 27.2871 36.6501 27.2871 33.8073V29.0469H33.8166V33.8073C33.8166 36.6501 35.5146 39.2314 38.141 40.3221C39.7151 40.9767 41.35 41.433 43.0086 41.69Z" fill="#454045"/>
<path d="M52.1992 29.0469V30.9556L42.0034 36.3572C40.5893 37.1053 38.8969 37.1053 37.4829 36.3572L27.2871 30.9556V29.0469H52.1992Z" fill="#454045"/>
<path d="M58.3437 21.2183L42.0027 12.5617C40.5892 11.8128 38.8965 11.8128 37.4828 12.5617L21.1419 21.2183C19.3069 22.1903 19.3069 24.8191 21.1419 25.7911L37.4828 34.4478C38.8964 35.1967 40.5891 35.1967 42.0027 34.4478L58.3437 25.7911C60.1787 24.8191 60.1787 22.1904 58.3437 21.2183Z" fill="#665E66"/>
<path d="M47.0117 43.7036C46.6384 43.7036 46.3356 43.4009 46.3356 43.0276V32.0491L39.2341 23.9509C38.988 23.6702 39.016 23.2431 39.2967 22.9969C39.5772 22.7507 40.0046 22.7788 40.2508 23.0594L47.52 31.3488C47.6281 31.4722 47.6878 31.6306 47.6878 31.7945V43.0275C47.6877 43.401 47.3851 43.7036 47.0117 43.7036Z" fill="#D59800"/>
<path d="M46.0505 43.1807L44.6964 45.5261C43.861 46.973 44.9052 48.7817 46.576 48.7817H47.4466C49.1173 48.7817 50.1615 46.973 49.3262 45.5261L47.972 43.1807C47.545 42.4411 46.4775 42.4411 46.0505 43.1807Z" fill="#FDC010"/>
</svg>
