<svg width="80" height="80" viewBox="0 0 80 80" fill="none" xmlns="http://www.w3.org/2000/svg">
<rect width="80" height="80" rx="12" fill="#F1F6FB"/>
<path d="M66.3524 62.3525V23.7715H13.6465V62.3525C13.6465 64.3955 15.3027 66.0517 17.3457 66.0517H62.6531C64.6962 66.0517 66.3524 64.3955 66.3524 62.3525Z" fill="#EBEBEB"/>
<path d="M66.3524 23.7718V17.6459C66.3524 15.6031 64.6964 13.9473 62.6537 13.9473H17.3451C15.3025 13.9473 13.6465 15.6031 13.6465 17.6459V23.7718H66.3524Z" fill="#6851A2"/>
<path d="M58.885 20.9868C60.0598 20.9868 61.0122 20.0344 61.0122 18.8596C61.0122 17.6848 60.0598 16.7324 58.885 16.7324C57.7102 16.7324 56.7578 17.6848 56.7578 18.8596C56.7578 20.0344 57.7102 20.9868 58.885 20.9868Z" fill="white"/>
<path d="M50.7854 20.9868C51.9602 20.9868 52.9126 20.0344 52.9126 18.8596C52.9126 17.6848 51.9602 16.7324 50.7854 16.7324C49.6106 16.7324 48.6582 17.6848 48.6582 18.8596C48.6582 20.0344 49.6106 20.9868 50.7854 20.9868Z" fill="white"/>
<path d="M42.6858 20.9868C43.8606 20.9868 44.8129 20.0344 44.8129 18.8596C44.8129 17.6848 43.8606 16.7324 42.6858 16.7324C41.511 16.7324 40.5586 17.6848 40.5586 18.8596C40.5586 20.0344 41.511 20.9868 42.6858 20.9868Z" fill="white"/>
<path d="M52.8311 44.912C52.8311 52.0033 47.0851 57.7378 39.9938 57.7378C32.9143 57.7378 27.168 52.0033 27.168 44.912C27.168 37.8207 32.9143 32.0862 39.9938 32.0862C47.0851 32.0862 52.8311 37.8207 52.8311 44.912Z" fill="#ED2B4A"/>
<path d="M45.0152 45.7591L37.7231 50.4792C37.0518 50.9137 36.166 50.4319 36.166 49.6323V40.1922C36.166 39.3926 37.0518 38.9107 37.7231 39.3452L45.0152 44.0653C45.6294 44.4629 45.6294 45.3616 45.0152 45.7591Z" fill="white"/>
<path d="M36.441 19.7601H18.9879C18.4909 19.7601 18.0879 19.3575 18.0879 18.86C18.0879 18.3625 18.4909 17.96 18.9879 17.96H36.441C36.9381 17.96 37.3411 18.3625 37.3411 18.86C37.3411 19.3575 36.9381 19.7601 36.441 19.7601Z" fill="white"/>
</svg>
