<svg width="80" height="80" viewBox="0 0 80 80" fill="none" xmlns="http://www.w3.org/2000/svg">
<rect width="80" height="80" rx="12" fill="#F1F6FB"/>
<path d="M40 64.0625C52.0812 64.0625 61.875 54.2687 61.875 42.1875C61.875 30.1063 52.0812 20.3125 40 20.3125C27.9188 20.3125 18.125 30.1063 18.125 42.1875C18.125 54.2687 27.9188 64.0625 40 64.0625Z" fill="#F1F2F2"/>
<path d="M40 54.5469C46.8259 54.5469 52.3594 49.0134 52.3594 42.1875C52.3594 35.3616 46.8259 29.8281 40 29.8281C33.1741 29.8281 27.6406 35.3616 27.6406 42.1875C27.6406 49.0134 33.1741 54.5469 40 54.5469Z" fill="#BBFFFF"/>
<g clip-path="url(#clip0_11741_508)">
<path d="M45.1548 37.4584C44.2068 37.0234 43.1901 36.7029 42.1271 36.5193C42.1077 36.5158 42.0884 36.5246 42.0784 36.5423C41.9477 36.7749 41.8028 37.0783 41.7014 37.3167C40.5581 37.1456 39.4206 37.1456 38.3008 37.3167C38.1993 37.073 38.0492 36.7749 37.9179 36.5423C37.9079 36.5252 37.8886 36.5164 37.8692 36.5193C36.8068 36.7023 35.7901 37.0228 34.8414 37.4584C34.8332 37.462 34.8262 37.4679 34.8215 37.4755C32.8931 40.3566 32.3648 43.1668 32.624 45.9421C32.6251 45.9557 32.6328 45.9687 32.6433 45.9769C33.9156 46.9113 35.1481 47.4785 36.3577 47.8545C36.377 47.8604 36.3975 47.8533 36.4098 47.8374C36.6959 47.4467 36.951 47.0347 37.1697 46.6014C37.1826 46.576 37.1703 46.5459 37.1439 46.5359C36.7393 46.3824 36.3541 46.1953 35.9835 45.9828C35.9542 45.9657 35.9519 45.9238 35.9789 45.9037C36.0568 45.8453 36.1348 45.7845 36.2093 45.7231C36.2228 45.7119 36.2416 45.7095 36.2574 45.7166C38.6918 46.8281 41.3273 46.8281 43.733 45.7166C43.7488 45.7089 43.7676 45.7113 43.7816 45.7225C43.8561 45.7839 43.9341 45.8453 44.0126 45.9037C44.0396 45.9238 44.0378 45.9657 44.0085 45.9828C43.638 46.1994 43.2528 46.3824 42.8476 46.5353C42.8212 46.5453 42.8095 46.576 42.8224 46.6014C43.0458 47.034 43.3009 47.446 43.5817 47.8368C43.5934 47.8533 43.6145 47.8604 43.6339 47.8545C44.8493 47.4785 46.0818 46.9113 47.3541 45.9769C47.3652 45.9686 47.3723 45.9562 47.3734 45.9427C47.6836 42.7341 46.8539 39.9469 45.1741 37.4761C45.1701 37.4679 45.163 37.462 45.1548 37.4584ZM37.5333 44.2522C36.8004 44.2522 36.1964 43.5793 36.1964 42.753C36.1964 41.9266 36.7886 41.2537 37.5333 41.2537C38.2837 41.2537 38.8818 41.9325 38.8701 42.753C38.8701 43.5793 38.2779 44.2522 37.5333 44.2522ZM42.4759 44.2522C41.743 44.2522 41.1391 43.5793 41.1391 42.753C41.1391 41.9266 41.7313 41.2537 42.4759 41.2537C43.2264 41.2537 43.8245 41.9325 43.8128 42.753C43.8128 43.5793 43.2264 44.2522 42.4759 44.2522Z" fill="#1C857A"/>
</g>
<path d="M19.9612 47.2482C19.7621 47.2482 19.5821 47.1113 19.5353 46.9089C19.18 45.3692 19 43.7808 19 42.1874C19 39.8838 19.3725 37.618 20.1073 35.4532C20.185 35.2244 20.4332 35.1017 20.6621 35.1796C20.8909 35.2572 21.0134 35.5057 20.9357 35.7345C20.232 37.8085 19.875 39.9796 19.875 42.1874C19.875 43.7145 20.0476 45.237 20.388 46.7123C20.4422 46.9479 20.2952 47.1826 20.0598 47.2368C20.0266 47.2447 19.9938 47.2482 19.9612 47.2482ZM21.1542 34.4004C21.0958 34.4004 21.0366 34.3886 20.9797 34.3638C20.7581 34.2674 20.6568 34.0095 20.7535 33.7881L20.8176 33.6433C20.9171 33.4232 21.1759 33.3252 21.3964 33.4245C21.6167 33.5241 21.7145 33.7831 21.6149 34.0033L21.5557 34.1374C21.4837 34.3022 21.3229 34.4004 21.1542 34.4004Z" fill="white"/>
<path d="M54.3371 25.6641C57.6709 29.5033 59.6891 34.5158 59.6891 39.9996C59.6891 52.081 49.8954 61.8746 37.8141 61.8746C32.3302 61.8746 27.3178 59.8564 23.4785 56.5227C27.4893 61.1414 33.4043 64.0621 40.0016 64.0621C52.0829 64.0621 61.8766 54.2685 61.8766 42.1871C61.8766 35.5898 58.9558 29.6748 54.3371 25.6641Z" fill="#E6E7E8"/>
<path d="M54.9105 26.1836C58.5522 30.0907 60.7815 35.3315 60.7815 41.094C60.7815 53.1754 50.9879 62.969 38.9065 62.969C33.1442 62.969 27.9032 60.7397 23.9961 57.0982C27.9896 61.3824 33.6815 64.0628 40.0003 64.0628C52.0816 64.0628 61.8753 54.2691 61.8753 42.1878C61.8753 35.869 59.1949 30.1769 54.9105 26.1836Z" fill="#D1D3D4"/>
<path d="M64.5935 65.7889H50.4082C49.8042 65.7889 49.3145 65.2991 49.3145 64.6951V59.7002C49.3145 57.8881 50.7836 56.4189 52.5957 56.4189H62.406C64.2181 56.4189 65.6872 57.8881 65.6872 59.7002V64.6951C65.6872 65.2991 65.1975 65.7889 64.5935 65.7889Z" fill="#1CA99A"/>
<path d="M64.1116 56.9014C64.4154 57.3988 64.5935 57.9813 64.5935 58.607V63.6019C64.5935 64.2059 64.1037 64.6957 63.4997 64.6957H49.3145C49.3145 65.2996 49.8042 65.7894 50.4082 65.7894H64.5935C65.1975 65.7894 65.6872 65.2996 65.6872 64.6957V59.7007C65.6875 58.514 65.0553 57.4776 64.1116 56.9014Z" fill="#1C857A"/>
<path d="M62.6439 53.4573C62.6439 56.2858 60.3411 58.5785 57.5007 58.5785C54.66 58.5785 52.3574 56.2855 52.3574 53.4573C52.3574 50.6289 54.6602 48.3359 57.5007 48.3359C60.3411 48.3359 62.6439 50.6289 62.6439 53.4573Z" fill="#FFD2C0"/>
<path d="M60.5554 49.3379C61.1802 50.1858 61.5499 51.2316 61.5499 52.3639C61.5499 55.1923 59.2471 57.4852 56.4066 57.4852C55.2623 57.4852 54.2058 57.1127 53.3516 56.4836C54.2876 57.7539 55.797 58.579 57.5004 58.579C60.3408 58.579 62.6436 56.286 62.6436 53.4576C62.6436 51.7684 61.822 50.2706 60.5554 49.3379Z" fill="#FCC4AE"/>
<path d="M29.5937 65.7889H15.4082C14.8042 65.7889 14.3145 65.2991 14.3145 64.6951V59.7002C14.3145 57.8881 15.7836 56.4189 17.5957 56.4189H27.406C29.2181 56.4189 30.6872 57.8881 30.6872 59.7002V64.6951C30.6875 65.2991 30.1977 65.7889 29.5937 65.7889Z" fill="#ED2B4A"/>
<path d="M29.1116 56.9014C29.4154 57.3988 29.5935 57.9813 29.5935 58.607V63.6019C29.5935 64.2059 29.1037 64.6957 28.4997 64.6957H14.3145C14.3145 65.2996 14.8042 65.7894 15.4082 65.7894H29.5935C30.1975 65.7894 30.6872 65.2996 30.6872 64.6957V59.7007C30.6875 58.514 30.0553 57.4776 29.1116 56.9014Z" fill="#B73451"/>
<path d="M27.6439 53.4573C27.6439 56.2858 25.3411 58.5785 22.5007 58.5785C19.66 58.5785 17.3574 56.2855 17.3574 53.4573C17.3574 50.6289 19.6602 48.3359 22.5007 48.3359C25.3411 48.3359 27.6439 50.6289 27.6439 53.4573Z" fill="#FFD2C0"/>
<path d="M25.5554 49.3379C26.1802 50.1858 26.5499 51.2316 26.5499 52.3639C26.5499 55.1923 24.2471 57.4852 21.4066 57.4852C20.2623 57.4852 19.2058 57.1127 18.3516 56.4836C19.2876 57.7539 20.797 58.579 22.5004 58.579C25.3408 58.579 27.6436 56.286 27.6436 53.4576C27.6436 51.7684 26.822 50.2706 25.5554 49.3379Z" fill="#FCC4AE"/>
<path d="M64.5935 31.6641H50.4082C49.8042 31.6641 49.3145 31.1743 49.3145 30.5704V25.5754C49.3145 23.7633 50.7836 22.2942 52.5957 22.2942H62.406C64.2181 22.2942 65.6872 23.7633 65.6872 25.5754V30.5704C65.6872 31.1743 65.1975 31.6641 64.5935 31.6641Z" fill="#7169A9"/>
<path d="M64.1116 22.7764C64.4154 23.2738 64.5935 23.8563 64.5935 24.482V29.4769C64.5935 30.0809 64.1037 30.5706 63.4997 30.5706H49.3145C49.3145 31.1746 49.8042 31.6644 50.4082 31.6644H64.5935C65.1975 31.6644 65.6872 31.1746 65.6872 30.5706V25.5757C65.6875 24.389 65.0553 23.3526 64.1116 22.7764Z" fill="#6851A2"/>
<path d="M62.6439 19.3323C62.6439 22.1608 60.3411 24.4535 57.5007 24.4535C54.66 24.4535 52.3574 22.1605 52.3574 19.3323C52.3574 16.5041 54.6602 14.2109 57.5007 14.2109C60.3411 14.2109 62.6439 16.5039 62.6439 19.3323Z" fill="#FFD2C0"/>
<path d="M60.5554 15.2129C61.1802 16.0608 61.5499 17.1066 61.5499 18.2389C61.5499 21.0673 59.2471 23.3602 56.4066 23.3602C55.2623 23.3602 54.2058 22.9877 53.3516 22.3586C54.2876 23.6289 55.797 24.454 57.5004 24.454C60.3408 24.454 62.6436 22.161 62.6436 19.3326C62.6436 17.6434 61.822 16.1456 60.5554 15.2129Z" fill="#FCC4AE"/>
<path d="M29.5937 31.6641H15.4082C14.8042 31.6641 14.3145 31.1743 14.3145 30.5704V25.5754C14.3145 23.7633 15.7836 22.2942 17.5957 22.2942H27.406C29.2181 22.2942 30.6872 23.7633 30.6872 25.5754V30.5704C30.6875 31.1743 30.1977 31.6641 29.5937 31.6641Z" fill="#FDC010"/>
<path d="M29.1116 22.7764C29.4154 23.2738 29.5935 23.8563 29.5935 24.482V29.4769C29.5935 30.0809 29.1037 30.5706 28.4997 30.5706H14.3145C14.3145 31.1746 14.8042 31.6644 15.4082 31.6644H29.5935C30.1975 31.6644 30.6872 31.1746 30.6872 30.5706V25.5757C30.6875 24.389 30.0553 23.3526 29.1116 22.7764Z" fill="#D59800"/>
<path d="M27.6439 19.3323C27.6439 22.1608 25.3411 24.4535 22.5007 24.4535C19.66 24.4535 17.3574 22.1605 17.3574 19.3323C17.3574 16.5041 19.6602 14.2109 22.5007 14.2109C25.3411 14.2109 27.6439 16.5039 27.6439 19.3323Z" fill="#FFD2C0"/>
<path d="M25.5554 15.2129C26.1802 16.0608 26.5499 17.1066 26.5499 18.2389C26.5499 21.0673 24.2471 23.3602 21.4066 23.3602C20.2623 23.3602 19.2058 22.9877 18.3516 22.3586C19.2876 23.6286 20.797 24.4538 22.5004 24.4538C25.3408 24.4538 27.6436 22.1608 27.6436 19.3324C27.6436 17.6434 26.822 16.1456 25.5554 15.2129Z" fill="#FCC4AE"/>
<defs>
<clipPath id="clip0_11741_508">
<rect width="14.875" height="14.875" fill="white" transform="translate(32.5625 34.75)"/>
</clipPath>
</defs>
</svg>
