<svg width="80" height="80" viewBox="0 0 80 80" fill="none" xmlns="http://www.w3.org/2000/svg">
<rect width="80" height="80" rx="12" fill="#F1F6FB"/>
<g clip-path="url(#clip0_11741_366)">
<path d="M54.7708 62.784H25.7858C24.5412 62.784 23.5323 61.7751 23.5323 60.5305V18.9141H19.7973C18.4336 18.9141 17.3281 20.0195 17.3281 21.3832V65.5314C17.3281 66.895 18.4336 68.0005 19.7973 68.0005H52.3018C53.6655 68.0005 54.7709 66.895 54.7709 65.5313V62.784H54.7708Z" fill="#6851A2"/>
<path d="M23.5327 18.9141V60.5305C23.5327 61.7751 24.5416 62.784 25.7862 62.784H54.7712V65.5314C54.7712 66.0123 54.6332 66.4609 54.3954 66.8404H23.7484C22.3848 66.8404 21.2793 65.7349 21.2793 64.3712V62.5684L22.4061 20.223L23.5327 18.9141Z" fill="#553B95"/>
<path d="M58.7219 58.8334H29.7369C28.4923 58.8334 27.4834 57.8245 27.4834 56.5799V15.9512H23.7484C22.3848 15.9512 21.2793 17.0566 21.2793 18.4204V62.5684C21.2793 63.9321 22.3848 65.0376 23.7484 65.0376H56.2528C57.6165 65.0376 58.722 63.9321 58.722 62.5684V58.8334H58.7219Z" fill="#D59800"/>
<path d="M58.7219 58.8334H29.7369C28.4923 58.8334 27.4834 57.8245 27.4834 56.5799V15.9512H23.7484C22.3848 15.9512 21.2793 17.0566 21.2793 18.4204V62.5684C21.2793 63.9321 22.3848 65.0376 23.7484 65.0376H56.2528C57.6165 65.0376 58.722 63.9321 58.722 62.5684V58.8334H58.7219Z" fill="#FDC010"/>
<path d="M27.482 15.9512V56.5799C27.482 57.8245 28.4909 58.8334 29.7356 58.8334H58.7206V62.5684C58.7206 62.7694 58.696 62.9645 58.6507 63.1515H27.6976C26.334 63.1515 25.2285 62.046 25.2285 60.6823V58.6178L26.3553 55.5006V16.5343L27.482 15.9512Z" fill="#FDC010"/>
<path d="M27.482 15.9512V56.5799C27.482 57.8245 28.4909 58.8334 29.7356 58.8334H58.7206V62.5684C58.7206 62.7694 58.696 62.9645 58.6507 63.1515H27.6976C26.334 63.1515 25.2285 62.046 25.2285 60.6823V58.6178L26.3553 55.5006V16.5343L27.482 15.9512Z" fill="#E3AF30"/>
<path d="M59.9767 61.0864H27.6976C26.334 61.0864 25.2285 59.981 25.2285 58.6172V14.4692C25.2285 13.1055 26.334 12 27.6976 12H52.6684L62.4458 22.0027V58.6172C62.4459 59.981 61.3404 61.0864 59.9767 61.0864Z" fill="#EFEDEF"/>
<path d="M59.2913 18.623V58.6179C59.2913 59.9816 58.1859 61.087 56.8223 61.087H60.2025C61.5663 61.087 62.6716 59.9816 62.6716 58.6179V22.0033L59.2913 18.623Z" fill="#D7D0D6"/>
<path d="M62.6726 22.0027H55.1387C53.7753 22.0027 52.6699 20.8975 52.6699 19.534V12L62.6726 22.0027Z" fill="#B5ADB6"/>
<path d="M55.2279 31.1247H32.6751C32.2084 31.1247 31.8301 30.7463 31.8301 30.2796C31.8301 29.8129 32.2084 29.4346 32.6751 29.4346H55.2279C55.6946 29.4346 56.073 29.8129 56.073 30.2796C56.073 30.7463 55.6946 31.1247 55.2279 31.1247Z" fill="#B5ADB6"/>
<path d="M55.2279 37.3884H32.6751C32.2084 37.3884 31.8301 37.01 31.8301 36.5433C31.8301 36.0766 32.2084 35.6982 32.6751 35.6982H55.2279C55.6946 35.6982 56.073 36.0766 56.073 36.5433C56.073 37.01 55.6946 37.3884 55.2279 37.3884Z" fill="#B5ADB6"/>
<path d="M55.2279 43.6511H32.6751C32.2084 43.6511 31.8301 43.2727 31.8301 42.806C31.8301 42.3393 32.2084 41.9609 32.6751 41.9609H55.2279C55.6946 41.9609 56.073 42.3393 56.073 42.806C56.073 43.2727 55.6946 43.6511 55.2279 43.6511Z" fill="#B5ADB6"/>
</g>
<defs>
<clipPath id="clip0_11741_366">
<rect width="56" height="56" fill="white" transform="translate(12 12)"/>
</clipPath>
</defs>
</svg>
