<svg width="80" height="80" viewBox="0 0 80 80" fill="none" xmlns="http://www.w3.org/2000/svg">
<rect width="80" height="80" rx="12" fill="#F1F6FB"/>
<path d="M66.3504 23.2404V25.6296H13.6445V23.2404C13.6445 17.9604 17.9213 13.6836 23.2013 13.6836H56.7936C62.0737 13.6836 66.3504 17.9604 66.3504 23.2404Z" fill="#6851A2"/>
<path d="M66.3543 25.6329V53.9373C66.3543 59.2243 62.0718 63.4988 56.7931 63.4988H23.2013C17.9225 63.4988 13.6484 59.2243 13.6484 53.9373V25.6329H66.3543Z" fill="#E5E8EF"/>
<path d="M66.3504 53.9406V56.7591C66.3504 62.0391 62.0737 66.3159 56.7936 66.3159H23.2013C17.9213 66.3159 13.6445 62.0391 13.6445 56.7591V53.9406C13.6445 59.2206 17.9213 63.4973 23.2013 63.4973H56.7936C62.0737 63.4973 66.3504 59.2206 66.3504 53.9406Z" fill="#CDD4DF"/>
<path d="M23.2617 19.6563C23.2617 20.6669 22.4613 21.4883 21.4507 21.4883C20.4401 21.4883 19.6191 20.6669 19.6191 19.6563C19.6191 18.6457 20.4401 17.8242 21.4507 17.8242C22.4613 17.8242 23.2617 18.6457 23.2617 19.6563Z" fill="#ED2B4A"/>
<path d="M28.9575 19.6563C28.9575 20.6669 28.136 21.4883 27.1465 21.4883C26.1359 21.4883 25.3145 20.6669 25.3145 19.6563C25.3145 18.6457 26.1359 17.8242 27.1465 17.8242C28.136 17.8242 28.9575 18.6457 28.9575 19.6563Z" fill="#FDC010"/>
<path d="M34.6523 19.6563C34.6523 20.6669 33.8308 21.4883 32.8418 21.4883C31.8307 21.4883 31.0098 20.6669 31.0098 19.6563C31.0098 18.6457 31.8307 17.8242 32.8418 17.8242C33.8308 17.8242 34.6523 18.6457 34.6523 19.6563Z" fill="white"/>
<path d="M19.0098 30.0277C19.0098 30.2274 18.9286 30.4079 18.7983 30.5393C18.6669 30.6696 18.4865 30.7507 18.2867 30.7507H17.0589C16.6595 30.7507 16.3359 30.4271 16.3359 30.0277C16.3359 29.828 16.4171 29.6475 16.5474 29.5161C16.6787 29.3859 16.8592 29.3047 17.0589 29.3047H18.2867C18.6862 29.3047 19.0098 29.6283 19.0098 30.0277Z" fill="#CDD4DF"/>
<path d="M25.2776 30.0277C25.2776 30.2274 25.1965 30.4079 25.0662 30.5393C24.9348 30.6696 24.7543 30.7507 24.5546 30.7507H21.1742C20.7747 30.7507 20.4512 30.4271 20.4512 30.0277C20.4512 29.828 20.5323 29.6475 20.6626 29.5161C20.794 29.3859 20.9745 29.3047 21.1742 29.3047H24.5546C24.954 29.3047 25.2776 29.6283 25.2776 30.0277Z" fill="#CDD4DF"/>
<path d="M21.2171 33.3324C21.2171 33.5321 21.1359 33.7126 21.0056 33.8439C20.8743 33.9743 20.6938 34.0554 20.4941 34.0554H17.1136C16.7142 34.0554 16.3906 33.7318 16.3906 33.3324C16.3906 33.1327 16.4718 32.9522 16.6021 32.8208C16.7334 32.6906 16.9139 32.6094 17.1136 32.6094H20.4941C20.8935 32.6094 21.2171 32.933 21.2171 33.3324Z" fill="#CDD4DF"/>
<path d="M56.4223 42.9181L54.7378 41.3414C54.6976 41.3041 54.6747 41.251 54.6747 41.1963V34.5594C54.6747 33.3153 53.6622 32.3027 52.4176 32.3027H49.1251C48.5573 32.3027 48.0957 32.7644 48.0957 33.3321C48.0957 33.8995 48.5573 34.3616 49.1251 34.3616H52.4176C52.527 34.3616 52.6159 34.45 52.6159 34.5594V41.1963C52.6159 41.818 52.876 42.4183 53.33 42.8441L55.0149 44.4208C55.0672 44.4699 55.078 44.527 55.078 44.566C55.078 44.605 55.0672 44.6621 55.0149 44.7108L53.3308 46.2875C52.8764 46.7125 52.6159 47.3128 52.6159 47.9353V54.5718C52.6159 54.6812 52.527 54.7704 52.4176 54.7704H49.1251C48.5573 54.7704 48.0957 55.2321 48.0957 55.7999C48.0957 56.3672 48.5573 56.8293 49.1251 56.8293H52.4176C53.6622 56.8293 54.6747 55.8167 54.6747 54.5718V47.9353C54.6747 47.8806 54.6976 47.828 54.7378 47.7906L56.4219 46.2139C56.8763 45.7888 57.1368 45.1881 57.1368 44.5664C57.1368 43.9439 56.8763 43.3432 56.4223 42.9181Z" fill="#6851A2"/>
<path d="M30.877 54.7704H27.5848C27.4755 54.7704 27.3866 54.6812 27.3866 54.5718V47.9353C27.3866 47.3132 27.126 46.7125 26.6716 46.2875L24.9868 44.7104C24.9349 44.6621 24.9241 44.605 24.9241 44.566C24.9241 44.527 24.9349 44.4699 24.9872 44.4208L26.6716 42.8441C27.126 42.4191 27.3866 41.8184 27.3866 41.1963V34.5594C27.3866 34.45 27.4755 34.3616 27.5848 34.3616H30.877C31.4447 34.3616 31.9064 33.8995 31.9064 33.3321C31.9064 32.7644 31.4447 32.3027 30.877 32.3027H27.5848C26.3403 32.3027 25.3278 33.3153 25.3278 34.5594V41.1963C25.3278 41.251 25.3049 41.3037 25.2646 41.341L23.5798 42.9181C23.1258 43.3432 22.8652 43.9439 22.8652 44.5664C22.8652 45.1881 23.1258 45.7888 23.5802 46.2139L25.265 47.7906C25.3049 47.828 25.3278 47.8806 25.3278 47.9353V54.5718C25.3278 55.8167 26.3403 56.8293 27.5848 56.8293H30.877C31.4447 56.8293 31.9064 56.3672 31.9064 55.7999C31.9064 55.2321 31.4447 54.7704 30.877 54.7704Z" fill="#6851A2"/>
<path d="M37.5078 44.3685C37.4792 44.095 37.3461 43.8489 37.1326 43.676L34.3214 41.3948L37.1326 39.1136C37.3461 38.9403 37.4792 38.6942 37.5078 38.4208C37.5363 38.1474 37.4567 37.8792 37.2834 37.666C37.1105 37.4521 36.8644 37.319 36.5905 37.2905C36.3163 37.2631 36.0489 37.3419 35.8354 37.5148L32.0394 40.595C31.7969 40.7917 31.6582 41.0832 31.6582 41.3948C31.6582 41.7065 31.7969 41.998 32.039 42.1942L35.8354 45.2748C36.0179 45.4228 36.2483 45.5048 36.4836 45.5048C36.7956 45.5048 37.0871 45.3657 37.2834 45.1236C37.4567 44.9105 37.5363 44.6419 37.5078 44.3685Z" fill="#1CA99A"/>
<path d="M47.9647 46.9382L44.1683 43.858C43.9548 43.6843 43.6854 43.6051 43.4135 43.6336C43.1401 43.6618 42.894 43.7953 42.7203 44.0084C42.547 44.2223 42.4674 44.4901 42.4959 44.7636C42.5245 45.037 42.6576 45.2831 42.8711 45.4568L45.6823 47.7376L42.8711 50.0192C42.6576 50.1921 42.5245 50.4382 42.4959 50.7116C42.4674 50.9851 42.547 51.2537 42.7203 51.4668C42.9161 51.7089 43.2077 51.848 43.5201 51.848C43.7553 51.848 43.9853 51.766 44.1683 51.618L47.9643 48.5374C48.2067 48.3408 48.3455 48.0496 48.3455 47.7376C48.3455 47.426 48.2067 47.1344 47.9647 46.9382Z" fill="#1CA99A"/>
<path d="M43.1309 36.3735C42.9982 36.1327 42.7795 35.9578 42.5157 35.8814C42.2519 35.8041 41.9745 35.8355 41.7332 35.9682C41.4919 36.1009 41.317 36.3197 41.2406 36.5838L36.7852 51.9748C36.7088 52.2389 36.7397 52.5168 36.8724 52.7581C37.0051 52.9985 37.2239 53.1731 37.4873 53.2495C37.5806 53.2768 37.6771 53.2905 37.7744 53.2905C38.2296 53.2905 38.6361 52.9849 38.7628 52.5474L43.2182 37.1565C43.2946 36.8923 43.2636 36.614 43.1309 36.3735Z" fill="#1CA99A"/>
</svg>
